  0
SECTION
  2
BLOCKS
  0
ENDSEC
  0
SECTION
  2
ENTITIES
  0
LINE
  8
0
 10
47
 20
7
 11
-37.5
 21
7
  0
LINE
  8
0
 10
-37.5
 20
7
 11
-37.5
 21
-7
  0
LINE
  8
0
 10
-37.5
 20
-7
 11
-34
 21
-7
  0
LINE
  8
0
 10
-34
 20
-7
 11
-34
 21
-45
  0
LINE
  8
0
 10
-34
 20
-45
 11
-72.5
 21
-45
  0
LINE
  8
0
 10
-72.5
 20
-45
 11
-72.5
 21
-75
  0
LINE
  8
0
 10
-72.5
 20
-75
 11
-34
 21
-75
  0
LINE
  8
0
 10
-34
 20
-75
 11
-34
 21
-85
  0
LINE
  8
0
 10
-34
 20
-85
 11
47
 21
-85
  0
LINE
  8
0
 10
47
 20
-85
 11
47
 21
7
  0
LINE
  8
0
 10
-20
 20
-55
 11
-20
 21
-19
  0
LINE
  8
0
 10
-20
 20
-19
 11
20
 21
-19
  0
LINE
  8
0
 10
20
 20
-19
 11
20
 21
-55
  0
LINE
  8
0
 10
20
 20
-55
 11
-20
 21
-55
  0
LINE
  8
0
 10
-11.1472
 20
-70.2452
 11
-11.2937
 21
-70.2307
  0
LINE
  8
0
 10
-11.2937
 20
-70.2307
 11
-11.4389
 21
-70.2068
  0
LINE
  8
0
 10
-11.4389
 20
-70.2068
 11
-11.5823
 21
-70.1733
  0
LINE
  8
0
 10
-11.5823
 20
-70.1733
 11
-11.7232
 21
-70.1306
  0
LINE
  8
0
 10
-11.7232
 20
-70.1306
 11
-11.861
 21
-70.0787
  0
LINE
  8
0
 10
-11.861
 20
-70.0787
 11
-11.9951
 21
-70.018
  0
LINE
  8
0
 10
-11.9951
 20
-70.018
 11
-12.125
 21
-69.9485
  0
LINE
  8
0
 10
-12.125
 20
-69.9485
 11
-12.25
 21
-69.8708
  0
LINE
  8
0
 10
-12.25
 20
-69.8708
 11
-12.3697
 21
-69.785
  0
LINE
  8
0
 10
-12.3697
 20
-69.785
 11
-12.4835
 21
-69.6916
  0
LINE
  8
0
 10
-12.4835
 20
-69.6916
 11
-12.591
 21
-69.591
  0
LINE
  8
0
 10
-12.591
 20
-69.591
 11
-12.6916
 21
-69.4835
  0
LINE
  8
0
 10
-12.6916
 20
-69.4835
 11
-12.785
 21
-69.3697
  0
LINE
  8
0
 10
-12.785
 20
-69.3697
 11
-12.8708
 21
-69.25
  0
LINE
  8
0
 10
-12.8708
 20
-69.25
 11
-12.9485
 21
-69.125
  0
LINE
  8
0
 10
-12.9485
 20
-69.125
 11
-13.018
 21
-68.9951
  0
LINE
  8
0
 10
-13.018
 20
-68.9951
 11
-13.0787
 21
-68.861
  0
LINE
  8
0
 10
-13.0787
 20
-68.861
 11
-13.1306
 21
-68.7232
  0
LINE
  8
0
 10
-13.1306
 20
-68.7232
 11
-13.1733
 21
-68.5823
  0
LINE
  8
0
 10
-13.1733
 20
-68.5823
 11
-13.2068
 21
-68.4389
  0
LINE
  8
0
 10
-13.2068
 20
-68.4389
 11
-13.2307
 21
-68.2937
  0
LINE
  8
0
 10
-13.2307
 20
-68.2937
 11
-13.2452
 21
-68.1472
  0
LINE
  8
0
 10
-13.2452
 20
-68.1472
 11
-13.25
 21
-68
  0
LINE
  8
0
 10
-13.25
 20
-68
 11
-13.2452
 21
-67.8528
  0
LINE
  8
0
 10
-13.2452
 20
-67.8528
 11
-13.2307
 21
-67.7063
  0
LINE
  8
0
 10
-13.2307
 20
-67.7063
 11
-13.2068
 21
-67.561
  0
LINE
  8
0
 10
-13.2068
 20
-67.561
 11
-13.1733
 21
-67.4176
  0
LINE
  8
0
 10
-13.1733
 20
-67.4176
 11
-13.1306
 21
-67.2767
  0
LINE
  8
0
 10
-13.1306
 20
-67.2767
 11
-13.0787
 21
-67.139
  0
LINE
  8
0
 10
-13.0787
 20
-67.139
 11
-13.018
 21
-67.0048
  0
LINE
  8
0
 10
-13.018
 20
-67.0048
 11
-12.9485
 21
-66.875
  0
LINE
  8
0
 10
-12.9485
 20
-66.875
 11
-12.8708
 21
-66.75
  0
LINE
  8
0
 10
-12.8708
 20
-66.75
 11
-12.785
 21
-66.6303
  0
LINE
  8
0
 10
-12.785
 20
-66.6303
 11
-12.6916
 21
-66.5165
  0
LINE
  8
0
 10
-12.6916
 20
-66.5165
 11
-12.591
 21
-66.409
  0
LINE
  8
0
 10
-12.591
 20
-66.409
 11
-12.4835
 21
-66.3083
  0
LINE
  8
0
 10
-12.4835
 20
-66.3083
 11
-12.3697
 21
-66.215
  0
LINE
  8
0
 10
-12.3697
 20
-66.215
 11
-12.25
 21
-66.1292
  0
LINE
  8
0
 10
-12.25
 20
-66.1292
 11
-12.125
 21
-66.0514
  0
LINE
  8
0
 10
-12.125
 20
-66.0514
 11
-11.9951
 21
-65.982
  0
LINE
  8
0
 10
-11.9951
 20
-65.982
 11
-11.861
 21
-65.9213
  0
LINE
  8
0
 10
-11.861
 20
-65.9213
 11
-11.7232
 21
-65.8694
  0
LINE
  8
0
 10
-11.7232
 20
-65.8694
 11
-11.5823
 21
-65.8267
  0
LINE
  8
0
 10
-11.5823
 20
-65.8267
 11
-11.4389
 21
-65.7932
  0
LINE
  8
0
 10
-11.4389
 20
-65.7932
 11
-11.2937
 21
-65.7692
  0
LINE
  8
0
 10
-11.2937
 20
-65.7692
 11
-11.1472
 21
-65.7548
  0
LINE
  8
0
 10
-11.1472
 20
-65.7548
 11
-11
 21
-65.75
  0
LINE
  8
0
 10
-11
 20
-65.75
 11
-10.8528
 21
-65.7548
  0
LINE
  8
0
 10
-10.8528
 20
-65.7548
 11
-10.7063
 21
-65.7692
  0
LINE
  8
0
 10
-10.7063
 20
-65.7692
 11
-10.561
 21
-65.7932
  0
LINE
  8
0
 10
-10.561
 20
-65.7932
 11
-10.4176
 21
-65.8267
  0
LINE
  8
0
 10
-10.4176
 20
-65.8267
 11
-10.2767
 21
-65.8694
  0
LINE
  8
0
 10
-10.2767
 20
-65.8694
 11
-10.139
 21
-65.9213
  0
LINE
  8
0
 10
-10.139
 20
-65.9213
 11
-10.0048
 21
-65.982
  0
LINE
  8
0
 10
-10.0048
 20
-65.982
 11
-9.875
 21
-66.0514
  0
LINE
  8
0
 10
-9.875
 20
-66.0514
 11
-9.74995
 21
-66.1292
  0
LINE
  8
0
 10
-9.74995
 20
-66.1292
 11
-9.63028
 21
-66.215
  0
LINE
  8
0
 10
-9.63028
 20
-66.215
 11
-9.51646
 21
-66.3083
  0
LINE
  8
0
 10
-9.51646
 20
-66.3083
 11
-9.409
 21
-66.409
  0
LINE
  8
0
 10
-9.409
 20
-66.409
 11
-9.30835
 21
-66.5165
  0
LINE
  8
0
 10
-9.30835
 20
-66.5165
 11
-9.21495
 21
-66.6303
  0
LINE
  8
0
 10
-9.21495
 20
-66.6303
 11
-9.12918
 21
-66.75
  0
LINE
  8
0
 10
-9.12918
 20
-66.75
 11
-9.05144
 21
-66.875
  0
LINE
  8
0
 10
-9.05144
 20
-66.875
 11
-8.98203
 21
-67.0048
  0
LINE
  8
0
 10
-8.98203
 20
-67.0048
 11
-8.92126
 21
-67.139
  0
LINE
  8
0
 10
-8.92126
 20
-67.139
 11
-8.8694
 21
-67.2767
  0
LINE
  8
0
 10
-8.8694
 20
-67.2767
 11
-8.82666
 21
-67.4176
  0
LINE
  8
0
 10
-8.82666
 20
-67.4176
 11
-8.79323
 21
-67.561
  0
LINE
  8
0
 10
-8.79323
 20
-67.561
 11
-8.76924
 21
-67.7063
  0
LINE
  8
0
 10
-8.76924
 20
-67.7063
 11
-8.75481
 21
-67.8528
  0
LINE
  8
0
 10
-8.75481
 20
-67.8528
 11
-8.75
 21
-68
  0
LINE
  8
0
 10
-8.75
 20
-68
 11
-8.75481
 21
-68.1472
  0
LINE
  8
0
 10
-8.75481
 20
-68.1472
 11
-8.76924
 21
-68.2937
  0
LINE
  8
0
 10
-8.76924
 20
-68.2937
 11
-8.79323
 21
-68.4389
  0
LINE
  8
0
 10
-8.79323
 20
-68.4389
 11
-8.82666
 21
-68.5823
  0
LINE
  8
0
 10
-8.82666
 20
-68.5823
 11
-8.8694
 21
-68.7232
  0
LINE
  8
0
 10
-8.8694
 20
-68.7232
 11
-8.92126
 21
-68.861
  0
LINE
  8
0
 10
-8.92126
 20
-68.861
 11
-8.98203
 21
-68.9951
  0
LINE
  8
0
 10
-8.98203
 20
-68.9951
 11
-9.05144
 21
-69.125
  0
LINE
  8
0
 10
-9.05144
 20
-69.125
 11
-9.12918
 21
-69.25
  0
LINE
  8
0
 10
-9.12918
 20
-69.25
 11
-9.21495
 21
-69.3697
  0
LINE
  8
0
 10
-9.21495
 20
-69.3697
 11
-9.30835
 21
-69.4835
  0
LINE
  8
0
 10
-9.30835
 20
-69.4835
 11
-9.409
 21
-69.591
  0
LINE
  8
0
 10
-9.409
 20
-69.591
 11
-9.51646
 21
-69.6916
  0
LINE
  8
0
 10
-9.51646
 20
-69.6916
 11
-9.63028
 21
-69.785
  0
LINE
  8
0
 10
-9.63028
 20
-69.785
 11
-9.74995
 21
-69.8708
  0
LINE
  8
0
 10
-9.74995
 20
-69.8708
 11
-9.875
 21
-69.9485
  0
LINE
  8
0
 10
-9.875
 20
-69.9485
 11
-10.0048
 21
-70.018
  0
LINE
  8
0
 10
-10.0048
 20
-70.018
 11
-10.139
 21
-70.0787
  0
LINE
  8
0
 10
-10.139
 20
-70.0787
 11
-10.2767
 21
-70.1306
  0
LINE
  8
0
 10
-10.2767
 20
-70.1306
 11
-10.4176
 21
-70.1733
  0
LINE
  8
0
 10
-10.4176
 20
-70.1733
 11
-10.561
 21
-70.2068
  0
LINE
  8
0
 10
-10.561
 20
-70.2068
 11
-10.7063
 21
-70.2307
  0
LINE
  8
0
 10
-10.7063
 20
-70.2307
 11
-10.8528
 21
-70.2452
  0
LINE
  8
0
 10
-10.8528
 20
-70.2452
 11
-11
 21
-70.25
  0
LINE
  8
0
 10
-11
 20
-70.25
 11
-11.1472
 21
-70.2452
  0
LINE
  8
0
 10
10.8528
 20
-70.2452
 11
10.7063
 21
-70.2307
  0
LINE
  8
0
 10
10.7063
 20
-70.2307
 11
10.561
 21
-70.2068
  0
LINE
  8
0
 10
10.561
 20
-70.2068
 11
10.4176
 21
-70.1733
  0
LINE
  8
0
 10
10.4176
 20
-70.1733
 11
10.2767
 21
-70.1306
  0
LINE
  8
0
 10
10.2767
 20
-70.1306
 11
10.139
 21
-70.0787
  0
LINE
  8
0
 10
10.139
 20
-70.0787
 11
10.0048
 21
-70.018
  0
LINE
  8
0
 10
10.0048
 20
-70.018
 11
9.875
 21
-69.9485
  0
LINE
  8
0
 10
9.875
 20
-69.9485
 11
9.74995
 21
-69.8708
  0
LINE
  8
0
 10
9.74995
 20
-69.8708
 11
9.63028
 21
-69.785
  0
LINE
  8
0
 10
9.63028
 20
-69.785
 11
9.51646
 21
-69.6916
  0
LINE
  8
0
 10
9.51646
 20
-69.6916
 11
9.409
 21
-69.591
  0
LINE
  8
0
 10
9.409
 20
-69.591
 11
9.30835
 21
-69.4835
  0
LINE
  8
0
 10
9.30835
 20
-69.4835
 11
9.21495
 21
-69.3697
  0
LINE
  8
0
 10
9.21495
 20
-69.3697
 11
9.12918
 21
-69.25
  0
LINE
  8
0
 10
9.12918
 20
-69.25
 11
9.05144
 21
-69.125
  0
LINE
  8
0
 10
9.05144
 20
-69.125
 11
8.98203
 21
-68.9951
  0
LINE
  8
0
 10
8.98203
 20
-68.9951
 11
8.92126
 21
-68.861
  0
LINE
  8
0
 10
8.92126
 20
-68.861
 11
8.8694
 21
-68.7232
  0
LINE
  8
0
 10
8.8694
 20
-68.7232
 11
8.82666
 21
-68.5823
  0
LINE
  8
0
 10
8.82666
 20
-68.5823
 11
8.79323
 21
-68.4389
  0
LINE
  8
0
 10
8.79323
 20
-68.4389
 11
8.76924
 21
-68.2937
  0
LINE
  8
0
 10
8.76924
 20
-68.2937
 11
8.75481
 21
-68.1472
  0
LINE
  8
0
 10
8.75481
 20
-68.1472
 11
8.75
 21
-68
  0
LINE
  8
0
 10
8.75
 20
-68
 11
8.75481
 21
-67.8528
  0
LINE
  8
0
 10
8.75481
 20
-67.8528
 11
8.76924
 21
-67.7063
  0
LINE
  8
0
 10
8.76924
 20
-67.7063
 11
8.79323
 21
-67.561
  0
LINE
  8
0
 10
8.79323
 20
-67.561
 11
8.82666
 21
-67.4176
  0
LINE
  8
0
 10
8.82666
 20
-67.4176
 11
8.8694
 21
-67.2767
  0
LINE
  8
0
 10
8.8694
 20
-67.2767
 11
8.92126
 21
-67.139
  0
LINE
  8
0
 10
8.92126
 20
-67.139
 11
8.98203
 21
-67.0048
  0
LINE
  8
0
 10
8.98203
 20
-67.0048
 11
9.05144
 21
-66.875
  0
LINE
  8
0
 10
9.05144
 20
-66.875
 11
9.12918
 21
-66.75
  0
LINE
  8
0
 10
9.12918
 20
-66.75
 11
9.21495
 21
-66.6303
  0
LINE
  8
0
 10
9.21495
 20
-66.6303
 11
9.30835
 21
-66.5165
  0
LINE
  8
0
 10
9.30835
 20
-66.5165
 11
9.409
 21
-66.409
  0
LINE
  8
0
 10
9.409
 20
-66.409
 11
9.51646
 21
-66.3083
  0
LINE
  8
0
 10
9.51646
 20
-66.3083
 11
9.63028
 21
-66.215
  0
LINE
  8
0
 10
9.63028
 20
-66.215
 11
9.74995
 21
-66.1292
  0
LINE
  8
0
 10
9.74995
 20
-66.1292
 11
9.875
 21
-66.0514
  0
LINE
  8
0
 10
9.875
 20
-66.0514
 11
10.0048
 21
-65.982
  0
LINE
  8
0
 10
10.0048
 20
-65.982
 11
10.139
 21
-65.9213
  0
LINE
  8
0
 10
10.139
 20
-65.9213
 11
10.2767
 21
-65.8694
  0
LINE
  8
0
 10
10.2767
 20
-65.8694
 11
10.4176
 21
-65.8267
  0
LINE
  8
0
 10
10.4176
 20
-65.8267
 11
10.561
 21
-65.7932
  0
LINE
  8
0
 10
10.561
 20
-65.7932
 11
10.7063
 21
-65.7692
  0
LINE
  8
0
 10
10.7063
 20
-65.7692
 11
10.8528
 21
-65.7548
  0
LINE
  8
0
 10
10.8528
 20
-65.7548
 11
11
 21
-65.75
  0
LINE
  8
0
 10
11
 20
-65.75
 11
11.1472
 21
-65.7548
  0
LINE
  8
0
 10
11.1472
 20
-65.7548
 11
11.2937
 21
-65.7692
  0
LINE
  8
0
 10
11.2937
 20
-65.7692
 11
11.4389
 21
-65.7932
  0
LINE
  8
0
 10
11.4389
 20
-65.7932
 11
11.5823
 21
-65.8267
  0
LINE
  8
0
 10
11.5823
 20
-65.8267
 11
11.7232
 21
-65.8694
  0
LINE
  8
0
 10
11.7232
 20
-65.8694
 11
11.861
 21
-65.9213
  0
LINE
  8
0
 10
11.861
 20
-65.9213
 11
11.9951
 21
-65.982
  0
LINE
  8
0
 10
11.9951
 20
-65.982
 11
12.125
 21
-66.0514
  0
LINE
  8
0
 10
12.125
 20
-66.0514
 11
12.25
 21
-66.1292
  0
LINE
  8
0
 10
12.25
 20
-66.1292
 11
12.3697
 21
-66.215
  0
LINE
  8
0
 10
12.3697
 20
-66.215
 11
12.4835
 21
-66.3083
  0
LINE
  8
0
 10
12.4835
 20
-66.3083
 11
12.591
 21
-66.409
  0
LINE
  8
0
 10
12.591
 20
-66.409
 11
12.6916
 21
-66.5165
  0
LINE
  8
0
 10
12.6916
 20
-66.5165
 11
12.785
 21
-66.6303
  0
LINE
  8
0
 10
12.785
 20
-66.6303
 11
12.8708
 21
-66.75
  0
LINE
  8
0
 10
12.8708
 20
-66.75
 11
12.9485
 21
-66.875
  0
LINE
  8
0
 10
12.9485
 20
-66.875
 11
13.018
 21
-67.0048
  0
LINE
  8
0
 10
13.018
 20
-67.0048
 11
13.0787
 21
-67.139
  0
LINE
  8
0
 10
13.0787
 20
-67.139
 11
13.1306
 21
-67.2767
  0
LINE
  8
0
 10
13.1306
 20
-67.2767
 11
13.1733
 21
-67.4176
  0
LINE
  8
0
 10
13.1733
 20
-67.4176
 11
13.2068
 21
-67.561
  0
LINE
  8
0
 10
13.2068
 20
-67.561
 11
13.2307
 21
-67.7063
  0
LINE
  8
0
 10
13.2307
 20
-67.7063
 11
13.2452
 21
-67.8528
  0
LINE
  8
0
 10
13.2452
 20
-67.8528
 11
13.25
 21
-68
  0
LINE
  8
0
 10
13.25
 20
-68
 11
13.2452
 21
-68.1472
  0
LINE
  8
0
 10
13.2452
 20
-68.1472
 11
13.2307
 21
-68.2937
  0
LINE
  8
0
 10
13.2307
 20
-68.2937
 11
13.2068
 21
-68.4389
  0
LINE
  8
0
 10
13.2068
 20
-68.4389
 11
13.1733
 21
-68.5823
  0
LINE
  8
0
 10
13.1733
 20
-68.5823
 11
13.1306
 21
-68.7232
  0
LINE
  8
0
 10
13.1306
 20
-68.7232
 11
13.0787
 21
-68.861
  0
LINE
  8
0
 10
13.0787
 20
-68.861
 11
13.018
 21
-68.9951
  0
LINE
  8
0
 10
13.018
 20
-68.9951
 11
12.9485
 21
-69.125
  0
LINE
  8
0
 10
12.9485
 20
-69.125
 11
12.8708
 21
-69.25
  0
LINE
  8
0
 10
12.8708
 20
-69.25
 11
12.785
 21
-69.3697
  0
LINE
  8
0
 10
12.785
 20
-69.3697
 11
12.6916
 21
-69.4835
  0
LINE
  8
0
 10
12.6916
 20
-69.4835
 11
12.591
 21
-69.591
  0
LINE
  8
0
 10
12.591
 20
-69.591
 11
12.4835
 21
-69.6916
  0
LINE
  8
0
 10
12.4835
 20
-69.6916
 11
12.3697
 21
-69.785
  0
LINE
  8
0
 10
12.3697
 20
-69.785
 11
12.25
 21
-69.8708
  0
LINE
  8
0
 10
12.25
 20
-69.8708
 11
12.125
 21
-69.9485
  0
LINE
  8
0
 10
12.125
 20
-69.9485
 11
11.9951
 21
-70.018
  0
LINE
  8
0
 10
11.9951
 20
-70.018
 11
11.861
 21
-70.0787
  0
LINE
  8
0
 10
11.861
 20
-70.0787
 11
11.7232
 21
-70.1306
  0
LINE
  8
0
 10
11.7232
 20
-70.1306
 11
11.5823
 21
-70.1733
  0
LINE
  8
0
 10
11.5823
 20
-70.1733
 11
11.4389
 21
-70.2068
  0
LINE
  8
0
 10
11.4389
 20
-70.2068
 11
11.2937
 21
-70.2307
  0
LINE
  8
0
 10
11.2937
 20
-70.2307
 11
11.1472
 21
-70.2452
  0
LINE
  8
0
 10
11.1472
 20
-70.2452
 11
11
 21
-70.25
  0
LINE
  8
0
 10
11
 20
-70.25
 11
10.8528
 21
-70.2452
  0
LINE
  8
0
 10
-11.1472
 20
-82.2452
 11
-11.2937
 21
-82.2307
  0
LINE
  8
0
 10
-11.2937
 20
-82.2307
 11
-11.4389
 21
-82.2068
  0
LINE
  8
0
 10
-11.4389
 20
-82.2068
 11
-11.5823
 21
-82.1733
  0
LINE
  8
0
 10
-11.5823
 20
-82.1733
 11
-11.7232
 21
-82.1306
  0
LINE
  8
0
 10
-11.7232
 20
-82.1306
 11
-11.861
 21
-82.0787
  0
LINE
  8
0
 10
-11.861
 20
-82.0787
 11
-11.9951
 21
-82.018
  0
LINE
  8
0
 10
-11.9951
 20
-82.018
 11
-12.125
 21
-81.9485
  0
LINE
  8
0
 10
-12.125
 20
-81.9485
 11
-12.25
 21
-81.8708
  0
LINE
  8
0
 10
-12.25
 20
-81.8708
 11
-12.3697
 21
-81.785
  0
LINE
  8
0
 10
-12.3697
 20
-81.785
 11
-12.4835
 21
-81.6916
  0
LINE
  8
0
 10
-12.4835
 20
-81.6916
 11
-12.591
 21
-81.591
  0
LINE
  8
0
 10
-12.591
 20
-81.591
 11
-12.6916
 21
-81.4835
  0
LINE
  8
0
 10
-12.6916
 20
-81.4835
 11
-12.785
 21
-81.3697
  0
LINE
  8
0
 10
-12.785
 20
-81.3697
 11
-12.8708
 21
-81.25
  0
LINE
  8
0
 10
-12.8708
 20
-81.25
 11
-12.9485
 21
-81.125
  0
LINE
  8
0
 10
-12.9485
 20
-81.125
 11
-13.018
 21
-80.9951
  0
LINE
  8
0
 10
-13.018
 20
-80.9951
 11
-13.0787
 21
-80.861
  0
LINE
  8
0
 10
-13.0787
 20
-80.861
 11
-13.1306
 21
-80.7232
  0
LINE
  8
0
 10
-13.1306
 20
-80.7232
 11
-13.1733
 21
-80.5823
  0
LINE
  8
0
 10
-13.1733
 20
-80.5823
 11
-13.2068
 21
-80.4389
  0
LINE
  8
0
 10
-13.2068
 20
-80.4389
 11
-13.2307
 21
-80.2937
  0
LINE
  8
0
 10
-13.2307
 20
-80.2937
 11
-13.2452
 21
-80.1472
  0
LINE
  8
0
 10
-13.2452
 20
-80.1472
 11
-13.25
 21
-80
  0
LINE
  8
0
 10
-13.25
 20
-80
 11
-13.2452
 21
-79.8528
  0
LINE
  8
0
 10
-13.2452
 20
-79.8528
 11
-13.2307
 21
-79.7063
  0
LINE
  8
0
 10
-13.2307
 20
-79.7063
 11
-13.2068
 21
-79.561
  0
LINE
  8
0
 10
-13.2068
 20
-79.561
 11
-13.1733
 21
-79.4176
  0
LINE
  8
0
 10
-13.1733
 20
-79.4176
 11
-13.1306
 21
-79.2767
  0
LINE
  8
0
 10
-13.1306
 20
-79.2767
 11
-13.0787
 21
-79.139
  0
LINE
  8
0
 10
-13.0787
 20
-79.139
 11
-13.018
 21
-79.0048
  0
LINE
  8
0
 10
-13.018
 20
-79.0048
 11
-12.9485
 21
-78.875
  0
LINE
  8
0
 10
-12.9485
 20
-78.875
 11
-12.8708
 21
-78.75
  0
LINE
  8
0
 10
-12.8708
 20
-78.75
 11
-12.785
 21
-78.6303
  0
LINE
  8
0
 10
-12.785
 20
-78.6303
 11
-12.6916
 21
-78.5165
  0
LINE
  8
0
 10
-12.6916
 20
-78.5165
 11
-12.591
 21
-78.409
  0
LINE
  8
0
 10
-12.591
 20
-78.409
 11
-12.4835
 21
-78.3083
  0
LINE
  8
0
 10
-12.4835
 20
-78.3083
 11
-12.3697
 21
-78.215
  0
LINE
  8
0
 10
-12.3697
 20
-78.215
 11
-12.25
 21
-78.1292
  0
LINE
  8
0
 10
-12.25
 20
-78.1292
 11
-12.125
 21
-78.0514
  0
LINE
  8
0
 10
-12.125
 20
-78.0514
 11
-11.9951
 21
-77.982
  0
LINE
  8
0
 10
-11.9951
 20
-77.982
 11
-11.861
 21
-77.9213
  0
LINE
  8
0
 10
-11.861
 20
-77.9213
 11
-11.7232
 21
-77.8694
  0
LINE
  8
0
 10
-11.7232
 20
-77.8694
 11
-11.5823
 21
-77.8267
  0
LINE
  8
0
 10
-11.5823
 20
-77.8267
 11
-11.4389
 21
-77.7932
  0
LINE
  8
0
 10
-11.4389
 20
-77.7932
 11
-11.2937
 21
-77.7692
  0
LINE
  8
0
 10
-11.2937
 20
-77.7692
 11
-11.1472
 21
-77.7548
  0
LINE
  8
0
 10
-11.1472
 20
-77.7548
 11
-11
 21
-77.75
  0
LINE
  8
0
 10
-11
 20
-77.75
 11
-10.8528
 21
-77.7548
  0
LINE
  8
0
 10
-10.8528
 20
-77.7548
 11
-10.7063
 21
-77.7692
  0
LINE
  8
0
 10
-10.7063
 20
-77.7692
 11
-10.561
 21
-77.7932
  0
LINE
  8
0
 10
-10.561
 20
-77.7932
 11
-10.4176
 21
-77.8267
  0
LINE
  8
0
 10
-10.4176
 20
-77.8267
 11
-10.2767
 21
-77.8694
  0
LINE
  8
0
 10
-10.2767
 20
-77.8694
 11
-10.139
 21
-77.9213
  0
LINE
  8
0
 10
-10.139
 20
-77.9213
 11
-10.0048
 21
-77.982
  0
LINE
  8
0
 10
-10.0048
 20
-77.982
 11
-9.875
 21
-78.0514
  0
LINE
  8
0
 10
-9.875
 20
-78.0514
 11
-9.74995
 21
-78.1292
  0
LINE
  8
0
 10
-9.74995
 20
-78.1292
 11
-9.63028
 21
-78.215
  0
LINE
  8
0
 10
-9.63028
 20
-78.215
 11
-9.51646
 21
-78.3083
  0
LINE
  8
0
 10
-9.51646
 20
-78.3083
 11
-9.409
 21
-78.409
  0
LINE
  8
0
 10
-9.409
 20
-78.409
 11
-9.30835
 21
-78.5165
  0
LINE
  8
0
 10
-9.30835
 20
-78.5165
 11
-9.21495
 21
-78.6303
  0
LINE
  8
0
 10
-9.21495
 20
-78.6303
 11
-9.12918
 21
-78.75
  0
LINE
  8
0
 10
-9.12918
 20
-78.75
 11
-9.05144
 21
-78.875
  0
LINE
  8
0
 10
-9.05144
 20
-78.875
 11
-8.98203
 21
-79.0048
  0
LINE
  8
0
 10
-8.98203
 20
-79.0048
 11
-8.92126
 21
-79.139
  0
LINE
  8
0
 10
-8.92126
 20
-79.139
 11
-8.8694
 21
-79.2767
  0
LINE
  8
0
 10
-8.8694
 20
-79.2767
 11
-8.82666
 21
-79.4176
  0
LINE
  8
0
 10
-8.82666
 20
-79.4176
 11
-8.79323
 21
-79.561
  0
LINE
  8
0
 10
-8.79323
 20
-79.561
 11
-8.76924
 21
-79.7063
  0
LINE
  8
0
 10
-8.76924
 20
-79.7063
 11
-8.75481
 21
-79.8528
  0
LINE
  8
0
 10
-8.75481
 20
-79.8528
 11
-8.75
 21
-80
  0
LINE
  8
0
 10
-8.75
 20
-80
 11
-8.75481
 21
-80.1472
  0
LINE
  8
0
 10
-8.75481
 20
-80.1472
 11
-8.76924
 21
-80.2937
  0
LINE
  8
0
 10
-8.76924
 20
-80.2937
 11
-8.79323
 21
-80.4389
  0
LINE
  8
0
 10
-8.79323
 20
-80.4389
 11
-8.82666
 21
-80.5823
  0
LINE
  8
0
 10
-8.82666
 20
-80.5823
 11
-8.8694
 21
-80.7232
  0
LINE
  8
0
 10
-8.8694
 20
-80.7232
 11
-8.92126
 21
-80.861
  0
LINE
  8
0
 10
-8.92126
 20
-80.861
 11
-8.98203
 21
-80.9951
  0
LINE
  8
0
 10
-8.98203
 20
-80.9951
 11
-9.05144
 21
-81.125
  0
LINE
  8
0
 10
-9.05144
 20
-81.125
 11
-9.12918
 21
-81.25
  0
LINE
  8
0
 10
-9.12918
 20
-81.25
 11
-9.21495
 21
-81.3697
  0
LINE
  8
0
 10
-9.21495
 20
-81.3697
 11
-9.30835
 21
-81.4835
  0
LINE
  8
0
 10
-9.30835
 20
-81.4835
 11
-9.409
 21
-81.591
  0
LINE
  8
0
 10
-9.409
 20
-81.591
 11
-9.51646
 21
-81.6916
  0
LINE
  8
0
 10
-9.51646
 20
-81.6916
 11
-9.63028
 21
-81.785
  0
LINE
  8
0
 10
-9.63028
 20
-81.785
 11
-9.74995
 21
-81.8708
  0
LINE
  8
0
 10
-9.74995
 20
-81.8708
 11
-9.875
 21
-81.9485
  0
LINE
  8
0
 10
-9.875
 20
-81.9485
 11
-10.0048
 21
-82.018
  0
LINE
  8
0
 10
-10.0048
 20
-82.018
 11
-10.139
 21
-82.0787
  0
LINE
  8
0
 10
-10.139
 20
-82.0787
 11
-10.2767
 21
-82.1306
  0
LINE
  8
0
 10
-10.2767
 20
-82.1306
 11
-10.4176
 21
-82.1733
  0
LINE
  8
0
 10
-10.4176
 20
-82.1733
 11
-10.561
 21
-82.2068
  0
LINE
  8
0
 10
-10.561
 20
-82.2068
 11
-10.7063
 21
-82.2307
  0
LINE
  8
0
 10
-10.7063
 20
-82.2307
 11
-10.8528
 21
-82.2452
  0
LINE
  8
0
 10
-10.8528
 20
-82.2452
 11
-11
 21
-82.25
  0
LINE
  8
0
 10
-11
 20
-82.25
 11
-11.1472
 21
-82.2452
  0
LINE
  8
0
 10
10.8528
 20
-82.2452
 11
10.7063
 21
-82.2307
  0
LINE
  8
0
 10
10.7063
 20
-82.2307
 11
10.561
 21
-82.2068
  0
LINE
  8
0
 10
10.561
 20
-82.2068
 11
10.4176
 21
-82.1733
  0
LINE
  8
0
 10
10.4176
 20
-82.1733
 11
10.2767
 21
-82.1306
  0
LINE
  8
0
 10
10.2767
 20
-82.1306
 11
10.139
 21
-82.0787
  0
LINE
  8
0
 10
10.139
 20
-82.0787
 11
10.0048
 21
-82.018
  0
LINE
  8
0
 10
10.0048
 20
-82.018
 11
9.875
 21
-81.9485
  0
LINE
  8
0
 10
9.875
 20
-81.9485
 11
9.74995
 21
-81.8708
  0
LINE
  8
0
 10
9.74995
 20
-81.8708
 11
9.63028
 21
-81.785
  0
LINE
  8
0
 10
9.63028
 20
-81.785
 11
9.51646
 21
-81.6916
  0
LINE
  8
0
 10
9.51646
 20
-81.6916
 11
9.409
 21
-81.591
  0
LINE
  8
0
 10
9.409
 20
-81.591
 11
9.30835
 21
-81.4835
  0
LINE
  8
0
 10
9.30835
 20
-81.4835
 11
9.21495
 21
-81.3697
  0
LINE
  8
0
 10
9.21495
 20
-81.3697
 11
9.12918
 21
-81.25
  0
LINE
  8
0
 10
9.12918
 20
-81.25
 11
9.05144
 21
-81.125
  0
LINE
  8
0
 10
9.05144
 20
-81.125
 11
8.98203
 21
-80.9951
  0
LINE
  8
0
 10
8.98203
 20
-80.9951
 11
8.92126
 21
-80.861
  0
LINE
  8
0
 10
8.92126
 20
-80.861
 11
8.8694
 21
-80.7232
  0
LINE
  8
0
 10
8.8694
 20
-80.7232
 11
8.82666
 21
-80.5823
  0
LINE
  8
0
 10
8.82666
 20
-80.5823
 11
8.79323
 21
-80.4389
  0
LINE
  8
0
 10
8.79323
 20
-80.4389
 11
8.76924
 21
-80.2937
  0
LINE
  8
0
 10
8.76924
 20
-80.2937
 11
8.75481
 21
-80.1472
  0
LINE
  8
0
 10
8.75481
 20
-80.1472
 11
8.75
 21
-80
  0
LINE
  8
0
 10
8.75
 20
-80
 11
8.75481
 21
-79.8528
  0
LINE
  8
0
 10
8.75481
 20
-79.8528
 11
8.76924
 21
-79.7063
  0
LINE
  8
0
 10
8.76924
 20
-79.7063
 11
8.79323
 21
-79.561
  0
LINE
  8
0
 10
8.79323
 20
-79.561
 11
8.82666
 21
-79.4176
  0
LINE
  8
0
 10
8.82666
 20
-79.4176
 11
8.8694
 21
-79.2767
  0
LINE
  8
0
 10
8.8694
 20
-79.2767
 11
8.92126
 21
-79.139
  0
LINE
  8
0
 10
8.92126
 20
-79.139
 11
8.98203
 21
-79.0048
  0
LINE
  8
0
 10
8.98203
 20
-79.0048
 11
9.05144
 21
-78.875
  0
LINE
  8
0
 10
9.05144
 20
-78.875
 11
9.12918
 21
-78.75
  0
LINE
  8
0
 10
9.12918
 20
-78.75
 11
9.21495
 21
-78.6303
  0
LINE
  8
0
 10
9.21495
 20
-78.6303
 11
9.30835
 21
-78.5165
  0
LINE
  8
0
 10
9.30835
 20
-78.5165
 11
9.409
 21
-78.409
  0
LINE
  8
0
 10
9.409
 20
-78.409
 11
9.51646
 21
-78.3083
  0
LINE
  8
0
 10
9.51646
 20
-78.3083
 11
9.63028
 21
-78.215
  0
LINE
  8
0
 10
9.63028
 20
-78.215
 11
9.74995
 21
-78.1292
  0
LINE
  8
0
 10
9.74995
 20
-78.1292
 11
9.875
 21
-78.0514
  0
LINE
  8
0
 10
9.875
 20
-78.0514
 11
10.0048
 21
-77.982
  0
LINE
  8
0
 10
10.0048
 20
-77.982
 11
10.139
 21
-77.9213
  0
LINE
  8
0
 10
10.139
 20
-77.9213
 11
10.2767
 21
-77.8694
  0
LINE
  8
0
 10
10.2767
 20
-77.8694
 11
10.4176
 21
-77.8267
  0
LINE
  8
0
 10
10.4176
 20
-77.8267
 11
10.561
 21
-77.7932
  0
LINE
  8
0
 10
10.561
 20
-77.7932
 11
10.7063
 21
-77.7692
  0
LINE
  8
0
 10
10.7063
 20
-77.7692
 11
10.8528
 21
-77.7548
  0
LINE
  8
0
 10
10.8528
 20
-77.7548
 11
11
 21
-77.75
  0
LINE
  8
0
 10
11
 20
-77.75
 11
11.1472
 21
-77.7548
  0
LINE
  8
0
 10
11.1472
 20
-77.7548
 11
11.2937
 21
-77.7692
  0
LINE
  8
0
 10
11.2937
 20
-77.7692
 11
11.4389
 21
-77.7932
  0
LINE
  8
0
 10
11.4389
 20
-77.7932
 11
11.5823
 21
-77.8267
  0
LINE
  8
0
 10
11.5823
 20
-77.8267
 11
11.7232
 21
-77.8694
  0
LINE
  8
0
 10
11.7232
 20
-77.8694
 11
11.861
 21
-77.9213
  0
LINE
  8
0
 10
11.861
 20
-77.9213
 11
11.9951
 21
-77.982
  0
LINE
  8
0
 10
11.9951
 20
-77.982
 11
12.125
 21
-78.0514
  0
LINE
  8
0
 10
12.125
 20
-78.0514
 11
12.25
 21
-78.1292
  0
LINE
  8
0
 10
12.25
 20
-78.1292
 11
12.3697
 21
-78.215
  0
LINE
  8
0
 10
12.3697
 20
-78.215
 11
12.4835
 21
-78.3083
  0
LINE
  8
0
 10
12.4835
 20
-78.3083
 11
12.591
 21
-78.409
  0
LINE
  8
0
 10
12.591
 20
-78.409
 11
12.6916
 21
-78.5165
  0
LINE
  8
0
 10
12.6916
 20
-78.5165
 11
12.785
 21
-78.6303
  0
LINE
  8
0
 10
12.785
 20
-78.6303
 11
12.8708
 21
-78.75
  0
LINE
  8
0
 10
12.8708
 20
-78.75
 11
12.9485
 21
-78.875
  0
LINE
  8
0
 10
12.9485
 20
-78.875
 11
13.018
 21
-79.0048
  0
LINE
  8
0
 10
13.018
 20
-79.0048
 11
13.0787
 21
-79.139
  0
LINE
  8
0
 10
13.0787
 20
-79.139
 11
13.1306
 21
-79.2767
  0
LINE
  8
0
 10
13.1306
 20
-79.2767
 11
13.1733
 21
-79.4176
  0
LINE
  8
0
 10
13.1733
 20
-79.4176
 11
13.2068
 21
-79.561
  0
LINE
  8
0
 10
13.2068
 20
-79.561
 11
13.2307
 21
-79.7063
  0
LINE
  8
0
 10
13.2307
 20
-79.7063
 11
13.2452
 21
-79.8528
  0
LINE
  8
0
 10
13.2452
 20
-79.8528
 11
13.25
 21
-80
  0
LINE
  8
0
 10
13.25
 20
-80
 11
13.2452
 21
-80.1472
  0
LINE
  8
0
 10
13.2452
 20
-80.1472
 11
13.2307
 21
-80.2937
  0
LINE
  8
0
 10
13.2307
 20
-80.2937
 11
13.2068
 21
-80.4389
  0
LINE
  8
0
 10
13.2068
 20
-80.4389
 11
13.1733
 21
-80.5823
  0
LINE
  8
0
 10
13.1733
 20
-80.5823
 11
13.1306
 21
-80.7232
  0
LINE
  8
0
 10
13.1306
 20
-80.7232
 11
13.0787
 21
-80.861
  0
LINE
  8
0
 10
13.0787
 20
-80.861
 11
13.018
 21
-80.9951
  0
LINE
  8
0
 10
13.018
 20
-80.9951
 11
12.9485
 21
-81.125
  0
LINE
  8
0
 10
12.9485
 20
-81.125
 11
12.8708
 21
-81.25
  0
LINE
  8
0
 10
12.8708
 20
-81.25
 11
12.785
 21
-81.3697
  0
LINE
  8
0
 10
12.785
 20
-81.3697
 11
12.6916
 21
-81.4835
  0
LINE
  8
0
 10
12.6916
 20
-81.4835
 11
12.591
 21
-81.591
  0
LINE
  8
0
 10
12.591
 20
-81.591
 11
12.4835
 21
-81.6916
  0
LINE
  8
0
 10
12.4835
 20
-81.6916
 11
12.3697
 21
-81.785
  0
LINE
  8
0
 10
12.3697
 20
-81.785
 11
12.25
 21
-81.8708
  0
LINE
  8
0
 10
12.25
 20
-81.8708
 11
12.125
 21
-81.9485
  0
LINE
  8
0
 10
12.125
 20
-81.9485
 11
11.9951
 21
-82.018
  0
LINE
  8
0
 10
11.9951
 20
-82.018
 11
11.861
 21
-82.0787
  0
LINE
  8
0
 10
11.861
 20
-82.0787
 11
11.7232
 21
-82.1306
  0
LINE
  8
0
 10
11.7232
 20
-82.1306
 11
11.5823
 21
-82.1733
  0
LINE
  8
0
 10
11.5823
 20
-82.1733
 11
11.4389
 21
-82.2068
  0
LINE
  8
0
 10
11.4389
 20
-82.2068
 11
11.2937
 21
-82.2307
  0
LINE
  8
0
 10
11.2937
 20
-82.2307
 11
11.1472
 21
-82.2452
  0
LINE
  8
0
 10
11.1472
 20
-82.2452
 11
11
 21
-82.25
  0
LINE
  8
0
 10
11
 20
-82.25
 11
10.8528
 21
-82.2452
  0
ENDSEC
  0
SECTION
  2
OBJECTS
  0
DICTIONARY
  0
ENDSEC
  0
EOF
