  0
SECTION
  2
BLOCKS
  0
ENDSEC
  0
SECTION
  2
ENTITIES
  0
LINE
  8
0
 10
12.5
 20
77
 11
-12.5
 21
77
  0
LINE
  8
0
 10
-12.5
 20
77
 11
-12.5
 21
0
  0
LINE
  8
0
 10
-12.5
 20
0
 11
12.5
 21
0
  0
LINE
  8
0
 10
12.5
 20
0
 11
12.5
 21
77
  0
LINE
  8
0
 10
-0.212555
 20
60.757
 11
-0.42421
 21
60.7778
  0
LINE
  8
0
 10
-0.42421
 20
60.7778
 11
-0.634033
 21
60.8124
  0
LINE
  8
0
 10
-0.634033
 20
60.8124
 11
-0.841156
 21
60.8607
  0
LINE
  8
0
 10
-0.841156
 20
60.8607
 11
-1.04468
 21
60.9225
  0
LINE
  8
0
 10
-1.04468
 20
60.9225
 11
-1.24371
 21
60.9974
  0
LINE
  8
0
 10
-1.24371
 20
60.9974
 11
-1.43742
 21
61.0852
  0
LINE
  8
0
 10
-1.43742
 20
61.0852
 11
-1.625
 21
61.1854
  0
LINE
  8
0
 10
-1.625
 20
61.1854
 11
-1.8056
 21
61.2977
  0
LINE
  8
0
 10
-1.8056
 20
61.2977
 11
-1.97847
 21
61.4216
  0
LINE
  8
0
 10
-1.97847
 20
61.4216
 11
-2.14287
 21
61.5565
  0
LINE
  8
0
 10
-2.14287
 20
61.5565
 11
-2.2981
 21
61.7019
  0
LINE
  8
0
 10
-2.2981
 20
61.7019
 11
-2.44347
 21
61.8571
  0
LINE
  8
0
 10
-2.44347
 20
61.8571
 11
-2.57838
 21
62.0215
  0
LINE
  8
0
 10
-2.57838
 20
62.0215
 11
-2.70227
 21
62.1944
  0
LINE
  8
0
 10
-2.70227
 20
62.1944
 11
-2.81458
 21
62.375
  0
LINE
  8
0
 10
-2.81458
 20
62.375
 11
-2.91483
 21
62.5626
  0
LINE
  8
0
 10
-2.91483
 20
62.5626
 11
-3.00259
 21
62.7563
  0
LINE
  8
0
 10
-3.00259
 20
62.7563
 11
-3.07751
 21
62.9553
  0
LINE
  8
0
 10
-3.07751
 20
62.9553
 11
-3.13925
 21
63.1588
  0
LINE
  8
0
 10
-3.13925
 20
63.1588
 11
-3.18755
 21
63.366
  0
LINE
  8
0
 10
-3.18755
 20
63.366
 11
-3.22218
 21
63.5758
  0
LINE
  8
0
 10
-3.22218
 20
63.5758
 11
-3.24303
 21
63.7874
  0
LINE
  8
0
 10
-3.24303
 20
63.7874
 11
-3.25
 21
64
  0
LINE
  8
0
 10
-3.25
 20
64
 11
-3.24303
 21
64.2126
  0
LINE
  8
0
 10
-3.24303
 20
64.2126
 11
-3.22218
 21
64.4242
  0
LINE
  8
0
 10
-3.22218
 20
64.4242
 11
-3.18755
 21
64.634
  0
LINE
  8
0
 10
-3.18755
 20
64.634
 11
-3.13925
 21
64.8412
  0
LINE
  8
0
 10
-3.13925
 20
64.8412
 11
-3.07751
 21
65.0447
  0
LINE
  8
0
 10
-3.07751
 20
65.0447
 11
-3.00259
 21
65.2437
  0
LINE
  8
0
 10
-3.00259
 20
65.2437
 11
-2.91483
 21
65.4374
  0
LINE
  8
0
 10
-2.91483
 20
65.4374
 11
-2.81458
 21
65.625
  0
LINE
  8
0
 10
-2.81458
 20
65.625
 11
-2.70227
 21
65.8056
  0
LINE
  8
0
 10
-2.70227
 20
65.8056
 11
-2.57838
 21
65.9785
  0
LINE
  8
0
 10
-2.57838
 20
65.9785
 11
-2.44347
 21
66.1429
  0
LINE
  8
0
 10
-2.44347
 20
66.1429
 11
-2.2981
 21
66.2981
  0
LINE
  8
0
 10
-2.2981
 20
66.2981
 11
-2.14287
 21
66.4435
  0
LINE
  8
0
 10
-2.14287
 20
66.4435
 11
-1.97847
 21
66.5784
  0
LINE
  8
0
 10
-1.97847
 20
66.5784
 11
-1.8056
 21
66.7023
  0
LINE
  8
0
 10
-1.8056
 20
66.7023
 11
-1.625
 21
66.8146
  0
LINE
  8
0
 10
-1.625
 20
66.8146
 11
-1.43742
 21
66.9148
  0
LINE
  8
0
 10
-1.43742
 20
66.9148
 11
-1.24371
 21
67.0026
  0
LINE
  8
0
 10
-1.24371
 20
67.0026
 11
-1.04468
 21
67.0775
  0
LINE
  8
0
 10
-1.04468
 20
67.0775
 11
-0.841156
 21
67.1393
  0
LINE
  8
0
 10
-0.841156
 20
67.1393
 11
-0.634033
 21
67.1875
  0
LINE
  8
0
 10
-0.634033
 20
67.1875
 11
-0.42421
 21
67.2222
  0
LINE
  8
0
 10
-0.42421
 20
67.2222
 11
-0.212555
 21
67.243
  0
LINE
  8
0
 10
-0.212555
 20
67.243
 11
0
 21
67.25
  0
LINE
  8
0
 10
0
 20
67.25
 11
0.212555
 21
67.243
  0
LINE
  8
0
 10
0.212555
 20
67.243
 11
0.42421
 21
67.2222
  0
LINE
  8
0
 10
0.42421
 20
67.2222
 11
0.634033
 21
67.1875
  0
LINE
  8
0
 10
0.634033
 20
67.1875
 11
0.841156
 21
67.1393
  0
LINE
  8
0
 10
0.841156
 20
67.1393
 11
1.04468
 21
67.0775
  0
LINE
  8
0
 10
1.04468
 20
67.0775
 11
1.24371
 21
67.0026
  0
LINE
  8
0
 10
1.24371
 20
67.0026
 11
1.43742
 21
66.9148
  0
LINE
  8
0
 10
1.43742
 20
66.9148
 11
1.625
 21
66.8146
  0
LINE
  8
0
 10
1.625
 20
66.8146
 11
1.8056
 21
66.7023
  0
LINE
  8
0
 10
1.8056
 20
66.7023
 11
1.97847
 21
66.5784
  0
LINE
  8
0
 10
1.97847
 20
66.5784
 11
2.14287
 21
66.4435
  0
LINE
  8
0
 10
2.14287
 20
66.4435
 11
2.2981
 21
66.2981
  0
LINE
  8
0
 10
2.2981
 20
66.2981
 11
2.44347
 21
66.1429
  0
LINE
  8
0
 10
2.44347
 20
66.1429
 11
2.57838
 21
65.9785
  0
LINE
  8
0
 10
2.57838
 20
65.9785
 11
2.70227
 21
65.8056
  0
LINE
  8
0
 10
2.70227
 20
65.8056
 11
2.81458
 21
65.625
  0
LINE
  8
0
 10
2.81458
 20
65.625
 11
2.91483
 21
65.4374
  0
LINE
  8
0
 10
2.91483
 20
65.4374
 11
3.00259
 21
65.2437
  0
LINE
  8
0
 10
3.00259
 20
65.2437
 11
3.07751
 21
65.0447
  0
LINE
  8
0
 10
3.07751
 20
65.0447
 11
3.13925
 21
64.8412
  0
LINE
  8
0
 10
3.13925
 20
64.8412
 11
3.18755
 21
64.634
  0
LINE
  8
0
 10
3.18755
 20
64.634
 11
3.22218
 21
64.4242
  0
LINE
  8
0
 10
3.22218
 20
64.4242
 11
3.24303
 21
64.2126
  0
LINE
  8
0
 10
3.24303
 20
64.2126
 11
3.25
 21
64
  0
LINE
  8
0
 10
3.25
 20
64
 11
3.24303
 21
63.7874
  0
LINE
  8
0
 10
3.24303
 20
63.7874
 11
3.22218
 21
63.5758
  0
LINE
  8
0
 10
3.22218
 20
63.5758
 11
3.18755
 21
63.366
  0
LINE
  8
0
 10
3.18755
 20
63.366
 11
3.13925
 21
63.1588
  0
LINE
  8
0
 10
3.13925
 20
63.1588
 11
3.07751
 21
62.9553
  0
LINE
  8
0
 10
3.07751
 20
62.9553
 11
3.00259
 21
62.7563
  0
LINE
  8
0
 10
3.00259
 20
62.7563
 11
2.91483
 21
62.5626
  0
LINE
  8
0
 10
2.91483
 20
62.5626
 11
2.81458
 21
62.375
  0
LINE
  8
0
 10
2.81458
 20
62.375
 11
2.70227
 21
62.1944
  0
LINE
  8
0
 10
2.70227
 20
62.1944
 11
2.57838
 21
62.0215
  0
LINE
  8
0
 10
2.57838
 20
62.0215
 11
2.44347
 21
61.8571
  0
LINE
  8
0
 10
2.44347
 20
61.8571
 11
2.2981
 21
61.7019
  0
LINE
  8
0
 10
2.2981
 20
61.7019
 11
2.14287
 21
61.5565
  0
LINE
  8
0
 10
2.14287
 20
61.5565
 11
1.97847
 21
61.4216
  0
LINE
  8
0
 10
1.97847
 20
61.4216
 11
1.8056
 21
61.2977
  0
LINE
  8
0
 10
1.8056
 20
61.2977
 11
1.625
 21
61.1854
  0
LINE
  8
0
 10
1.625
 20
61.1854
 11
1.43742
 21
61.0852
  0
LINE
  8
0
 10
1.43742
 20
61.0852
 11
1.24371
 21
60.9974
  0
LINE
  8
0
 10
1.24371
 20
60.9974
 11
1.04468
 21
60.9225
  0
LINE
  8
0
 10
1.04468
 20
60.9225
 11
0.841156
 21
60.8607
  0
LINE
  8
0
 10
0.841156
 20
60.8607
 11
0.634033
 21
60.8124
  0
LINE
  8
0
 10
0.634033
 20
60.8124
 11
0.42421
 21
60.7778
  0
LINE
  8
0
 10
0.42421
 20
60.7778
 11
0.212555
 21
60.757
  0
LINE
  8
0
 10
0.212555
 20
60.757
 11
0
 21
60.75
  0
LINE
  8
0
 10
0
 20
60.75
 11
-0.212555
 21
60.757
  0
LINE
  8
0
 10
-0.212555
 20
40.757
 11
-0.42421
 21
40.7778
  0
LINE
  8
0
 10
-0.42421
 20
40.7778
 11
-0.634033
 21
40.8124
  0
LINE
  8
0
 10
-0.634033
 20
40.8124
 11
-0.841156
 21
40.8607
  0
LINE
  8
0
 10
-0.841156
 20
40.8607
 11
-1.04468
 21
40.9225
  0
LINE
  8
0
 10
-1.04468
 20
40.9225
 11
-1.24371
 21
40.9974
  0
LINE
  8
0
 10
-1.24371
 20
40.9974
 11
-1.43742
 21
41.0852
  0
LINE
  8
0
 10
-1.43742
 20
41.0852
 11
-1.625
 21
41.1854
  0
LINE
  8
0
 10
-1.625
 20
41.1854
 11
-1.8056
 21
41.2977
  0
LINE
  8
0
 10
-1.8056
 20
41.2977
 11
-1.97847
 21
41.4216
  0
LINE
  8
0
 10
-1.97847
 20
41.4216
 11
-2.14287
 21
41.5565
  0
LINE
  8
0
 10
-2.14287
 20
41.5565
 11
-2.2981
 21
41.7019
  0
LINE
  8
0
 10
-2.2981
 20
41.7019
 11
-2.44347
 21
41.8571
  0
LINE
  8
0
 10
-2.44347
 20
41.8571
 11
-2.57838
 21
42.0215
  0
LINE
  8
0
 10
-2.57838
 20
42.0215
 11
-2.70227
 21
42.1944
  0
LINE
  8
0
 10
-2.70227
 20
42.1944
 11
-2.81458
 21
42.375
  0
LINE
  8
0
 10
-2.81458
 20
42.375
 11
-2.91483
 21
42.5626
  0
LINE
  8
0
 10
-2.91483
 20
42.5626
 11
-3.00259
 21
42.7563
  0
LINE
  8
0
 10
-3.00259
 20
42.7563
 11
-3.07751
 21
42.9553
  0
LINE
  8
0
 10
-3.07751
 20
42.9553
 11
-3.13925
 21
43.1588
  0
LINE
  8
0
 10
-3.13925
 20
43.1588
 11
-3.18755
 21
43.366
  0
LINE
  8
0
 10
-3.18755
 20
43.366
 11
-3.22218
 21
43.5758
  0
LINE
  8
0
 10
-3.22218
 20
43.5758
 11
-3.24303
 21
43.7874
  0
LINE
  8
0
 10
-3.24303
 20
43.7874
 11
-3.25
 21
44
  0
LINE
  8
0
 10
-3.25
 20
44
 11
-3.24303
 21
44.2126
  0
LINE
  8
0
 10
-3.24303
 20
44.2126
 11
-3.22218
 21
44.4242
  0
LINE
  8
0
 10
-3.22218
 20
44.4242
 11
-3.18755
 21
44.634
  0
LINE
  8
0
 10
-3.18755
 20
44.634
 11
-3.13925
 21
44.8412
  0
LINE
  8
0
 10
-3.13925
 20
44.8412
 11
-3.07751
 21
45.0447
  0
LINE
  8
0
 10
-3.07751
 20
45.0447
 11
-3.00259
 21
45.2437
  0
LINE
  8
0
 10
-3.00259
 20
45.2437
 11
-2.91483
 21
45.4374
  0
LINE
  8
0
 10
-2.91483
 20
45.4374
 11
-2.81458
 21
45.625
  0
LINE
  8
0
 10
-2.81458
 20
45.625
 11
-2.70227
 21
45.8056
  0
LINE
  8
0
 10
-2.70227
 20
45.8056
 11
-2.57838
 21
45.9785
  0
LINE
  8
0
 10
-2.57838
 20
45.9785
 11
-2.44347
 21
46.1429
  0
LINE
  8
0
 10
-2.44347
 20
46.1429
 11
-2.2981
 21
46.2981
  0
LINE
  8
0
 10
-2.2981
 20
46.2981
 11
-2.14287
 21
46.4435
  0
LINE
  8
0
 10
-2.14287
 20
46.4435
 11
-1.97847
 21
46.5784
  0
LINE
  8
0
 10
-1.97847
 20
46.5784
 11
-1.8056
 21
46.7023
  0
LINE
  8
0
 10
-1.8056
 20
46.7023
 11
-1.625
 21
46.8146
  0
LINE
  8
0
 10
-1.625
 20
46.8146
 11
-1.43742
 21
46.9148
  0
LINE
  8
0
 10
-1.43742
 20
46.9148
 11
-1.24371
 21
47.0026
  0
LINE
  8
0
 10
-1.24371
 20
47.0026
 11
-1.04468
 21
47.0775
  0
LINE
  8
0
 10
-1.04468
 20
47.0775
 11
-0.841156
 21
47.1393
  0
LINE
  8
0
 10
-0.841156
 20
47.1393
 11
-0.634033
 21
47.1875
  0
LINE
  8
0
 10
-0.634033
 20
47.1875
 11
-0.42421
 21
47.2222
  0
LINE
  8
0
 10
-0.42421
 20
47.2222
 11
-0.212555
 21
47.243
  0
LINE
  8
0
 10
-0.212555
 20
47.243
 11
0
 21
47.25
  0
LINE
  8
0
 10
0
 20
47.25
 11
0.212555
 21
47.243
  0
LINE
  8
0
 10
0.212555
 20
47.243
 11
0.42421
 21
47.2222
  0
LINE
  8
0
 10
0.42421
 20
47.2222
 11
0.634033
 21
47.1875
  0
LINE
  8
0
 10
0.634033
 20
47.1875
 11
0.841156
 21
47.1393
  0
LINE
  8
0
 10
0.841156
 20
47.1393
 11
1.04468
 21
47.0775
  0
LINE
  8
0
 10
1.04468
 20
47.0775
 11
1.24371
 21
47.0026
  0
LINE
  8
0
 10
1.24371
 20
47.0026
 11
1.43742
 21
46.9148
  0
LINE
  8
0
 10
1.43742
 20
46.9148
 11
1.625
 21
46.8146
  0
LINE
  8
0
 10
1.625
 20
46.8146
 11
1.8056
 21
46.7023
  0
LINE
  8
0
 10
1.8056
 20
46.7023
 11
1.97847
 21
46.5784
  0
LINE
  8
0
 10
1.97847
 20
46.5784
 11
2.14287
 21
46.4435
  0
LINE
  8
0
 10
2.14287
 20
46.4435
 11
2.2981
 21
46.2981
  0
LINE
  8
0
 10
2.2981
 20
46.2981
 11
2.44347
 21
46.1429
  0
LINE
  8
0
 10
2.44347
 20
46.1429
 11
2.57838
 21
45.9785
  0
LINE
  8
0
 10
2.57838
 20
45.9785
 11
2.70227
 21
45.8056
  0
LINE
  8
0
 10
2.70227
 20
45.8056
 11
2.81458
 21
45.625
  0
LINE
  8
0
 10
2.81458
 20
45.625
 11
2.91483
 21
45.4374
  0
LINE
  8
0
 10
2.91483
 20
45.4374
 11
3.00259
 21
45.2437
  0
LINE
  8
0
 10
3.00259
 20
45.2437
 11
3.07751
 21
45.0447
  0
LINE
  8
0
 10
3.07751
 20
45.0447
 11
3.13925
 21
44.8412
  0
LINE
  8
0
 10
3.13925
 20
44.8412
 11
3.18755
 21
44.634
  0
LINE
  8
0
 10
3.18755
 20
44.634
 11
3.22218
 21
44.4242
  0
LINE
  8
0
 10
3.22218
 20
44.4242
 11
3.24303
 21
44.2126
  0
LINE
  8
0
 10
3.24303
 20
44.2126
 11
3.25
 21
44
  0
LINE
  8
0
 10
3.25
 20
44
 11
3.24303
 21
43.7874
  0
LINE
  8
0
 10
3.24303
 20
43.7874
 11
3.22218
 21
43.5758
  0
LINE
  8
0
 10
3.22218
 20
43.5758
 11
3.18755
 21
43.366
  0
LINE
  8
0
 10
3.18755
 20
43.366
 11
3.13925
 21
43.1588
  0
LINE
  8
0
 10
3.13925
 20
43.1588
 11
3.07751
 21
42.9553
  0
LINE
  8
0
 10
3.07751
 20
42.9553
 11
3.00259
 21
42.7563
  0
LINE
  8
0
 10
3.00259
 20
42.7563
 11
2.91483
 21
42.5626
  0
LINE
  8
0
 10
2.91483
 20
42.5626
 11
2.81458
 21
42.375
  0
LINE
  8
0
 10
2.81458
 20
42.375
 11
2.70227
 21
42.1944
  0
LINE
  8
0
 10
2.70227
 20
42.1944
 11
2.57838
 21
42.0215
  0
LINE
  8
0
 10
2.57838
 20
42.0215
 11
2.44347
 21
41.8571
  0
LINE
  8
0
 10
2.44347
 20
41.8571
 11
2.2981
 21
41.7019
  0
LINE
  8
0
 10
2.2981
 20
41.7019
 11
2.14287
 21
41.5565
  0
LINE
  8
0
 10
2.14287
 20
41.5565
 11
1.97847
 21
41.4216
  0
LINE
  8
0
 10
1.97847
 20
41.4216
 11
1.8056
 21
41.2977
  0
LINE
  8
0
 10
1.8056
 20
41.2977
 11
1.625
 21
41.1854
  0
LINE
  8
0
 10
1.625
 20
41.1854
 11
1.43742
 21
41.0852
  0
LINE
  8
0
 10
1.43742
 20
41.0852
 11
1.24371
 21
40.9974
  0
LINE
  8
0
 10
1.24371
 20
40.9974
 11
1.04468
 21
40.9225
  0
LINE
  8
0
 10
1.04468
 20
40.9225
 11
0.841156
 21
40.8607
  0
LINE
  8
0
 10
0.841156
 20
40.8607
 11
0.634033
 21
40.8124
  0
LINE
  8
0
 10
0.634033
 20
40.8124
 11
0.42421
 21
40.7778
  0
LINE
  8
0
 10
0.42421
 20
40.7778
 11
0.212555
 21
40.757
  0
LINE
  8
0
 10
0.212555
 20
40.757
 11
0
 21
40.75
  0
LINE
  8
0
 10
0
 20
40.75
 11
-0.212555
 21
40.757
  0
ENDSEC
  0
SECTION
  2
OBJECTS
  0
DICTIONARY
  0
ENDSEC
  0
EOF
