  0
SECTION
  2
BLOCKS
  0
ENDSEC
  0
SECTION
  2
ENTITIES
  0
LINE
  8
0
 10
12.5
 20
-27.2545
 11
13.2686
 21
-26.9062
  0
LINE
  8
0
 10
13.2686
 20
-26.9062
 11
15
 21
-25.9808
  0
LINE
  8
0
 10
15
 20
-25.9808
 11
16.6671
 21
-24.9441
  0
LINE
  8
0
 10
16.6671
 20
-24.9441
 11
18.2628
 21
-23.8006
  0
LINE
  8
0
 10
18.2628
 20
-23.8006
 11
19.7804
 21
-22.5552
  0
LINE
  8
0
 10
19.7804
 20
-22.5552
 11
21.2132
 21
-21.2132
  0
LINE
  8
0
 10
21.2132
 20
-21.2132
 11
22.5552
 21
-19.7804
  0
LINE
  8
0
 10
22.5552
 20
-19.7804
 11
23.8006
 21
-18.2628
  0
LINE
  8
0
 10
23.8006
 20
-18.2628
 11
24.9441
 21
-16.6671
  0
LINE
  8
0
 10
24.9441
 20
-16.6671
 11
25.9808
 21
-15
  0
LINE
  8
0
 10
25.9808
 20
-15
 11
26.9062
 21
-13.2686
  0
LINE
  8
0
 10
26.9062
 20
-13.2686
 11
27.7164
 21
-11.4805
  0
LINE
  8
0
 10
27.7164
 20
-11.4805
 11
28.4079
 21
-9.64317
  0
LINE
  8
0
 10
28.4079
 20
-9.64317
 11
28.9778
 21
-7.76456
  0
LINE
  8
0
 10
28.9778
 20
-7.76456
 11
29.4236
 21
-5.85271
  0
LINE
  8
0
 10
29.4236
 20
-5.85271
 11
29.7433
 21
-3.91577
  0
LINE
  8
0
 10
29.7433
 20
-3.91577
 11
29.9358
 21
-1.96208
  0
LINE
  8
0
 10
29.9358
 20
-1.96208
 11
30
 21
0
  0
LINE
  8
0
 10
30
 20
0
 11
29.9358
 21
1.96208
  0
LINE
  8
0
 10
29.9358
 20
1.96208
 11
29.7433
 21
3.91577
  0
LINE
  8
0
 10
29.7433
 20
3.91577
 11
29.4236
 21
5.85271
  0
LINE
  8
0
 10
29.4236
 20
5.85271
 11
28.9778
 21
7.76456
  0
LINE
  8
0
 10
28.9778
 20
7.76456
 11
28.4079
 21
9.64317
  0
LINE
  8
0
 10
28.4079
 20
9.64317
 11
27.7164
 21
11.4805
  0
LINE
  8
0
 10
27.7164
 20
11.4805
 11
26.9062
 21
13.2686
  0
LINE
  8
0
 10
26.9062
 20
13.2686
 11
25.9808
 21
15
  0
LINE
  8
0
 10
25.9808
 20
15
 11
24.9441
 21
16.6671
  0
LINE
  8
0
 10
24.9441
 20
16.6671
 11
23.8006
 21
18.2628
  0
LINE
  8
0
 10
23.8006
 20
18.2628
 11
22.5552
 21
19.7804
  0
LINE
  8
0
 10
22.5552
 20
19.7804
 11
21.2132
 21
21.2132
  0
LINE
  8
0
 10
21.2132
 20
21.2132
 11
19.7804
 21
22.5552
  0
LINE
  8
0
 10
19.7804
 20
22.5552
 11
18.2628
 21
23.8006
  0
LINE
  8
0
 10
18.2628
 20
23.8006
 11
16.6671
 21
24.9441
  0
LINE
  8
0
 10
16.6671
 20
24.9441
 11
15
 21
25.9808
  0
LINE
  8
0
 10
15
 20
25.9808
 11
13.2686
 21
26.9062
  0
LINE
  8
0
 10
13.2686
 20
26.9062
 11
11.4805
 21
27.7164
  0
LINE
  8
0
 10
11.4805
 20
27.7164
 11
9.64317
 21
28.4079
  0
LINE
  8
0
 10
9.64317
 20
28.4079
 11
7.76456
 21
28.9778
  0
LINE
  8
0
 10
7.76456
 20
28.9778
 11
5.85271
 21
29.4236
  0
LINE
  8
0
 10
5.85271
 20
29.4236
 11
3.91577
 21
29.7433
  0
LINE
  8
0
 10
3.91577
 20
29.7433
 11
1.96208
 21
29.9358
  0
LINE
  8
0
 10
1.96208
 20
29.9358
 11
0
 21
30
  0
LINE
  8
0
 10
0
 20
30
 11
-1.96208
 21
29.9358
  0
LINE
  8
0
 10
-1.96208
 20
29.9358
 11
-3.91577
 21
29.7433
  0
LINE
  8
0
 10
-3.91577
 20
29.7433
 11
-5.85271
 21
29.4236
  0
LINE
  8
0
 10
-5.85271
 20
29.4236
 11
-7.76456
 21
28.9778
  0
LINE
  8
0
 10
-7.76456
 20
28.9778
 11
-9.64317
 21
28.4079
  0
LINE
  8
0
 10
-9.64317
 20
28.4079
 11
-11.4805
 21
27.7164
  0
LINE
  8
0
 10
-11.4805
 20
27.7164
 11
-13.2686
 21
26.9062
  0
LINE
  8
0
 10
-13.2686
 20
26.9062
 11
-15
 21
25.9808
  0
LINE
  8
0
 10
-15
 20
25.9808
 11
-16.6671
 21
24.9441
  0
LINE
  8
0
 10
-16.6671
 20
24.9441
 11
-18.2628
 21
23.8006
  0
LINE
  8
0
 10
-18.2628
 20
23.8006
 11
-19.7804
 21
22.5552
  0
LINE
  8
0
 10
-19.7804
 20
22.5552
 11
-21.2132
 21
21.2132
  0
LINE
  8
0
 10
-21.2132
 20
21.2132
 11
-22.5552
 21
19.7804
  0
LINE
  8
0
 10
-22.5552
 20
19.7804
 11
-23.8006
 21
18.2628
  0
LINE
  8
0
 10
-23.8006
 20
18.2628
 11
-24.9441
 21
16.6671
  0
LINE
  8
0
 10
-24.9441
 20
16.6671
 11
-25.9808
 21
15
  0
LINE
  8
0
 10
-25.9808
 20
15
 11
-26.9062
 21
13.2686
  0
LINE
  8
0
 10
-26.9062
 20
13.2686
 11
-27.7164
 21
11.4805
  0
LINE
  8
0
 10
-27.7164
 20
11.4805
 11
-28.4079
 21
9.64317
  0
LINE
  8
0
 10
-28.4079
 20
9.64317
 11
-28.9778
 21
7.76456
  0
LINE
  8
0
 10
-28.9778
 20
7.76456
 11
-29.4236
 21
5.85271
  0
LINE
  8
0
 10
-29.4236
 20
5.85271
 11
-29.7433
 21
3.91577
  0
LINE
  8
0
 10
-29.7433
 20
3.91577
 11
-29.9358
 21
1.96208
  0
LINE
  8
0
 10
-29.9358
 20
1.96208
 11
-30
 21
0
  0
LINE
  8
0
 10
-30
 20
0
 11
-29.9358
 21
-1.96208
  0
LINE
  8
0
 10
-29.9358
 20
-1.96208
 11
-29.7433
 21
-3.91577
  0
LINE
  8
0
 10
-29.7433
 20
-3.91577
 11
-29.4236
 21
-5.85271
  0
LINE
  8
0
 10
-29.4236
 20
-5.85271
 11
-28.9778
 21
-7.76456
  0
LINE
  8
0
 10
-28.9778
 20
-7.76456
 11
-28.4079
 21
-9.64317
  0
LINE
  8
0
 10
-28.4079
 20
-9.64317
 11
-27.7164
 21
-11.4805
  0
LINE
  8
0
 10
-27.7164
 20
-11.4805
 11
-26.9062
 21
-13.2686
  0
LINE
  8
0
 10
-26.9062
 20
-13.2686
 11
-25.9808
 21
-15
  0
LINE
  8
0
 10
-25.9808
 20
-15
 11
-24.9441
 21
-16.6671
  0
LINE
  8
0
 10
-24.9441
 20
-16.6671
 11
-23.8006
 21
-18.2628
  0
LINE
  8
0
 10
-23.8006
 20
-18.2628
 11
-22.5552
 21
-19.7804
  0
LINE
  8
0
 10
-22.5552
 20
-19.7804
 11
-21.2132
 21
-21.2132
  0
LINE
  8
0
 10
-21.2132
 20
-21.2132
 11
-19.7804
 21
-22.5552
  0
LINE
  8
0
 10
-19.7804
 20
-22.5552
 11
-18.2628
 21
-23.8006
  0
LINE
  8
0
 10
-18.2628
 20
-23.8006
 11
-16.6671
 21
-24.9441
  0
LINE
  8
0
 10
-16.6671
 20
-24.9441
 11
-15
 21
-25.9808
  0
LINE
  8
0
 10
-15
 20
-25.9808
 11
-13.2686
 21
-26.9062
  0
LINE
  8
0
 10
-13.2686
 20
-26.9062
 11
-12.5
 21
-27.2545
  0
LINE
  8
0
 10
-12.5
 20
-27.2545
 11
-12.5
 21
-284
  0
LINE
  8
0
 10
-12.5
 20
-284
 11
12.5
 21
-284
  0
LINE
  8
0
 10
12.5
 20
-284
 11
12.5
 21
-27.2545
  0
LINE
  8
0
 10
11.1665
 20
9.06851
 11
11.02
 21
9.08295
  0
LINE
  8
0
 10
11.02
 20
9.08295
 11
10.8747
 21
9.10693
  0
LINE
  8
0
 10
10.8747
 20
9.10693
 11
10.7314
 21
9.14037
  0
LINE
  8
0
 10
10.7314
 20
9.14037
 11
10.5905
 21
9.18311
  0
LINE
  8
0
 10
10.5905
 20
9.18311
 11
10.4527
 21
9.23497
  0
LINE
  8
0
 10
10.4527
 20
9.23497
 11
10.3186
 21
9.29573
  0
LINE
  8
0
 10
10.3186
 20
9.29573
 11
10.1887
 21
9.36514
  0
LINE
  8
0
 10
10.1887
 20
9.36514
 11
10.0637
 21
9.4429
  0
LINE
  8
0
 10
10.0637
 20
9.4429
 11
9.94398
 21
9.52866
  0
LINE
  8
0
 10
9.94398
 20
9.52866
 11
9.83017
 21
9.62206
  0
LINE
  8
0
 10
9.83017
 20
9.62206
 11
9.72272
 21
9.72272
  0
LINE
  8
0
 10
9.72272
 20
9.72272
 11
9.62206
 21
9.83017
  0
LINE
  8
0
 10
9.62206
 20
9.83017
 11
9.52866
 21
9.94398
  0
LINE
  8
0
 10
9.52866
 20
9.94398
 11
9.4429
 21
10.0637
  0
LINE
  8
0
 10
9.4429
 20
10.0637
 11
9.36514
 21
10.1887
  0
LINE
  8
0
 10
9.36514
 20
10.1887
 11
9.29573
 21
10.3186
  0
LINE
  8
0
 10
9.29573
 20
10.3186
 11
9.23497
 21
10.4527
  0
LINE
  8
0
 10
9.23497
 20
10.4527
 11
9.18311
 21
10.5905
  0
LINE
  8
0
 10
9.18311
 20
10.5905
 11
9.14037
 21
10.7314
  0
LINE
  8
0
 10
9.14037
 20
10.7314
 11
9.10693
 21
10.8747
  0
LINE
  8
0
 10
9.10693
 20
10.8747
 11
9.08295
 21
11.02
  0
LINE
  8
0
 10
9.08295
 20
11.02
 11
9.06851
 21
11.1665
  0
LINE
  8
0
 10
9.06851
 20
11.1665
 11
9.06371
 21
11.3137
  0
LINE
  8
0
 10
9.06371
 20
11.3137
 11
9.06851
 21
11.4609
  0
LINE
  8
0
 10
9.06851
 20
11.4609
 11
9.08295
 21
11.6074
  0
LINE
  8
0
 10
9.08295
 20
11.6074
 11
9.10693
 21
11.7527
  0
LINE
  8
0
 10
9.10693
 20
11.7527
 11
9.14037
 21
11.896
  0
LINE
  8
0
 10
9.14037
 20
11.896
 11
9.18311
 21
12.0369
  0
LINE
  8
0
 10
9.18311
 20
12.0369
 11
9.23497
 21
12.1747
  0
LINE
  8
0
 10
9.23497
 20
12.1747
 11
9.29573
 21
12.3089
  0
LINE
  8
0
 10
9.29573
 20
12.3089
 11
9.36514
 21
12.4387
  0
LINE
  8
0
 10
9.36514
 20
12.4387
 11
9.4429
 21
12.5637
  0
LINE
  8
0
 10
9.4429
 20
12.5637
 11
9.52866
 21
12.6834
  0
LINE
  8
0
 10
9.52866
 20
12.6834
 11
9.62206
 21
12.7972
  0
LINE
  8
0
 10
9.62206
 20
12.7972
 11
9.72272
 21
12.9047
  0
LINE
  8
0
 10
9.72272
 20
12.9047
 11
9.83017
 21
13.0053
  0
LINE
  8
0
 10
9.83017
 20
13.0053
 11
9.94398
 21
13.0987
  0
LINE
  8
0
 10
9.94398
 20
13.0987
 11
10.0637
 21
13.1845
  0
LINE
  8
0
 10
10.0637
 20
13.1845
 11
10.1887
 21
13.2623
  0
LINE
  8
0
 10
10.1887
 20
13.2623
 11
10.3186
 21
13.3317
  0
LINE
  8
0
 10
10.3186
 20
13.3317
 11
10.4527
 21
13.3924
  0
LINE
  8
0
 10
10.4527
 20
13.3924
 11
10.5905
 21
13.4443
  0
LINE
  8
0
 10
10.5905
 20
13.4443
 11
10.7314
 21
13.487
  0
LINE
  8
0
 10
10.7314
 20
13.487
 11
10.8747
 21
13.5205
  0
LINE
  8
0
 10
10.8747
 20
13.5205
 11
11.02
 21
13.5444
  0
LINE
  8
0
 10
11.02
 20
13.5444
 11
11.1665
 21
13.5589
  0
LINE
  8
0
 10
11.1665
 20
13.5589
 11
11.3137
 21
13.5637
  0
LINE
  8
0
 10
11.3137
 20
13.5637
 11
11.4609
 21
13.5589
  0
LINE
  8
0
 10
11.4609
 20
13.5589
 11
11.6074
 21
13.5444
  0
LINE
  8
0
 10
11.6074
 20
13.5444
 11
11.7527
 21
13.5205
  0
LINE
  8
0
 10
11.7527
 20
13.5205
 11
11.896
 21
13.487
  0
LINE
  8
0
 10
11.896
 20
13.487
 11
12.0369
 21
13.4443
  0
LINE
  8
0
 10
12.0369
 20
13.4443
 11
12.1747
 21
13.3924
  0
LINE
  8
0
 10
12.1747
 20
13.3924
 11
12.3089
 21
13.3317
  0
LINE
  8
0
 10
12.3089
 20
13.3317
 11
12.4387
 21
13.2623
  0
LINE
  8
0
 10
12.4387
 20
13.2623
 11
12.5637
 21
13.1845
  0
LINE
  8
0
 10
12.5637
 20
13.1845
 11
12.6834
 21
13.0987
  0
LINE
  8
0
 10
12.6834
 20
13.0987
 11
12.7972
 21
13.0053
  0
LINE
  8
0
 10
12.7972
 20
13.0053
 11
12.9047
 21
12.9047
  0
LINE
  8
0
 10
12.9047
 20
12.9047
 11
13.0053
 21
12.7972
  0
LINE
  8
0
 10
13.0053
 20
12.7972
 11
13.0987
 21
12.6834
  0
LINE
  8
0
 10
13.0987
 20
12.6834
 11
13.1845
 21
12.5637
  0
LINE
  8
0
 10
13.1845
 20
12.5637
 11
13.2623
 21
12.4387
  0
LINE
  8
0
 10
13.2623
 20
12.4387
 11
13.3317
 21
12.3089
  0
LINE
  8
0
 10
13.3317
 20
12.3089
 11
13.3924
 21
12.1747
  0
LINE
  8
0
 10
13.3924
 20
12.1747
 11
13.4443
 21
12.0369
  0
LINE
  8
0
 10
13.4443
 20
12.0369
 11
13.487
 21
11.896
  0
LINE
  8
0
 10
13.487
 20
11.896
 11
13.5205
 21
11.7527
  0
LINE
  8
0
 10
13.5205
 20
11.7527
 11
13.5444
 21
11.6074
  0
LINE
  8
0
 10
13.5444
 20
11.6074
 11
13.5589
 21
11.4609
  0
LINE
  8
0
 10
13.5589
 20
11.4609
 11
13.5637
 21
11.3137
  0
LINE
  8
0
 10
13.5637
 20
11.3137
 11
13.5589
 21
11.1665
  0
LINE
  8
0
 10
13.5589
 20
11.1665
 11
13.5444
 21
11.02
  0
LINE
  8
0
 10
13.5444
 20
11.02
 11
13.5205
 21
10.8747
  0
LINE
  8
0
 10
13.5205
 20
10.8747
 11
13.487
 21
10.7314
  0
LINE
  8
0
 10
13.487
 20
10.7314
 11
13.4443
 21
10.5905
  0
LINE
  8
0
 10
13.4443
 20
10.5905
 11
13.3924
 21
10.4527
  0
LINE
  8
0
 10
13.3924
 20
10.4527
 11
13.3317
 21
10.3186
  0
LINE
  8
0
 10
13.3317
 20
10.3186
 11
13.2623
 21
10.1887
  0
LINE
  8
0
 10
13.2623
 20
10.1887
 11
13.1845
 21
10.0637
  0
LINE
  8
0
 10
13.1845
 20
10.0637
 11
13.0987
 21
9.94398
  0
LINE
  8
0
 10
13.0987
 20
9.94398
 11
13.0053
 21
9.83017
  0
LINE
  8
0
 10
13.0053
 20
9.83017
 11
12.9047
 21
9.72272
  0
LINE
  8
0
 10
12.9047
 20
9.72272
 11
12.7972
 21
9.62206
  0
LINE
  8
0
 10
12.7972
 20
9.62206
 11
12.6834
 21
9.52866
  0
LINE
  8
0
 10
12.6834
 20
9.52866
 11
12.5637
 21
9.4429
  0
LINE
  8
0
 10
12.5637
 20
9.4429
 11
12.4387
 21
9.36514
  0
LINE
  8
0
 10
12.4387
 20
9.36514
 11
12.3089
 21
9.29573
  0
LINE
  8
0
 10
12.3089
 20
9.29573
 11
12.1747
 21
9.23497
  0
LINE
  8
0
 10
12.1747
 20
9.23497
 11
12.0369
 21
9.18311
  0
LINE
  8
0
 10
12.0369
 20
9.18311
 11
11.896
 21
9.14037
  0
LINE
  8
0
 10
11.896
 20
9.14037
 11
11.7527
 21
9.10693
  0
LINE
  8
0
 10
11.7527
 20
9.10693
 11
11.6074
 21
9.08295
  0
LINE
  8
0
 10
11.6074
 20
9.08295
 11
11.4609
 21
9.06851
  0
LINE
  8
0
 10
11.4609
 20
9.06851
 11
11.3137
 21
9.06371
  0
LINE
  8
0
 10
11.3137
 20
9.06371
 11
11.1665
 21
9.06851
  0
LINE
  8
0
 10
-11.4609
 20
9.06851
 11
-11.6074
 21
9.08295
  0
LINE
  8
0
 10
-11.6074
 20
9.08295
 11
-11.7527
 21
9.10693
  0
LINE
  8
0
 10
-11.7527
 20
9.10693
 11
-11.896
 21
9.14037
  0
LINE
  8
0
 10
-11.896
 20
9.14037
 11
-12.0369
 21
9.18311
  0
LINE
  8
0
 10
-12.0369
 20
9.18311
 11
-12.1747
 21
9.23497
  0
LINE
  8
0
 10
-12.1747
 20
9.23497
 11
-12.3089
 21
9.29573
  0
LINE
  8
0
 10
-12.3089
 20
9.29573
 11
-12.4387
 21
9.36514
  0
LINE
  8
0
 10
-12.4387
 20
9.36514
 11
-12.5637
 21
9.4429
  0
LINE
  8
0
 10
-12.5637
 20
9.4429
 11
-12.6834
 21
9.52866
  0
LINE
  8
0
 10
-12.6834
 20
9.52866
 11
-12.7972
 21
9.62206
  0
LINE
  8
0
 10
-12.7972
 20
9.62206
 11
-12.9047
 21
9.72272
  0
LINE
  8
0
 10
-12.9047
 20
9.72272
 11
-13.0053
 21
9.83017
  0
LINE
  8
0
 10
-13.0053
 20
9.83017
 11
-13.0987
 21
9.94398
  0
LINE
  8
0
 10
-13.0987
 20
9.94398
 11
-13.1845
 21
10.0637
  0
LINE
  8
0
 10
-13.1845
 20
10.0637
 11
-13.2623
 21
10.1887
  0
LINE
  8
0
 10
-13.2623
 20
10.1887
 11
-13.3317
 21
10.3186
  0
LINE
  8
0
 10
-13.3317
 20
10.3186
 11
-13.3924
 21
10.4527
  0
LINE
  8
0
 10
-13.3924
 20
10.4527
 11
-13.4443
 21
10.5905
  0
LINE
  8
0
 10
-13.4443
 20
10.5905
 11
-13.487
 21
10.7314
  0
LINE
  8
0
 10
-13.487
 20
10.7314
 11
-13.5205
 21
10.8747
  0
LINE
  8
0
 10
-13.5205
 20
10.8747
 11
-13.5444
 21
11.02
  0
LINE
  8
0
 10
-13.5444
 20
11.02
 11
-13.5589
 21
11.1665
  0
LINE
  8
0
 10
-13.5589
 20
11.1665
 11
-13.5637
 21
11.3137
  0
LINE
  8
0
 10
-13.5637
 20
11.3137
 11
-13.5589
 21
11.4609
  0
LINE
  8
0
 10
-13.5589
 20
11.4609
 11
-13.5444
 21
11.6074
  0
LINE
  8
0
 10
-13.5444
 20
11.6074
 11
-13.5205
 21
11.7527
  0
LINE
  8
0
 10
-13.5205
 20
11.7527
 11
-13.487
 21
11.896
  0
LINE
  8
0
 10
-13.487
 20
11.896
 11
-13.4443
 21
12.0369
  0
LINE
  8
0
 10
-13.4443
 20
12.0369
 11
-13.3924
 21
12.1747
  0
LINE
  8
0
 10
-13.3924
 20
12.1747
 11
-13.3317
 21
12.3089
  0
LINE
  8
0
 10
-13.3317
 20
12.3089
 11
-13.2623
 21
12.4387
  0
LINE
  8
0
 10
-13.2623
 20
12.4387
 11
-13.1845
 21
12.5637
  0
LINE
  8
0
 10
-13.1845
 20
12.5637
 11
-13.0987
 21
12.6834
  0
LINE
  8
0
 10
-13.0987
 20
12.6834
 11
-13.0053
 21
12.7972
  0
LINE
  8
0
 10
-13.0053
 20
12.7972
 11
-12.9047
 21
12.9047
  0
LINE
  8
0
 10
-12.9047
 20
12.9047
 11
-12.7972
 21
13.0053
  0
LINE
  8
0
 10
-12.7972
 20
13.0053
 11
-12.6834
 21
13.0987
  0
LINE
  8
0
 10
-12.6834
 20
13.0987
 11
-12.5637
 21
13.1845
  0
LINE
  8
0
 10
-12.5637
 20
13.1845
 11
-12.4387
 21
13.2623
  0
LINE
  8
0
 10
-12.4387
 20
13.2623
 11
-12.3089
 21
13.3317
  0
LINE
  8
0
 10
-12.3089
 20
13.3317
 11
-12.1747
 21
13.3924
  0
LINE
  8
0
 10
-12.1747
 20
13.3924
 11
-12.0369
 21
13.4443
  0
LINE
  8
0
 10
-12.0369
 20
13.4443
 11
-11.896
 21
13.487
  0
LINE
  8
0
 10
-11.896
 20
13.487
 11
-11.7527
 21
13.5205
  0
LINE
  8
0
 10
-11.7527
 20
13.5205
 11
-11.6074
 21
13.5444
  0
LINE
  8
0
 10
-11.6074
 20
13.5444
 11
-11.4609
 21
13.5589
  0
LINE
  8
0
 10
-11.4609
 20
13.5589
 11
-11.3137
 21
13.5637
  0
LINE
  8
0
 10
-11.3137
 20
13.5637
 11
-11.1665
 21
13.5589
  0
LINE
  8
0
 10
-11.1665
 20
13.5589
 11
-11.02
 21
13.5444
  0
LINE
  8
0
 10
-11.02
 20
13.5444
 11
-10.8747
 21
13.5205
  0
LINE
  8
0
 10
-10.8747
 20
13.5205
 11
-10.7314
 21
13.487
  0
LINE
  8
0
 10
-10.7314
 20
13.487
 11
-10.5905
 21
13.4443
  0
LINE
  8
0
 10
-10.5905
 20
13.4443
 11
-10.4527
 21
13.3924
  0
LINE
  8
0
 10
-10.4527
 20
13.3924
 11
-10.3186
 21
13.3317
  0
LINE
  8
0
 10
-10.3186
 20
13.3317
 11
-10.1887
 21
13.2623
  0
LINE
  8
0
 10
-10.1887
 20
13.2623
 11
-10.0637
 21
13.1845
  0
LINE
  8
0
 10
-10.0637
 20
13.1845
 11
-9.94398
 21
13.0987
  0
LINE
  8
0
 10
-9.94398
 20
13.0987
 11
-9.83017
 21
13.0053
  0
LINE
  8
0
 10
-9.83017
 20
13.0053
 11
-9.72272
 21
12.9047
  0
LINE
  8
0
 10
-9.72272
 20
12.9047
 11
-9.62206
 21
12.7972
  0
LINE
  8
0
 10
-9.62206
 20
12.7972
 11
-9.52866
 21
12.6834
  0
LINE
  8
0
 10
-9.52866
 20
12.6834
 11
-9.4429
 21
12.5637
  0
LINE
  8
0
 10
-9.4429
 20
12.5637
 11
-9.36514
 21
12.4387
  0
LINE
  8
0
 10
-9.36514
 20
12.4387
 11
-9.29573
 21
12.3089
  0
LINE
  8
0
 10
-9.29573
 20
12.3089
 11
-9.23497
 21
12.1747
  0
LINE
  8
0
 10
-9.23497
 20
12.1747
 11
-9.18311
 21
12.0369
  0
LINE
  8
0
 10
-9.18311
 20
12.0369
 11
-9.14037
 21
11.896
  0
LINE
  8
0
 10
-9.14037
 20
11.896
 11
-9.10693
 21
11.7527
  0
LINE
  8
0
 10
-9.10693
 20
11.7527
 11
-9.08295
 21
11.6074
  0
LINE
  8
0
 10
-9.08295
 20
11.6074
 11
-9.06851
 21
11.4609
  0
LINE
  8
0
 10
-9.06851
 20
11.4609
 11
-9.06371
 21
11.3137
  0
LINE
  8
0
 10
-9.06371
 20
11.3137
 11
-9.06851
 21
11.1665
  0
LINE
  8
0
 10
-9.06851
 20
11.1665
 11
-9.08295
 21
11.02
  0
LINE
  8
0
 10
-9.08295
 20
11.02
 11
-9.10693
 21
10.8747
  0
LINE
  8
0
 10
-9.10693
 20
10.8747
 11
-9.14037
 21
10.7314
  0
LINE
  8
0
 10
-9.14037
 20
10.7314
 11
-9.18311
 21
10.5905
  0
LINE
  8
0
 10
-9.18311
 20
10.5905
 11
-9.23497
 21
10.4527
  0
LINE
  8
0
 10
-9.23497
 20
10.4527
 11
-9.29573
 21
10.3186
  0
LINE
  8
0
 10
-9.29573
 20
10.3186
 11
-9.36514
 21
10.1887
  0
LINE
  8
0
 10
-9.36514
 20
10.1887
 11
-9.4429
 21
10.0637
  0
LINE
  8
0
 10
-9.4429
 20
10.0637
 11
-9.52866
 21
9.94398
  0
LINE
  8
0
 10
-9.52866
 20
9.94398
 11
-9.62206
 21
9.83017
  0
LINE
  8
0
 10
-9.62206
 20
9.83017
 11
-9.72272
 21
9.72272
  0
LINE
  8
0
 10
-9.72272
 20
9.72272
 11
-9.83017
 21
9.62206
  0
LINE
  8
0
 10
-9.83017
 20
9.62206
 11
-9.94398
 21
9.52866
  0
LINE
  8
0
 10
-9.94398
 20
9.52866
 11
-10.0637
 21
9.4429
  0
LINE
  8
0
 10
-10.0637
 20
9.4429
 11
-10.1887
 21
9.36514
  0
LINE
  8
0
 10
-10.1887
 20
9.36514
 11
-10.3186
 21
9.29573
  0
LINE
  8
0
 10
-10.3186
 20
9.29573
 11
-10.4527
 21
9.23497
  0
LINE
  8
0
 10
-10.4527
 20
9.23497
 11
-10.5905
 21
9.18311
  0
LINE
  8
0
 10
-10.5905
 20
9.18311
 11
-10.7314
 21
9.14037
  0
LINE
  8
0
 10
-10.7314
 20
9.14037
 11
-10.8747
 21
9.10693
  0
LINE
  8
0
 10
-10.8747
 20
9.10693
 11
-11.02
 21
9.08295
  0
LINE
  8
0
 10
-11.02
 20
9.08295
 11
-11.1665
 21
9.06851
  0
LINE
  8
0
 10
-11.1665
 20
9.06851
 11
-11.3137
 21
9.06371
  0
LINE
  8
0
 10
-11.3137
 20
9.06371
 11
-11.4609
 21
9.06851
  0
LINE
  8
0
 10
-0.408768
 20
-6.23662
 11
-0.815781
 21
-6.19652
  0
LINE
  8
0
 10
-0.815781
 20
-6.19652
 11
-1.2193
 21
-6.1299
  0
LINE
  8
0
 10
-1.2193
 20
-6.1299
 11
-1.61761
 21
-6.03703
  0
LINE
  8
0
 10
-1.61761
 20
-6.03703
 11
-2.00899
 21
-5.9183
  0
LINE
  8
0
 10
-2.00899
 20
-5.9183
 11
-2.39177
 21
-5.77425
  0
LINE
  8
0
 10
-2.39177
 20
-5.77425
 11
-2.7643
 21
-5.60545
  0
LINE
  8
0
 10
-2.7643
 20
-5.60545
 11
-3.125
 21
-5.41266
  0
LINE
  8
0
 10
-3.125
 20
-5.41266
 11
-3.47231
 21
-5.19667
  0
LINE
  8
0
 10
-3.47231
 20
-5.19667
 11
-3.80475
 21
-4.95845
  0
LINE
  8
0
 10
-3.80475
 20
-4.95845
 11
-4.12091
 21
-4.69899
  0
LINE
  8
0
 10
-4.12091
 20
-4.69899
 11
-4.4194
 21
-4.4194
  0
LINE
  8
0
 10
-4.4194
 20
-4.4194
 11
-4.69899
 21
-4.12091
  0
LINE
  8
0
 10
-4.69899
 20
-4.12091
 11
-4.95845
 21
-3.80475
  0
LINE
  8
0
 10
-4.95845
 20
-3.80475
 11
-5.19667
 21
-3.47231
  0
LINE
  8
0
 10
-5.19667
 20
-3.47231
 11
-5.41266
 21
-3.125
  0
LINE
  8
0
 10
-5.41266
 20
-3.125
 11
-5.60545
 21
-2.7643
  0
LINE
  8
0
 10
-5.60545
 20
-2.7643
 11
-5.77425
 21
-2.39177
  0
LINE
  8
0
 10
-5.77425
 20
-2.39177
 11
-5.9183
 21
-2.00899
  0
LINE
  8
0
 10
-5.9183
 20
-2.00899
 11
-6.03703
 21
-1.61761
  0
LINE
  8
0
 10
-6.03703
 20
-1.61761
 11
-6.1299
 21
-1.2193
  0
LINE
  8
0
 10
-6.1299
 20
-1.2193
 11
-6.19652
 21
-0.815781
  0
LINE
  8
0
 10
-6.19652
 20
-0.815781
 11
-6.23662
 21
-0.408768
  0
LINE
  8
0
 10
-6.23662
 20
-0.408768
 11
-6.25
 21
0
  0
LINE
  8
0
 10
-6.25
 20
0
 11
-6.23662
 21
0.408768
  0
LINE
  8
0
 10
-6.23662
 20
0.408768
 11
-6.19652
 21
0.815781
  0
LINE
  8
0
 10
-6.19652
 20
0.815781
 11
-6.1299
 21
1.2193
  0
LINE
  8
0
 10
-6.1299
 20
1.2193
 11
-6.03703
 21
1.61761
  0
LINE
  8
0
 10
-6.03703
 20
1.61761
 11
-5.9183
 21
2.00899
  0
LINE
  8
0
 10
-5.9183
 20
2.00899
 11
-5.77425
 21
2.39177
  0
LINE
  8
0
 10
-5.77425
 20
2.39177
 11
-5.60545
 21
2.7643
  0
LINE
  8
0
 10
-5.60545
 20
2.7643
 11
-5.41266
 21
3.125
  0
LINE
  8
0
 10
-5.41266
 20
3.125
 11
-5.19667
 21
3.47231
  0
LINE
  8
0
 10
-5.19667
 20
3.47231
 11
-4.95845
 21
3.80475
  0
LINE
  8
0
 10
-4.95845
 20
3.80475
 11
-4.69899
 21
4.12091
  0
LINE
  8
0
 10
-4.69899
 20
4.12091
 11
-4.4194
 21
4.4194
  0
LINE
  8
0
 10
-4.4194
 20
4.4194
 11
-4.12091
 21
4.69899
  0
LINE
  8
0
 10
-4.12091
 20
4.69899
 11
-3.80475
 21
4.95845
  0
LINE
  8
0
 10
-3.80475
 20
4.95845
 11
-3.47231
 21
5.19667
  0
LINE
  8
0
 10
-3.47231
 20
5.19667
 11
-3.125
 21
5.41266
  0
LINE
  8
0
 10
-3.125
 20
5.41266
 11
-2.7643
 21
5.60545
  0
LINE
  8
0
 10
-2.7643
 20
5.60545
 11
-2.39177
 21
5.77425
  0
LINE
  8
0
 10
-2.39177
 20
5.77425
 11
-2.00899
 21
5.9183
  0
LINE
  8
0
 10
-2.00899
 20
5.9183
 11
-1.61761
 21
6.03703
  0
LINE
  8
0
 10
-1.61761
 20
6.03703
 11
-1.2193
 21
6.1299
  0
LINE
  8
0
 10
-1.2193
 20
6.1299
 11
-0.815781
 21
6.19652
  0
LINE
  8
0
 10
-0.815781
 20
6.19652
 11
-0.408768
 21
6.23662
  0
LINE
  8
0
 10
-0.408768
 20
6.23662
 11
0
 21
6.25
  0
LINE
  8
0
 10
0
 20
6.25
 11
0.408768
 21
6.23662
  0
LINE
  8
0
 10
0.408768
 20
6.23662
 11
0.815781
 21
6.19652
  0
LINE
  8
0
 10
0.815781
 20
6.19652
 11
1.2193
 21
6.1299
  0
LINE
  8
0
 10
1.2193
 20
6.1299
 11
1.61761
 21
6.03703
  0
LINE
  8
0
 10
1.61761
 20
6.03703
 11
2.00899
 21
5.9183
  0
LINE
  8
0
 10
2.00899
 20
5.9183
 11
2.39177
 21
5.77425
  0
LINE
  8
0
 10
2.39177
 20
5.77425
 11
2.7643
 21
5.60545
  0
LINE
  8
0
 10
2.7643
 20
5.60545
 11
3.125
 21
5.41266
  0
LINE
  8
0
 10
3.125
 20
5.41266
 11
3.47231
 21
5.19667
  0
LINE
  8
0
 10
3.47231
 20
5.19667
 11
3.80475
 21
4.95845
  0
LINE
  8
0
 10
3.80475
 20
4.95845
 11
4.12091
 21
4.69899
  0
LINE
  8
0
 10
4.12091
 20
4.69899
 11
4.4194
 21
4.4194
  0
LINE
  8
0
 10
4.4194
 20
4.4194
 11
4.69899
 21
4.12091
  0
LINE
  8
0
 10
4.69899
 20
4.12091
 11
4.95845
 21
3.80475
  0
LINE
  8
0
 10
4.95845
 20
3.80475
 11
5.19667
 21
3.47231
  0
LINE
  8
0
 10
5.19667
 20
3.47231
 11
5.41266
 21
3.125
  0
LINE
  8
0
 10
5.41266
 20
3.125
 11
5.60545
 21
2.7643
  0
LINE
  8
0
 10
5.60545
 20
2.7643
 11
5.77425
 21
2.39177
  0
LINE
  8
0
 10
5.77425
 20
2.39177
 11
5.9183
 21
2.00899
  0
LINE
  8
0
 10
5.9183
 20
2.00899
 11
6.03703
 21
1.61761
  0
LINE
  8
0
 10
6.03703
 20
1.61761
 11
6.1299
 21
1.2193
  0
LINE
  8
0
 10
6.1299
 20
1.2193
 11
6.19652
 21
0.815781
  0
LINE
  8
0
 10
6.19652
 20
0.815781
 11
6.23662
 21
0.408768
  0
LINE
  8
0
 10
6.23662
 20
0.408768
 11
6.25
 21
0
  0
LINE
  8
0
 10
6.25
 20
0
 11
6.23662
 21
-0.408768
  0
LINE
  8
0
 10
6.23662
 20
-0.408768
 11
6.19652
 21
-0.815781
  0
LINE
  8
0
 10
6.19652
 20
-0.815781
 11
6.1299
 21
-1.2193
  0
LINE
  8
0
 10
6.1299
 20
-1.2193
 11
6.03703
 21
-1.61761
  0
LINE
  8
0
 10
6.03703
 20
-1.61761
 11
5.9183
 21
-2.00899
  0
LINE
  8
0
 10
5.9183
 20
-2.00899
 11
5.77425
 21
-2.39177
  0
LINE
  8
0
 10
5.77425
 20
-2.39177
 11
5.60545
 21
-2.7643
  0
LINE
  8
0
 10
5.60545
 20
-2.7643
 11
5.41266
 21
-3.125
  0
LINE
  8
0
 10
5.41266
 20
-3.125
 11
5.19667
 21
-3.47231
  0
LINE
  8
0
 10
5.19667
 20
-3.47231
 11
4.95845
 21
-3.80475
  0
LINE
  8
0
 10
4.95845
 20
-3.80475
 11
4.69899
 21
-4.12091
  0
LINE
  8
0
 10
4.69899
 20
-4.12091
 11
4.4194
 21
-4.4194
  0
LINE
  8
0
 10
4.4194
 20
-4.4194
 11
4.12091
 21
-4.69899
  0
LINE
  8
0
 10
4.12091
 20
-4.69899
 11
3.80475
 21
-4.95845
  0
LINE
  8
0
 10
3.80475
 20
-4.95845
 11
3.47231
 21
-5.19667
  0
LINE
  8
0
 10
3.47231
 20
-5.19667
 11
3.125
 21
-5.41266
  0
LINE
  8
0
 10
3.125
 20
-5.41266
 11
2.7643
 21
-5.60545
  0
LINE
  8
0
 10
2.7643
 20
-5.60545
 11
2.39177
 21
-5.77425
  0
LINE
  8
0
 10
2.39177
 20
-5.77425
 11
2.00899
 21
-5.9183
  0
LINE
  8
0
 10
2.00899
 20
-5.9183
 11
1.61761
 21
-6.03703
  0
LINE
  8
0
 10
1.61761
 20
-6.03703
 11
1.2193
 21
-6.1299
  0
LINE
  8
0
 10
1.2193
 20
-6.1299
 11
0.815781
 21
-6.19652
  0
LINE
  8
0
 10
0.815781
 20
-6.19652
 11
0.408768
 21
-6.23662
  0
LINE
  8
0
 10
0.408768
 20
-6.23662
 11
0
 21
-6.25
  0
LINE
  8
0
 10
0
 20
-6.25
 11
-0.408768
 21
-6.23662
  0
LINE
  8
0
 10
-11.4609
 20
-13.5589
 11
-11.6074
 21
-13.5444
  0
LINE
  8
0
 10
-11.6074
 20
-13.5444
 11
-11.7527
 21
-13.5205
  0
LINE
  8
0
 10
-11.7527
 20
-13.5205
 11
-11.896
 21
-13.487
  0
LINE
  8
0
 10
-11.896
 20
-13.487
 11
-12.0369
 21
-13.4443
  0
LINE
  8
0
 10
-12.0369
 20
-13.4443
 11
-12.1747
 21
-13.3924
  0
LINE
  8
0
 10
-12.1747
 20
-13.3924
 11
-12.3089
 21
-13.3317
  0
LINE
  8
0
 10
-12.3089
 20
-13.3317
 11
-12.4387
 21
-13.2623
  0
LINE
  8
0
 10
-12.4387
 20
-13.2623
 11
-12.5637
 21
-13.1845
  0
LINE
  8
0
 10
-12.5637
 20
-13.1845
 11
-12.6834
 21
-13.0987
  0
LINE
  8
0
 10
-12.6834
 20
-13.0987
 11
-12.7972
 21
-13.0053
  0
LINE
  8
0
 10
-12.7972
 20
-13.0053
 11
-12.9047
 21
-12.9047
  0
LINE
  8
0
 10
-12.9047
 20
-12.9047
 11
-13.0053
 21
-12.7972
  0
LINE
  8
0
 10
-13.0053
 20
-12.7972
 11
-13.0987
 21
-12.6834
  0
LINE
  8
0
 10
-13.0987
 20
-12.6834
 11
-13.1845
 21
-12.5637
  0
LINE
  8
0
 10
-13.1845
 20
-12.5637
 11
-13.2623
 21
-12.4387
  0
LINE
  8
0
 10
-13.2623
 20
-12.4387
 11
-13.3317
 21
-12.3089
  0
LINE
  8
0
 10
-13.3317
 20
-12.3089
 11
-13.3924
 21
-12.1747
  0
LINE
  8
0
 10
-13.3924
 20
-12.1747
 11
-13.4443
 21
-12.0369
  0
LINE
  8
0
 10
-13.4443
 20
-12.0369
 11
-13.487
 21
-11.896
  0
LINE
  8
0
 10
-13.487
 20
-11.896
 11
-13.5205
 21
-11.7527
  0
LINE
  8
0
 10
-13.5205
 20
-11.7527
 11
-13.5444
 21
-11.6074
  0
LINE
  8
0
 10
-13.5444
 20
-11.6074
 11
-13.5589
 21
-11.4609
  0
LINE
  8
0
 10
-13.5589
 20
-11.4609
 11
-13.5637
 21
-11.3137
  0
LINE
  8
0
 10
-13.5637
 20
-11.3137
 11
-13.5589
 21
-11.1665
  0
LINE
  8
0
 10
-13.5589
 20
-11.1665
 11
-13.5444
 21
-11.02
  0
LINE
  8
0
 10
-13.5444
 20
-11.02
 11
-13.5205
 21
-10.8747
  0
LINE
  8
0
 10
-13.5205
 20
-10.8747
 11
-13.487
 21
-10.7314
  0
LINE
  8
0
 10
-13.487
 20
-10.7314
 11
-13.4443
 21
-10.5905
  0
LINE
  8
0
 10
-13.4443
 20
-10.5905
 11
-13.3924
 21
-10.4527
  0
LINE
  8
0
 10
-13.3924
 20
-10.4527
 11
-13.3317
 21
-10.3186
  0
LINE
  8
0
 10
-13.3317
 20
-10.3186
 11
-13.2623
 21
-10.1887
  0
LINE
  8
0
 10
-13.2623
 20
-10.1887
 11
-13.1845
 21
-10.0637
  0
LINE
  8
0
 10
-13.1845
 20
-10.0637
 11
-13.0987
 21
-9.94398
  0
LINE
  8
0
 10
-13.0987
 20
-9.94398
 11
-13.0053
 21
-9.83017
  0
LINE
  8
0
 10
-13.0053
 20
-9.83017
 11
-12.9047
 21
-9.72272
  0
LINE
  8
0
 10
-12.9047
 20
-9.72272
 11
-12.7972
 21
-9.62206
  0
LINE
  8
0
 10
-12.7972
 20
-9.62206
 11
-12.6834
 21
-9.52866
  0
LINE
  8
0
 10
-12.6834
 20
-9.52866
 11
-12.5637
 21
-9.4429
  0
LINE
  8
0
 10
-12.5637
 20
-9.4429
 11
-12.4387
 21
-9.36514
  0
LINE
  8
0
 10
-12.4387
 20
-9.36514
 11
-12.3089
 21
-9.29573
  0
LINE
  8
0
 10
-12.3089
 20
-9.29573
 11
-12.1747
 21
-9.23497
  0
LINE
  8
0
 10
-12.1747
 20
-9.23497
 11
-12.0369
 21
-9.18311
  0
LINE
  8
0
 10
-12.0369
 20
-9.18311
 11
-11.896
 21
-9.14037
  0
LINE
  8
0
 10
-11.896
 20
-9.14037
 11
-11.7527
 21
-9.10693
  0
LINE
  8
0
 10
-11.7527
 20
-9.10693
 11
-11.6074
 21
-9.08295
  0
LINE
  8
0
 10
-11.6074
 20
-9.08295
 11
-11.4609
 21
-9.06851
  0
LINE
  8
0
 10
-11.4609
 20
-9.06851
 11
-11.3137
 21
-9.06371
  0
LINE
  8
0
 10
-11.3137
 20
-9.06371
 11
-11.1665
 21
-9.06851
  0
LINE
  8
0
 10
-11.1665
 20
-9.06851
 11
-11.02
 21
-9.08295
  0
LINE
  8
0
 10
-11.02
 20
-9.08295
 11
-10.8747
 21
-9.10693
  0
LINE
  8
0
 10
-10.8747
 20
-9.10693
 11
-10.7314
 21
-9.14037
  0
LINE
  8
0
 10
-10.7314
 20
-9.14037
 11
-10.5905
 21
-9.18311
  0
LINE
  8
0
 10
-10.5905
 20
-9.18311
 11
-10.4527
 21
-9.23497
  0
LINE
  8
0
 10
-10.4527
 20
-9.23497
 11
-10.3186
 21
-9.29573
  0
LINE
  8
0
 10
-10.3186
 20
-9.29573
 11
-10.1887
 21
-9.36514
  0
LINE
  8
0
 10
-10.1887
 20
-9.36514
 11
-10.0637
 21
-9.4429
  0
LINE
  8
0
 10
-10.0637
 20
-9.4429
 11
-9.94398
 21
-9.52866
  0
LINE
  8
0
 10
-9.94398
 20
-9.52866
 11
-9.83017
 21
-9.62206
  0
LINE
  8
0
 10
-9.83017
 20
-9.62206
 11
-9.72272
 21
-9.72272
  0
LINE
  8
0
 10
-9.72272
 20
-9.72272
 11
-9.62206
 21
-9.83017
  0
LINE
  8
0
 10
-9.62206
 20
-9.83017
 11
-9.52866
 21
-9.94398
  0
LINE
  8
0
 10
-9.52866
 20
-9.94398
 11
-9.4429
 21
-10.0637
  0
LINE
  8
0
 10
-9.4429
 20
-10.0637
 11
-9.36514
 21
-10.1887
  0
LINE
  8
0
 10
-9.36514
 20
-10.1887
 11
-9.29573
 21
-10.3186
  0
LINE
  8
0
 10
-9.29573
 20
-10.3186
 11
-9.23497
 21
-10.4527
  0
LINE
  8
0
 10
-9.23497
 20
-10.4527
 11
-9.18311
 21
-10.5905
  0
LINE
  8
0
 10
-9.18311
 20
-10.5905
 11
-9.14037
 21
-10.7314
  0
LINE
  8
0
 10
-9.14037
 20
-10.7314
 11
-9.10693
 21
-10.8747
  0
LINE
  8
0
 10
-9.10693
 20
-10.8747
 11
-9.08295
 21
-11.02
  0
LINE
  8
0
 10
-9.08295
 20
-11.02
 11
-9.06851
 21
-11.1665
  0
LINE
  8
0
 10
-9.06851
 20
-11.1665
 11
-9.06371
 21
-11.3137
  0
LINE
  8
0
 10
-9.06371
 20
-11.3137
 11
-9.06851
 21
-11.4609
  0
LINE
  8
0
 10
-9.06851
 20
-11.4609
 11
-9.08295
 21
-11.6074
  0
LINE
  8
0
 10
-9.08295
 20
-11.6074
 11
-9.10693
 21
-11.7527
  0
LINE
  8
0
 10
-9.10693
 20
-11.7527
 11
-9.14037
 21
-11.896
  0
LINE
  8
0
 10
-9.14037
 20
-11.896
 11
-9.18311
 21
-12.0369
  0
LINE
  8
0
 10
-9.18311
 20
-12.0369
 11
-9.23497
 21
-12.1747
  0
LINE
  8
0
 10
-9.23497
 20
-12.1747
 11
-9.29573
 21
-12.3089
  0
LINE
  8
0
 10
-9.29573
 20
-12.3089
 11
-9.36514
 21
-12.4387
  0
LINE
  8
0
 10
-9.36514
 20
-12.4387
 11
-9.4429
 21
-12.5637
  0
LINE
  8
0
 10
-9.4429
 20
-12.5637
 11
-9.52866
 21
-12.6834
  0
LINE
  8
0
 10
-9.52866
 20
-12.6834
 11
-9.62206
 21
-12.7972
  0
LINE
  8
0
 10
-9.62206
 20
-12.7972
 11
-9.72272
 21
-12.9047
  0
LINE
  8
0
 10
-9.72272
 20
-12.9047
 11
-9.83017
 21
-13.0053
  0
LINE
  8
0
 10
-9.83017
 20
-13.0053
 11
-9.94398
 21
-13.0987
  0
LINE
  8
0
 10
-9.94398
 20
-13.0987
 11
-10.0637
 21
-13.1845
  0
LINE
  8
0
 10
-10.0637
 20
-13.1845
 11
-10.1887
 21
-13.2623
  0
LINE
  8
0
 10
-10.1887
 20
-13.2623
 11
-10.3186
 21
-13.3317
  0
LINE
  8
0
 10
-10.3186
 20
-13.3317
 11
-10.4527
 21
-13.3924
  0
LINE
  8
0
 10
-10.4527
 20
-13.3924
 11
-10.5905
 21
-13.4443
  0
LINE
  8
0
 10
-10.5905
 20
-13.4443
 11
-10.7314
 21
-13.487
  0
LINE
  8
0
 10
-10.7314
 20
-13.487
 11
-10.8747
 21
-13.5205
  0
LINE
  8
0
 10
-10.8747
 20
-13.5205
 11
-11.02
 21
-13.5444
  0
LINE
  8
0
 10
-11.02
 20
-13.5444
 11
-11.1665
 21
-13.5589
  0
LINE
  8
0
 10
-11.1665
 20
-13.5589
 11
-11.3137
 21
-13.5637
  0
LINE
  8
0
 10
-11.3137
 20
-13.5637
 11
-11.4609
 21
-13.5589
  0
LINE
  8
0
 10
11.1665
 20
-13.5589
 11
11.02
 21
-13.5444
  0
LINE
  8
0
 10
11.02
 20
-13.5444
 11
10.8747
 21
-13.5205
  0
LINE
  8
0
 10
10.8747
 20
-13.5205
 11
10.7314
 21
-13.487
  0
LINE
  8
0
 10
10.7314
 20
-13.487
 11
10.5905
 21
-13.4443
  0
LINE
  8
0
 10
10.5905
 20
-13.4443
 11
10.4527
 21
-13.3924
  0
LINE
  8
0
 10
10.4527
 20
-13.3924
 11
10.3186
 21
-13.3317
  0
LINE
  8
0
 10
10.3186
 20
-13.3317
 11
10.1887
 21
-13.2623
  0
LINE
  8
0
 10
10.1887
 20
-13.2623
 11
10.0637
 21
-13.1845
  0
LINE
  8
0
 10
10.0637
 20
-13.1845
 11
9.94398
 21
-13.0987
  0
LINE
  8
0
 10
9.94398
 20
-13.0987
 11
9.83017
 21
-13.0053
  0
LINE
  8
0
 10
9.83017
 20
-13.0053
 11
9.72272
 21
-12.9047
  0
LINE
  8
0
 10
9.72272
 20
-12.9047
 11
9.62206
 21
-12.7972
  0
LINE
  8
0
 10
9.62206
 20
-12.7972
 11
9.52866
 21
-12.6834
  0
LINE
  8
0
 10
9.52866
 20
-12.6834
 11
9.4429
 21
-12.5637
  0
LINE
  8
0
 10
9.4429
 20
-12.5637
 11
9.36514
 21
-12.4387
  0
LINE
  8
0
 10
9.36514
 20
-12.4387
 11
9.29573
 21
-12.3089
  0
LINE
  8
0
 10
9.29573
 20
-12.3089
 11
9.23497
 21
-12.1747
  0
LINE
  8
0
 10
9.23497
 20
-12.1747
 11
9.18311
 21
-12.0369
  0
LINE
  8
0
 10
9.18311
 20
-12.0369
 11
9.14037
 21
-11.896
  0
LINE
  8
0
 10
9.14037
 20
-11.896
 11
9.10693
 21
-11.7527
  0
LINE
  8
0
 10
9.10693
 20
-11.7527
 11
9.08295
 21
-11.6074
  0
LINE
  8
0
 10
9.08295
 20
-11.6074
 11
9.06851
 21
-11.4609
  0
LINE
  8
0
 10
9.06851
 20
-11.4609
 11
9.06371
 21
-11.3137
  0
LINE
  8
0
 10
9.06371
 20
-11.3137
 11
9.06851
 21
-11.1665
  0
LINE
  8
0
 10
9.06851
 20
-11.1665
 11
9.08295
 21
-11.02
  0
LINE
  8
0
 10
9.08295
 20
-11.02
 11
9.10693
 21
-10.8747
  0
LINE
  8
0
 10
9.10693
 20
-10.8747
 11
9.14037
 21
-10.7314
  0
LINE
  8
0
 10
9.14037
 20
-10.7314
 11
9.18311
 21
-10.5905
  0
LINE
  8
0
 10
9.18311
 20
-10.5905
 11
9.23497
 21
-10.4527
  0
LINE
  8
0
 10
9.23497
 20
-10.4527
 11
9.29573
 21
-10.3186
  0
LINE
  8
0
 10
9.29573
 20
-10.3186
 11
9.36514
 21
-10.1887
  0
LINE
  8
0
 10
9.36514
 20
-10.1887
 11
9.4429
 21
-10.0637
  0
LINE
  8
0
 10
9.4429
 20
-10.0637
 11
9.52866
 21
-9.94398
  0
LINE
  8
0
 10
9.52866
 20
-9.94398
 11
9.62206
 21
-9.83017
  0
LINE
  8
0
 10
9.62206
 20
-9.83017
 11
9.72272
 21
-9.72272
  0
LINE
  8
0
 10
9.72272
 20
-9.72272
 11
9.83017
 21
-9.62206
  0
LINE
  8
0
 10
9.83017
 20
-9.62206
 11
9.94398
 21
-9.52866
  0
LINE
  8
0
 10
9.94398
 20
-9.52866
 11
10.0637
 21
-9.4429
  0
LINE
  8
0
 10
10.0637
 20
-9.4429
 11
10.1887
 21
-9.36514
  0
LINE
  8
0
 10
10.1887
 20
-9.36514
 11
10.3186
 21
-9.29573
  0
LINE
  8
0
 10
10.3186
 20
-9.29573
 11
10.4527
 21
-9.23497
  0
LINE
  8
0
 10
10.4527
 20
-9.23497
 11
10.5905
 21
-9.18311
  0
LINE
  8
0
 10
10.5905
 20
-9.18311
 11
10.7314
 21
-9.14037
  0
LINE
  8
0
 10
10.7314
 20
-9.14037
 11
10.8747
 21
-9.10693
  0
LINE
  8
0
 10
10.8747
 20
-9.10693
 11
11.02
 21
-9.08295
  0
LINE
  8
0
 10
11.02
 20
-9.08295
 11
11.1665
 21
-9.06851
  0
LINE
  8
0
 10
11.1665
 20
-9.06851
 11
11.3137
 21
-9.06371
  0
LINE
  8
0
 10
11.3137
 20
-9.06371
 11
11.4609
 21
-9.06851
  0
LINE
  8
0
 10
11.4609
 20
-9.06851
 11
11.6074
 21
-9.08295
  0
LINE
  8
0
 10
11.6074
 20
-9.08295
 11
11.7527
 21
-9.10693
  0
LINE
  8
0
 10
11.7527
 20
-9.10693
 11
11.896
 21
-9.14037
  0
LINE
  8
0
 10
11.896
 20
-9.14037
 11
12.0369
 21
-9.18311
  0
LINE
  8
0
 10
12.0369
 20
-9.18311
 11
12.1747
 21
-9.23497
  0
LINE
  8
0
 10
12.1747
 20
-9.23497
 11
12.3089
 21
-9.29573
  0
LINE
  8
0
 10
12.3089
 20
-9.29573
 11
12.4387
 21
-9.36514
  0
LINE
  8
0
 10
12.4387
 20
-9.36514
 11
12.5637
 21
-9.4429
  0
LINE
  8
0
 10
12.5637
 20
-9.4429
 11
12.6834
 21
-9.52866
  0
LINE
  8
0
 10
12.6834
 20
-9.52866
 11
12.7972
 21
-9.62206
  0
LINE
  8
0
 10
12.7972
 20
-9.62206
 11
12.9047
 21
-9.72272
  0
LINE
  8
0
 10
12.9047
 20
-9.72272
 11
13.0053
 21
-9.83017
  0
LINE
  8
0
 10
13.0053
 20
-9.83017
 11
13.0987
 21
-9.94398
  0
LINE
  8
0
 10
13.0987
 20
-9.94398
 11
13.1845
 21
-10.0637
  0
LINE
  8
0
 10
13.1845
 20
-10.0637
 11
13.2623
 21
-10.1887
  0
LINE
  8
0
 10
13.2623
 20
-10.1887
 11
13.3317
 21
-10.3186
  0
LINE
  8
0
 10
13.3317
 20
-10.3186
 11
13.3924
 21
-10.4527
  0
LINE
  8
0
 10
13.3924
 20
-10.4527
 11
13.4443
 21
-10.5905
  0
LINE
  8
0
 10
13.4443
 20
-10.5905
 11
13.487
 21
-10.7314
  0
LINE
  8
0
 10
13.487
 20
-10.7314
 11
13.5205
 21
-10.8747
  0
LINE
  8
0
 10
13.5205
 20
-10.8747
 11
13.5444
 21
-11.02
  0
LINE
  8
0
 10
13.5444
 20
-11.02
 11
13.5589
 21
-11.1665
  0
LINE
  8
0
 10
13.5589
 20
-11.1665
 11
13.5637
 21
-11.3137
  0
LINE
  8
0
 10
13.5637
 20
-11.3137
 11
13.5589
 21
-11.4609
  0
LINE
  8
0
 10
13.5589
 20
-11.4609
 11
13.5444
 21
-11.6074
  0
LINE
  8
0
 10
13.5444
 20
-11.6074
 11
13.5205
 21
-11.7527
  0
LINE
  8
0
 10
13.5205
 20
-11.7527
 11
13.487
 21
-11.896
  0
LINE
  8
0
 10
13.487
 20
-11.896
 11
13.4443
 21
-12.0369
  0
LINE
  8
0
 10
13.4443
 20
-12.0369
 11
13.3924
 21
-12.1747
  0
LINE
  8
0
 10
13.3924
 20
-12.1747
 11
13.3317
 21
-12.3089
  0
LINE
  8
0
 10
13.3317
 20
-12.3089
 11
13.2623
 21
-12.4387
  0
LINE
  8
0
 10
13.2623
 20
-12.4387
 11
13.1845
 21
-12.5637
  0
LINE
  8
0
 10
13.1845
 20
-12.5637
 11
13.0987
 21
-12.6834
  0
LINE
  8
0
 10
13.0987
 20
-12.6834
 11
13.0053
 21
-12.7972
  0
LINE
  8
0
 10
13.0053
 20
-12.7972
 11
12.9047
 21
-12.9047
  0
LINE
  8
0
 10
12.9047
 20
-12.9047
 11
12.7972
 21
-13.0053
  0
LINE
  8
0
 10
12.7972
 20
-13.0053
 11
12.6834
 21
-13.0987
  0
LINE
  8
0
 10
12.6834
 20
-13.0987
 11
12.5637
 21
-13.1845
  0
LINE
  8
0
 10
12.5637
 20
-13.1845
 11
12.4387
 21
-13.2623
  0
LINE
  8
0
 10
12.4387
 20
-13.2623
 11
12.3089
 21
-13.3317
  0
LINE
  8
0
 10
12.3089
 20
-13.3317
 11
12.1747
 21
-13.3924
  0
LINE
  8
0
 10
12.1747
 20
-13.3924
 11
12.0369
 21
-13.4443
  0
LINE
  8
0
 10
12.0369
 20
-13.4443
 11
11.896
 21
-13.487
  0
LINE
  8
0
 10
11.896
 20
-13.487
 11
11.7527
 21
-13.5205
  0
LINE
  8
0
 10
11.7527
 20
-13.5205
 11
11.6074
 21
-13.5444
  0
LINE
  8
0
 10
11.6074
 20
-13.5444
 11
11.4609
 21
-13.5589
  0
LINE
  8
0
 10
11.4609
 20
-13.5589
 11
11.3137
 21
-13.5637
  0
LINE
  8
0
 10
11.3137
 20
-13.5637
 11
11.1665
 21
-13.5589
  0
LINE
  8
0
 10
-0.111176
 20
-46.6964
 11
-0.221893
 21
-46.6855
  0
LINE
  8
0
 10
-0.221893
 20
-46.6855
 11
-0.33165
 21
-46.6673
  0
LINE
  8
0
 10
-0.33165
 20
-46.6673
 11
-0.439987
 21
-46.6421
  0
LINE
  8
0
 10
-0.439987
 20
-46.6421
 11
-0.546432
 21
-46.6098
  0
LINE
  8
0
 10
-0.546432
 20
-46.6098
 11
-0.650558
 21
-46.5706
  0
LINE
  8
0
 10
-0.650558
 20
-46.5706
 11
-0.751877
 21
-46.5247
  0
LINE
  8
0
 10
-0.751877
 20
-46.5247
 11
-0.849991
 21
-46.4722
  0
LINE
  8
0
 10
-0.849991
 20
-46.4722
 11
-0.944458
 21
-46.4135
  0
LINE
  8
0
 10
-0.944458
 20
-46.4135
 11
-1.03488
 21
-46.3487
  0
LINE
  8
0
 10
-1.03488
 20
-46.3487
 11
-1.12088
 21
-46.2781
  0
LINE
  8
0
 10
-1.12088
 20
-46.2781
 11
-1.20207
 21
-46.2021
  0
LINE
  8
0
 10
-1.20207
 20
-46.2021
 11
-1.27812
 21
-46.1209
  0
LINE
  8
0
 10
-1.27812
 20
-46.1209
 11
-1.34869
 21
-46.0349
  0
LINE
  8
0
 10
-1.34869
 20
-46.0349
 11
-1.4135
 21
-45.9445
  0
LINE
  8
0
 10
-1.4135
 20
-45.9445
 11
-1.47223
 21
-45.85
  0
LINE
  8
0
 10
-1.47223
 20
-45.85
 11
-1.52467
 21
-45.7519
  0
LINE
  8
0
 10
-1.52467
 20
-45.7519
 11
-1.57059
 21
-45.6506
  0
LINE
  8
0
 10
-1.57059
 20
-45.6506
 11
-1.60977
 21
-45.5464
  0
LINE
  8
0
 10
-1.60977
 20
-45.5464
 11
-1.64206
 21
-45.44
  0
LINE
  8
0
 10
-1.64206
 20
-45.44
 11
-1.66733
 21
-45.3316
  0
LINE
  8
0
 10
-1.66733
 20
-45.3316
 11
-1.68546
 21
-45.2219
  0
LINE
  8
0
 10
-1.68546
 20
-45.2219
 11
-1.69635
 21
-45.1112
  0
LINE
  8
0
 10
-1.69635
 20
-45.1112
 11
-1.7
 21
-45
  0
LINE
  8
0
 10
-1.7
 20
-45
 11
-1.69635
 21
-44.8888
  0
LINE
  8
0
 10
-1.69635
 20
-44.8888
 11
-1.68546
 21
-44.7781
  0
LINE
  8
0
 10
-1.68546
 20
-44.7781
 11
-1.66733
 21
-44.6683
  0
LINE
  8
0
 10
-1.66733
 20
-44.6683
 11
-1.64206
 21
-44.56
  0
LINE
  8
0
 10
-1.64206
 20
-44.56
 11
-1.60977
 21
-44.4536
  0
LINE
  8
0
 10
-1.60977
 20
-44.4536
 11
-1.57059
 21
-44.3494
  0
LINE
  8
0
 10
-1.57059
 20
-44.3494
 11
-1.52467
 21
-44.2481
  0
LINE
  8
0
 10
-1.52467
 20
-44.2481
 11
-1.47223
 21
-44.15
  0
LINE
  8
0
 10
-1.47223
 20
-44.15
 11
-1.4135
 21
-44.0555
  0
LINE
  8
0
 10
-1.4135
 20
-44.0555
 11
-1.34869
 21
-43.9651
  0
LINE
  8
0
 10
-1.34869
 20
-43.9651
 11
-1.27812
 21
-43.8791
  0
LINE
  8
0
 10
-1.27812
 20
-43.8791
 11
-1.20207
 21
-43.7979
  0
LINE
  8
0
 10
-1.20207
 20
-43.7979
 11
-1.12088
 21
-43.7219
  0
LINE
  8
0
 10
-1.12088
 20
-43.7219
 11
-1.03488
 21
-43.6513
  0
LINE
  8
0
 10
-1.03488
 20
-43.6513
 11
-0.944458
 21
-43.5865
  0
LINE
  8
0
 10
-0.944458
 20
-43.5865
 11
-0.849991
 21
-43.5278
  0
LINE
  8
0
 10
-0.849991
 20
-43.5278
 11
-0.751877
 21
-43.4753
  0
LINE
  8
0
 10
-0.751877
 20
-43.4753
 11
-0.650558
 21
-43.4294
  0
LINE
  8
0
 10
-0.650558
 20
-43.4294
 11
-0.546432
 21
-43.3902
  0
LINE
  8
0
 10
-0.546432
 20
-43.3902
 11
-0.439987
 21
-43.3579
  0
LINE
  8
0
 10
-0.439987
 20
-43.3579
 11
-0.33165
 21
-43.3327
  0
LINE
  8
0
 10
-0.33165
 20
-43.3327
 11
-0.221893
 21
-43.3145
  0
LINE
  8
0
 10
-0.221893
 20
-43.3145
 11
-0.111176
 21
-43.3036
  0
LINE
  8
0
 10
-0.111176
 20
-43.3036
 11
0
 21
-43.3
  0
LINE
  8
0
 10
0
 20
-43.3
 11
0.111176
 21
-43.3036
  0
LINE
  8
0
 10
0.111176
 20
-43.3036
 11
0.221893
 21
-43.3145
  0
LINE
  8
0
 10
0.221893
 20
-43.3145
 11
0.33165
 21
-43.3327
  0
LINE
  8
0
 10
0.33165
 20
-43.3327
 11
0.439987
 21
-43.3579
  0
LINE
  8
0
 10
0.439987
 20
-43.3579
 11
0.546432
 21
-43.3902
  0
LINE
  8
0
 10
0.546432
 20
-43.3902
 11
0.650558
 21
-43.4294
  0
LINE
  8
0
 10
0.650558
 20
-43.4294
 11
0.751877
 21
-43.4753
  0
LINE
  8
0
 10
0.751877
 20
-43.4753
 11
0.849991
 21
-43.5278
  0
LINE
  8
0
 10
0.849991
 20
-43.5278
 11
0.944458
 21
-43.5865
  0
LINE
  8
0
 10
0.944458
 20
-43.5865
 11
1.03488
 21
-43.6513
  0
LINE
  8
0
 10
1.03488
 20
-43.6513
 11
1.12088
 21
-43.7219
  0
LINE
  8
0
 10
1.12088
 20
-43.7219
 11
1.20207
 21
-43.7979
  0
LINE
  8
0
 10
1.20207
 20
-43.7979
 11
1.27812
 21
-43.8791
  0
LINE
  8
0
 10
1.27812
 20
-43.8791
 11
1.34869
 21
-43.9651
  0
LINE
  8
0
 10
1.34869
 20
-43.9651
 11
1.4135
 21
-44.0555
  0
LINE
  8
0
 10
1.4135
 20
-44.0555
 11
1.47223
 21
-44.15
  0
LINE
  8
0
 10
1.47223
 20
-44.15
 11
1.52467
 21
-44.2481
  0
LINE
  8
0
 10
1.52467
 20
-44.2481
 11
1.57059
 21
-44.3494
  0
LINE
  8
0
 10
1.57059
 20
-44.3494
 11
1.60977
 21
-44.4536
  0
LINE
  8
0
 10
1.60977
 20
-44.4536
 11
1.64206
 21
-44.56
  0
LINE
  8
0
 10
1.64206
 20
-44.56
 11
1.66733
 21
-44.6683
  0
LINE
  8
0
 10
1.66733
 20
-44.6683
 11
1.68546
 21
-44.7781
  0
LINE
  8
0
 10
1.68546
 20
-44.7781
 11
1.69635
 21
-44.8888
  0
LINE
  8
0
 10
1.69635
 20
-44.8888
 11
1.7
 21
-45
  0
LINE
  8
0
 10
1.7
 20
-45
 11
1.69635
 21
-45.1112
  0
LINE
  8
0
 10
1.69635
 20
-45.1112
 11
1.68546
 21
-45.2219
  0
LINE
  8
0
 10
1.68546
 20
-45.2219
 11
1.66733
 21
-45.3316
  0
LINE
  8
0
 10
1.66733
 20
-45.3316
 11
1.64206
 21
-45.44
  0
LINE
  8
0
 10
1.64206
 20
-45.44
 11
1.60977
 21
-45.5464
  0
LINE
  8
0
 10
1.60977
 20
-45.5464
 11
1.57059
 21
-45.6506
  0
LINE
  8
0
 10
1.57059
 20
-45.6506
 11
1.52467
 21
-45.7519
  0
LINE
  8
0
 10
1.52467
 20
-45.7519
 11
1.47223
 21
-45.85
  0
LINE
  8
0
 10
1.47223
 20
-45.85
 11
1.4135
 21
-45.9445
  0
LINE
  8
0
 10
1.4135
 20
-45.9445
 11
1.34869
 21
-46.0349
  0
LINE
  8
0
 10
1.34869
 20
-46.0349
 11
1.27812
 21
-46.1209
  0
LINE
  8
0
 10
1.27812
 20
-46.1209
 11
1.20207
 21
-46.2021
  0
LINE
  8
0
 10
1.20207
 20
-46.2021
 11
1.12088
 21
-46.2781
  0
LINE
  8
0
 10
1.12088
 20
-46.2781
 11
1.03488
 21
-46.3487
  0
LINE
  8
0
 10
1.03488
 20
-46.3487
 11
0.944458
 21
-46.4135
  0
LINE
  8
0
 10
0.944458
 20
-46.4135
 11
0.849991
 21
-46.4722
  0
LINE
  8
0
 10
0.849991
 20
-46.4722
 11
0.751877
 21
-46.5247
  0
LINE
  8
0
 10
0.751877
 20
-46.5247
 11
0.650558
 21
-46.5706
  0
LINE
  8
0
 10
0.650558
 20
-46.5706
 11
0.546432
 21
-46.6098
  0
LINE
  8
0
 10
0.546432
 20
-46.6098
 11
0.439987
 21
-46.6421
  0
LINE
  8
0
 10
0.439987
 20
-46.6421
 11
0.33165
 21
-46.6673
  0
LINE
  8
0
 10
0.33165
 20
-46.6673
 11
0.221893
 21
-46.6855
  0
LINE
  8
0
 10
0.221893
 20
-46.6855
 11
0.111176
 21
-46.6964
  0
LINE
  8
0
 10
0.111176
 20
-46.6964
 11
0
 21
-46.7
  0
LINE
  8
0
 10
0
 20
-46.7
 11
-0.111176
 21
-46.6964
  0
LINE
  8
0
 10
-0.111176
 20
-156.696
 11
-0.221893
 21
-156.685
  0
LINE
  8
0
 10
-0.221893
 20
-156.685
 11
-0.33165
 21
-156.667
  0
LINE
  8
0
 10
-0.33165
 20
-156.667
 11
-0.439987
 21
-156.642
  0
LINE
  8
0
 10
-0.439987
 20
-156.642
 11
-0.546432
 21
-156.61
  0
LINE
  8
0
 10
-0.546432
 20
-156.61
 11
-0.650558
 21
-156.571
  0
LINE
  8
0
 10
-0.650558
 20
-156.571
 11
-0.751877
 21
-156.525
  0
LINE
  8
0
 10
-0.751877
 20
-156.525
 11
-0.849991
 21
-156.472
  0
LINE
  8
0
 10
-0.849991
 20
-156.472
 11
-0.944458
 21
-156.413
  0
LINE
  8
0
 10
-0.944458
 20
-156.413
 11
-1.03488
 21
-156.349
  0
LINE
  8
0
 10
-1.03488
 20
-156.349
 11
-1.12088
 21
-156.278
  0
LINE
  8
0
 10
-1.12088
 20
-156.278
 11
-1.20207
 21
-156.202
  0
LINE
  8
0
 10
-1.20207
 20
-156.202
 11
-1.27812
 21
-156.121
  0
LINE
  8
0
 10
-1.27812
 20
-156.121
 11
-1.34869
 21
-156.035
  0
LINE
  8
0
 10
-1.34869
 20
-156.035
 11
-1.4135
 21
-155.944
  0
LINE
  8
0
 10
-1.4135
 20
-155.944
 11
-1.47223
 21
-155.85
  0
LINE
  8
0
 10
-1.47223
 20
-155.85
 11
-1.52467
 21
-155.752
  0
LINE
  8
0
 10
-1.52467
 20
-155.752
 11
-1.57059
 21
-155.651
  0
LINE
  8
0
 10
-1.57059
 20
-155.651
 11
-1.60977
 21
-155.546
  0
LINE
  8
0
 10
-1.60977
 20
-155.546
 11
-1.64206
 21
-155.44
  0
LINE
  8
0
 10
-1.64206
 20
-155.44
 11
-1.66733
 21
-155.332
  0
LINE
  8
0
 10
-1.66733
 20
-155.332
 11
-1.68546
 21
-155.222
  0
LINE
  8
0
 10
-1.68546
 20
-155.222
 11
-1.69635
 21
-155.111
  0
LINE
  8
0
 10
-1.69635
 20
-155.111
 11
-1.7
 21
-155
  0
LINE
  8
0
 10
-1.7
 20
-155
 11
-1.69635
 21
-154.889
  0
LINE
  8
0
 10
-1.69635
 20
-154.889
 11
-1.68546
 21
-154.778
  0
LINE
  8
0
 10
-1.68546
 20
-154.778
 11
-1.66733
 21
-154.668
  0
LINE
  8
0
 10
-1.66733
 20
-154.668
 11
-1.64206
 21
-154.56
  0
LINE
  8
0
 10
-1.64206
 20
-154.56
 11
-1.60977
 21
-154.454
  0
LINE
  8
0
 10
-1.60977
 20
-154.454
 11
-1.57059
 21
-154.349
  0
LINE
  8
0
 10
-1.57059
 20
-154.349
 11
-1.52467
 21
-154.248
  0
LINE
  8
0
 10
-1.52467
 20
-154.248
 11
-1.47223
 21
-154.15
  0
LINE
  8
0
 10
-1.47223
 20
-154.15
 11
-1.4135
 21
-154.056
  0
LINE
  8
0
 10
-1.4135
 20
-154.056
 11
-1.34869
 21
-153.965
  0
LINE
  8
0
 10
-1.34869
 20
-153.965
 11
-1.27812
 21
-153.879
  0
LINE
  8
0
 10
-1.27812
 20
-153.879
 11
-1.20207
 21
-153.798
  0
LINE
  8
0
 10
-1.20207
 20
-153.798
 11
-1.12088
 21
-153.722
  0
LINE
  8
0
 10
-1.12088
 20
-153.722
 11
-1.03488
 21
-153.651
  0
LINE
  8
0
 10
-1.03488
 20
-153.651
 11
-0.944458
 21
-153.586
  0
LINE
  8
0
 10
-0.944458
 20
-153.586
 11
-0.849991
 21
-153.528
  0
LINE
  8
0
 10
-0.849991
 20
-153.528
 11
-0.751877
 21
-153.475
  0
LINE
  8
0
 10
-0.751877
 20
-153.475
 11
-0.650558
 21
-153.429
  0
LINE
  8
0
 10
-0.650558
 20
-153.429
 11
-0.546432
 21
-153.39
  0
LINE
  8
0
 10
-0.546432
 20
-153.39
 11
-0.439987
 21
-153.358
  0
LINE
  8
0
 10
-0.439987
 20
-153.358
 11
-0.33165
 21
-153.333
  0
LINE
  8
0
 10
-0.33165
 20
-153.333
 11
-0.221893
 21
-153.315
  0
LINE
  8
0
 10
-0.221893
 20
-153.315
 11
-0.111176
 21
-153.304
  0
LINE
  8
0
 10
-0.111176
 20
-153.304
 11
0
 21
-153.3
  0
LINE
  8
0
 10
0
 20
-153.3
 11
0.111176
 21
-153.304
  0
LINE
  8
0
 10
0.111176
 20
-153.304
 11
0.221893
 21
-153.315
  0
LINE
  8
0
 10
0.221893
 20
-153.315
 11
0.33165
 21
-153.333
  0
LINE
  8
0
 10
0.33165
 20
-153.333
 11
0.439987
 21
-153.358
  0
LINE
  8
0
 10
0.439987
 20
-153.358
 11
0.546432
 21
-153.39
  0
LINE
  8
0
 10
0.546432
 20
-153.39
 11
0.650558
 21
-153.429
  0
LINE
  8
0
 10
0.650558
 20
-153.429
 11
0.751877
 21
-153.475
  0
LINE
  8
0
 10
0.751877
 20
-153.475
 11
0.849991
 21
-153.528
  0
LINE
  8
0
 10
0.849991
 20
-153.528
 11
0.944458
 21
-153.586
  0
LINE
  8
0
 10
0.944458
 20
-153.586
 11
1.03488
 21
-153.651
  0
LINE
  8
0
 10
1.03488
 20
-153.651
 11
1.12088
 21
-153.722
  0
LINE
  8
0
 10
1.12088
 20
-153.722
 11
1.20207
 21
-153.798
  0
LINE
  8
0
 10
1.20207
 20
-153.798
 11
1.27812
 21
-153.879
  0
LINE
  8
0
 10
1.27812
 20
-153.879
 11
1.34869
 21
-153.965
  0
LINE
  8
0
 10
1.34869
 20
-153.965
 11
1.4135
 21
-154.056
  0
LINE
  8
0
 10
1.4135
 20
-154.056
 11
1.47223
 21
-154.15
  0
LINE
  8
0
 10
1.47223
 20
-154.15
 11
1.52467
 21
-154.248
  0
LINE
  8
0
 10
1.52467
 20
-154.248
 11
1.57059
 21
-154.349
  0
LINE
  8
0
 10
1.57059
 20
-154.349
 11
1.60977
 21
-154.454
  0
LINE
  8
0
 10
1.60977
 20
-154.454
 11
1.64206
 21
-154.56
  0
LINE
  8
0
 10
1.64206
 20
-154.56
 11
1.66733
 21
-154.668
  0
LINE
  8
0
 10
1.66733
 20
-154.668
 11
1.68546
 21
-154.778
  0
LINE
  8
0
 10
1.68546
 20
-154.778
 11
1.69635
 21
-154.889
  0
LINE
  8
0
 10
1.69635
 20
-154.889
 11
1.7
 21
-155
  0
LINE
  8
0
 10
1.7
 20
-155
 11
1.69635
 21
-155.111
  0
LINE
  8
0
 10
1.69635
 20
-155.111
 11
1.68546
 21
-155.222
  0
LINE
  8
0
 10
1.68546
 20
-155.222
 11
1.66733
 21
-155.332
  0
LINE
  8
0
 10
1.66733
 20
-155.332
 11
1.64206
 21
-155.44
  0
LINE
  8
0
 10
1.64206
 20
-155.44
 11
1.60977
 21
-155.546
  0
LINE
  8
0
 10
1.60977
 20
-155.546
 11
1.57059
 21
-155.651
  0
LINE
  8
0
 10
1.57059
 20
-155.651
 11
1.52467
 21
-155.752
  0
LINE
  8
0
 10
1.52467
 20
-155.752
 11
1.47223
 21
-155.85
  0
LINE
  8
0
 10
1.47223
 20
-155.85
 11
1.4135
 21
-155.944
  0
LINE
  8
0
 10
1.4135
 20
-155.944
 11
1.34869
 21
-156.035
  0
LINE
  8
0
 10
1.34869
 20
-156.035
 11
1.27812
 21
-156.121
  0
LINE
  8
0
 10
1.27812
 20
-156.121
 11
1.20207
 21
-156.202
  0
LINE
  8
0
 10
1.20207
 20
-156.202
 11
1.12088
 21
-156.278
  0
LINE
  8
0
 10
1.12088
 20
-156.278
 11
1.03488
 21
-156.349
  0
LINE
  8
0
 10
1.03488
 20
-156.349
 11
0.944458
 21
-156.413
  0
LINE
  8
0
 10
0.944458
 20
-156.413
 11
0.849991
 21
-156.472
  0
LINE
  8
0
 10
0.849991
 20
-156.472
 11
0.751877
 21
-156.525
  0
LINE
  8
0
 10
0.751877
 20
-156.525
 11
0.650558
 21
-156.571
  0
LINE
  8
0
 10
0.650558
 20
-156.571
 11
0.546432
 21
-156.61
  0
LINE
  8
0
 10
0.546432
 20
-156.61
 11
0.439987
 21
-156.642
  0
LINE
  8
0
 10
0.439987
 20
-156.642
 11
0.33165
 21
-156.667
  0
LINE
  8
0
 10
0.33165
 20
-156.667
 11
0.221893
 21
-156.685
  0
LINE
  8
0
 10
0.221893
 20
-156.685
 11
0.111176
 21
-156.696
  0
LINE
  8
0
 10
0.111176
 20
-156.696
 11
0
 21
-156.7
  0
LINE
  8
0
 10
0
 20
-156.7
 11
-0.111176
 21
-156.696
  0
LINE
  8
0
 10
-0.111176
 20
-226.696
 11
-0.221893
 21
-226.685
  0
LINE
  8
0
 10
-0.221893
 20
-226.685
 11
-0.33165
 21
-226.667
  0
LINE
  8
0
 10
-0.33165
 20
-226.667
 11
-0.439987
 21
-226.642
  0
LINE
  8
0
 10
-0.439987
 20
-226.642
 11
-0.546432
 21
-226.61
  0
LINE
  8
0
 10
-0.546432
 20
-226.61
 11
-0.650558
 21
-226.571
  0
LINE
  8
0
 10
-0.650558
 20
-226.571
 11
-0.751877
 21
-226.525
  0
LINE
  8
0
 10
-0.751877
 20
-226.525
 11
-0.849991
 21
-226.472
  0
LINE
  8
0
 10
-0.849991
 20
-226.472
 11
-0.944458
 21
-226.413
  0
LINE
  8
0
 10
-0.944458
 20
-226.413
 11
-1.03488
 21
-226.349
  0
LINE
  8
0
 10
-1.03488
 20
-226.349
 11
-1.12088
 21
-226.278
  0
LINE
  8
0
 10
-1.12088
 20
-226.278
 11
-1.20207
 21
-226.202
  0
LINE
  8
0
 10
-1.20207
 20
-226.202
 11
-1.27812
 21
-226.121
  0
LINE
  8
0
 10
-1.27812
 20
-226.121
 11
-1.34869
 21
-226.035
  0
LINE
  8
0
 10
-1.34869
 20
-226.035
 11
-1.4135
 21
-225.944
  0
LINE
  8
0
 10
-1.4135
 20
-225.944
 11
-1.47223
 21
-225.85
  0
LINE
  8
0
 10
-1.47223
 20
-225.85
 11
-1.52467
 21
-225.752
  0
LINE
  8
0
 10
-1.52467
 20
-225.752
 11
-1.57059
 21
-225.651
  0
LINE
  8
0
 10
-1.57059
 20
-225.651
 11
-1.60977
 21
-225.546
  0
LINE
  8
0
 10
-1.60977
 20
-225.546
 11
-1.64206
 21
-225.44
  0
LINE
  8
0
 10
-1.64206
 20
-225.44
 11
-1.66733
 21
-225.332
  0
LINE
  8
0
 10
-1.66733
 20
-225.332
 11
-1.68546
 21
-225.222
  0
LINE
  8
0
 10
-1.68546
 20
-225.222
 11
-1.69635
 21
-225.111
  0
LINE
  8
0
 10
-1.69635
 20
-225.111
 11
-1.7
 21
-225
  0
LINE
  8
0
 10
-1.7
 20
-225
 11
-1.69635
 21
-224.889
  0
LINE
  8
0
 10
-1.69635
 20
-224.889
 11
-1.68546
 21
-224.778
  0
LINE
  8
0
 10
-1.68546
 20
-224.778
 11
-1.66733
 21
-224.668
  0
LINE
  8
0
 10
-1.66733
 20
-224.668
 11
-1.64206
 21
-224.56
  0
LINE
  8
0
 10
-1.64206
 20
-224.56
 11
-1.60977
 21
-224.454
  0
LINE
  8
0
 10
-1.60977
 20
-224.454
 11
-1.57059
 21
-224.349
  0
LINE
  8
0
 10
-1.57059
 20
-224.349
 11
-1.52467
 21
-224.248
  0
LINE
  8
0
 10
-1.52467
 20
-224.248
 11
-1.47223
 21
-224.15
  0
LINE
  8
0
 10
-1.47223
 20
-224.15
 11
-1.4135
 21
-224.056
  0
LINE
  8
0
 10
-1.4135
 20
-224.056
 11
-1.34869
 21
-223.965
  0
LINE
  8
0
 10
-1.34869
 20
-223.965
 11
-1.27812
 21
-223.879
  0
LINE
  8
0
 10
-1.27812
 20
-223.879
 11
-1.20207
 21
-223.798
  0
LINE
  8
0
 10
-1.20207
 20
-223.798
 11
-1.12088
 21
-223.722
  0
LINE
  8
0
 10
-1.12088
 20
-223.722
 11
-1.03488
 21
-223.651
  0
LINE
  8
0
 10
-1.03488
 20
-223.651
 11
-0.944458
 21
-223.586
  0
LINE
  8
0
 10
-0.944458
 20
-223.586
 11
-0.849991
 21
-223.528
  0
LINE
  8
0
 10
-0.849991
 20
-223.528
 11
-0.751877
 21
-223.475
  0
LINE
  8
0
 10
-0.751877
 20
-223.475
 11
-0.650558
 21
-223.429
  0
LINE
  8
0
 10
-0.650558
 20
-223.429
 11
-0.546432
 21
-223.39
  0
LINE
  8
0
 10
-0.546432
 20
-223.39
 11
-0.439987
 21
-223.358
  0
LINE
  8
0
 10
-0.439987
 20
-223.358
 11
-0.33165
 21
-223.333
  0
LINE
  8
0
 10
-0.33165
 20
-223.333
 11
-0.221893
 21
-223.315
  0
LINE
  8
0
 10
-0.221893
 20
-223.315
 11
-0.111176
 21
-223.304
  0
LINE
  8
0
 10
-0.111176
 20
-223.304
 11
0
 21
-223.3
  0
LINE
  8
0
 10
0
 20
-223.3
 11
0.111176
 21
-223.304
  0
LINE
  8
0
 10
0.111176
 20
-223.304
 11
0.221893
 21
-223.315
  0
LINE
  8
0
 10
0.221893
 20
-223.315
 11
0.33165
 21
-223.333
  0
LINE
  8
0
 10
0.33165
 20
-223.333
 11
0.439987
 21
-223.358
  0
LINE
  8
0
 10
0.439987
 20
-223.358
 11
0.546432
 21
-223.39
  0
LINE
  8
0
 10
0.546432
 20
-223.39
 11
0.650558
 21
-223.429
  0
LINE
  8
0
 10
0.650558
 20
-223.429
 11
0.751877
 21
-223.475
  0
LINE
  8
0
 10
0.751877
 20
-223.475
 11
0.849991
 21
-223.528
  0
LINE
  8
0
 10
0.849991
 20
-223.528
 11
0.944458
 21
-223.586
  0
LINE
  8
0
 10
0.944458
 20
-223.586
 11
1.03488
 21
-223.651
  0
LINE
  8
0
 10
1.03488
 20
-223.651
 11
1.12088
 21
-223.722
  0
LINE
  8
0
 10
1.12088
 20
-223.722
 11
1.20207
 21
-223.798
  0
LINE
  8
0
 10
1.20207
 20
-223.798
 11
1.27812
 21
-223.879
  0
LINE
  8
0
 10
1.27812
 20
-223.879
 11
1.34869
 21
-223.965
  0
LINE
  8
0
 10
1.34869
 20
-223.965
 11
1.4135
 21
-224.056
  0
LINE
  8
0
 10
1.4135
 20
-224.056
 11
1.47223
 21
-224.15
  0
LINE
  8
0
 10
1.47223
 20
-224.15
 11
1.52467
 21
-224.248
  0
LINE
  8
0
 10
1.52467
 20
-224.248
 11
1.57059
 21
-224.349
  0
LINE
  8
0
 10
1.57059
 20
-224.349
 11
1.60977
 21
-224.454
  0
LINE
  8
0
 10
1.60977
 20
-224.454
 11
1.64206
 21
-224.56
  0
LINE
  8
0
 10
1.64206
 20
-224.56
 11
1.66733
 21
-224.668
  0
LINE
  8
0
 10
1.66733
 20
-224.668
 11
1.68546
 21
-224.778
  0
LINE
  8
0
 10
1.68546
 20
-224.778
 11
1.69635
 21
-224.889
  0
LINE
  8
0
 10
1.69635
 20
-224.889
 11
1.7
 21
-225
  0
LINE
  8
0
 10
1.7
 20
-225
 11
1.69635
 21
-225.111
  0
LINE
  8
0
 10
1.69635
 20
-225.111
 11
1.68546
 21
-225.222
  0
LINE
  8
0
 10
1.68546
 20
-225.222
 11
1.66733
 21
-225.332
  0
LINE
  8
0
 10
1.66733
 20
-225.332
 11
1.64206
 21
-225.44
  0
LINE
  8
0
 10
1.64206
 20
-225.44
 11
1.60977
 21
-225.546
  0
LINE
  8
0
 10
1.60977
 20
-225.546
 11
1.57059
 21
-225.651
  0
LINE
  8
0
 10
1.57059
 20
-225.651
 11
1.52467
 21
-225.752
  0
LINE
  8
0
 10
1.52467
 20
-225.752
 11
1.47223
 21
-225.85
  0
LINE
  8
0
 10
1.47223
 20
-225.85
 11
1.4135
 21
-225.944
  0
LINE
  8
0
 10
1.4135
 20
-225.944
 11
1.34869
 21
-226.035
  0
LINE
  8
0
 10
1.34869
 20
-226.035
 11
1.27812
 21
-226.121
  0
LINE
  8
0
 10
1.27812
 20
-226.121
 11
1.20207
 21
-226.202
  0
LINE
  8
0
 10
1.20207
 20
-226.202
 11
1.12088
 21
-226.278
  0
LINE
  8
0
 10
1.12088
 20
-226.278
 11
1.03488
 21
-226.349
  0
LINE
  8
0
 10
1.03488
 20
-226.349
 11
0.944458
 21
-226.413
  0
LINE
  8
0
 10
0.944458
 20
-226.413
 11
0.849991
 21
-226.472
  0
LINE
  8
0
 10
0.849991
 20
-226.472
 11
0.751877
 21
-226.525
  0
LINE
  8
0
 10
0.751877
 20
-226.525
 11
0.650558
 21
-226.571
  0
LINE
  8
0
 10
0.650558
 20
-226.571
 11
0.546432
 21
-226.61
  0
LINE
  8
0
 10
0.546432
 20
-226.61
 11
0.439987
 21
-226.642
  0
LINE
  8
0
 10
0.439987
 20
-226.642
 11
0.33165
 21
-226.667
  0
LINE
  8
0
 10
0.33165
 20
-226.667
 11
0.221893
 21
-226.685
  0
LINE
  8
0
 10
0.221893
 20
-226.685
 11
0.111176
 21
-226.696
  0
LINE
  8
0
 10
0.111176
 20
-226.696
 11
0
 21
-226.7
  0
LINE
  8
0
 10
0
 20
-226.7
 11
-0.111176
 21
-226.696
  0
LINE
  8
0
 10
-0.212555
 20
-254.243
 11
-0.42421
 21
-254.222
  0
LINE
  8
0
 10
-0.42421
 20
-254.222
 11
-0.634033
 21
-254.188
  0
LINE
  8
0
 10
-0.634033
 20
-254.188
 11
-0.841156
 21
-254.139
  0
LINE
  8
0
 10
-0.841156
 20
-254.139
 11
-1.04468
 21
-254.078
  0
LINE
  8
0
 10
-1.04468
 20
-254.078
 11
-1.24371
 21
-254.003
  0
LINE
  8
0
 10
-1.24371
 20
-254.003
 11
-1.43742
 21
-253.915
  0
LINE
  8
0
 10
-1.43742
 20
-253.915
 11
-1.625
 21
-253.815
  0
LINE
  8
0
 10
-1.625
 20
-253.815
 11
-1.8056
 21
-253.702
  0
LINE
  8
0
 10
-1.8056
 20
-253.702
 11
-1.97847
 21
-253.578
  0
LINE
  8
0
 10
-1.97847
 20
-253.578
 11
-2.14287
 21
-253.443
  0
LINE
  8
0
 10
-2.14287
 20
-253.443
 11
-2.2981
 21
-253.298
  0
LINE
  8
0
 10
-2.2981
 20
-253.298
 11
-2.44347
 21
-253.143
  0
LINE
  8
0
 10
-2.44347
 20
-253.143
 11
-2.57838
 21
-252.978
  0
LINE
  8
0
 10
-2.57838
 20
-252.978
 11
-2.70227
 21
-252.806
  0
LINE
  8
0
 10
-2.70227
 20
-252.806
 11
-2.81458
 21
-252.625
  0
LINE
  8
0
 10
-2.81458
 20
-252.625
 11
-2.91483
 21
-252.437
  0
LINE
  8
0
 10
-2.91483
 20
-252.437
 11
-3.00259
 21
-252.244
  0
LINE
  8
0
 10
-3.00259
 20
-252.244
 11
-3.07751
 21
-252.045
  0
LINE
  8
0
 10
-3.07751
 20
-252.045
 11
-3.13925
 21
-251.841
  0
LINE
  8
0
 10
-3.13925
 20
-251.841
 11
-3.18755
 21
-251.634
  0
LINE
  8
0
 10
-3.18755
 20
-251.634
 11
-3.22218
 21
-251.424
  0
LINE
  8
0
 10
-3.22218
 20
-251.424
 11
-3.24303
 21
-251.213
  0
LINE
  8
0
 10
-3.24303
 20
-251.213
 11
-3.25
 21
-251
  0
LINE
  8
0
 10
-3.25
 20
-251
 11
-3.24303
 21
-250.787
  0
LINE
  8
0
 10
-3.24303
 20
-250.787
 11
-3.22218
 21
-250.576
  0
LINE
  8
0
 10
-3.22218
 20
-250.576
 11
-3.18755
 21
-250.366
  0
LINE
  8
0
 10
-3.18755
 20
-250.366
 11
-3.13925
 21
-250.159
  0
LINE
  8
0
 10
-3.13925
 20
-250.159
 11
-3.07751
 21
-249.955
  0
LINE
  8
0
 10
-3.07751
 20
-249.955
 11
-3.00259
 21
-249.756
  0
LINE
  8
0
 10
-3.00259
 20
-249.756
 11
-2.91483
 21
-249.563
  0
LINE
  8
0
 10
-2.91483
 20
-249.563
 11
-2.81458
 21
-249.375
  0
LINE
  8
0
 10
-2.81458
 20
-249.375
 11
-2.70227
 21
-249.194
  0
LINE
  8
0
 10
-2.70227
 20
-249.194
 11
-2.57838
 21
-249.022
  0
LINE
  8
0
 10
-2.57838
 20
-249.022
 11
-2.44347
 21
-248.857
  0
LINE
  8
0
 10
-2.44347
 20
-248.857
 11
-2.2981
 21
-248.702
  0
LINE
  8
0
 10
-2.2981
 20
-248.702
 11
-2.14287
 21
-248.557
  0
LINE
  8
0
 10
-2.14287
 20
-248.557
 11
-1.97847
 21
-248.422
  0
LINE
  8
0
 10
-1.97847
 20
-248.422
 11
-1.8056
 21
-248.298
  0
LINE
  8
0
 10
-1.8056
 20
-248.298
 11
-1.625
 21
-248.185
  0
LINE
  8
0
 10
-1.625
 20
-248.185
 11
-1.43742
 21
-248.085
  0
LINE
  8
0
 10
-1.43742
 20
-248.085
 11
-1.24371
 21
-247.997
  0
LINE
  8
0
 10
-1.24371
 20
-247.997
 11
-1.04468
 21
-247.922
  0
LINE
  8
0
 10
-1.04468
 20
-247.922
 11
-0.841156
 21
-247.861
  0
LINE
  8
0
 10
-0.841156
 20
-247.861
 11
-0.634033
 21
-247.812
  0
LINE
  8
0
 10
-0.634033
 20
-247.812
 11
-0.42421
 21
-247.778
  0
LINE
  8
0
 10
-0.42421
 20
-247.778
 11
-0.212555
 21
-247.757
  0
LINE
  8
0
 10
-0.212555
 20
-247.757
 11
0
 21
-247.75
  0
LINE
  8
0
 10
0
 20
-247.75
 11
0.212555
 21
-247.757
  0
LINE
  8
0
 10
0.212555
 20
-247.757
 11
0.42421
 21
-247.778
  0
LINE
  8
0
 10
0.42421
 20
-247.778
 11
0.634033
 21
-247.812
  0
LINE
  8
0
 10
0.634033
 20
-247.812
 11
0.841156
 21
-247.861
  0
LINE
  8
0
 10
0.841156
 20
-247.861
 11
1.04468
 21
-247.922
  0
LINE
  8
0
 10
1.04468
 20
-247.922
 11
1.24371
 21
-247.997
  0
LINE
  8
0
 10
1.24371
 20
-247.997
 11
1.43742
 21
-248.085
  0
LINE
  8
0
 10
1.43742
 20
-248.085
 11
1.625
 21
-248.185
  0
LINE
  8
0
 10
1.625
 20
-248.185
 11
1.8056
 21
-248.298
  0
LINE
  8
0
 10
1.8056
 20
-248.298
 11
1.97847
 21
-248.422
  0
LINE
  8
0
 10
1.97847
 20
-248.422
 11
2.14287
 21
-248.557
  0
LINE
  8
0
 10
2.14287
 20
-248.557
 11
2.2981
 21
-248.702
  0
LINE
  8
0
 10
2.2981
 20
-248.702
 11
2.44347
 21
-248.857
  0
LINE
  8
0
 10
2.44347
 20
-248.857
 11
2.57838
 21
-249.022
  0
LINE
  8
0
 10
2.57838
 20
-249.022
 11
2.70227
 21
-249.194
  0
LINE
  8
0
 10
2.70227
 20
-249.194
 11
2.81458
 21
-249.375
  0
LINE
  8
0
 10
2.81458
 20
-249.375
 11
2.91483
 21
-249.563
  0
LINE
  8
0
 10
2.91483
 20
-249.563
 11
3.00259
 21
-249.756
  0
LINE
  8
0
 10
3.00259
 20
-249.756
 11
3.07751
 21
-249.955
  0
LINE
  8
0
 10
3.07751
 20
-249.955
 11
3.13925
 21
-250.159
  0
LINE
  8
0
 10
3.13925
 20
-250.159
 11
3.18755
 21
-250.366
  0
LINE
  8
0
 10
3.18755
 20
-250.366
 11
3.22218
 21
-250.576
  0
LINE
  8
0
 10
3.22218
 20
-250.576
 11
3.24303
 21
-250.787
  0
LINE
  8
0
 10
3.24303
 20
-250.787
 11
3.25
 21
-251
  0
LINE
  8
0
 10
3.25
 20
-251
 11
3.24303
 21
-251.213
  0
LINE
  8
0
 10
3.24303
 20
-251.213
 11
3.22218
 21
-251.424
  0
LINE
  8
0
 10
3.22218
 20
-251.424
 11
3.18755
 21
-251.634
  0
LINE
  8
0
 10
3.18755
 20
-251.634
 11
3.13925
 21
-251.841
  0
LINE
  8
0
 10
3.13925
 20
-251.841
 11
3.07751
 21
-252.045
  0
LINE
  8
0
 10
3.07751
 20
-252.045
 11
3.00259
 21
-252.244
  0
LINE
  8
0
 10
3.00259
 20
-252.244
 11
2.91483
 21
-252.437
  0
LINE
  8
0
 10
2.91483
 20
-252.437
 11
2.81458
 21
-252.625
  0
LINE
  8
0
 10
2.81458
 20
-252.625
 11
2.70227
 21
-252.806
  0
LINE
  8
0
 10
2.70227
 20
-252.806
 11
2.57838
 21
-252.978
  0
LINE
  8
0
 10
2.57838
 20
-252.978
 11
2.44347
 21
-253.143
  0
LINE
  8
0
 10
2.44347
 20
-253.143
 11
2.2981
 21
-253.298
  0
LINE
  8
0
 10
2.2981
 20
-253.298
 11
2.14287
 21
-253.443
  0
LINE
  8
0
 10
2.14287
 20
-253.443
 11
1.97847
 21
-253.578
  0
LINE
  8
0
 10
1.97847
 20
-253.578
 11
1.8056
 21
-253.702
  0
LINE
  8
0
 10
1.8056
 20
-253.702
 11
1.625
 21
-253.815
  0
LINE
  8
0
 10
1.625
 20
-253.815
 11
1.43742
 21
-253.915
  0
LINE
  8
0
 10
1.43742
 20
-253.915
 11
1.24371
 21
-254.003
  0
LINE
  8
0
 10
1.24371
 20
-254.003
 11
1.04468
 21
-254.078
  0
LINE
  8
0
 10
1.04468
 20
-254.078
 11
0.841156
 21
-254.139
  0
LINE
  8
0
 10
0.841156
 20
-254.139
 11
0.634033
 21
-254.188
  0
LINE
  8
0
 10
0.634033
 20
-254.188
 11
0.42421
 21
-254.222
  0
LINE
  8
0
 10
0.42421
 20
-254.222
 11
0.212555
 21
-254.243
  0
LINE
  8
0
 10
0.212555
 20
-254.243
 11
0
 21
-254.25
  0
LINE
  8
0
 10
0
 20
-254.25
 11
-0.212555
 21
-254.243
  0
LINE
  8
0
 10
-0.212555
 20
-274.243
 11
-0.42421
 21
-274.222
  0
LINE
  8
0
 10
-0.42421
 20
-274.222
 11
-0.634033
 21
-274.188
  0
LINE
  8
0
 10
-0.634033
 20
-274.188
 11
-0.841156
 21
-274.139
  0
LINE
  8
0
 10
-0.841156
 20
-274.139
 11
-1.04468
 21
-274.078
  0
LINE
  8
0
 10
-1.04468
 20
-274.078
 11
-1.24371
 21
-274.003
  0
LINE
  8
0
 10
-1.24371
 20
-274.003
 11
-1.43742
 21
-273.915
  0
LINE
  8
0
 10
-1.43742
 20
-273.915
 11
-1.625
 21
-273.815
  0
LINE
  8
0
 10
-1.625
 20
-273.815
 11
-1.8056
 21
-273.702
  0
LINE
  8
0
 10
-1.8056
 20
-273.702
 11
-1.97847
 21
-273.578
  0
LINE
  8
0
 10
-1.97847
 20
-273.578
 11
-2.14287
 21
-273.443
  0
LINE
  8
0
 10
-2.14287
 20
-273.443
 11
-2.2981
 21
-273.298
  0
LINE
  8
0
 10
-2.2981
 20
-273.298
 11
-2.44347
 21
-273.143
  0
LINE
  8
0
 10
-2.44347
 20
-273.143
 11
-2.57838
 21
-272.978
  0
LINE
  8
0
 10
-2.57838
 20
-272.978
 11
-2.70227
 21
-272.806
  0
LINE
  8
0
 10
-2.70227
 20
-272.806
 11
-2.81458
 21
-272.625
  0
LINE
  8
0
 10
-2.81458
 20
-272.625
 11
-2.91483
 21
-272.437
  0
LINE
  8
0
 10
-2.91483
 20
-272.437
 11
-3.00259
 21
-272.244
  0
LINE
  8
0
 10
-3.00259
 20
-272.244
 11
-3.07751
 21
-272.045
  0
LINE
  8
0
 10
-3.07751
 20
-272.045
 11
-3.13925
 21
-271.841
  0
LINE
  8
0
 10
-3.13925
 20
-271.841
 11
-3.18755
 21
-271.634
  0
LINE
  8
0
 10
-3.18755
 20
-271.634
 11
-3.22218
 21
-271.424
  0
LINE
  8
0
 10
-3.22218
 20
-271.424
 11
-3.24303
 21
-271.213
  0
LINE
  8
0
 10
-3.24303
 20
-271.213
 11
-3.25
 21
-271
  0
LINE
  8
0
 10
-3.25
 20
-271
 11
-3.24303
 21
-270.787
  0
LINE
  8
0
 10
-3.24303
 20
-270.787
 11
-3.22218
 21
-270.576
  0
LINE
  8
0
 10
-3.22218
 20
-270.576
 11
-3.18755
 21
-270.366
  0
LINE
  8
0
 10
-3.18755
 20
-270.366
 11
-3.13925
 21
-270.159
  0
LINE
  8
0
 10
-3.13925
 20
-270.159
 11
-3.07751
 21
-269.955
  0
LINE
  8
0
 10
-3.07751
 20
-269.955
 11
-3.00259
 21
-269.756
  0
LINE
  8
0
 10
-3.00259
 20
-269.756
 11
-2.91483
 21
-269.563
  0
LINE
  8
0
 10
-2.91483
 20
-269.563
 11
-2.81458
 21
-269.375
  0
LINE
  8
0
 10
-2.81458
 20
-269.375
 11
-2.70227
 21
-269.194
  0
LINE
  8
0
 10
-2.70227
 20
-269.194
 11
-2.57838
 21
-269.022
  0
LINE
  8
0
 10
-2.57838
 20
-269.022
 11
-2.44347
 21
-268.857
  0
LINE
  8
0
 10
-2.44347
 20
-268.857
 11
-2.2981
 21
-268.702
  0
LINE
  8
0
 10
-2.2981
 20
-268.702
 11
-2.14287
 21
-268.557
  0
LINE
  8
0
 10
-2.14287
 20
-268.557
 11
-1.97847
 21
-268.422
  0
LINE
  8
0
 10
-1.97847
 20
-268.422
 11
-1.8056
 21
-268.298
  0
LINE
  8
0
 10
-1.8056
 20
-268.298
 11
-1.625
 21
-268.185
  0
LINE
  8
0
 10
-1.625
 20
-268.185
 11
-1.43742
 21
-268.085
  0
LINE
  8
0
 10
-1.43742
 20
-268.085
 11
-1.24371
 21
-267.997
  0
LINE
  8
0
 10
-1.24371
 20
-267.997
 11
-1.04468
 21
-267.922
  0
LINE
  8
0
 10
-1.04468
 20
-267.922
 11
-0.841156
 21
-267.861
  0
LINE
  8
0
 10
-0.841156
 20
-267.861
 11
-0.634033
 21
-267.812
  0
LINE
  8
0
 10
-0.634033
 20
-267.812
 11
-0.42421
 21
-267.778
  0
LINE
  8
0
 10
-0.42421
 20
-267.778
 11
-0.212555
 21
-267.757
  0
LINE
  8
0
 10
-0.212555
 20
-267.757
 11
0
 21
-267.75
  0
LINE
  8
0
 10
0
 20
-267.75
 11
0.212555
 21
-267.757
  0
LINE
  8
0
 10
0.212555
 20
-267.757
 11
0.42421
 21
-267.778
  0
LINE
  8
0
 10
0.42421
 20
-267.778
 11
0.634033
 21
-267.812
  0
LINE
  8
0
 10
0.634033
 20
-267.812
 11
0.841156
 21
-267.861
  0
LINE
  8
0
 10
0.841156
 20
-267.861
 11
1.04468
 21
-267.922
  0
LINE
  8
0
 10
1.04468
 20
-267.922
 11
1.24371
 21
-267.997
  0
LINE
  8
0
 10
1.24371
 20
-267.997
 11
1.43742
 21
-268.085
  0
LINE
  8
0
 10
1.43742
 20
-268.085
 11
1.625
 21
-268.185
  0
LINE
  8
0
 10
1.625
 20
-268.185
 11
1.8056
 21
-268.298
  0
LINE
  8
0
 10
1.8056
 20
-268.298
 11
1.97847
 21
-268.422
  0
LINE
  8
0
 10
1.97847
 20
-268.422
 11
2.14287
 21
-268.557
  0
LINE
  8
0
 10
2.14287
 20
-268.557
 11
2.2981
 21
-268.702
  0
LINE
  8
0
 10
2.2981
 20
-268.702
 11
2.44347
 21
-268.857
  0
LINE
  8
0
 10
2.44347
 20
-268.857
 11
2.57838
 21
-269.022
  0
LINE
  8
0
 10
2.57838
 20
-269.022
 11
2.70227
 21
-269.194
  0
LINE
  8
0
 10
2.70227
 20
-269.194
 11
2.81458
 21
-269.375
  0
LINE
  8
0
 10
2.81458
 20
-269.375
 11
2.91483
 21
-269.563
  0
LINE
  8
0
 10
2.91483
 20
-269.563
 11
3.00259
 21
-269.756
  0
LINE
  8
0
 10
3.00259
 20
-269.756
 11
3.07751
 21
-269.955
  0
LINE
  8
0
 10
3.07751
 20
-269.955
 11
3.13925
 21
-270.159
  0
LINE
  8
0
 10
3.13925
 20
-270.159
 11
3.18755
 21
-270.366
  0
LINE
  8
0
 10
3.18755
 20
-270.366
 11
3.22218
 21
-270.576
  0
LINE
  8
0
 10
3.22218
 20
-270.576
 11
3.24303
 21
-270.787
  0
LINE
  8
0
 10
3.24303
 20
-270.787
 11
3.25
 21
-271
  0
LINE
  8
0
 10
3.25
 20
-271
 11
3.24303
 21
-271.213
  0
LINE
  8
0
 10
3.24303
 20
-271.213
 11
3.22218
 21
-271.424
  0
LINE
  8
0
 10
3.22218
 20
-271.424
 11
3.18755
 21
-271.634
  0
LINE
  8
0
 10
3.18755
 20
-271.634
 11
3.13925
 21
-271.841
  0
LINE
  8
0
 10
3.13925
 20
-271.841
 11
3.07751
 21
-272.045
  0
LINE
  8
0
 10
3.07751
 20
-272.045
 11
3.00259
 21
-272.244
  0
LINE
  8
0
 10
3.00259
 20
-272.244
 11
2.91483
 21
-272.437
  0
LINE
  8
0
 10
2.91483
 20
-272.437
 11
2.81458
 21
-272.625
  0
LINE
  8
0
 10
2.81458
 20
-272.625
 11
2.70227
 21
-272.806
  0
LINE
  8
0
 10
2.70227
 20
-272.806
 11
2.57838
 21
-272.978
  0
LINE
  8
0
 10
2.57838
 20
-272.978
 11
2.44347
 21
-273.143
  0
LINE
  8
0
 10
2.44347
 20
-273.143
 11
2.2981
 21
-273.298
  0
LINE
  8
0
 10
2.2981
 20
-273.298
 11
2.14287
 21
-273.443
  0
LINE
  8
0
 10
2.14287
 20
-273.443
 11
1.97847
 21
-273.578
  0
LINE
  8
0
 10
1.97847
 20
-273.578
 11
1.8056
 21
-273.702
  0
LINE
  8
0
 10
1.8056
 20
-273.702
 11
1.625
 21
-273.815
  0
LINE
  8
0
 10
1.625
 20
-273.815
 11
1.43742
 21
-273.915
  0
LINE
  8
0
 10
1.43742
 20
-273.915
 11
1.24371
 21
-274.003
  0
LINE
  8
0
 10
1.24371
 20
-274.003
 11
1.04468
 21
-274.078
  0
LINE
  8
0
 10
1.04468
 20
-274.078
 11
0.841156
 21
-274.139
  0
LINE
  8
0
 10
0.841156
 20
-274.139
 11
0.634033
 21
-274.188
  0
LINE
  8
0
 10
0.634033
 20
-274.188
 11
0.42421
 21
-274.222
  0
LINE
  8
0
 10
0.42421
 20
-274.222
 11
0.212555
 21
-274.243
  0
LINE
  8
0
 10
0.212555
 20
-274.243
 11
0
 21
-274.25
  0
LINE
  8
0
 10
0
 20
-274.25
 11
-0.212555
 21
-274.243
  0
ENDSEC
  0
SECTION
  2
OBJECTS
  0
DICTIONARY
  0
ENDSEC
  0
EOF
