  0
SECTION
  2
BLOCKS
  0
ENDSEC
  0
SECTION
  2
ENTITIES
  0
LINE
  8
0
 10
15
 20
53
 11
-15
 21
53
  0
LINE
  8
0
 10
-15
 20
53
 11
-15
 21
0
  0
LINE
  8
0
 10
-15
 20
0
 11
15
 21
0
  0
LINE
  8
0
 10
15
 20
0
 11
15
 21
53
  0
LINE
  8
0
 10
-0.395676
 20
31.963
 11
-0.789673
 21
32.0018
  0
LINE
  8
0
 10
-0.789673
 20
32.0018
 11
-1.18028
 21
32.0662
  0
LINE
  8
0
 10
-1.18028
 20
32.0662
 11
-1.56584
 21
32.1561
  0
LINE
  8
0
 10
-1.56584
 20
32.1561
 11
-1.9447
 21
32.2711
  0
LINE
  8
0
 10
-1.9447
 20
32.2711
 11
-2.31523
 21
32.4105
  0
LINE
  8
0
 10
-2.31523
 20
32.4105
 11
-2.67584
 21
32.5739
  0
LINE
  8
0
 10
-2.67584
 20
32.5739
 11
-3.02499
 21
32.7605
  0
LINE
  8
0
 10
-3.02499
 20
32.7605
 11
-3.36119
 21
32.9696
  0
LINE
  8
0
 10
-3.36119
 20
32.9696
 11
-3.683
 21
33.2002
  0
LINE
  8
0
 10
-3.683
 20
33.2002
 11
-3.98903
 21
33.4514
  0
LINE
  8
0
 10
-3.98903
 20
33.4514
 11
-4.27798
 21
33.722
  0
LINE
  8
0
 10
-4.27798
 20
33.722
 11
-4.54863
 21
34.011
  0
LINE
  8
0
 10
-4.54863
 20
34.011
 11
-4.79977
 21
34.317
  0
LINE
  8
0
 10
-4.79977
 20
34.317
 11
-5.03038
 21
34.6388
  0
LINE
  8
0
 10
-5.03038
 20
34.6388
 11
-5.23944
 21
34.975
  0
LINE
  8
0
 10
-5.23944
 20
34.975
 11
-5.42607
 21
35.3241
  0
LINE
  8
0
 10
-5.42607
 20
35.3241
 11
-5.58946
 21
35.6848
  0
LINE
  8
0
 10
-5.58946
 20
35.6848
 11
-5.72891
 21
36.0553
  0
LINE
  8
0
 10
-5.72891
 20
36.0553
 11
-5.84384
 21
36.4341
  0
LINE
  8
0
 10
-5.84384
 20
36.4341
 11
-5.93375
 21
36.8197
  0
LINE
  8
0
 10
-5.93375
 20
36.8197
 11
-5.99823
 21
37.2103
  0
LINE
  8
0
 10
-5.99823
 20
37.2103
 11
-6.03703
 21
37.6043
  0
LINE
  8
0
 10
-6.03703
 20
37.6043
 11
-6.04999
 21
38
  0
LINE
  8
0
 10
-6.04999
 20
38
 11
-6.03703
 21
38.3957
  0
LINE
  8
0
 10
-6.03703
 20
38.3957
 11
-5.99823
 21
38.7897
  0
LINE
  8
0
 10
-5.99823
 20
38.7897
 11
-5.93375
 21
39.1803
  0
LINE
  8
0
 10
-5.93375
 20
39.1803
 11
-5.84384
 21
39.5658
  0
LINE
  8
0
 10
-5.84384
 20
39.5658
 11
-5.72891
 21
39.9447
  0
LINE
  8
0
 10
-5.72891
 20
39.9447
 11
-5.58946
 21
40.3152
  0
LINE
  8
0
 10
-5.58946
 20
40.3152
 11
-5.42607
 21
40.6758
  0
LINE
  8
0
 10
-5.42607
 20
40.6758
 11
-5.23944
 21
41.025
  0
LINE
  8
0
 10
-5.23944
 20
41.025
 11
-5.03038
 21
41.3612
  0
LINE
  8
0
 10
-5.03038
 20
41.3612
 11
-4.79977
 21
41.683
  0
LINE
  8
0
 10
-4.79977
 20
41.683
 11
-4.54863
 21
41.989
  0
LINE
  8
0
 10
-4.54863
 20
41.989
 11
-4.27798
 21
42.278
  0
LINE
  8
0
 10
-4.27798
 20
42.278
 11
-3.98903
 21
42.5486
  0
LINE
  8
0
 10
-3.98903
 20
42.5486
 11
-3.683
 21
42.7998
  0
LINE
  8
0
 10
-3.683
 20
42.7998
 11
-3.36119
 21
43.0304
  0
LINE
  8
0
 10
-3.36119
 20
43.0304
 11
-3.02499
 21
43.2394
  0
LINE
  8
0
 10
-3.02499
 20
43.2394
 11
-2.67584
 21
43.4261
  0
LINE
  8
0
 10
-2.67584
 20
43.4261
 11
-2.31523
 21
43.5895
  0
LINE
  8
0
 10
-2.31523
 20
43.5895
 11
-1.9447
 21
43.7289
  0
LINE
  8
0
 10
-1.9447
 20
43.7289
 11
-1.56584
 21
43.8438
  0
LINE
  8
0
 10
-1.56584
 20
43.8438
 11
-1.18028
 21
43.9337
  0
LINE
  8
0
 10
-1.18028
 20
43.9337
 11
-0.789673
 21
43.9982
  0
LINE
  8
0
 10
-0.789673
 20
43.9982
 11
-0.395676
 21
44.037
  0
LINE
  8
0
 10
-0.395676
 20
44.037
 11
0
 21
44.05
  0
LINE
  8
0
 10
0
 20
44.05
 11
0.395676
 21
44.037
  0
LINE
  8
0
 10
0.395676
 20
44.037
 11
0.789673
 21
43.9982
  0
LINE
  8
0
 10
0.789673
 20
43.9982
 11
1.18028
 21
43.9337
  0
LINE
  8
0
 10
1.18028
 20
43.9337
 11
1.56584
 21
43.8438
  0
LINE
  8
0
 10
1.56584
 20
43.8438
 11
1.9447
 21
43.7289
  0
LINE
  8
0
 10
1.9447
 20
43.7289
 11
2.31523
 21
43.5895
  0
LINE
  8
0
 10
2.31523
 20
43.5895
 11
2.67584
 21
43.4261
  0
LINE
  8
0
 10
2.67584
 20
43.4261
 11
3.02499
 21
43.2394
  0
LINE
  8
0
 10
3.02499
 20
43.2394
 11
3.36119
 21
43.0304
  0
LINE
  8
0
 10
3.36119
 20
43.0304
 11
3.683
 21
42.7998
  0
LINE
  8
0
 10
3.683
 20
42.7998
 11
3.98903
 21
42.5486
  0
LINE
  8
0
 10
3.98903
 20
42.5486
 11
4.27798
 21
42.278
  0
LINE
  8
0
 10
4.27798
 20
42.278
 11
4.54863
 21
41.989
  0
LINE
  8
0
 10
4.54863
 20
41.989
 11
4.79977
 21
41.683
  0
LINE
  8
0
 10
4.79977
 20
41.683
 11
5.03038
 21
41.3612
  0
LINE
  8
0
 10
5.03038
 20
41.3612
 11
5.23944
 21
41.025
  0
LINE
  8
0
 10
5.23944
 20
41.025
 11
5.42607
 21
40.6758
  0
LINE
  8
0
 10
5.42607
 20
40.6758
 11
5.58946
 21
40.3152
  0
LINE
  8
0
 10
5.58946
 20
40.3152
 11
5.72891
 21
39.9447
  0
LINE
  8
0
 10
5.72891
 20
39.9447
 11
5.84384
 21
39.5658
  0
LINE
  8
0
 10
5.84384
 20
39.5658
 11
5.93375
 21
39.1803
  0
LINE
  8
0
 10
5.93375
 20
39.1803
 11
5.99823
 21
38.7897
  0
LINE
  8
0
 10
5.99823
 20
38.7897
 11
6.03703
 21
38.3957
  0
LINE
  8
0
 10
6.03703
 20
38.3957
 11
6.04999
 21
38
  0
LINE
  8
0
 10
6.04999
 20
38
 11
6.03703
 21
37.6043
  0
LINE
  8
0
 10
6.03703
 20
37.6043
 11
5.99823
 21
37.2103
  0
LINE
  8
0
 10
5.99823
 20
37.2103
 11
5.93375
 21
36.8197
  0
LINE
  8
0
 10
5.93375
 20
36.8197
 11
5.84384
 21
36.4341
  0
LINE
  8
0
 10
5.84384
 20
36.4341
 11
5.72891
 21
36.0553
  0
LINE
  8
0
 10
5.72891
 20
36.0553
 11
5.58946
 21
35.6848
  0
LINE
  8
0
 10
5.58946
 20
35.6848
 11
5.42607
 21
35.3241
  0
LINE
  8
0
 10
5.42607
 20
35.3241
 11
5.23944
 21
34.975
  0
LINE
  8
0
 10
5.23944
 20
34.975
 11
5.03038
 21
34.6388
  0
LINE
  8
0
 10
5.03038
 20
34.6388
 11
4.79977
 21
34.317
  0
LINE
  8
0
 10
4.79977
 20
34.317
 11
4.54863
 21
34.011
  0
LINE
  8
0
 10
4.54863
 20
34.011
 11
4.27798
 21
33.722
  0
LINE
  8
0
 10
4.27798
 20
33.722
 11
3.98903
 21
33.4514
  0
LINE
  8
0
 10
3.98903
 20
33.4514
 11
3.683
 21
33.2002
  0
LINE
  8
0
 10
3.683
 20
33.2002
 11
3.36119
 21
32.9696
  0
LINE
  8
0
 10
3.36119
 20
32.9696
 11
3.02499
 21
32.7605
  0
LINE
  8
0
 10
3.02499
 20
32.7605
 11
2.67584
 21
32.5739
  0
LINE
  8
0
 10
2.67584
 20
32.5739
 11
2.31523
 21
32.4105
  0
LINE
  8
0
 10
2.31523
 20
32.4105
 11
1.9447
 21
32.2711
  0
LINE
  8
0
 10
1.9447
 20
32.2711
 11
1.56584
 21
32.1561
  0
LINE
  8
0
 10
1.56584
 20
32.1561
 11
1.18028
 21
32.0662
  0
LINE
  8
0
 10
1.18028
 20
32.0662
 11
0.789673
 21
32.0018
  0
LINE
  8
0
 10
0.789673
 20
32.0018
 11
0.395676
 21
31.963
  0
LINE
  8
0
 10
0.395676
 20
31.963
 11
0
 21
31.95
  0
LINE
  8
0
 10
0
 20
31.95
 11
-0.395676
 21
31.963
  0
ENDSEC
  0
SECTION
  2
OBJECTS
  0
DICTIONARY
  0
ENDSEC
  0
EOF
