  0
SECTION
  2
BLOCKS
  0
ENDSEC
  0
SECTION
  2
ENTITIES
  0
LINE
  8
0
 10
-15
 20
205
 11
-45
 21
205
  0
LINE
  8
0
 10
-45
 20
205
 11
-45
 21
6
  0
LINE
  8
0
 10
-45
 20
6
 11
-15
 21
6
  0
LINE
  8
0
 10
-15
 20
6
 11
-15
 21
205
  0
LINE
  8
0
 10
-31.3
 20
178.8
 11
-31.3785
 21
178.803
  0
LINE
  8
0
 10
-31.3785
 20
178.803
 11
-31.4566
 21
178.81
  0
LINE
  8
0
 10
-31.4566
 20
178.81
 11
-31.5341
 21
178.823
  0
LINE
  8
0
 10
-31.5341
 20
178.823
 11
-31.6106
 21
178.841
  0
LINE
  8
0
 10
-31.6106
 20
178.841
 11
-31.6857
 21
178.864
  0
LINE
  8
0
 10
-31.6857
 20
178.864
 11
-31.7592
 21
178.891
  0
LINE
  8
0
 10
-31.7592
 20
178.891
 11
-31.8307
 21
178.924
  0
LINE
  8
0
 10
-31.8307
 20
178.924
 11
-31.9
 21
178.961
  0
LINE
  8
0
 10
-31.9
 20
178.961
 11
-31.9667
 21
179.002
  0
LINE
  8
0
 10
-31.9667
 20
179.002
 11
-32.0305
 21
179.048
  0
LINE
  8
0
 10
-32.0305
 20
179.048
 11
-32.0912
 21
179.098
  0
LINE
  8
0
 10
-32.0912
 20
179.098
 11
-32.1485
 21
179.151
  0
LINE
  8
0
 10
-32.1485
 20
179.151
 11
-32.2022
 21
179.209
  0
LINE
  8
0
 10
-32.2022
 20
179.209
 11
-32.252
 21
179.269
  0
LINE
  8
0
 10
-32.252
 20
179.269
 11
-32.2978
 21
179.333
  0
LINE
  8
0
 10
-32.2978
 20
179.333
 11
-32.3392
 21
179.4
  0
LINE
  8
0
 10
-32.3392
 20
179.4
 11
-32.3762
 21
179.469
  0
LINE
  8
0
 10
-32.3762
 20
179.469
 11
-32.4086
 21
179.541
  0
LINE
  8
0
 10
-32.4086
 20
179.541
 11
-32.4363
 21
179.614
  0
LINE
  8
0
 10
-32.4363
 20
179.614
 11
-32.4591
 21
179.689
  0
LINE
  8
0
 10
-32.4591
 20
179.689
 11
-32.4769
 21
179.766
  0
LINE
  8
0
 10
-32.4769
 20
179.766
 11
-32.4897
 21
179.843
  0
LINE
  8
0
 10
-32.4897
 20
179.843
 11
-32.4974
 21
179.922
  0
LINE
  8
0
 10
-32.4974
 20
179.922
 11
-32.5
 21
180
  0
LINE
  8
0
 10
-32.5
 20
180
 11
-32.4974
 21
180.078
  0
LINE
  8
0
 10
-32.4974
 20
180.078
 11
-32.4897
 21
180.157
  0
LINE
  8
0
 10
-32.4897
 20
180.157
 11
-32.4769
 21
180.234
  0
LINE
  8
0
 10
-32.4769
 20
180.234
 11
-32.4591
 21
180.311
  0
LINE
  8
0
 10
-32.4591
 20
180.311
 11
-32.4363
 21
180.386
  0
LINE
  8
0
 10
-32.4363
 20
180.386
 11
-32.4086
 21
180.459
  0
LINE
  8
0
 10
-32.4086
 20
180.459
 11
-32.3762
 21
180.531
  0
LINE
  8
0
 10
-32.3762
 20
180.531
 11
-32.3392
 21
180.6
  0
LINE
  8
0
 10
-32.3392
 20
180.6
 11
-32.2978
 21
180.667
  0
LINE
  8
0
 10
-32.2978
 20
180.667
 11
-32.252
 21
180.73
  0
LINE
  8
0
 10
-32.252
 20
180.73
 11
-32.2022
 21
180.791
  0
LINE
  8
0
 10
-32.2022
 20
180.791
 11
-32.1485
 21
180.849
  0
LINE
  8
0
 10
-32.1485
 20
180.849
 11
-32.0912
 21
180.902
  0
LINE
  8
0
 10
-32.0912
 20
180.902
 11
-32.0305
 21
180.952
  0
LINE
  8
0
 10
-32.0305
 20
180.952
 11
-31.9667
 21
180.998
  0
LINE
  8
0
 10
-31.9667
 20
180.998
 11
-31.9
 21
181.039
  0
LINE
  8
0
 10
-31.9
 20
181.039
 11
-31.8307
 21
181.076
  0
LINE
  8
0
 10
-31.8307
 20
181.076
 11
-31.7592
 21
181.109
  0
LINE
  8
0
 10
-31.7592
 20
181.109
 11
-31.6857
 21
181.136
  0
LINE
  8
0
 10
-31.6857
 20
181.136
 11
-31.6106
 21
181.159
  0
LINE
  8
0
 10
-31.6106
 20
181.159
 11
-31.5341
 21
181.177
  0
LINE
  8
0
 10
-31.5341
 20
181.177
 11
-31.4566
 21
181.19
  0
LINE
  8
0
 10
-31.4566
 20
181.19
 11
-31.3785
 21
181.197
  0
LINE
  8
0
 10
-31.3785
 20
181.197
 11
-31.3
 21
181.2
  0
LINE
  8
0
 10
-31.3
 20
181.2
 11
-27.3
 21
181.2
  0
LINE
  8
0
 10
-27.3
 20
181.2
 11
-27.2215
 21
181.197
  0
LINE
  8
0
 10
-27.2215
 20
181.197
 11
-27.1434
 21
181.19
  0
LINE
  8
0
 10
-27.1434
 20
181.19
 11
-27.0659
 21
181.177
  0
LINE
  8
0
 10
-27.0659
 20
181.177
 11
-26.9894
 21
181.159
  0
LINE
  8
0
 10
-26.9894
 20
181.159
 11
-26.9143
 21
181.136
  0
LINE
  8
0
 10
-26.9143
 20
181.136
 11
-26.8408
 21
181.109
  0
LINE
  8
0
 10
-26.8408
 20
181.109
 11
-26.7692
 21
181.076
  0
LINE
  8
0
 10
-26.7692
 20
181.076
 11
-26.7
 21
181.039
  0
LINE
  8
0
 10
-26.7
 20
181.039
 11
-26.6333
 21
180.998
  0
LINE
  8
0
 10
-26.6333
 20
180.998
 11
-26.5695
 21
180.952
  0
LINE
  8
0
 10
-26.5695
 20
180.952
 11
-26.5088
 21
180.902
  0
LINE
  8
0
 10
-26.5088
 20
180.902
 11
-26.4515
 21
180.849
  0
LINE
  8
0
 10
-26.4515
 20
180.849
 11
-26.3978
 21
180.791
  0
LINE
  8
0
 10
-26.3978
 20
180.791
 11
-26.348
 21
180.73
  0
LINE
  8
0
 10
-26.348
 20
180.73
 11
-26.3022
 21
180.667
  0
LINE
  8
0
 10
-26.3022
 20
180.667
 11
-26.2608
 21
180.6
  0
LINE
  8
0
 10
-26.2608
 20
180.6
 11
-26.2237
 21
180.531
  0
LINE
  8
0
 10
-26.2237
 20
180.531
 11
-26.1913
 21
180.459
  0
LINE
  8
0
 10
-26.1913
 20
180.459
 11
-26.1637
 21
180.386
  0
LINE
  8
0
 10
-26.1637
 20
180.386
 11
-26.1409
 21
180.311
  0
LINE
  8
0
 10
-26.1409
 20
180.311
 11
-26.123
 21
180.234
  0
LINE
  8
0
 10
-26.123
 20
180.234
 11
-26.1103
 21
180.157
  0
LINE
  8
0
 10
-26.1103
 20
180.157
 11
-26.1026
 21
180.078
  0
LINE
  8
0
 10
-26.1026
 20
180.078
 11
-26.1
 21
180
  0
LINE
  8
0
 10
-26.1
 20
180
 11
-26.1026
 21
179.922
  0
LINE
  8
0
 10
-26.1026
 20
179.922
 11
-26.1103
 21
179.843
  0
LINE
  8
0
 10
-26.1103
 20
179.843
 11
-26.123
 21
179.766
  0
LINE
  8
0
 10
-26.123
 20
179.766
 11
-26.1409
 21
179.689
  0
LINE
  8
0
 10
-26.1409
 20
179.689
 11
-26.1637
 21
179.614
  0
LINE
  8
0
 10
-26.1637
 20
179.614
 11
-26.1913
 21
179.541
  0
LINE
  8
0
 10
-26.1913
 20
179.541
 11
-26.2237
 21
179.469
  0
LINE
  8
0
 10
-26.2237
 20
179.469
 11
-26.2608
 21
179.4
  0
LINE
  8
0
 10
-26.2608
 20
179.4
 11
-26.3022
 21
179.333
  0
LINE
  8
0
 10
-26.3022
 20
179.333
 11
-26.348
 21
179.269
  0
LINE
  8
0
 10
-26.348
 20
179.269
 11
-26.3978
 21
179.209
  0
LINE
  8
0
 10
-26.3978
 20
179.209
 11
-26.4515
 21
179.151
  0
LINE
  8
0
 10
-26.4515
 20
179.151
 11
-26.5088
 21
179.098
  0
LINE
  8
0
 10
-26.5088
 20
179.098
 11
-26.5695
 21
179.048
  0
LINE
  8
0
 10
-26.5695
 20
179.048
 11
-26.6333
 21
179.002
  0
LINE
  8
0
 10
-26.6333
 20
179.002
 11
-26.7
 21
178.961
  0
LINE
  8
0
 10
-26.7
 20
178.961
 11
-26.7692
 21
178.924
  0
LINE
  8
0
 10
-26.7692
 20
178.924
 11
-26.8408
 21
178.891
  0
LINE
  8
0
 10
-26.8408
 20
178.891
 11
-26.9143
 21
178.864
  0
LINE
  8
0
 10
-26.9143
 20
178.864
 11
-26.9894
 21
178.841
  0
LINE
  8
0
 10
-26.9894
 20
178.841
 11
-27.0659
 21
178.823
  0
LINE
  8
0
 10
-27.0659
 20
178.823
 11
-27.1434
 21
178.81
  0
LINE
  8
0
 10
-27.1434
 20
178.81
 11
-27.2215
 21
178.803
  0
LINE
  8
0
 10
-27.2215
 20
178.803
 11
-27.3
 21
178.8
  0
LINE
  8
0
 10
-27.3
 20
178.8
 11
-31.3
 21
178.8
  0
LINE
  8
0
 10
-31.3
 20
169.3
 11
-31.3785
 21
169.303
  0
LINE
  8
0
 10
-31.3785
 20
169.303
 11
-31.4566
 21
169.31
  0
LINE
  8
0
 10
-31.4566
 20
169.31
 11
-31.5341
 21
169.323
  0
LINE
  8
0
 10
-31.5341
 20
169.323
 11
-31.6106
 21
169.341
  0
LINE
  8
0
 10
-31.6106
 20
169.341
 11
-31.6857
 21
169.364
  0
LINE
  8
0
 10
-31.6857
 20
169.364
 11
-31.7592
 21
169.391
  0
LINE
  8
0
 10
-31.7592
 20
169.391
 11
-31.8307
 21
169.424
  0
LINE
  8
0
 10
-31.8307
 20
169.424
 11
-31.9
 21
169.461
  0
LINE
  8
0
 10
-31.9
 20
169.461
 11
-31.9667
 21
169.502
  0
LINE
  8
0
 10
-31.9667
 20
169.502
 11
-32.0305
 21
169.548
  0
LINE
  8
0
 10
-32.0305
 20
169.548
 11
-32.0912
 21
169.598
  0
LINE
  8
0
 10
-32.0912
 20
169.598
 11
-32.1485
 21
169.651
  0
LINE
  8
0
 10
-32.1485
 20
169.651
 11
-32.2022
 21
169.709
  0
LINE
  8
0
 10
-32.2022
 20
169.709
 11
-32.252
 21
169.769
  0
LINE
  8
0
 10
-32.252
 20
169.769
 11
-32.2978
 21
169.833
  0
LINE
  8
0
 10
-32.2978
 20
169.833
 11
-32.3392
 21
169.9
  0
LINE
  8
0
 10
-32.3392
 20
169.9
 11
-32.3762
 21
169.969
  0
LINE
  8
0
 10
-32.3762
 20
169.969
 11
-32.4086
 21
170.041
  0
LINE
  8
0
 10
-32.4086
 20
170.041
 11
-32.4363
 21
170.114
  0
LINE
  8
0
 10
-32.4363
 20
170.114
 11
-32.4591
 21
170.189
  0
LINE
  8
0
 10
-32.4591
 20
170.189
 11
-32.4769
 21
170.266
  0
LINE
  8
0
 10
-32.4769
 20
170.266
 11
-32.4897
 21
170.343
  0
LINE
  8
0
 10
-32.4897
 20
170.343
 11
-32.4974
 21
170.422
  0
LINE
  8
0
 10
-32.4974
 20
170.422
 11
-32.5
 21
170.5
  0
LINE
  8
0
 10
-32.5
 20
170.5
 11
-32.4974
 21
170.578
  0
LINE
  8
0
 10
-32.4974
 20
170.578
 11
-32.4897
 21
170.657
  0
LINE
  8
0
 10
-32.4897
 20
170.657
 11
-32.4769
 21
170.734
  0
LINE
  8
0
 10
-32.4769
 20
170.734
 11
-32.4591
 21
170.811
  0
LINE
  8
0
 10
-32.4591
 20
170.811
 11
-32.4363
 21
170.886
  0
LINE
  8
0
 10
-32.4363
 20
170.886
 11
-32.4086
 21
170.959
  0
LINE
  8
0
 10
-32.4086
 20
170.959
 11
-32.3762
 21
171.031
  0
LINE
  8
0
 10
-32.3762
 20
171.031
 11
-32.3392
 21
171.1
  0
LINE
  8
0
 10
-32.3392
 20
171.1
 11
-32.2978
 21
171.167
  0
LINE
  8
0
 10
-32.2978
 20
171.167
 11
-32.252
 21
171.23
  0
LINE
  8
0
 10
-32.252
 20
171.23
 11
-32.2022
 21
171.291
  0
LINE
  8
0
 10
-32.2022
 20
171.291
 11
-32.1485
 21
171.349
  0
LINE
  8
0
 10
-32.1485
 20
171.349
 11
-32.0912
 21
171.402
  0
LINE
  8
0
 10
-32.0912
 20
171.402
 11
-32.0305
 21
171.452
  0
LINE
  8
0
 10
-32.0305
 20
171.452
 11
-31.9667
 21
171.498
  0
LINE
  8
0
 10
-31.9667
 20
171.498
 11
-31.9
 21
171.539
  0
LINE
  8
0
 10
-31.9
 20
171.539
 11
-31.8307
 21
171.576
  0
LINE
  8
0
 10
-31.8307
 20
171.576
 11
-31.7592
 21
171.609
  0
LINE
  8
0
 10
-31.7592
 20
171.609
 11
-31.6857
 21
171.636
  0
LINE
  8
0
 10
-31.6857
 20
171.636
 11
-31.6106
 21
171.659
  0
LINE
  8
0
 10
-31.6106
 20
171.659
 11
-31.5341
 21
171.677
  0
LINE
  8
0
 10
-31.5341
 20
171.677
 11
-31.4566
 21
171.69
  0
LINE
  8
0
 10
-31.4566
 20
171.69
 11
-31.3785
 21
171.697
  0
LINE
  8
0
 10
-31.3785
 20
171.697
 11
-31.3
 21
171.7
  0
LINE
  8
0
 10
-31.3
 20
171.7
 11
-27.3
 21
171.7
  0
LINE
  8
0
 10
-27.3
 20
171.7
 11
-27.2215
 21
171.697
  0
LINE
  8
0
 10
-27.2215
 20
171.697
 11
-27.1434
 21
171.69
  0
LINE
  8
0
 10
-27.1434
 20
171.69
 11
-27.0659
 21
171.677
  0
LINE
  8
0
 10
-27.0659
 20
171.677
 11
-26.9894
 21
171.659
  0
LINE
  8
0
 10
-26.9894
 20
171.659
 11
-26.9143
 21
171.636
  0
LINE
  8
0
 10
-26.9143
 20
171.636
 11
-26.8408
 21
171.609
  0
LINE
  8
0
 10
-26.8408
 20
171.609
 11
-26.7692
 21
171.576
  0
LINE
  8
0
 10
-26.7692
 20
171.576
 11
-26.7
 21
171.539
  0
LINE
  8
0
 10
-26.7
 20
171.539
 11
-26.6333
 21
171.498
  0
LINE
  8
0
 10
-26.6333
 20
171.498
 11
-26.5695
 21
171.452
  0
LINE
  8
0
 10
-26.5695
 20
171.452
 11
-26.5088
 21
171.402
  0
LINE
  8
0
 10
-26.5088
 20
171.402
 11
-26.4515
 21
171.349
  0
LINE
  8
0
 10
-26.4515
 20
171.349
 11
-26.3978
 21
171.291
  0
LINE
  8
0
 10
-26.3978
 20
171.291
 11
-26.348
 21
171.23
  0
LINE
  8
0
 10
-26.348
 20
171.23
 11
-26.3022
 21
171.167
  0
LINE
  8
0
 10
-26.3022
 20
171.167
 11
-26.2608
 21
171.1
  0
LINE
  8
0
 10
-26.2608
 20
171.1
 11
-26.2237
 21
171.031
  0
LINE
  8
0
 10
-26.2237
 20
171.031
 11
-26.1913
 21
170.959
  0
LINE
  8
0
 10
-26.1913
 20
170.959
 11
-26.1637
 21
170.886
  0
LINE
  8
0
 10
-26.1637
 20
170.886
 11
-26.1409
 21
170.811
  0
LINE
  8
0
 10
-26.1409
 20
170.811
 11
-26.123
 21
170.734
  0
LINE
  8
0
 10
-26.123
 20
170.734
 11
-26.1103
 21
170.657
  0
LINE
  8
0
 10
-26.1103
 20
170.657
 11
-26.1026
 21
170.578
  0
LINE
  8
0
 10
-26.1026
 20
170.578
 11
-26.1
 21
170.5
  0
LINE
  8
0
 10
-26.1
 20
170.5
 11
-26.1026
 21
170.422
  0
LINE
  8
0
 10
-26.1026
 20
170.422
 11
-26.1103
 21
170.343
  0
LINE
  8
0
 10
-26.1103
 20
170.343
 11
-26.123
 21
170.266
  0
LINE
  8
0
 10
-26.123
 20
170.266
 11
-26.1409
 21
170.189
  0
LINE
  8
0
 10
-26.1409
 20
170.189
 11
-26.1637
 21
170.114
  0
LINE
  8
0
 10
-26.1637
 20
170.114
 11
-26.1913
 21
170.041
  0
LINE
  8
0
 10
-26.1913
 20
170.041
 11
-26.2237
 21
169.969
  0
LINE
  8
0
 10
-26.2237
 20
169.969
 11
-26.2608
 21
169.9
  0
LINE
  8
0
 10
-26.2608
 20
169.9
 11
-26.3022
 21
169.833
  0
LINE
  8
0
 10
-26.3022
 20
169.833
 11
-26.348
 21
169.769
  0
LINE
  8
0
 10
-26.348
 20
169.769
 11
-26.3978
 21
169.709
  0
LINE
  8
0
 10
-26.3978
 20
169.709
 11
-26.4515
 21
169.651
  0
LINE
  8
0
 10
-26.4515
 20
169.651
 11
-26.5088
 21
169.598
  0
LINE
  8
0
 10
-26.5088
 20
169.598
 11
-26.5695
 21
169.548
  0
LINE
  8
0
 10
-26.5695
 20
169.548
 11
-26.6333
 21
169.502
  0
LINE
  8
0
 10
-26.6333
 20
169.502
 11
-26.7
 21
169.461
  0
LINE
  8
0
 10
-26.7
 20
169.461
 11
-26.7692
 21
169.424
  0
LINE
  8
0
 10
-26.7692
 20
169.424
 11
-26.8408
 21
169.391
  0
LINE
  8
0
 10
-26.8408
 20
169.391
 11
-26.9143
 21
169.364
  0
LINE
  8
0
 10
-26.9143
 20
169.364
 11
-26.9894
 21
169.341
  0
LINE
  8
0
 10
-26.9894
 20
169.341
 11
-27.0659
 21
169.323
  0
LINE
  8
0
 10
-27.0659
 20
169.323
 11
-27.1434
 21
169.31
  0
LINE
  8
0
 10
-27.1434
 20
169.31
 11
-27.2215
 21
169.303
  0
LINE
  8
0
 10
-27.2215
 20
169.303
 11
-27.3
 21
169.3
  0
LINE
  8
0
 10
-27.3
 20
169.3
 11
-31.3
 21
169.3
  0
LINE
  8
0
 10
-31.3
 20
70.8
 11
-31.3785
 21
70.8026
  0
LINE
  8
0
 10
-31.3785
 20
70.8026
 11
-31.4566
 21
70.8103
  0
LINE
  8
0
 10
-31.4566
 20
70.8103
 11
-31.5341
 21
70.823
  0
LINE
  8
0
 10
-31.5341
 20
70.823
 11
-31.6106
 21
70.8409
  0
LINE
  8
0
 10
-31.6106
 20
70.8409
 11
-31.6857
 21
70.8637
  0
LINE
  8
0
 10
-31.6857
 20
70.8637
 11
-31.7592
 21
70.8913
  0
LINE
  8
0
 10
-31.7592
 20
70.8913
 11
-31.8307
 21
70.9238
  0
LINE
  8
0
 10
-31.8307
 20
70.9238
 11
-31.9
 21
70.9608
  0
LINE
  8
0
 10
-31.9
 20
70.9608
 11
-31.9667
 21
71.0022
  0
LINE
  8
0
 10
-31.9667
 20
71.0022
 11
-32.0305
 21
71.048
  0
LINE
  8
0
 10
-32.0305
 20
71.048
 11
-32.0912
 21
71.0978
  0
LINE
  8
0
 10
-32.0912
 20
71.0978
 11
-32.1485
 21
71.1515
  0
LINE
  8
0
 10
-32.1485
 20
71.1515
 11
-32.2022
 21
71.2088
  0
LINE
  8
0
 10
-32.2022
 20
71.2088
 11
-32.252
 21
71.2695
  0
LINE
  8
0
 10
-32.252
 20
71.2695
 11
-32.2978
 21
71.3333
  0
LINE
  8
0
 10
-32.2978
 20
71.3333
 11
-32.3392
 21
71.4
  0
LINE
  8
0
 10
-32.3392
 20
71.4
 11
-32.3762
 21
71.4693
  0
LINE
  8
0
 10
-32.3762
 20
71.4693
 11
-32.4086
 21
71.5408
  0
LINE
  8
0
 10
-32.4086
 20
71.5408
 11
-32.4363
 21
71.6143
  0
LINE
  8
0
 10
-32.4363
 20
71.6143
 11
-32.4591
 21
71.6894
  0
LINE
  8
0
 10
-32.4591
 20
71.6894
 11
-32.4769
 21
71.7659
  0
LINE
  8
0
 10
-32.4769
 20
71.7659
 11
-32.4897
 21
71.8434
  0
LINE
  8
0
 10
-32.4897
 20
71.8434
 11
-32.4974
 21
71.9215
  0
LINE
  8
0
 10
-32.4974
 20
71.9215
 11
-32.5
 21
72
  0
LINE
  8
0
 10
-32.5
 20
72
 11
-32.4974
 21
72.0785
  0
LINE
  8
0
 10
-32.4974
 20
72.0785
 11
-32.4897
 21
72.1566
  0
LINE
  8
0
 10
-32.4897
 20
72.1566
 11
-32.4769
 21
72.2341
  0
LINE
  8
0
 10
-32.4769
 20
72.2341
 11
-32.4591
 21
72.3106
  0
LINE
  8
0
 10
-32.4591
 20
72.3106
 11
-32.4363
 21
72.3857
  0
LINE
  8
0
 10
-32.4363
 20
72.3857
 11
-32.4086
 21
72.4592
  0
LINE
  8
0
 10
-32.4086
 20
72.4592
 11
-32.3762
 21
72.5307
  0
LINE
  8
0
 10
-32.3762
 20
72.5307
 11
-32.3392
 21
72.6
  0
LINE
  8
0
 10
-32.3392
 20
72.6
 11
-32.2978
 21
72.6667
  0
LINE
  8
0
 10
-32.2978
 20
72.6667
 11
-32.252
 21
72.7305
  0
LINE
  8
0
 10
-32.252
 20
72.7305
 11
-32.2022
 21
72.7912
  0
LINE
  8
0
 10
-32.2022
 20
72.7912
 11
-32.1485
 21
72.8485
  0
LINE
  8
0
 10
-32.1485
 20
72.8485
 11
-32.0912
 21
72.9022
  0
LINE
  8
0
 10
-32.0912
 20
72.9022
 11
-32.0305
 21
72.952
  0
LINE
  8
0
 10
-32.0305
 20
72.952
 11
-31.9667
 21
72.9978
  0
LINE
  8
0
 10
-31.9667
 20
72.9978
 11
-31.9
 21
73.0392
  0
LINE
  8
0
 10
-31.9
 20
73.0392
 11
-31.8307
 21
73.0762
  0
LINE
  8
0
 10
-31.8307
 20
73.0762
 11
-31.7592
 21
73.1086
  0
LINE
  8
0
 10
-31.7592
 20
73.1086
 11
-31.6857
 21
73.1363
  0
LINE
  8
0
 10
-31.6857
 20
73.1363
 11
-31.6106
 21
73.1591
  0
LINE
  8
0
 10
-31.6106
 20
73.1591
 11
-31.5341
 21
73.1769
  0
LINE
  8
0
 10
-31.5341
 20
73.1769
 11
-31.4566
 21
73.1897
  0
LINE
  8
0
 10
-31.4566
 20
73.1897
 11
-31.3785
 21
73.1974
  0
LINE
  8
0
 10
-31.3785
 20
73.1974
 11
-31.3
 21
73.2
  0
LINE
  8
0
 10
-31.3
 20
73.2
 11
-27.3
 21
73.2
  0
LINE
  8
0
 10
-27.3
 20
73.2
 11
-27.2215
 21
73.1974
  0
LINE
  8
0
 10
-27.2215
 20
73.1974
 11
-27.1434
 21
73.1897
  0
LINE
  8
0
 10
-27.1434
 20
73.1897
 11
-27.0659
 21
73.1769
  0
LINE
  8
0
 10
-27.0659
 20
73.1769
 11
-26.9894
 21
73.1591
  0
LINE
  8
0
 10
-26.9894
 20
73.1591
 11
-26.9143
 21
73.1363
  0
LINE
  8
0
 10
-26.9143
 20
73.1363
 11
-26.8408
 21
73.1086
  0
LINE
  8
0
 10
-26.8408
 20
73.1086
 11
-26.7692
 21
73.0762
  0
LINE
  8
0
 10
-26.7692
 20
73.0762
 11
-26.7
 21
73.0392
  0
LINE
  8
0
 10
-26.7
 20
73.0392
 11
-26.6333
 21
72.9978
  0
LINE
  8
0
 10
-26.6333
 20
72.9978
 11
-26.5695
 21
72.952
  0
LINE
  8
0
 10
-26.5695
 20
72.952
 11
-26.5088
 21
72.9022
  0
LINE
  8
0
 10
-26.5088
 20
72.9022
 11
-26.4515
 21
72.8485
  0
LINE
  8
0
 10
-26.4515
 20
72.8485
 11
-26.3978
 21
72.7912
  0
LINE
  8
0
 10
-26.3978
 20
72.7912
 11
-26.348
 21
72.7305
  0
LINE
  8
0
 10
-26.348
 20
72.7305
 11
-26.3022
 21
72.6667
  0
LINE
  8
0
 10
-26.3022
 20
72.6667
 11
-26.2608
 21
72.6
  0
LINE
  8
0
 10
-26.2608
 20
72.6
 11
-26.2237
 21
72.5307
  0
LINE
  8
0
 10
-26.2237
 20
72.5307
 11
-26.1913
 21
72.4592
  0
LINE
  8
0
 10
-26.1913
 20
72.4592
 11
-26.1637
 21
72.3857
  0
LINE
  8
0
 10
-26.1637
 20
72.3857
 11
-26.1409
 21
72.3106
  0
LINE
  8
0
 10
-26.1409
 20
72.3106
 11
-26.123
 21
72.2341
  0
LINE
  8
0
 10
-26.123
 20
72.2341
 11
-26.1103
 21
72.1566
  0
LINE
  8
0
 10
-26.1103
 20
72.1566
 11
-26.1026
 21
72.0785
  0
LINE
  8
0
 10
-26.1026
 20
72.0785
 11
-26.1
 21
72
  0
LINE
  8
0
 10
-26.1
 20
72
 11
-26.1026
 21
71.9215
  0
LINE
  8
0
 10
-26.1026
 20
71.9215
 11
-26.1103
 21
71.8434
  0
LINE
  8
0
 10
-26.1103
 20
71.8434
 11
-26.123
 21
71.7659
  0
LINE
  8
0
 10
-26.123
 20
71.7659
 11
-26.1409
 21
71.6894
  0
LINE
  8
0
 10
-26.1409
 20
71.6894
 11
-26.1637
 21
71.6143
  0
LINE
  8
0
 10
-26.1637
 20
71.6143
 11
-26.1913
 21
71.5408
  0
LINE
  8
0
 10
-26.1913
 20
71.5408
 11
-26.2237
 21
71.4693
  0
LINE
  8
0
 10
-26.2237
 20
71.4693
 11
-26.2608
 21
71.4
  0
LINE
  8
0
 10
-26.2608
 20
71.4
 11
-26.3022
 21
71.3333
  0
LINE
  8
0
 10
-26.3022
 20
71.3333
 11
-26.348
 21
71.2695
  0
LINE
  8
0
 10
-26.348
 20
71.2695
 11
-26.3978
 21
71.2088
  0
LINE
  8
0
 10
-26.3978
 20
71.2088
 11
-26.4515
 21
71.1515
  0
LINE
  8
0
 10
-26.4515
 20
71.1515
 11
-26.5088
 21
71.0978
  0
LINE
  8
0
 10
-26.5088
 20
71.0978
 11
-26.5695
 21
71.048
  0
LINE
  8
0
 10
-26.5695
 20
71.048
 11
-26.6333
 21
71.0022
  0
LINE
  8
0
 10
-26.6333
 20
71.0022
 11
-26.7
 21
70.9608
  0
LINE
  8
0
 10
-26.7
 20
70.9608
 11
-26.7692
 21
70.9238
  0
LINE
  8
0
 10
-26.7692
 20
70.9238
 11
-26.8408
 21
70.8913
  0
LINE
  8
0
 10
-26.8408
 20
70.8913
 11
-26.9143
 21
70.8637
  0
LINE
  8
0
 10
-26.9143
 20
70.8637
 11
-26.9894
 21
70.8409
  0
LINE
  8
0
 10
-26.9894
 20
70.8409
 11
-27.0659
 21
70.823
  0
LINE
  8
0
 10
-27.0659
 20
70.823
 11
-27.1434
 21
70.8103
  0
LINE
  8
0
 10
-27.1434
 20
70.8103
 11
-27.2215
 21
70.8026
  0
LINE
  8
0
 10
-27.2215
 20
70.8026
 11
-27.3
 21
70.8
  0
LINE
  8
0
 10
-27.3
 20
70.8
 11
-31.3
 21
70.8
  0
LINE
  8
0
 10
-31.3
 20
61.3
 11
-31.3785
 21
61.3026
  0
LINE
  8
0
 10
-31.3785
 20
61.3026
 11
-31.4566
 21
61.3103
  0
LINE
  8
0
 10
-31.4566
 20
61.3103
 11
-31.5341
 21
61.323
  0
LINE
  8
0
 10
-31.5341
 20
61.323
 11
-31.6106
 21
61.3409
  0
LINE
  8
0
 10
-31.6106
 20
61.3409
 11
-31.6857
 21
61.3637
  0
LINE
  8
0
 10
-31.6857
 20
61.3637
 11
-31.7592
 21
61.3913
  0
LINE
  8
0
 10
-31.7592
 20
61.3913
 11
-31.8307
 21
61.4238
  0
LINE
  8
0
 10
-31.8307
 20
61.4238
 11
-31.9
 21
61.4608
  0
LINE
  8
0
 10
-31.9
 20
61.4608
 11
-31.9667
 21
61.5022
  0
LINE
  8
0
 10
-31.9667
 20
61.5022
 11
-32.0305
 21
61.548
  0
LINE
  8
0
 10
-32.0305
 20
61.548
 11
-32.0912
 21
61.5978
  0
LINE
  8
0
 10
-32.0912
 20
61.5978
 11
-32.1485
 21
61.6515
  0
LINE
  8
0
 10
-32.1485
 20
61.6515
 11
-32.2022
 21
61.7088
  0
LINE
  8
0
 10
-32.2022
 20
61.7088
 11
-32.252
 21
61.7695
  0
LINE
  8
0
 10
-32.252
 20
61.7695
 11
-32.2978
 21
61.8333
  0
LINE
  8
0
 10
-32.2978
 20
61.8333
 11
-32.3392
 21
61.9
  0
LINE
  8
0
 10
-32.3392
 20
61.9
 11
-32.3762
 21
61.9693
  0
LINE
  8
0
 10
-32.3762
 20
61.9693
 11
-32.4086
 21
62.0408
  0
LINE
  8
0
 10
-32.4086
 20
62.0408
 11
-32.4363
 21
62.1143
  0
LINE
  8
0
 10
-32.4363
 20
62.1143
 11
-32.4591
 21
62.1894
  0
LINE
  8
0
 10
-32.4591
 20
62.1894
 11
-32.4769
 21
62.2659
  0
LINE
  8
0
 10
-32.4769
 20
62.2659
 11
-32.4897
 21
62.3434
  0
LINE
  8
0
 10
-32.4897
 20
62.3434
 11
-32.4974
 21
62.4215
  0
LINE
  8
0
 10
-32.4974
 20
62.4215
 11
-32.5
 21
62.5
  0
LINE
  8
0
 10
-32.5
 20
62.5
 11
-32.4974
 21
62.5785
  0
LINE
  8
0
 10
-32.4974
 20
62.5785
 11
-32.4897
 21
62.6566
  0
LINE
  8
0
 10
-32.4897
 20
62.6566
 11
-32.4769
 21
62.7341
  0
LINE
  8
0
 10
-32.4769
 20
62.7341
 11
-32.4591
 21
62.8106
  0
LINE
  8
0
 10
-32.4591
 20
62.8106
 11
-32.4363
 21
62.8857
  0
LINE
  8
0
 10
-32.4363
 20
62.8857
 11
-32.4086
 21
62.9592
  0
LINE
  8
0
 10
-32.4086
 20
62.9592
 11
-32.3762
 21
63.0307
  0
LINE
  8
0
 10
-32.3762
 20
63.0307
 11
-32.3392
 21
63.1
  0
LINE
  8
0
 10
-32.3392
 20
63.1
 11
-32.2978
 21
63.1667
  0
LINE
  8
0
 10
-32.2978
 20
63.1667
 11
-32.252
 21
63.2305
  0
LINE
  8
0
 10
-32.252
 20
63.2305
 11
-32.2022
 21
63.2912
  0
LINE
  8
0
 10
-32.2022
 20
63.2912
 11
-32.1485
 21
63.3485
  0
LINE
  8
0
 10
-32.1485
 20
63.3485
 11
-32.0912
 21
63.4022
  0
LINE
  8
0
 10
-32.0912
 20
63.4022
 11
-32.0305
 21
63.452
  0
LINE
  8
0
 10
-32.0305
 20
63.452
 11
-31.9667
 21
63.4978
  0
LINE
  8
0
 10
-31.9667
 20
63.4978
 11
-31.9
 21
63.5392
  0
LINE
  8
0
 10
-31.9
 20
63.5392
 11
-31.8307
 21
63.5762
  0
LINE
  8
0
 10
-31.8307
 20
63.5762
 11
-31.7592
 21
63.6086
  0
LINE
  8
0
 10
-31.7592
 20
63.6086
 11
-31.6857
 21
63.6363
  0
LINE
  8
0
 10
-31.6857
 20
63.6363
 11
-31.6106
 21
63.6591
  0
LINE
  8
0
 10
-31.6106
 20
63.6591
 11
-31.5341
 21
63.6769
  0
LINE
  8
0
 10
-31.5341
 20
63.6769
 11
-31.4566
 21
63.6897
  0
LINE
  8
0
 10
-31.4566
 20
63.6897
 11
-31.3785
 21
63.6974
  0
LINE
  8
0
 10
-31.3785
 20
63.6974
 11
-31.3
 21
63.7
  0
LINE
  8
0
 10
-31.3
 20
63.7
 11
-27.3
 21
63.7
  0
LINE
  8
0
 10
-27.3
 20
63.7
 11
-27.2215
 21
63.6974
  0
LINE
  8
0
 10
-27.2215
 20
63.6974
 11
-27.1434
 21
63.6897
  0
LINE
  8
0
 10
-27.1434
 20
63.6897
 11
-27.0659
 21
63.6769
  0
LINE
  8
0
 10
-27.0659
 20
63.6769
 11
-26.9894
 21
63.6591
  0
LINE
  8
0
 10
-26.9894
 20
63.6591
 11
-26.9143
 21
63.6363
  0
LINE
  8
0
 10
-26.9143
 20
63.6363
 11
-26.8408
 21
63.6086
  0
LINE
  8
0
 10
-26.8408
 20
63.6086
 11
-26.7692
 21
63.5762
  0
LINE
  8
0
 10
-26.7692
 20
63.5762
 11
-26.7
 21
63.5392
  0
LINE
  8
0
 10
-26.7
 20
63.5392
 11
-26.6333
 21
63.4978
  0
LINE
  8
0
 10
-26.6333
 20
63.4978
 11
-26.5695
 21
63.452
  0
LINE
  8
0
 10
-26.5695
 20
63.452
 11
-26.5088
 21
63.4022
  0
LINE
  8
0
 10
-26.5088
 20
63.4022
 11
-26.4515
 21
63.3485
  0
LINE
  8
0
 10
-26.4515
 20
63.3485
 11
-26.3978
 21
63.2912
  0
LINE
  8
0
 10
-26.3978
 20
63.2912
 11
-26.348
 21
63.2305
  0
LINE
  8
0
 10
-26.348
 20
63.2305
 11
-26.3022
 21
63.1667
  0
LINE
  8
0
 10
-26.3022
 20
63.1667
 11
-26.2608
 21
63.1
  0
LINE
  8
0
 10
-26.2608
 20
63.1
 11
-26.2237
 21
63.0307
  0
LINE
  8
0
 10
-26.2237
 20
63.0307
 11
-26.1913
 21
62.9592
  0
LINE
  8
0
 10
-26.1913
 20
62.9592
 11
-26.1637
 21
62.8857
  0
LINE
  8
0
 10
-26.1637
 20
62.8857
 11
-26.1409
 21
62.8106
  0
LINE
  8
0
 10
-26.1409
 20
62.8106
 11
-26.123
 21
62.7341
  0
LINE
  8
0
 10
-26.123
 20
62.7341
 11
-26.1103
 21
62.6566
  0
LINE
  8
0
 10
-26.1103
 20
62.6566
 11
-26.1026
 21
62.5785
  0
LINE
  8
0
 10
-26.1026
 20
62.5785
 11
-26.1
 21
62.5
  0
LINE
  8
0
 10
-26.1
 20
62.5
 11
-26.1026
 21
62.4215
  0
LINE
  8
0
 10
-26.1026
 20
62.4215
 11
-26.1103
 21
62.3434
  0
LINE
  8
0
 10
-26.1103
 20
62.3434
 11
-26.123
 21
62.2659
  0
LINE
  8
0
 10
-26.123
 20
62.2659
 11
-26.1409
 21
62.1894
  0
LINE
  8
0
 10
-26.1409
 20
62.1894
 11
-26.1637
 21
62.1143
  0
LINE
  8
0
 10
-26.1637
 20
62.1143
 11
-26.1913
 21
62.0408
  0
LINE
  8
0
 10
-26.1913
 20
62.0408
 11
-26.2237
 21
61.9693
  0
LINE
  8
0
 10
-26.2237
 20
61.9693
 11
-26.2608
 21
61.9
  0
LINE
  8
0
 10
-26.2608
 20
61.9
 11
-26.3022
 21
61.8333
  0
LINE
  8
0
 10
-26.3022
 20
61.8333
 11
-26.348
 21
61.7695
  0
LINE
  8
0
 10
-26.348
 20
61.7695
 11
-26.3978
 21
61.7088
  0
LINE
  8
0
 10
-26.3978
 20
61.7088
 11
-26.4515
 21
61.6515
  0
LINE
  8
0
 10
-26.4515
 20
61.6515
 11
-26.5088
 21
61.5978
  0
LINE
  8
0
 10
-26.5088
 20
61.5978
 11
-26.5695
 21
61.548
  0
LINE
  8
0
 10
-26.5695
 20
61.548
 11
-26.6333
 21
61.5022
  0
LINE
  8
0
 10
-26.6333
 20
61.5022
 11
-26.7
 21
61.4608
  0
LINE
  8
0
 10
-26.7
 20
61.4608
 11
-26.7692
 21
61.4238
  0
LINE
  8
0
 10
-26.7692
 20
61.4238
 11
-26.8408
 21
61.3913
  0
LINE
  8
0
 10
-26.8408
 20
61.3913
 11
-26.9143
 21
61.3637
  0
LINE
  8
0
 10
-26.9143
 20
61.3637
 11
-26.9894
 21
61.3409
  0
LINE
  8
0
 10
-26.9894
 20
61.3409
 11
-27.0659
 21
61.323
  0
LINE
  8
0
 10
-27.0659
 20
61.323
 11
-27.1434
 21
61.3103
  0
LINE
  8
0
 10
-27.1434
 20
61.3103
 11
-27.2215
 21
61.3026
  0
LINE
  8
0
 10
-27.2215
 20
61.3026
 11
-27.3
 21
61.3
  0
LINE
  8
0
 10
-27.3
 20
61.3
 11
-31.3
 21
61.3
  0
LINE
  8
0
 10
-42.1112
 20
8.30363
 11
-42.2219
 21
8.31453
  0
LINE
  8
0
 10
-42.2219
 20
8.31453
 11
-42.3316
 21
8.33266
  0
LINE
  8
0
 10
-42.3316
 20
8.33266
 11
-42.44
 21
8.35793
  0
LINE
  8
0
 10
-42.44
 20
8.35793
 11
-42.5464
 21
8.39021
  0
LINE
  8
0
 10
-42.5464
 20
8.39021
 11
-42.6506
 21
8.4294
  0
LINE
  8
0
 10
-42.6506
 20
8.4294
 11
-42.7519
 21
8.47531
  0
LINE
  8
0
 10
-42.7519
 20
8.47531
 11
-42.85
 21
8.52776
  0
LINE
  8
0
 10
-42.85
 20
8.52776
 11
-42.9445
 21
8.58649
  0
LINE
  8
0
 10
-42.9445
 20
8.58649
 11
-43.0349
 21
8.65129
  0
LINE
  8
0
 10
-43.0349
 20
8.65129
 11
-43.1209
 21
8.72186
  0
LINE
  8
0
 10
-43.1209
 20
8.72186
 11
-43.2021
 21
8.79791
  0
LINE
  8
0
 10
-43.2021
 20
8.79791
 11
-43.2781
 21
8.8791
  0
LINE
  8
0
 10
-43.2781
 20
8.8791
 11
-43.3487
 21
8.9651
  0
LINE
  8
0
 10
-43.3487
 20
8.9651
 11
-43.4135
 21
9.05553
  0
LINE
  8
0
 10
-43.4135
 20
9.05553
 11
-43.4722
 21
9.14999
  0
LINE
  8
0
 10
-43.4722
 20
9.14999
 11
-43.5247
 21
9.24811
  0
LINE
  8
0
 10
-43.5247
 20
9.24811
 11
-43.5706
 21
9.34943
  0
LINE
  8
0
 10
-43.5706
 20
9.34943
 11
-43.6098
 21
9.45355
  0
LINE
  8
0
 10
-43.6098
 20
9.45355
 11
-43.6421
 21
9.56
  0
LINE
  8
0
 10
-43.6421
 20
9.56
 11
-43.6673
 21
9.66833
  0
LINE
  8
0
 10
-43.6673
 20
9.66833
 11
-43.6855
 21
9.77809
  0
LINE
  8
0
 10
-43.6855
 20
9.77809
 11
-43.6964
 21
9.88881
  0
LINE
  8
0
 10
-43.6964
 20
9.88881
 11
-43.7
 21
10
  0
LINE
  8
0
 10
-43.7
 20
10
 11
-43.6964
 21
10.1112
  0
LINE
  8
0
 10
-43.6964
 20
10.1112
 11
-43.6855
 21
10.2219
  0
LINE
  8
0
 10
-43.6855
 20
10.2219
 11
-43.6673
 21
10.3316
  0
LINE
  8
0
 10
-43.6673
 20
10.3316
 11
-43.6421
 21
10.44
  0
LINE
  8
0
 10
-43.6421
 20
10.44
 11
-43.6098
 21
10.5464
  0
LINE
  8
0
 10
-43.6098
 20
10.5464
 11
-43.5706
 21
10.6506
  0
LINE
  8
0
 10
-43.5706
 20
10.6506
 11
-43.5247
 21
10.7519
  0
LINE
  8
0
 10
-43.5247
 20
10.7519
 11
-43.4722
 21
10.85
  0
LINE
  8
0
 10
-43.4722
 20
10.85
 11
-43.4135
 21
10.9445
  0
LINE
  8
0
 10
-43.4135
 20
10.9445
 11
-43.3487
 21
11.0349
  0
LINE
  8
0
 10
-43.3487
 20
11.0349
 11
-43.2781
 21
11.1209
  0
LINE
  8
0
 10
-43.2781
 20
11.1209
 11
-43.2021
 21
11.2021
  0
LINE
  8
0
 10
-43.2021
 20
11.2021
 11
-43.1209
 21
11.2781
  0
LINE
  8
0
 10
-43.1209
 20
11.2781
 11
-43.0349
 21
11.3487
  0
LINE
  8
0
 10
-43.0349
 20
11.3487
 11
-42.9445
 21
11.4135
  0
LINE
  8
0
 10
-42.9445
 20
11.4135
 11
-42.85
 21
11.4722
  0
LINE
  8
0
 10
-42.85
 20
11.4722
 11
-42.7519
 21
11.5247
  0
LINE
  8
0
 10
-42.7519
 20
11.5247
 11
-42.6506
 21
11.5706
  0
LINE
  8
0
 10
-42.6506
 20
11.5706
 11
-42.5464
 21
11.6098
  0
LINE
  8
0
 10
-42.5464
 20
11.6098
 11
-42.44
 21
11.6421
  0
LINE
  8
0
 10
-42.44
 20
11.6421
 11
-42.3316
 21
11.6673
  0
LINE
  8
0
 10
-42.3316
 20
11.6673
 11
-42.2219
 21
11.6855
  0
LINE
  8
0
 10
-42.2219
 20
11.6855
 11
-42.1112
 21
11.6964
  0
LINE
  8
0
 10
-42.1112
 20
11.6964
 11
-42
 21
11.7
  0
LINE
  8
0
 10
-42
 20
11.7
 11
-41.8888
 21
11.6964
  0
LINE
  8
0
 10
-41.8888
 20
11.6964
 11
-41.7781
 21
11.6855
  0
LINE
  8
0
 10
-41.7781
 20
11.6855
 11
-41.6683
 21
11.6673
  0
LINE
  8
0
 10
-41.6683
 20
11.6673
 11
-41.56
 21
11.6421
  0
LINE
  8
0
 10
-41.56
 20
11.6421
 11
-41.4536
 21
11.6098
  0
LINE
  8
0
 10
-41.4536
 20
11.6098
 11
-41.3494
 21
11.5706
  0
LINE
  8
0
 10
-41.3494
 20
11.5706
 11
-41.2481
 21
11.5247
  0
LINE
  8
0
 10
-41.2481
 20
11.5247
 11
-41.15
 21
11.4722
  0
LINE
  8
0
 10
-41.15
 20
11.4722
 11
-41.0555
 21
11.4135
  0
LINE
  8
0
 10
-41.0555
 20
11.4135
 11
-40.9651
 21
11.3487
  0
LINE
  8
0
 10
-40.9651
 20
11.3487
 11
-40.8791
 21
11.2781
  0
LINE
  8
0
 10
-40.8791
 20
11.2781
 11
-40.7979
 21
11.2021
  0
LINE
  8
0
 10
-40.7979
 20
11.2021
 11
-40.7219
 21
11.1209
  0
LINE
  8
0
 10
-40.7219
 20
11.1209
 11
-40.6513
 21
11.0349
  0
LINE
  8
0
 10
-40.6513
 20
11.0349
 11
-40.5865
 21
10.9445
  0
LINE
  8
0
 10
-40.5865
 20
10.9445
 11
-40.5278
 21
10.85
  0
LINE
  8
0
 10
-40.5278
 20
10.85
 11
-40.4753
 21
10.7519
  0
LINE
  8
0
 10
-40.4753
 20
10.7519
 11
-40.4294
 21
10.6506
  0
LINE
  8
0
 10
-40.4294
 20
10.6506
 11
-40.3902
 21
10.5464
  0
LINE
  8
0
 10
-40.3902
 20
10.5464
 11
-40.3579
 21
10.44
  0
LINE
  8
0
 10
-40.3579
 20
10.44
 11
-40.3327
 21
10.3316
  0
LINE
  8
0
 10
-40.3327
 20
10.3316
 11
-40.3145
 21
10.2219
  0
LINE
  8
0
 10
-40.3145
 20
10.2219
 11
-40.3036
 21
10.1112
  0
LINE
  8
0
 10
-40.3036
 20
10.1112
 11
-40.3
 21
10
  0
LINE
  8
0
 10
-40.3
 20
10
 11
-40.3036
 21
9.88881
  0
LINE
  8
0
 10
-40.3036
 20
9.88881
 11
-40.3145
 21
9.77809
  0
LINE
  8
0
 10
-40.3145
 20
9.77809
 11
-40.3327
 21
9.66833
  0
LINE
  8
0
 10
-40.3327
 20
9.66833
 11
-40.3579
 21
9.56
  0
LINE
  8
0
 10
-40.3579
 20
9.56
 11
-40.3902
 21
9.45355
  0
LINE
  8
0
 10
-40.3902
 20
9.45355
 11
-40.4294
 21
9.34943
  0
LINE
  8
0
 10
-40.4294
 20
9.34943
 11
-40.4753
 21
9.24811
  0
LINE
  8
0
 10
-40.4753
 20
9.24811
 11
-40.5278
 21
9.14999
  0
LINE
  8
0
 10
-40.5278
 20
9.14999
 11
-40.5865
 21
9.05553
  0
LINE
  8
0
 10
-40.5865
 20
9.05553
 11
-40.6513
 21
8.9651
  0
LINE
  8
0
 10
-40.6513
 20
8.9651
 11
-40.7219
 21
8.8791
  0
LINE
  8
0
 10
-40.7219
 20
8.8791
 11
-40.7979
 21
8.79791
  0
LINE
  8
0
 10
-40.7979
 20
8.79791
 11
-40.8791
 21
8.72186
  0
LINE
  8
0
 10
-40.8791
 20
8.72186
 11
-40.9651
 21
8.65129
  0
LINE
  8
0
 10
-40.9651
 20
8.65129
 11
-41.0555
 21
8.58649
  0
LINE
  8
0
 10
-41.0555
 20
8.58649
 11
-41.15
 21
8.52776
  0
LINE
  8
0
 10
-41.15
 20
8.52776
 11
-41.2481
 21
8.47531
  0
LINE
  8
0
 10
-41.2481
 20
8.47531
 11
-41.3494
 21
8.4294
  0
LINE
  8
0
 10
-41.3494
 20
8.4294
 11
-41.4536
 21
8.39021
  0
LINE
  8
0
 10
-41.4536
 20
8.39021
 11
-41.56
 21
8.35793
  0
LINE
  8
0
 10
-41.56
 20
8.35793
 11
-41.6683
 21
8.33266
  0
LINE
  8
0
 10
-41.6683
 20
8.33266
 11
-41.7781
 21
8.31453
  0
LINE
  8
0
 10
-41.7781
 20
8.31453
 11
-41.8888
 21
8.30363
  0
LINE
  8
0
 10
-41.8888
 20
8.30363
 11
-42
 21
8.29999
  0
LINE
  8
0
 10
-42
 20
8.29999
 11
-42.1112
 21
8.30363
  0
LINE
  8
0
 10
-35.1112
 20
8.30363
 11
-35.2219
 21
8.31453
  0
LINE
  8
0
 10
-35.2219
 20
8.31453
 11
-35.3316
 21
8.33266
  0
LINE
  8
0
 10
-35.3316
 20
8.33266
 11
-35.44
 21
8.35793
  0
LINE
  8
0
 10
-35.44
 20
8.35793
 11
-35.5464
 21
8.39021
  0
LINE
  8
0
 10
-35.5464
 20
8.39021
 11
-35.6506
 21
8.4294
  0
LINE
  8
0
 10
-35.6506
 20
8.4294
 11
-35.7519
 21
8.47531
  0
LINE
  8
0
 10
-35.7519
 20
8.47531
 11
-35.85
 21
8.52776
  0
LINE
  8
0
 10
-35.85
 20
8.52776
 11
-35.9445
 21
8.58649
  0
LINE
  8
0
 10
-35.9445
 20
8.58649
 11
-36.0349
 21
8.65129
  0
LINE
  8
0
 10
-36.0349
 20
8.65129
 11
-36.1209
 21
8.72186
  0
LINE
  8
0
 10
-36.1209
 20
8.72186
 11
-36.2021
 21
8.79791
  0
LINE
  8
0
 10
-36.2021
 20
8.79791
 11
-36.2781
 21
8.8791
  0
LINE
  8
0
 10
-36.2781
 20
8.8791
 11
-36.3487
 21
8.9651
  0
LINE
  8
0
 10
-36.3487
 20
8.9651
 11
-36.4135
 21
9.05553
  0
LINE
  8
0
 10
-36.4135
 20
9.05553
 11
-36.4722
 21
9.14999
  0
LINE
  8
0
 10
-36.4722
 20
9.14999
 11
-36.5247
 21
9.24811
  0
LINE
  8
0
 10
-36.5247
 20
9.24811
 11
-36.5706
 21
9.34943
  0
LINE
  8
0
 10
-36.5706
 20
9.34943
 11
-36.6098
 21
9.45355
  0
LINE
  8
0
 10
-36.6098
 20
9.45355
 11
-36.6421
 21
9.56
  0
LINE
  8
0
 10
-36.6421
 20
9.56
 11
-36.6673
 21
9.66833
  0
LINE
  8
0
 10
-36.6673
 20
9.66833
 11
-36.6855
 21
9.77809
  0
LINE
  8
0
 10
-36.6855
 20
9.77809
 11
-36.6964
 21
9.88881
  0
LINE
  8
0
 10
-36.6964
 20
9.88881
 11
-36.7
 21
10
  0
LINE
  8
0
 10
-36.7
 20
10
 11
-36.6964
 21
10.1112
  0
LINE
  8
0
 10
-36.6964
 20
10.1112
 11
-36.6855
 21
10.2219
  0
LINE
  8
0
 10
-36.6855
 20
10.2219
 11
-36.6673
 21
10.3316
  0
LINE
  8
0
 10
-36.6673
 20
10.3316
 11
-36.6421
 21
10.44
  0
LINE
  8
0
 10
-36.6421
 20
10.44
 11
-36.6098
 21
10.5464
  0
LINE
  8
0
 10
-36.6098
 20
10.5464
 11
-36.5706
 21
10.6506
  0
LINE
  8
0
 10
-36.5706
 20
10.6506
 11
-36.5247
 21
10.7519
  0
LINE
  8
0
 10
-36.5247
 20
10.7519
 11
-36.4722
 21
10.85
  0
LINE
  8
0
 10
-36.4722
 20
10.85
 11
-36.4135
 21
10.9445
  0
LINE
  8
0
 10
-36.4135
 20
10.9445
 11
-36.3487
 21
11.0349
  0
LINE
  8
0
 10
-36.3487
 20
11.0349
 11
-36.2781
 21
11.1209
  0
LINE
  8
0
 10
-36.2781
 20
11.1209
 11
-36.2021
 21
11.2021
  0
LINE
  8
0
 10
-36.2021
 20
11.2021
 11
-36.1209
 21
11.2781
  0
LINE
  8
0
 10
-36.1209
 20
11.2781
 11
-36.0349
 21
11.3487
  0
LINE
  8
0
 10
-36.0349
 20
11.3487
 11
-35.9445
 21
11.4135
  0
LINE
  8
0
 10
-35.9445
 20
11.4135
 11
-35.85
 21
11.4722
  0
LINE
  8
0
 10
-35.85
 20
11.4722
 11
-35.7519
 21
11.5247
  0
LINE
  8
0
 10
-35.7519
 20
11.5247
 11
-35.6506
 21
11.5706
  0
LINE
  8
0
 10
-35.6506
 20
11.5706
 11
-35.5464
 21
11.6098
  0
LINE
  8
0
 10
-35.5464
 20
11.6098
 11
-35.44
 21
11.6421
  0
LINE
  8
0
 10
-35.44
 20
11.6421
 11
-35.3316
 21
11.6673
  0
LINE
  8
0
 10
-35.3316
 20
11.6673
 11
-35.2219
 21
11.6855
  0
LINE
  8
0
 10
-35.2219
 20
11.6855
 11
-35.1112
 21
11.6964
  0
LINE
  8
0
 10
-35.1112
 20
11.6964
 11
-35
 21
11.7
  0
LINE
  8
0
 10
-35
 20
11.7
 11
-34.8888
 21
11.6964
  0
LINE
  8
0
 10
-34.8888
 20
11.6964
 11
-34.7781
 21
11.6855
  0
LINE
  8
0
 10
-34.7781
 20
11.6855
 11
-34.6683
 21
11.6673
  0
LINE
  8
0
 10
-34.6683
 20
11.6673
 11
-34.56
 21
11.6421
  0
LINE
  8
0
 10
-34.56
 20
11.6421
 11
-34.4536
 21
11.6098
  0
LINE
  8
0
 10
-34.4536
 20
11.6098
 11
-34.3494
 21
11.5706
  0
LINE
  8
0
 10
-34.3494
 20
11.5706
 11
-34.2481
 21
11.5247
  0
LINE
  8
0
 10
-34.2481
 20
11.5247
 11
-34.15
 21
11.4722
  0
LINE
  8
0
 10
-34.15
 20
11.4722
 11
-34.0555
 21
11.4135
  0
LINE
  8
0
 10
-34.0555
 20
11.4135
 11
-33.9651
 21
11.3487
  0
LINE
  8
0
 10
-33.9651
 20
11.3487
 11
-33.8791
 21
11.2781
  0
LINE
  8
0
 10
-33.8791
 20
11.2781
 11
-33.7979
 21
11.2021
  0
LINE
  8
0
 10
-33.7979
 20
11.2021
 11
-33.7219
 21
11.1209
  0
LINE
  8
0
 10
-33.7219
 20
11.1209
 11
-33.6513
 21
11.0349
  0
LINE
  8
0
 10
-33.6513
 20
11.0349
 11
-33.5865
 21
10.9445
  0
LINE
  8
0
 10
-33.5865
 20
10.9445
 11
-33.5278
 21
10.85
  0
LINE
  8
0
 10
-33.5278
 20
10.85
 11
-33.4753
 21
10.7519
  0
LINE
  8
0
 10
-33.4753
 20
10.7519
 11
-33.4294
 21
10.6506
  0
LINE
  8
0
 10
-33.4294
 20
10.6506
 11
-33.3902
 21
10.5464
  0
LINE
  8
0
 10
-33.3902
 20
10.5464
 11
-33.3579
 21
10.44
  0
LINE
  8
0
 10
-33.3579
 20
10.44
 11
-33.3327
 21
10.3316
  0
LINE
  8
0
 10
-33.3327
 20
10.3316
 11
-33.3145
 21
10.2219
  0
LINE
  8
0
 10
-33.3145
 20
10.2219
 11
-33.3036
 21
10.1112
  0
LINE
  8
0
 10
-33.3036
 20
10.1112
 11
-33.3
 21
10
  0
LINE
  8
0
 10
-33.3
 20
10
 11
-33.3036
 21
9.88881
  0
LINE
  8
0
 10
-33.3036
 20
9.88881
 11
-33.3145
 21
9.77809
  0
LINE
  8
0
 10
-33.3145
 20
9.77809
 11
-33.3327
 21
9.66833
  0
LINE
  8
0
 10
-33.3327
 20
9.66833
 11
-33.3579
 21
9.56
  0
LINE
  8
0
 10
-33.3579
 20
9.56
 11
-33.3902
 21
9.45355
  0
LINE
  8
0
 10
-33.3902
 20
9.45355
 11
-33.4294
 21
9.34943
  0
LINE
  8
0
 10
-33.4294
 20
9.34943
 11
-33.4753
 21
9.24811
  0
LINE
  8
0
 10
-33.4753
 20
9.24811
 11
-33.5278
 21
9.14999
  0
LINE
  8
0
 10
-33.5278
 20
9.14999
 11
-33.5865
 21
9.05553
  0
LINE
  8
0
 10
-33.5865
 20
9.05553
 11
-33.6513
 21
8.9651
  0
LINE
  8
0
 10
-33.6513
 20
8.9651
 11
-33.7219
 21
8.8791
  0
LINE
  8
0
 10
-33.7219
 20
8.8791
 11
-33.7979
 21
8.79791
  0
LINE
  8
0
 10
-33.7979
 20
8.79791
 11
-33.8791
 21
8.72186
  0
LINE
  8
0
 10
-33.8791
 20
8.72186
 11
-33.9651
 21
8.65129
  0
LINE
  8
0
 10
-33.9651
 20
8.65129
 11
-34.0555
 21
8.58649
  0
LINE
  8
0
 10
-34.0555
 20
8.58649
 11
-34.15
 21
8.52776
  0
LINE
  8
0
 10
-34.15
 20
8.52776
 11
-34.2481
 21
8.47531
  0
LINE
  8
0
 10
-34.2481
 20
8.47531
 11
-34.3494
 21
8.4294
  0
LINE
  8
0
 10
-34.3494
 20
8.4294
 11
-34.4536
 21
8.39021
  0
LINE
  8
0
 10
-34.4536
 20
8.39021
 11
-34.56
 21
8.35793
  0
LINE
  8
0
 10
-34.56
 20
8.35793
 11
-34.6683
 21
8.33266
  0
LINE
  8
0
 10
-34.6683
 20
8.33266
 11
-34.7781
 21
8.31453
  0
LINE
  8
0
 10
-34.7781
 20
8.31453
 11
-34.8888
 21
8.30363
  0
LINE
  8
0
 10
-34.8888
 20
8.30363
 11
-35
 21
8.29999
  0
LINE
  8
0
 10
-35
 20
8.29999
 11
-35.1112
 21
8.30363
  0
ENDSEC
  0
SECTION
  2
OBJECTS
  0
DICTIONARY
  0
ENDSEC
  0
EOF
