  0
SECTION
  2
BLOCKS
  0
ENDSEC
  0
SECTION
  2
ENTITIES
  0
LINE
  8
0
 10
95
 20
-79.5999
 11
95
 21
79.5999
  0
LINE
  8
0
 10
95
 20
79.5999
 11
94.6716
 21
80
  0
LINE
  8
0
 10
94.6716
 20
80
 11
-94.6716
 21
80
  0
LINE
  8
0
 10
-94.6716
 20
80
 11
-95
 21
79.5999
  0
LINE
  8
0
 10
-95
 20
79.5999
 11
-95
 21
-79.5999
  0
LINE
  8
0
 10
-95
 20
-79.5999
 11
-94.6716
 21
-80
  0
LINE
  8
0
 10
-94.6716
 20
-80
 11
94.6716
 21
-80
  0
LINE
  8
0
 10
94.6716
 20
-80
 11
95
 21
-79.5999
  0
LINE
  8
0
 10
-89.1472
 20
52.7548
 11
-89.2937
 21
52.7692
  0
LINE
  8
0
 10
-89.2937
 20
52.7692
 11
-89.4389
 21
52.7932
  0
LINE
  8
0
 10
-89.4389
 20
52.7932
 11
-89.5823
 21
52.8267
  0
LINE
  8
0
 10
-89.5823
 20
52.8267
 11
-89.7232
 21
52.8694
  0
LINE
  8
0
 10
-89.7232
 20
52.8694
 11
-89.861
 21
52.9213
  0
LINE
  8
0
 10
-89.861
 20
52.9213
 11
-89.9951
 21
52.982
  0
LINE
  8
0
 10
-89.9951
 20
52.982
 11
-90.125
 21
53.0514
  0
LINE
  8
0
 10
-90.125
 20
53.0514
 11
-90.25
 21
53.1292
  0
LINE
  8
0
 10
-90.25
 20
53.1292
 11
-90.3697
 21
53.215
  0
LINE
  8
0
 10
-90.3697
 20
53.215
 11
-90.4835
 21
53.3083
  0
LINE
  8
0
 10
-90.4835
 20
53.3083
 11
-90.591
 21
53.409
  0
LINE
  8
0
 10
-90.591
 20
53.409
 11
-90.6916
 21
53.5165
  0
LINE
  8
0
 10
-90.6916
 20
53.5165
 11
-90.785
 21
53.6303
  0
LINE
  8
0
 10
-90.785
 20
53.6303
 11
-90.8708
 21
53.75
  0
LINE
  8
0
 10
-90.8708
 20
53.75
 11
-90.9485
 21
53.875
  0
LINE
  8
0
 10
-90.9485
 20
53.875
 11
-91.018
 21
54.0048
  0
LINE
  8
0
 10
-91.018
 20
54.0048
 11
-91.0787
 21
54.139
  0
LINE
  8
0
 10
-91.0787
 20
54.139
 11
-91.1306
 21
54.2767
  0
LINE
  8
0
 10
-91.1306
 20
54.2767
 11
-91.1733
 21
54.4176
  0
LINE
  8
0
 10
-91.1733
 20
54.4176
 11
-91.2068
 21
54.561
  0
LINE
  8
0
 10
-91.2068
 20
54.561
 11
-91.2307
 21
54.7063
  0
LINE
  8
0
 10
-91.2307
 20
54.7063
 11
-91.2452
 21
54.8528
  0
LINE
  8
0
 10
-91.2452
 20
54.8528
 11
-91.25
 21
55
  0
LINE
  8
0
 10
-91.25
 20
55
 11
-91.2452
 21
55.1472
  0
LINE
  8
0
 10
-91.2452
 20
55.1472
 11
-91.2307
 21
55.2937
  0
LINE
  8
0
 10
-91.2307
 20
55.2937
 11
-91.2068
 21
55.4389
  0
LINE
  8
0
 10
-91.2068
 20
55.4389
 11
-91.1733
 21
55.5823
  0
LINE
  8
0
 10
-91.1733
 20
55.5823
 11
-91.1306
 21
55.7232
  0
LINE
  8
0
 10
-91.1306
 20
55.7232
 11
-91.0787
 21
55.861
  0
LINE
  8
0
 10
-91.0787
 20
55.861
 11
-91.018
 21
55.9951
  0
LINE
  8
0
 10
-91.018
 20
55.9951
 11
-90.9485
 21
56.125
  0
LINE
  8
0
 10
-90.9485
 20
56.125
 11
-90.8708
 21
56.25
  0
LINE
  8
0
 10
-90.8708
 20
56.25
 11
-90.785
 21
56.3697
  0
LINE
  8
0
 10
-90.785
 20
56.3697
 11
-90.6916
 21
56.4835
  0
LINE
  8
0
 10
-90.6916
 20
56.4835
 11
-90.591
 21
56.591
  0
LINE
  8
0
 10
-90.591
 20
56.591
 11
-90.4835
 21
56.6916
  0
LINE
  8
0
 10
-90.4835
 20
56.6916
 11
-90.3697
 21
56.785
  0
LINE
  8
0
 10
-90.3697
 20
56.785
 11
-90.25
 21
56.8708
  0
LINE
  8
0
 10
-90.25
 20
56.8708
 11
-90.125
 21
56.9485
  0
LINE
  8
0
 10
-90.125
 20
56.9485
 11
-89.9951
 21
57.018
  0
LINE
  8
0
 10
-89.9951
 20
57.018
 11
-89.861
 21
57.0787
  0
LINE
  8
0
 10
-89.861
 20
57.0787
 11
-89.7232
 21
57.1306
  0
LINE
  8
0
 10
-89.7232
 20
57.1306
 11
-89.5823
 21
57.1733
  0
LINE
  8
0
 10
-89.5823
 20
57.1733
 11
-89.4389
 21
57.2068
  0
LINE
  8
0
 10
-89.4389
 20
57.2068
 11
-89.2937
 21
57.2307
  0
LINE
  8
0
 10
-89.2937
 20
57.2307
 11
-89.1472
 21
57.2452
  0
LINE
  8
0
 10
-89.1472
 20
57.2452
 11
-89
 21
57.25
  0
LINE
  8
0
 10
-89
 20
57.25
 11
-88.8528
 21
57.2452
  0
LINE
  8
0
 10
-88.8528
 20
57.2452
 11
-88.7063
 21
57.2307
  0
LINE
  8
0
 10
-88.7063
 20
57.2307
 11
-88.561
 21
57.2068
  0
LINE
  8
0
 10
-88.561
 20
57.2068
 11
-88.4176
 21
57.1733
  0
LINE
  8
0
 10
-88.4176
 20
57.1733
 11
-88.2767
 21
57.1306
  0
LINE
  8
0
 10
-88.2767
 20
57.1306
 11
-88.139
 21
57.0787
  0
LINE
  8
0
 10
-88.139
 20
57.0787
 11
-88.0048
 21
57.018
  0
LINE
  8
0
 10
-88.0048
 20
57.018
 11
-87.875
 21
56.9485
  0
LINE
  8
0
 10
-87.875
 20
56.9485
 11
-87.75
 21
56.8708
  0
LINE
  8
0
 10
-87.75
 20
56.8708
 11
-87.6303
 21
56.785
  0
LINE
  8
0
 10
-87.6303
 20
56.785
 11
-87.5165
 21
56.6916
  0
LINE
  8
0
 10
-87.5165
 20
56.6916
 11
-87.409
 21
56.591
  0
LINE
  8
0
 10
-87.409
 20
56.591
 11
-87.3083
 21
56.4835
  0
LINE
  8
0
 10
-87.3083
 20
56.4835
 11
-87.215
 21
56.3697
  0
LINE
  8
0
 10
-87.215
 20
56.3697
 11
-87.1292
 21
56.25
  0
LINE
  8
0
 10
-87.1292
 20
56.25
 11
-87.0514
 21
56.125
  0
LINE
  8
0
 10
-87.0514
 20
56.125
 11
-86.982
 21
55.9951
  0
LINE
  8
0
 10
-86.982
 20
55.9951
 11
-86.9213
 21
55.861
  0
LINE
  8
0
 10
-86.9213
 20
55.861
 11
-86.8694
 21
55.7232
  0
LINE
  8
0
 10
-86.8694
 20
55.7232
 11
-86.8267
 21
55.5823
  0
LINE
  8
0
 10
-86.8267
 20
55.5823
 11
-86.7932
 21
55.4389
  0
LINE
  8
0
 10
-86.7932
 20
55.4389
 11
-86.7692
 21
55.2937
  0
LINE
  8
0
 10
-86.7692
 20
55.2937
 11
-86.7548
 21
55.1472
  0
LINE
  8
0
 10
-86.7548
 20
55.1472
 11
-86.75
 21
55
  0
LINE
  8
0
 10
-86.75
 20
55
 11
-86.7548
 21
54.8528
  0
LINE
  8
0
 10
-86.7548
 20
54.8528
 11
-86.7692
 21
54.7063
  0
LINE
  8
0
 10
-86.7692
 20
54.7063
 11
-86.7932
 21
54.561
  0
LINE
  8
0
 10
-86.7932
 20
54.561
 11
-86.8267
 21
54.4176
  0
LINE
  8
0
 10
-86.8267
 20
54.4176
 11
-86.8694
 21
54.2767
  0
LINE
  8
0
 10
-86.8694
 20
54.2767
 11
-86.9213
 21
54.139
  0
LINE
  8
0
 10
-86.9213
 20
54.139
 11
-86.982
 21
54.0048
  0
LINE
  8
0
 10
-86.982
 20
54.0048
 11
-87.0514
 21
53.875
  0
LINE
  8
0
 10
-87.0514
 20
53.875
 11
-87.1292
 21
53.75
  0
LINE
  8
0
 10
-87.1292
 20
53.75
 11
-87.215
 21
53.6303
  0
LINE
  8
0
 10
-87.215
 20
53.6303
 11
-87.3083
 21
53.5165
  0
LINE
  8
0
 10
-87.3083
 20
53.5165
 11
-87.409
 21
53.409
  0
LINE
  8
0
 10
-87.409
 20
53.409
 11
-87.5165
 21
53.3083
  0
LINE
  8
0
 10
-87.5165
 20
53.3083
 11
-87.6303
 21
53.215
  0
LINE
  8
0
 10
-87.6303
 20
53.215
 11
-87.75
 21
53.1292
  0
LINE
  8
0
 10
-87.75
 20
53.1292
 11
-87.875
 21
53.0514
  0
LINE
  8
0
 10
-87.875
 20
53.0514
 11
-88.0048
 21
52.982
  0
LINE
  8
0
 10
-88.0048
 20
52.982
 11
-88.139
 21
52.9213
  0
LINE
  8
0
 10
-88.139
 20
52.9213
 11
-88.2767
 21
52.8694
  0
LINE
  8
0
 10
-88.2767
 20
52.8694
 11
-88.4176
 21
52.8267
  0
LINE
  8
0
 10
-88.4176
 20
52.8267
 11
-88.561
 21
52.7932
  0
LINE
  8
0
 10
-88.561
 20
52.7932
 11
-88.7063
 21
52.7692
  0
LINE
  8
0
 10
-88.7063
 20
52.7692
 11
-88.8528
 21
52.7548
  0
LINE
  8
0
 10
-88.8528
 20
52.7548
 11
-89
 21
52.75
  0
LINE
  8
0
 10
-89
 20
52.75
 11
-89.1472
 21
52.7548
  0
LINE
  8
0
 10
88.8528
 20
52.7548
 11
88.7063
 21
52.7692
  0
LINE
  8
0
 10
88.7063
 20
52.7692
 11
88.561
 21
52.7932
  0
LINE
  8
0
 10
88.561
 20
52.7932
 11
88.4176
 21
52.8267
  0
LINE
  8
0
 10
88.4176
 20
52.8267
 11
88.2767
 21
52.8694
  0
LINE
  8
0
 10
88.2767
 20
52.8694
 11
88.139
 21
52.9213
  0
LINE
  8
0
 10
88.139
 20
52.9213
 11
88.0048
 21
52.982
  0
LINE
  8
0
 10
88.0048
 20
52.982
 11
87.875
 21
53.0514
  0
LINE
  8
0
 10
87.875
 20
53.0514
 11
87.75
 21
53.1292
  0
LINE
  8
0
 10
87.75
 20
53.1292
 11
87.6303
 21
53.215
  0
LINE
  8
0
 10
87.6303
 20
53.215
 11
87.5165
 21
53.3083
  0
LINE
  8
0
 10
87.5165
 20
53.3083
 11
87.409
 21
53.409
  0
LINE
  8
0
 10
87.409
 20
53.409
 11
87.3083
 21
53.5165
  0
LINE
  8
0
 10
87.3083
 20
53.5165
 11
87.215
 21
53.6303
  0
LINE
  8
0
 10
87.215
 20
53.6303
 11
87.1292
 21
53.75
  0
LINE
  8
0
 10
87.1292
 20
53.75
 11
87.0514
 21
53.875
  0
LINE
  8
0
 10
87.0514
 20
53.875
 11
86.982
 21
54.0048
  0
LINE
  8
0
 10
86.982
 20
54.0048
 11
86.9213
 21
54.139
  0
LINE
  8
0
 10
86.9213
 20
54.139
 11
86.8694
 21
54.2767
  0
LINE
  8
0
 10
86.8694
 20
54.2767
 11
86.8267
 21
54.4176
  0
LINE
  8
0
 10
86.8267
 20
54.4176
 11
86.7932
 21
54.561
  0
LINE
  8
0
 10
86.7932
 20
54.561
 11
86.7692
 21
54.7063
  0
LINE
  8
0
 10
86.7692
 20
54.7063
 11
86.7548
 21
54.8528
  0
LINE
  8
0
 10
86.7548
 20
54.8528
 11
86.75
 21
55
  0
LINE
  8
0
 10
86.75
 20
55
 11
86.7548
 21
55.1472
  0
LINE
  8
0
 10
86.7548
 20
55.1472
 11
86.7692
 21
55.2937
  0
LINE
  8
0
 10
86.7692
 20
55.2937
 11
86.7932
 21
55.4389
  0
LINE
  8
0
 10
86.7932
 20
55.4389
 11
86.8267
 21
55.5823
  0
LINE
  8
0
 10
86.8267
 20
55.5823
 11
86.8694
 21
55.7232
  0
LINE
  8
0
 10
86.8694
 20
55.7232
 11
86.9213
 21
55.861
  0
LINE
  8
0
 10
86.9213
 20
55.861
 11
86.982
 21
55.9951
  0
LINE
  8
0
 10
86.982
 20
55.9951
 11
87.0514
 21
56.125
  0
LINE
  8
0
 10
87.0514
 20
56.125
 11
87.1292
 21
56.25
  0
LINE
  8
0
 10
87.1292
 20
56.25
 11
87.215
 21
56.3697
  0
LINE
  8
0
 10
87.215
 20
56.3697
 11
87.3083
 21
56.4835
  0
LINE
  8
0
 10
87.3083
 20
56.4835
 11
87.409
 21
56.591
  0
LINE
  8
0
 10
87.409
 20
56.591
 11
87.5165
 21
56.6916
  0
LINE
  8
0
 10
87.5165
 20
56.6916
 11
87.6303
 21
56.785
  0
LINE
  8
0
 10
87.6303
 20
56.785
 11
87.75
 21
56.8708
  0
LINE
  8
0
 10
87.75
 20
56.8708
 11
87.875
 21
56.9485
  0
LINE
  8
0
 10
87.875
 20
56.9485
 11
88.0048
 21
57.018
  0
LINE
  8
0
 10
88.0048
 20
57.018
 11
88.139
 21
57.0787
  0
LINE
  8
0
 10
88.139
 20
57.0787
 11
88.2767
 21
57.1306
  0
LINE
  8
0
 10
88.2767
 20
57.1306
 11
88.4176
 21
57.1733
  0
LINE
  8
0
 10
88.4176
 20
57.1733
 11
88.561
 21
57.2068
  0
LINE
  8
0
 10
88.561
 20
57.2068
 11
88.7063
 21
57.2307
  0
LINE
  8
0
 10
88.7063
 20
57.2307
 11
88.8528
 21
57.2452
  0
LINE
  8
0
 10
88.8528
 20
57.2452
 11
89
 21
57.25
  0
LINE
  8
0
 10
89
 20
57.25
 11
89.1472
 21
57.2452
  0
LINE
  8
0
 10
89.1472
 20
57.2452
 11
89.2937
 21
57.2307
  0
LINE
  8
0
 10
89.2937
 20
57.2307
 11
89.4389
 21
57.2068
  0
LINE
  8
0
 10
89.4389
 20
57.2068
 11
89.5823
 21
57.1733
  0
LINE
  8
0
 10
89.5823
 20
57.1733
 11
89.7232
 21
57.1306
  0
LINE
  8
0
 10
89.7232
 20
57.1306
 11
89.861
 21
57.0787
  0
LINE
  8
0
 10
89.861
 20
57.0787
 11
89.9951
 21
57.018
  0
LINE
  8
0
 10
89.9951
 20
57.018
 11
90.125
 21
56.9485
  0
LINE
  8
0
 10
90.125
 20
56.9485
 11
90.25
 21
56.8708
  0
LINE
  8
0
 10
90.25
 20
56.8708
 11
90.3697
 21
56.785
  0
LINE
  8
0
 10
90.3697
 20
56.785
 11
90.4835
 21
56.6916
  0
LINE
  8
0
 10
90.4835
 20
56.6916
 11
90.591
 21
56.591
  0
LINE
  8
0
 10
90.591
 20
56.591
 11
90.6916
 21
56.4835
  0
LINE
  8
0
 10
90.6916
 20
56.4835
 11
90.785
 21
56.3697
  0
LINE
  8
0
 10
90.785
 20
56.3697
 11
90.8708
 21
56.25
  0
LINE
  8
0
 10
90.8708
 20
56.25
 11
90.9485
 21
56.125
  0
LINE
  8
0
 10
90.9485
 20
56.125
 11
91.018
 21
55.9951
  0
LINE
  8
0
 10
91.018
 20
55.9951
 11
91.0787
 21
55.861
  0
LINE
  8
0
 10
91.0787
 20
55.861
 11
91.1306
 21
55.7232
  0
LINE
  8
0
 10
91.1306
 20
55.7232
 11
91.1733
 21
55.5823
  0
LINE
  8
0
 10
91.1733
 20
55.5823
 11
91.2068
 21
55.4389
  0
LINE
  8
0
 10
91.2068
 20
55.4389
 11
91.2307
 21
55.2937
  0
LINE
  8
0
 10
91.2307
 20
55.2937
 11
91.2452
 21
55.1472
  0
LINE
  8
0
 10
91.2452
 20
55.1472
 11
91.25
 21
55
  0
LINE
  8
0
 10
91.25
 20
55
 11
91.2452
 21
54.8528
  0
LINE
  8
0
 10
91.2452
 20
54.8528
 11
91.2307
 21
54.7063
  0
LINE
  8
0
 10
91.2307
 20
54.7063
 11
91.2068
 21
54.561
  0
LINE
  8
0
 10
91.2068
 20
54.561
 11
91.1733
 21
54.4176
  0
LINE
  8
0
 10
91.1733
 20
54.4176
 11
91.1306
 21
54.2767
  0
LINE
  8
0
 10
91.1306
 20
54.2767
 11
91.0787
 21
54.139
  0
LINE
  8
0
 10
91.0787
 20
54.139
 11
91.018
 21
54.0048
  0
LINE
  8
0
 10
91.018
 20
54.0048
 11
90.9485
 21
53.875
  0
LINE
  8
0
 10
90.9485
 20
53.875
 11
90.8708
 21
53.75
  0
LINE
  8
0
 10
90.8708
 20
53.75
 11
90.785
 21
53.6303
  0
LINE
  8
0
 10
90.785
 20
53.6303
 11
90.6916
 21
53.5165
  0
LINE
  8
0
 10
90.6916
 20
53.5165
 11
90.591
 21
53.409
  0
LINE
  8
0
 10
90.591
 20
53.409
 11
90.4835
 21
53.3083
  0
LINE
  8
0
 10
90.4835
 20
53.3083
 11
90.3697
 21
53.215
  0
LINE
  8
0
 10
90.3697
 20
53.215
 11
90.25
 21
53.1292
  0
LINE
  8
0
 10
90.25
 20
53.1292
 11
90.125
 21
53.0514
  0
LINE
  8
0
 10
90.125
 20
53.0514
 11
89.9951
 21
52.982
  0
LINE
  8
0
 10
89.9951
 20
52.982
 11
89.861
 21
52.9213
  0
LINE
  8
0
 10
89.861
 20
52.9213
 11
89.7232
 21
52.8694
  0
LINE
  8
0
 10
89.7232
 20
52.8694
 11
89.5823
 21
52.8267
  0
LINE
  8
0
 10
89.5823
 20
52.8267
 11
89.4389
 21
52.7932
  0
LINE
  8
0
 10
89.4389
 20
52.7932
 11
89.2937
 21
52.7692
  0
LINE
  8
0
 10
89.2937
 20
52.7692
 11
89.1472
 21
52.7548
  0
LINE
  8
0
 10
89.1472
 20
52.7548
 11
89
 21
52.75
  0
LINE
  8
0
 10
89
 20
52.75
 11
88.8528
 21
52.7548
  0
LINE
  8
0
 10
30
 20
-65
 11
30
 21
53
  0
LINE
  8
0
 10
30
 20
53
 11
64
 21
53
  0
LINE
  8
0
 10
64
 20
53
 11
64
 21
32
  0
LINE
  8
0
 10
64
 20
32
 11
93
 21
32
  0
LINE
  8
0
 10
93
 20
32
 11
93
 21
-32
  0
LINE
  8
0
 10
93
 20
-32
 11
64
 21
-32
  0
LINE
  8
0
 10
64
 20
-32
 11
64
 21
-65
  0
LINE
  8
0
 10
64
 20
-65
 11
30
 21
-65
  0
LINE
  8
0
 10
22.8888
 20
43.3036
 11
22.7781
 21
43.3145
  0
LINE
  8
0
 10
22.7781
 20
43.3145
 11
22.6683
 21
43.3327
  0
LINE
  8
0
 10
22.6683
 20
43.3327
 11
22.56
 21
43.3579
  0
LINE
  8
0
 10
22.56
 20
43.3579
 11
22.4536
 21
43.3902
  0
LINE
  8
0
 10
22.4536
 20
43.3902
 11
22.3494
 21
43.4294
  0
LINE
  8
0
 10
22.3494
 20
43.4294
 11
22.2481
 21
43.4753
  0
LINE
  8
0
 10
22.2481
 20
43.4753
 11
22.15
 21
43.5278
  0
LINE
  8
0
 10
22.15
 20
43.5278
 11
22.0555
 21
43.5865
  0
LINE
  8
0
 10
22.0555
 20
43.5865
 11
21.9651
 21
43.6513
  0
LINE
  8
0
 10
21.9651
 20
43.6513
 11
21.8791
 21
43.7219
  0
LINE
  8
0
 10
21.8791
 20
43.7219
 11
21.7979
 21
43.7979
  0
LINE
  8
0
 10
21.7979
 20
43.7979
 11
21.7219
 21
43.8791
  0
LINE
  8
0
 10
21.7219
 20
43.8791
 11
21.6513
 21
43.9651
  0
LINE
  8
0
 10
21.6513
 20
43.9651
 11
21.5865
 21
44.0555
  0
LINE
  8
0
 10
21.5865
 20
44.0555
 11
21.5278
 21
44.15
  0
LINE
  8
0
 10
21.5278
 20
44.15
 11
21.4753
 21
44.2481
  0
LINE
  8
0
 10
21.4753
 20
44.2481
 11
21.4294
 21
44.3494
  0
LINE
  8
0
 10
21.4294
 20
44.3494
 11
21.3902
 21
44.4536
  0
LINE
  8
0
 10
21.3902
 20
44.4536
 11
21.3579
 21
44.56
  0
LINE
  8
0
 10
21.3579
 20
44.56
 11
21.3327
 21
44.6683
  0
LINE
  8
0
 10
21.3327
 20
44.6683
 11
21.3145
 21
44.7781
  0
LINE
  8
0
 10
21.3145
 20
44.7781
 11
21.3036
 21
44.8888
  0
LINE
  8
0
 10
21.3036
 20
44.8888
 11
21.3
 21
45
  0
LINE
  8
0
 10
21.3
 20
45
 11
21.3036
 21
45.1112
  0
LINE
  8
0
 10
21.3036
 20
45.1112
 11
21.3145
 21
45.2219
  0
LINE
  8
0
 10
21.3145
 20
45.2219
 11
21.3327
 21
45.3316
  0
LINE
  8
0
 10
21.3327
 20
45.3316
 11
21.3579
 21
45.44
  0
LINE
  8
0
 10
21.3579
 20
45.44
 11
21.3902
 21
45.5464
  0
LINE
  8
0
 10
21.3902
 20
45.5464
 11
21.4294
 21
45.6506
  0
LINE
  8
0
 10
21.4294
 20
45.6506
 11
21.4753
 21
45.7519
  0
LINE
  8
0
 10
21.4753
 20
45.7519
 11
21.5278
 21
45.85
  0
LINE
  8
0
 10
21.5278
 20
45.85
 11
21.5865
 21
45.9445
  0
LINE
  8
0
 10
21.5865
 20
45.9445
 11
21.6513
 21
46.0349
  0
LINE
  8
0
 10
21.6513
 20
46.0349
 11
21.7219
 21
46.1209
  0
LINE
  8
0
 10
21.7219
 20
46.1209
 11
21.7979
 21
46.2021
  0
LINE
  8
0
 10
21.7979
 20
46.2021
 11
21.8791
 21
46.2781
  0
LINE
  8
0
 10
21.8791
 20
46.2781
 11
21.9651
 21
46.3487
  0
LINE
  8
0
 10
21.9651
 20
46.3487
 11
22.0555
 21
46.4135
  0
LINE
  8
0
 10
22.0555
 20
46.4135
 11
22.15
 21
46.4722
  0
LINE
  8
0
 10
22.15
 20
46.4722
 11
22.2481
 21
46.5247
  0
LINE
  8
0
 10
22.2481
 20
46.5247
 11
22.3494
 21
46.5706
  0
LINE
  8
0
 10
22.3494
 20
46.5706
 11
22.4536
 21
46.6098
  0
LINE
  8
0
 10
22.4536
 20
46.6098
 11
22.56
 21
46.6421
  0
LINE
  8
0
 10
22.56
 20
46.6421
 11
22.6683
 21
46.6673
  0
LINE
  8
0
 10
22.6683
 20
46.6673
 11
22.7781
 21
46.6855
  0
LINE
  8
0
 10
22.7781
 20
46.6855
 11
22.8888
 21
46.6964
  0
LINE
  8
0
 10
22.8888
 20
46.6964
 11
23
 21
46.7
  0
LINE
  8
0
 10
23
 20
46.7
 11
23.1112
 21
46.6964
  0
LINE
  8
0
 10
23.1112
 20
46.6964
 11
23.2219
 21
46.6855
  0
LINE
  8
0
 10
23.2219
 20
46.6855
 11
23.3316
 21
46.6673
  0
LINE
  8
0
 10
23.3316
 20
46.6673
 11
23.44
 21
46.6421
  0
LINE
  8
0
 10
23.44
 20
46.6421
 11
23.5464
 21
46.6098
  0
LINE
  8
0
 10
23.5464
 20
46.6098
 11
23.6506
 21
46.5706
  0
LINE
  8
0
 10
23.6506
 20
46.5706
 11
23.7519
 21
46.5247
  0
LINE
  8
0
 10
23.7519
 20
46.5247
 11
23.85
 21
46.4722
  0
LINE
  8
0
 10
23.85
 20
46.4722
 11
23.9445
 21
46.4135
  0
LINE
  8
0
 10
23.9445
 20
46.4135
 11
24.0349
 21
46.3487
  0
LINE
  8
0
 10
24.0349
 20
46.3487
 11
24.1209
 21
46.2781
  0
LINE
  8
0
 10
24.1209
 20
46.2781
 11
24.2021
 21
46.2021
  0
LINE
  8
0
 10
24.2021
 20
46.2021
 11
24.2781
 21
46.1209
  0
LINE
  8
0
 10
24.2781
 20
46.1209
 11
24.3487
 21
46.0349
  0
LINE
  8
0
 10
24.3487
 20
46.0349
 11
24.4135
 21
45.9445
  0
LINE
  8
0
 10
24.4135
 20
45.9445
 11
24.4722
 21
45.85
  0
LINE
  8
0
 10
24.4722
 20
45.85
 11
24.5247
 21
45.7519
  0
LINE
  8
0
 10
24.5247
 20
45.7519
 11
24.5706
 21
45.6506
  0
LINE
  8
0
 10
24.5706
 20
45.6506
 11
24.6098
 21
45.5464
  0
LINE
  8
0
 10
24.6098
 20
45.5464
 11
24.6421
 21
45.44
  0
LINE
  8
0
 10
24.6421
 20
45.44
 11
24.6673
 21
45.3316
  0
LINE
  8
0
 10
24.6673
 20
45.3316
 11
24.6855
 21
45.2219
  0
LINE
  8
0
 10
24.6855
 20
45.2219
 11
24.6964
 21
45.1112
  0
LINE
  8
0
 10
24.6964
 20
45.1112
 11
24.7
 21
45
  0
LINE
  8
0
 10
24.7
 20
45
 11
24.6964
 21
44.8888
  0
LINE
  8
0
 10
24.6964
 20
44.8888
 11
24.6855
 21
44.7781
  0
LINE
  8
0
 10
24.6855
 20
44.7781
 11
24.6673
 21
44.6683
  0
LINE
  8
0
 10
24.6673
 20
44.6683
 11
24.6421
 21
44.56
  0
LINE
  8
0
 10
24.6421
 20
44.56
 11
24.6098
 21
44.4536
  0
LINE
  8
0
 10
24.6098
 20
44.4536
 11
24.5706
 21
44.3494
  0
LINE
  8
0
 10
24.5706
 20
44.3494
 11
24.5247
 21
44.2481
  0
LINE
  8
0
 10
24.5247
 20
44.2481
 11
24.4722
 21
44.15
  0
LINE
  8
0
 10
24.4722
 20
44.15
 11
24.4135
 21
44.0555
  0
LINE
  8
0
 10
24.4135
 20
44.0555
 11
24.3487
 21
43.9651
  0
LINE
  8
0
 10
24.3487
 20
43.9651
 11
24.2781
 21
43.8791
  0
LINE
  8
0
 10
24.2781
 20
43.8791
 11
24.2021
 21
43.7979
  0
LINE
  8
0
 10
24.2021
 20
43.7979
 11
24.1209
 21
43.7219
  0
LINE
  8
0
 10
24.1209
 20
43.7219
 11
24.0349
 21
43.6513
  0
LINE
  8
0
 10
24.0349
 20
43.6513
 11
23.9445
 21
43.5865
  0
LINE
  8
0
 10
23.9445
 20
43.5865
 11
23.85
 21
43.5278
  0
LINE
  8
0
 10
23.85
 20
43.5278
 11
23.7519
 21
43.4753
  0
LINE
  8
0
 10
23.7519
 20
43.4753
 11
23.6506
 21
43.4294
  0
LINE
  8
0
 10
23.6506
 20
43.4294
 11
23.5464
 21
43.3902
  0
LINE
  8
0
 10
23.5464
 20
43.3902
 11
23.44
 21
43.3579
  0
LINE
  8
0
 10
23.44
 20
43.3579
 11
23.3316
 21
43.3327
  0
LINE
  8
0
 10
23.3316
 20
43.3327
 11
23.2219
 21
43.3145
  0
LINE
  8
0
 10
23.2219
 20
43.3145
 11
23.1112
 21
43.3036
  0
LINE
  8
0
 10
23.1112
 20
43.3036
 11
23
 21
43.3
  0
LINE
  8
0
 10
23
 20
43.3
 11
22.8888
 21
43.3036
  0
LINE
  8
0
 10
68.8888
 20
43.3036
 11
68.7781
 21
43.3145
  0
LINE
  8
0
 10
68.7781
 20
43.3145
 11
68.6683
 21
43.3327
  0
LINE
  8
0
 10
68.6683
 20
43.3327
 11
68.56
 21
43.3579
  0
LINE
  8
0
 10
68.56
 20
43.3579
 11
68.4536
 21
43.3902
  0
LINE
  8
0
 10
68.4536
 20
43.3902
 11
68.3494
 21
43.4294
  0
LINE
  8
0
 10
68.3494
 20
43.4294
 11
68.2481
 21
43.4753
  0
LINE
  8
0
 10
68.2481
 20
43.4753
 11
68.15
 21
43.5278
  0
LINE
  8
0
 10
68.15
 20
43.5278
 11
68.0555
 21
43.5865
  0
LINE
  8
0
 10
68.0555
 20
43.5865
 11
67.9651
 21
43.6513
  0
LINE
  8
0
 10
67.9651
 20
43.6513
 11
67.8791
 21
43.7219
  0
LINE
  8
0
 10
67.8791
 20
43.7219
 11
67.7979
 21
43.7979
  0
LINE
  8
0
 10
67.7979
 20
43.7979
 11
67.7219
 21
43.8791
  0
LINE
  8
0
 10
67.7219
 20
43.8791
 11
67.6513
 21
43.9651
  0
LINE
  8
0
 10
67.6513
 20
43.9651
 11
67.5865
 21
44.0555
  0
LINE
  8
0
 10
67.5865
 20
44.0555
 11
67.5278
 21
44.15
  0
LINE
  8
0
 10
67.5278
 20
44.15
 11
67.4753
 21
44.2481
  0
LINE
  8
0
 10
67.4753
 20
44.2481
 11
67.4294
 21
44.3494
  0
LINE
  8
0
 10
67.4294
 20
44.3494
 11
67.3902
 21
44.4536
  0
LINE
  8
0
 10
67.3902
 20
44.4536
 11
67.3579
 21
44.56
  0
LINE
  8
0
 10
67.3579
 20
44.56
 11
67.3327
 21
44.6683
  0
LINE
  8
0
 10
67.3327
 20
44.6683
 11
67.3145
 21
44.7781
  0
LINE
  8
0
 10
67.3145
 20
44.7781
 11
67.3036
 21
44.8888
  0
LINE
  8
0
 10
67.3036
 20
44.8888
 11
67.3
 21
45
  0
LINE
  8
0
 10
67.3
 20
45
 11
67.3036
 21
45.1112
  0
LINE
  8
0
 10
67.3036
 20
45.1112
 11
67.3145
 21
45.2219
  0
LINE
  8
0
 10
67.3145
 20
45.2219
 11
67.3327
 21
45.3316
  0
LINE
  8
0
 10
67.3327
 20
45.3316
 11
67.3579
 21
45.44
  0
LINE
  8
0
 10
67.3579
 20
45.44
 11
67.3902
 21
45.5464
  0
LINE
  8
0
 10
67.3902
 20
45.5464
 11
67.4294
 21
45.6506
  0
LINE
  8
0
 10
67.4294
 20
45.6506
 11
67.4753
 21
45.7519
  0
LINE
  8
0
 10
67.4753
 20
45.7519
 11
67.5278
 21
45.85
  0
LINE
  8
0
 10
67.5278
 20
45.85
 11
67.5865
 21
45.9445
  0
LINE
  8
0
 10
67.5865
 20
45.9445
 11
67.6513
 21
46.0349
  0
LINE
  8
0
 10
67.6513
 20
46.0349
 11
67.7219
 21
46.1209
  0
LINE
  8
0
 10
67.7219
 20
46.1209
 11
67.7979
 21
46.2021
  0
LINE
  8
0
 10
67.7979
 20
46.2021
 11
67.8791
 21
46.2781
  0
LINE
  8
0
 10
67.8791
 20
46.2781
 11
67.9651
 21
46.3487
  0
LINE
  8
0
 10
67.9651
 20
46.3487
 11
68.0555
 21
46.4135
  0
LINE
  8
0
 10
68.0555
 20
46.4135
 11
68.15
 21
46.4722
  0
LINE
  8
0
 10
68.15
 20
46.4722
 11
68.2481
 21
46.5247
  0
LINE
  8
0
 10
68.2481
 20
46.5247
 11
68.3494
 21
46.5706
  0
LINE
  8
0
 10
68.3494
 20
46.5706
 11
68.4536
 21
46.6098
  0
LINE
  8
0
 10
68.4536
 20
46.6098
 11
68.56
 21
46.6421
  0
LINE
  8
0
 10
68.56
 20
46.6421
 11
68.6683
 21
46.6673
  0
LINE
  8
0
 10
68.6683
 20
46.6673
 11
68.7781
 21
46.6855
  0
LINE
  8
0
 10
68.7781
 20
46.6855
 11
68.8888
 21
46.6964
  0
LINE
  8
0
 10
68.8888
 20
46.6964
 11
69
 21
46.7
  0
LINE
  8
0
 10
69
 20
46.7
 11
69.1112
 21
46.6964
  0
LINE
  8
0
 10
69.1112
 20
46.6964
 11
69.2219
 21
46.6855
  0
LINE
  8
0
 10
69.2219
 20
46.6855
 11
69.3316
 21
46.6673
  0
LINE
  8
0
 10
69.3316
 20
46.6673
 11
69.44
 21
46.6421
  0
LINE
  8
0
 10
69.44
 20
46.6421
 11
69.5464
 21
46.6098
  0
LINE
  8
0
 10
69.5464
 20
46.6098
 11
69.6506
 21
46.5706
  0
LINE
  8
0
 10
69.6506
 20
46.5706
 11
69.7519
 21
46.5247
  0
LINE
  8
0
 10
69.7519
 20
46.5247
 11
69.85
 21
46.4722
  0
LINE
  8
0
 10
69.85
 20
46.4722
 11
69.9445
 21
46.4135
  0
LINE
  8
0
 10
69.9445
 20
46.4135
 11
70.0349
 21
46.3487
  0
LINE
  8
0
 10
70.0349
 20
46.3487
 11
70.1209
 21
46.2781
  0
LINE
  8
0
 10
70.1209
 20
46.2781
 11
70.2021
 21
46.2021
  0
LINE
  8
0
 10
70.2021
 20
46.2021
 11
70.2781
 21
46.1209
  0
LINE
  8
0
 10
70.2781
 20
46.1209
 11
70.3487
 21
46.0349
  0
LINE
  8
0
 10
70.3487
 20
46.0349
 11
70.4135
 21
45.9445
  0
LINE
  8
0
 10
70.4135
 20
45.9445
 11
70.4722
 21
45.85
  0
LINE
  8
0
 10
70.4722
 20
45.85
 11
70.5247
 21
45.7519
  0
LINE
  8
0
 10
70.5247
 20
45.7519
 11
70.5706
 21
45.6506
  0
LINE
  8
0
 10
70.5706
 20
45.6506
 11
70.6098
 21
45.5464
  0
LINE
  8
0
 10
70.6098
 20
45.5464
 11
70.6421
 21
45.44
  0
LINE
  8
0
 10
70.6421
 20
45.44
 11
70.6673
 21
45.3316
  0
LINE
  8
0
 10
70.6673
 20
45.3316
 11
70.6855
 21
45.2219
  0
LINE
  8
0
 10
70.6855
 20
45.2219
 11
70.6964
 21
45.1112
  0
LINE
  8
0
 10
70.6964
 20
45.1112
 11
70.7
 21
45
  0
LINE
  8
0
 10
70.7
 20
45
 11
70.6964
 21
44.8888
  0
LINE
  8
0
 10
70.6964
 20
44.8888
 11
70.6855
 21
44.7781
  0
LINE
  8
0
 10
70.6855
 20
44.7781
 11
70.6673
 21
44.6683
  0
LINE
  8
0
 10
70.6673
 20
44.6683
 11
70.6421
 21
44.56
  0
LINE
  8
0
 10
70.6421
 20
44.56
 11
70.6098
 21
44.4536
  0
LINE
  8
0
 10
70.6098
 20
44.4536
 11
70.5706
 21
44.3494
  0
LINE
  8
0
 10
70.5706
 20
44.3494
 11
70.5247
 21
44.2481
  0
LINE
  8
0
 10
70.5247
 20
44.2481
 11
70.4722
 21
44.15
  0
LINE
  8
0
 10
70.4722
 20
44.15
 11
70.4135
 21
44.0555
  0
LINE
  8
0
 10
70.4135
 20
44.0555
 11
70.3487
 21
43.9651
  0
LINE
  8
0
 10
70.3487
 20
43.9651
 11
70.2781
 21
43.8791
  0
LINE
  8
0
 10
70.2781
 20
43.8791
 11
70.2021
 21
43.7979
  0
LINE
  8
0
 10
70.2021
 20
43.7979
 11
70.1209
 21
43.7219
  0
LINE
  8
0
 10
70.1209
 20
43.7219
 11
70.0349
 21
43.6513
  0
LINE
  8
0
 10
70.0349
 20
43.6513
 11
69.9445
 21
43.5865
  0
LINE
  8
0
 10
69.9445
 20
43.5865
 11
69.85
 21
43.5278
  0
LINE
  8
0
 10
69.85
 20
43.5278
 11
69.7519
 21
43.4753
  0
LINE
  8
0
 10
69.7519
 20
43.4753
 11
69.6506
 21
43.4294
  0
LINE
  8
0
 10
69.6506
 20
43.4294
 11
69.5464
 21
43.3902
  0
LINE
  8
0
 10
69.5464
 20
43.3902
 11
69.44
 21
43.3579
  0
LINE
  8
0
 10
69.44
 20
43.3579
 11
69.3316
 21
43.3327
  0
LINE
  8
0
 10
69.3316
 20
43.3327
 11
69.2219
 21
43.3145
  0
LINE
  8
0
 10
69.2219
 20
43.3145
 11
69.1112
 21
43.3036
  0
LINE
  8
0
 10
69.1112
 20
43.3036
 11
69
 21
43.3
  0
LINE
  8
0
 10
69
 20
43.3
 11
68.8888
 21
43.3036
  0
LINE
  8
0
 10
16.8594
 20
15.2742
 11
16.7487
 21
15.2851
  0
LINE
  8
0
 10
16.7487
 20
15.2851
 11
16.6389
 21
15.3032
  0
LINE
  8
0
 10
16.6389
 20
15.3032
 11
16.5306
 21
15.3285
  0
LINE
  8
0
 10
16.5306
 20
15.3285
 11
16.4241
 21
15.3608
  0
LINE
  8
0
 10
16.4241
 20
15.3608
 11
16.32
 21
15.4
  0
LINE
  8
0
 10
16.32
 20
15.4
 11
16.2187
 21
15.4459
  0
LINE
  8
0
 10
16.2187
 20
15.4459
 11
16.1206
 21
15.4983
  0
LINE
  8
0
 10
16.1206
 20
15.4983
 11
16.0261
 21
15.5571
  0
LINE
  8
0
 10
16.0261
 20
15.5571
 11
15.9357
 21
15.6219
  0
LINE
  8
0
 10
15.9357
 20
15.6219
 11
15.8497
 21
15.6924
  0
LINE
  8
0
 10
15.8497
 20
15.6924
 11
15.7685
 21
15.7685
  0
LINE
  8
0
 10
15.7685
 20
15.7685
 11
15.6924
 21
15.8497
  0
LINE
  8
0
 10
15.6924
 20
15.8497
 11
15.6219
 21
15.9357
  0
LINE
  8
0
 10
15.6219
 20
15.9357
 11
15.5571
 21
16.0261
  0
LINE
  8
0
 10
15.5571
 20
16.0261
 11
15.4983
 21
16.1206
  0
LINE
  8
0
 10
15.4983
 20
16.1206
 11
15.4459
 21
16.2187
  0
LINE
  8
0
 10
15.4459
 20
16.2187
 11
15.4
 21
16.32
  0
LINE
  8
0
 10
15.4
 20
16.32
 11
15.3608
 21
16.4241
  0
LINE
  8
0
 10
15.3608
 20
16.4241
 11
15.3285
 21
16.5306
  0
LINE
  8
0
 10
15.3285
 20
16.5306
 11
15.3032
 21
16.6389
  0
LINE
  8
0
 10
15.3032
 20
16.6389
 11
15.2851
 21
16.7487
  0
LINE
  8
0
 10
15.2851
 20
16.7487
 11
15.2742
 21
16.8594
  0
LINE
  8
0
 10
15.2742
 20
16.8594
 11
15.2706
 21
16.9706
  0
LINE
  8
0
 10
15.2706
 20
16.9706
 11
15.2742
 21
17.0817
  0
LINE
  8
0
 10
15.2742
 20
17.0817
 11
15.2851
 21
17.1924
  0
LINE
  8
0
 10
15.2851
 20
17.1924
 11
15.3032
 21
17.3022
  0
LINE
  8
0
 10
15.3032
 20
17.3022
 11
15.3285
 21
17.4106
  0
LINE
  8
0
 10
15.3285
 20
17.4106
 11
15.3608
 21
17.517
  0
LINE
  8
0
 10
15.3608
 20
17.517
 11
15.4
 21
17.6211
  0
LINE
  8
0
 10
15.4
 20
17.6211
 11
15.4459
 21
17.7224
  0
LINE
  8
0
 10
15.4459
 20
17.7224
 11
15.4983
 21
17.8206
  0
LINE
  8
0
 10
15.4983
 20
17.8206
 11
15.5571
 21
17.915
  0
LINE
  8
0
 10
15.5571
 20
17.915
 11
15.6219
 21
18.0054
  0
LINE
  8
0
 10
15.6219
 20
18.0054
 11
15.6924
 21
18.0914
  0
LINE
  8
0
 10
15.6924
 20
18.0914
 11
15.7685
 21
18.1726
  0
LINE
  8
0
 10
15.7685
 20
18.1726
 11
15.8497
 21
18.2487
  0
LINE
  8
0
 10
15.8497
 20
18.2487
 11
15.9357
 21
18.3193
  0
LINE
  8
0
 10
15.9357
 20
18.3193
 11
16.0261
 21
18.384
  0
LINE
  8
0
 10
16.0261
 20
18.384
 11
16.1206
 21
18.4428
  0
LINE
  8
0
 10
16.1206
 20
18.4428
 11
16.2187
 21
18.4952
  0
LINE
  8
0
 10
16.2187
 20
18.4952
 11
16.32
 21
18.5412
  0
LINE
  8
0
 10
16.32
 20
18.5412
 11
16.4241
 21
18.5803
  0
LINE
  8
0
 10
16.4241
 20
18.5803
 11
16.5306
 21
18.6126
  0
LINE
  8
0
 10
16.5306
 20
18.6126
 11
16.6389
 21
18.6379
  0
LINE
  8
0
 10
16.6389
 20
18.6379
 11
16.7487
 21
18.656
  0
LINE
  8
0
 10
16.7487
 20
18.656
 11
16.8594
 21
18.6669
  0
LINE
  8
0
 10
16.8594
 20
18.6669
 11
16.9706
 21
18.6706
  0
LINE
  8
0
 10
16.9706
 20
18.6706
 11
17.0817
 21
18.6669
  0
LINE
  8
0
 10
17.0817
 20
18.6669
 11
17.1924
 21
18.656
  0
LINE
  8
0
 10
17.1924
 20
18.656
 11
17.3022
 21
18.6379
  0
LINE
  8
0
 10
17.3022
 20
18.6379
 11
17.4106
 21
18.6126
  0
LINE
  8
0
 10
17.4106
 20
18.6126
 11
17.517
 21
18.5803
  0
LINE
  8
0
 10
17.517
 20
18.5803
 11
17.6211
 21
18.5412
  0
LINE
  8
0
 10
17.6211
 20
18.5412
 11
17.7224
 21
18.4952
  0
LINE
  8
0
 10
17.7224
 20
18.4952
 11
17.8206
 21
18.4428
  0
LINE
  8
0
 10
17.8206
 20
18.4428
 11
17.915
 21
18.384
  0
LINE
  8
0
 10
17.915
 20
18.384
 11
18.0054
 21
18.3193
  0
LINE
  8
0
 10
18.0054
 20
18.3193
 11
18.0914
 21
18.2487
  0
LINE
  8
0
 10
18.0914
 20
18.2487
 11
18.1726
 21
18.1726
  0
LINE
  8
0
 10
18.1726
 20
18.1726
 11
18.2487
 21
18.0914
  0
LINE
  8
0
 10
18.2487
 20
18.0914
 11
18.3193
 21
18.0054
  0
LINE
  8
0
 10
18.3193
 20
18.0054
 11
18.384
 21
17.915
  0
LINE
  8
0
 10
18.384
 20
17.915
 11
18.4428
 21
17.8206
  0
LINE
  8
0
 10
18.4428
 20
17.8206
 11
18.4952
 21
17.7224
  0
LINE
  8
0
 10
18.4952
 20
17.7224
 11
18.5412
 21
17.6211
  0
LINE
  8
0
 10
18.5412
 20
17.6211
 11
18.5803
 21
17.517
  0
LINE
  8
0
 10
18.5803
 20
17.517
 11
18.6126
 21
17.4106
  0
LINE
  8
0
 10
18.6126
 20
17.4106
 11
18.6379
 21
17.3022
  0
LINE
  8
0
 10
18.6379
 20
17.3022
 11
18.656
 21
17.1924
  0
LINE
  8
0
 10
18.656
 20
17.1924
 11
18.6669
 21
17.0817
  0
LINE
  8
0
 10
18.6669
 20
17.0817
 11
18.6706
 21
16.9706
  0
LINE
  8
0
 10
18.6706
 20
16.9706
 11
18.6669
 21
16.8594
  0
LINE
  8
0
 10
18.6669
 20
16.8594
 11
18.656
 21
16.7487
  0
LINE
  8
0
 10
18.656
 20
16.7487
 11
18.6379
 21
16.6389
  0
LINE
  8
0
 10
18.6379
 20
16.6389
 11
18.6126
 21
16.5306
  0
LINE
  8
0
 10
18.6126
 20
16.5306
 11
18.5803
 21
16.4241
  0
LINE
  8
0
 10
18.5803
 20
16.4241
 11
18.5412
 21
16.32
  0
LINE
  8
0
 10
18.5412
 20
16.32
 11
18.4952
 21
16.2187
  0
LINE
  8
0
 10
18.4952
 20
16.2187
 11
18.4428
 21
16.1206
  0
LINE
  8
0
 10
18.4428
 20
16.1206
 11
18.384
 21
16.0261
  0
LINE
  8
0
 10
18.384
 20
16.0261
 11
18.3193
 21
15.9357
  0
LINE
  8
0
 10
18.3193
 20
15.9357
 11
18.2487
 21
15.8497
  0
LINE
  8
0
 10
18.2487
 20
15.8497
 11
18.1726
 21
15.7685
  0
LINE
  8
0
 10
18.1726
 20
15.7685
 11
18.0914
 21
15.6924
  0
LINE
  8
0
 10
18.0914
 20
15.6924
 11
18.0054
 21
15.6219
  0
LINE
  8
0
 10
18.0054
 20
15.6219
 11
17.915
 21
15.5571
  0
LINE
  8
0
 10
17.915
 20
15.5571
 11
17.8206
 21
15.4983
  0
LINE
  8
0
 10
17.8206
 20
15.4983
 11
17.7224
 21
15.4459
  0
LINE
  8
0
 10
17.7224
 20
15.4459
 11
17.6211
 21
15.4
  0
LINE
  8
0
 10
17.6211
 20
15.4
 11
17.517
 21
15.3608
  0
LINE
  8
0
 10
17.517
 20
15.3608
 11
17.4106
 21
15.3285
  0
LINE
  8
0
 10
17.4106
 20
15.3285
 11
17.3022
 21
15.3032
  0
LINE
  8
0
 10
17.3022
 20
15.3032
 11
17.1924
 21
15.2851
  0
LINE
  8
0
 10
17.1924
 20
15.2851
 11
17.0817
 21
15.2742
  0
LINE
  8
0
 10
17.0817
 20
15.2742
 11
16.9706
 21
15.2706
  0
LINE
  8
0
 10
16.9706
 20
15.2706
 11
16.8594
 21
15.2742
  0
LINE
  8
0
 10
-17.0817
 20
15.2742
 11
-17.1924
 21
15.2851
  0
LINE
  8
0
 10
-17.1924
 20
15.2851
 11
-17.3022
 21
15.3032
  0
LINE
  8
0
 10
-17.3022
 20
15.3032
 11
-17.4106
 21
15.3285
  0
LINE
  8
0
 10
-17.4106
 20
15.3285
 11
-17.517
 21
15.3608
  0
LINE
  8
0
 10
-17.517
 20
15.3608
 11
-17.6211
 21
15.4
  0
LINE
  8
0
 10
-17.6211
 20
15.4
 11
-17.7224
 21
15.4459
  0
LINE
  8
0
 10
-17.7224
 20
15.4459
 11
-17.8206
 21
15.4983
  0
LINE
  8
0
 10
-17.8206
 20
15.4983
 11
-17.915
 21
15.5571
  0
LINE
  8
0
 10
-17.915
 20
15.5571
 11
-18.0054
 21
15.6219
  0
LINE
  8
0
 10
-18.0054
 20
15.6219
 11
-18.0914
 21
15.6924
  0
LINE
  8
0
 10
-18.0914
 20
15.6924
 11
-18.1726
 21
15.7685
  0
LINE
  8
0
 10
-18.1726
 20
15.7685
 11
-18.2487
 21
15.8497
  0
LINE
  8
0
 10
-18.2487
 20
15.8497
 11
-18.3193
 21
15.9357
  0
LINE
  8
0
 10
-18.3193
 20
15.9357
 11
-18.384
 21
16.0261
  0
LINE
  8
0
 10
-18.384
 20
16.0261
 11
-18.4428
 21
16.1206
  0
LINE
  8
0
 10
-18.4428
 20
16.1206
 11
-18.4952
 21
16.2187
  0
LINE
  8
0
 10
-18.4952
 20
16.2187
 11
-18.5412
 21
16.32
  0
LINE
  8
0
 10
-18.5412
 20
16.32
 11
-18.5803
 21
16.4241
  0
LINE
  8
0
 10
-18.5803
 20
16.4241
 11
-18.6126
 21
16.5306
  0
LINE
  8
0
 10
-18.6126
 20
16.5306
 11
-18.6379
 21
16.6389
  0
LINE
  8
0
 10
-18.6379
 20
16.6389
 11
-18.656
 21
16.7487
  0
LINE
  8
0
 10
-18.656
 20
16.7487
 11
-18.6669
 21
16.8594
  0
LINE
  8
0
 10
-18.6669
 20
16.8594
 11
-18.6706
 21
16.9706
  0
LINE
  8
0
 10
-18.6706
 20
16.9706
 11
-18.6669
 21
17.0817
  0
LINE
  8
0
 10
-18.6669
 20
17.0817
 11
-18.656
 21
17.1924
  0
LINE
  8
0
 10
-18.656
 20
17.1924
 11
-18.6379
 21
17.3022
  0
LINE
  8
0
 10
-18.6379
 20
17.3022
 11
-18.6126
 21
17.4106
  0
LINE
  8
0
 10
-18.6126
 20
17.4106
 11
-18.5803
 21
17.517
  0
LINE
  8
0
 10
-18.5803
 20
17.517
 11
-18.5412
 21
17.6211
  0
LINE
  8
0
 10
-18.5412
 20
17.6211
 11
-18.4952
 21
17.7224
  0
LINE
  8
0
 10
-18.4952
 20
17.7224
 11
-18.4428
 21
17.8206
  0
LINE
  8
0
 10
-18.4428
 20
17.8206
 11
-18.384
 21
17.915
  0
LINE
  8
0
 10
-18.384
 20
17.915
 11
-18.3193
 21
18.0054
  0
LINE
  8
0
 10
-18.3193
 20
18.0054
 11
-18.2487
 21
18.0914
  0
LINE
  8
0
 10
-18.2487
 20
18.0914
 11
-18.1726
 21
18.1726
  0
LINE
  8
0
 10
-18.1726
 20
18.1726
 11
-18.0914
 21
18.2487
  0
LINE
  8
0
 10
-18.0914
 20
18.2487
 11
-18.0054
 21
18.3193
  0
LINE
  8
0
 10
-18.0054
 20
18.3193
 11
-17.915
 21
18.384
  0
LINE
  8
0
 10
-17.915
 20
18.384
 11
-17.8206
 21
18.4428
  0
LINE
  8
0
 10
-17.8206
 20
18.4428
 11
-17.7224
 21
18.4952
  0
LINE
  8
0
 10
-17.7224
 20
18.4952
 11
-17.6211
 21
18.5412
  0
LINE
  8
0
 10
-17.6211
 20
18.5412
 11
-17.517
 21
18.5803
  0
LINE
  8
0
 10
-17.517
 20
18.5803
 11
-17.4106
 21
18.6126
  0
LINE
  8
0
 10
-17.4106
 20
18.6126
 11
-17.3022
 21
18.6379
  0
LINE
  8
0
 10
-17.3022
 20
18.6379
 11
-17.1924
 21
18.656
  0
LINE
  8
0
 10
-17.1924
 20
18.656
 11
-17.0817
 21
18.6669
  0
LINE
  8
0
 10
-17.0817
 20
18.6669
 11
-16.9706
 21
18.6706
  0
LINE
  8
0
 10
-16.9706
 20
18.6706
 11
-16.8594
 21
18.6669
  0
LINE
  8
0
 10
-16.8594
 20
18.6669
 11
-16.7487
 21
18.656
  0
LINE
  8
0
 10
-16.7487
 20
18.656
 11
-16.6389
 21
18.6379
  0
LINE
  8
0
 10
-16.6389
 20
18.6379
 11
-16.5306
 21
18.6126
  0
LINE
  8
0
 10
-16.5306
 20
18.6126
 11
-16.4241
 21
18.5803
  0
LINE
  8
0
 10
-16.4241
 20
18.5803
 11
-16.32
 21
18.5412
  0
LINE
  8
0
 10
-16.32
 20
18.5412
 11
-16.2187
 21
18.4952
  0
LINE
  8
0
 10
-16.2187
 20
18.4952
 11
-16.1206
 21
18.4428
  0
LINE
  8
0
 10
-16.1206
 20
18.4428
 11
-16.0261
 21
18.384
  0
LINE
  8
0
 10
-16.0261
 20
18.384
 11
-15.9357
 21
18.3193
  0
LINE
  8
0
 10
-15.9357
 20
18.3193
 11
-15.8497
 21
18.2487
  0
LINE
  8
0
 10
-15.8497
 20
18.2487
 11
-15.7685
 21
18.1726
  0
LINE
  8
0
 10
-15.7685
 20
18.1726
 11
-15.6924
 21
18.0914
  0
LINE
  8
0
 10
-15.6924
 20
18.0914
 11
-15.6219
 21
18.0054
  0
LINE
  8
0
 10
-15.6219
 20
18.0054
 11
-15.5571
 21
17.915
  0
LINE
  8
0
 10
-15.5571
 20
17.915
 11
-15.4983
 21
17.8206
  0
LINE
  8
0
 10
-15.4983
 20
17.8206
 11
-15.4459
 21
17.7224
  0
LINE
  8
0
 10
-15.4459
 20
17.7224
 11
-15.4
 21
17.6211
  0
LINE
  8
0
 10
-15.4
 20
17.6211
 11
-15.3608
 21
17.517
  0
LINE
  8
0
 10
-15.3608
 20
17.517
 11
-15.3285
 21
17.4106
  0
LINE
  8
0
 10
-15.3285
 20
17.4106
 11
-15.3032
 21
17.3022
  0
LINE
  8
0
 10
-15.3032
 20
17.3022
 11
-15.2851
 21
17.1924
  0
LINE
  8
0
 10
-15.2851
 20
17.1924
 11
-15.2742
 21
17.0817
  0
LINE
  8
0
 10
-15.2742
 20
17.0817
 11
-15.2706
 21
16.9706
  0
LINE
  8
0
 10
-15.2706
 20
16.9706
 11
-15.2742
 21
16.8594
  0
LINE
  8
0
 10
-15.2742
 20
16.8594
 11
-15.2851
 21
16.7487
  0
LINE
  8
0
 10
-15.2851
 20
16.7487
 11
-15.3032
 21
16.6389
  0
LINE
  8
0
 10
-15.3032
 20
16.6389
 11
-15.3285
 21
16.5306
  0
LINE
  8
0
 10
-15.3285
 20
16.5306
 11
-15.3608
 21
16.4241
  0
LINE
  8
0
 10
-15.3608
 20
16.4241
 11
-15.4
 21
16.32
  0
LINE
  8
0
 10
-15.4
 20
16.32
 11
-15.4459
 21
16.2187
  0
LINE
  8
0
 10
-15.4459
 20
16.2187
 11
-15.4983
 21
16.1206
  0
LINE
  8
0
 10
-15.4983
 20
16.1206
 11
-15.5571
 21
16.0261
  0
LINE
  8
0
 10
-15.5571
 20
16.0261
 11
-15.6219
 21
15.9357
  0
LINE
  8
0
 10
-15.6219
 20
15.9357
 11
-15.6924
 21
15.8497
  0
LINE
  8
0
 10
-15.6924
 20
15.8497
 11
-15.7685
 21
15.7685
  0
LINE
  8
0
 10
-15.7685
 20
15.7685
 11
-15.8497
 21
15.6924
  0
LINE
  8
0
 10
-15.8497
 20
15.6924
 11
-15.9357
 21
15.6219
  0
LINE
  8
0
 10
-15.9357
 20
15.6219
 11
-16.0261
 21
15.5571
  0
LINE
  8
0
 10
-16.0261
 20
15.5571
 11
-16.1206
 21
15.4983
  0
LINE
  8
0
 10
-16.1206
 20
15.4983
 11
-16.2187
 21
15.4459
  0
LINE
  8
0
 10
-16.2187
 20
15.4459
 11
-16.32
 21
15.4
  0
LINE
  8
0
 10
-16.32
 20
15.4
 11
-16.4241
 21
15.3608
  0
LINE
  8
0
 10
-16.4241
 20
15.3608
 11
-16.5306
 21
15.3285
  0
LINE
  8
0
 10
-16.5306
 20
15.3285
 11
-16.6389
 21
15.3032
  0
LINE
  8
0
 10
-16.6389
 20
15.3032
 11
-16.7487
 21
15.2851
  0
LINE
  8
0
 10
-16.7487
 20
15.2851
 11
-16.8594
 21
15.2742
  0
LINE
  8
0
 10
-16.8594
 20
15.2742
 11
-16.9706
 21
15.2706
  0
LINE
  8
0
 10
-16.9706
 20
15.2706
 11
-17.0817
 21
15.2742
  0
LINE
  8
0
 10
-0.523224
 20
-7.98286
 11
-1.0442
 21
-7.93155
  0
LINE
  8
0
 10
-1.0442
 20
-7.93155
 11
-1.56071
 21
-7.84627
  0
LINE
  8
0
 10
-1.56071
 20
-7.84627
 11
-2.07054
 21
-7.7274
  0
LINE
  8
0
 10
-2.07054
 20
-7.7274
 11
-2.5715
 21
-7.57544
  0
LINE
  8
0
 10
-2.5715
 20
-7.57544
 11
-3.06146
 21
-7.39102
  0
LINE
  8
0
 10
-3.06146
 20
-7.39102
 11
-3.5383
 21
-7.17497
  0
LINE
  8
0
 10
-3.5383
 20
-7.17497
 11
-4
 21
-6.92819
  0
LINE
  8
0
 10
-4
 20
-6.92819
 11
-4.44455
 21
-6.65175
  0
LINE
  8
0
 10
-4.44455
 20
-6.65175
 11
-4.87009
 21
-6.34682
  0
LINE
  8
0
 10
-4.87009
 20
-6.34682
 11
-5.27477
 21
-6.01471
  0
LINE
  8
0
 10
-5.27477
 20
-6.01471
 11
-5.65685
 21
-5.65685
  0
LINE
  8
0
 10
-5.65685
 20
-5.65685
 11
-6.01471
 21
-5.27477
  0
LINE
  8
0
 10
-6.01471
 20
-5.27477
 11
-6.34682
 21
-4.87009
  0
LINE
  8
0
 10
-6.34682
 20
-4.87009
 11
-6.65175
 21
-4.44455
  0
LINE
  8
0
 10
-6.65175
 20
-4.44455
 11
-6.92819
 21
-4
  0
LINE
  8
0
 10
-6.92819
 20
-4
 11
-7.17497
 21
-3.5383
  0
LINE
  8
0
 10
-7.17497
 20
-3.5383
 11
-7.39102
 21
-3.06146
  0
LINE
  8
0
 10
-7.39102
 20
-3.06146
 11
-7.57544
 21
-2.5715
  0
LINE
  8
0
 10
-7.57544
 20
-2.5715
 11
-7.7274
 21
-2.07054
  0
LINE
  8
0
 10
-7.7274
 20
-2.07054
 11
-7.84627
 21
-1.56071
  0
LINE
  8
0
 10
-7.84627
 20
-1.56071
 11
-7.93155
 21
-1.0442
  0
LINE
  8
0
 10
-7.93155
 20
-1.0442
 11
-7.98286
 21
-0.523224
  0
LINE
  8
0
 10
-7.98286
 20
-0.523224
 11
-8
 21
0
  0
LINE
  8
0
 10
-8
 20
0
 11
-7.98286
 21
0.523224
  0
LINE
  8
0
 10
-7.98286
 20
0.523224
 11
-7.93155
 21
1.0442
  0
LINE
  8
0
 10
-7.93155
 20
1.0442
 11
-7.84627
 21
1.56071
  0
LINE
  8
0
 10
-7.84627
 20
1.56071
 11
-7.7274
 21
2.07054
  0
LINE
  8
0
 10
-7.7274
 20
2.07054
 11
-7.57544
 21
2.5715
  0
LINE
  8
0
 10
-7.57544
 20
2.5715
 11
-7.39102
 21
3.06146
  0
LINE
  8
0
 10
-7.39102
 20
3.06146
 11
-7.17497
 21
3.5383
  0
LINE
  8
0
 10
-7.17497
 20
3.5383
 11
-6.92819
 21
4
  0
LINE
  8
0
 10
-6.92819
 20
4
 11
-6.65175
 21
4.44455
  0
LINE
  8
0
 10
-6.65175
 20
4.44455
 11
-6.34682
 21
4.87009
  0
LINE
  8
0
 10
-6.34682
 20
4.87009
 11
-6.01471
 21
5.27477
  0
LINE
  8
0
 10
-6.01471
 20
5.27477
 11
-5.65685
 21
5.65685
  0
LINE
  8
0
 10
-5.65685
 20
5.65685
 11
-5.27477
 21
6.01471
  0
LINE
  8
0
 10
-5.27477
 20
6.01471
 11
-4.87009
 21
6.34682
  0
LINE
  8
0
 10
-4.87009
 20
6.34682
 11
-4.44455
 21
6.65175
  0
LINE
  8
0
 10
-4.44455
 20
6.65175
 11
-4
 21
6.92819
  0
LINE
  8
0
 10
-4
 20
6.92819
 11
-3.5383
 21
7.17497
  0
LINE
  8
0
 10
-3.5383
 20
7.17497
 11
-3.06146
 21
7.39102
  0
LINE
  8
0
 10
-3.06146
 20
7.39102
 11
-2.5715
 21
7.57544
  0
LINE
  8
0
 10
-2.5715
 20
7.57544
 11
-2.07054
 21
7.7274
  0
LINE
  8
0
 10
-2.07054
 20
7.7274
 11
-1.56071
 21
7.84627
  0
LINE
  8
0
 10
-1.56071
 20
7.84627
 11
-1.0442
 21
7.93155
  0
LINE
  8
0
 10
-1.0442
 20
7.93155
 11
-0.523224
 21
7.98286
  0
LINE
  8
0
 10
-0.523224
 20
7.98286
 11
0
 21
8
  0
LINE
  8
0
 10
0
 20
8
 11
0.523224
 21
7.98286
  0
LINE
  8
0
 10
0.523224
 20
7.98286
 11
1.0442
 21
7.93155
  0
LINE
  8
0
 10
1.0442
 20
7.93155
 11
1.56071
 21
7.84627
  0
LINE
  8
0
 10
1.56071
 20
7.84627
 11
2.07054
 21
7.7274
  0
LINE
  8
0
 10
2.07054
 20
7.7274
 11
2.5715
 21
7.57544
  0
LINE
  8
0
 10
2.5715
 20
7.57544
 11
3.06146
 21
7.39102
  0
LINE
  8
0
 10
3.06146
 20
7.39102
 11
3.5383
 21
7.17497
  0
LINE
  8
0
 10
3.5383
 20
7.17497
 11
4
 21
6.92819
  0
LINE
  8
0
 10
4
 20
6.92819
 11
4.44455
 21
6.65175
  0
LINE
  8
0
 10
4.44455
 20
6.65175
 11
4.87009
 21
6.34682
  0
LINE
  8
0
 10
4.87009
 20
6.34682
 11
5.27477
 21
6.01471
  0
LINE
  8
0
 10
5.27477
 20
6.01471
 11
5.65685
 21
5.65685
  0
LINE
  8
0
 10
5.65685
 20
5.65685
 11
6.01471
 21
5.27477
  0
LINE
  8
0
 10
6.01471
 20
5.27477
 11
6.34682
 21
4.87009
  0
LINE
  8
0
 10
6.34682
 20
4.87009
 11
6.65175
 21
4.44455
  0
LINE
  8
0
 10
6.65175
 20
4.44455
 11
6.92819
 21
4
  0
LINE
  8
0
 10
6.92819
 20
4
 11
7.17497
 21
3.5383
  0
LINE
  8
0
 10
7.17497
 20
3.5383
 11
7.39102
 21
3.06146
  0
LINE
  8
0
 10
7.39102
 20
3.06146
 11
7.57544
 21
2.5715
  0
LINE
  8
0
 10
7.57544
 20
2.5715
 11
7.7274
 21
2.07054
  0
LINE
  8
0
 10
7.7274
 20
2.07054
 11
7.84627
 21
1.56071
  0
LINE
  8
0
 10
7.84627
 20
1.56071
 11
7.93155
 21
1.0442
  0
LINE
  8
0
 10
7.93155
 20
1.0442
 11
7.98286
 21
0.523224
  0
LINE
  8
0
 10
7.98286
 20
0.523224
 11
8
 21
0
  0
LINE
  8
0
 10
8
 20
0
 11
7.98286
 21
-0.523224
  0
LINE
  8
0
 10
7.98286
 20
-0.523224
 11
7.93155
 21
-1.0442
  0
LINE
  8
0
 10
7.93155
 20
-1.0442
 11
7.84627
 21
-1.56071
  0
LINE
  8
0
 10
7.84627
 20
-1.56071
 11
7.7274
 21
-2.07054
  0
LINE
  8
0
 10
7.7274
 20
-2.07054
 11
7.57544
 21
-2.5715
  0
LINE
  8
0
 10
7.57544
 20
-2.5715
 11
7.39102
 21
-3.06146
  0
LINE
  8
0
 10
7.39102
 20
-3.06146
 11
7.17497
 21
-3.5383
  0
LINE
  8
0
 10
7.17497
 20
-3.5383
 11
6.92819
 21
-4
  0
LINE
  8
0
 10
6.92819
 20
-4
 11
6.65175
 21
-4.44455
  0
LINE
  8
0
 10
6.65175
 20
-4.44455
 11
6.34682
 21
-4.87009
  0
LINE
  8
0
 10
6.34682
 20
-4.87009
 11
6.01471
 21
-5.27477
  0
LINE
  8
0
 10
6.01471
 20
-5.27477
 11
5.65685
 21
-5.65685
  0
LINE
  8
0
 10
5.65685
 20
-5.65685
 11
5.27477
 21
-6.01471
  0
LINE
  8
0
 10
5.27477
 20
-6.01471
 11
4.87009
 21
-6.34682
  0
LINE
  8
0
 10
4.87009
 20
-6.34682
 11
4.44455
 21
-6.65175
  0
LINE
  8
0
 10
4.44455
 20
-6.65175
 11
4
 21
-6.92819
  0
LINE
  8
0
 10
4
 20
-6.92819
 11
3.5383
 21
-7.17497
  0
LINE
  8
0
 10
3.5383
 20
-7.17497
 11
3.06146
 21
-7.39102
  0
LINE
  8
0
 10
3.06146
 20
-7.39102
 11
2.5715
 21
-7.57544
  0
LINE
  8
0
 10
2.5715
 20
-7.57544
 11
2.07054
 21
-7.7274
  0
LINE
  8
0
 10
2.07054
 20
-7.7274
 11
1.56071
 21
-7.84627
  0
LINE
  8
0
 10
1.56071
 20
-7.84627
 11
1.0442
 21
-7.93155
  0
LINE
  8
0
 10
1.0442
 20
-7.93155
 11
0.523224
 21
-7.98286
  0
LINE
  8
0
 10
0.523224
 20
-7.98286
 11
0
 21
-8
  0
LINE
  8
0
 10
0
 20
-8
 11
-0.523224
 21
-7.98286
  0
LINE
  8
0
 10
-17.0817
 20
-18.6669
 11
-17.1924
 21
-18.656
  0
LINE
  8
0
 10
-17.1924
 20
-18.656
 11
-17.3022
 21
-18.6379
  0
LINE
  8
0
 10
-17.3022
 20
-18.6379
 11
-17.4106
 21
-18.6126
  0
LINE
  8
0
 10
-17.4106
 20
-18.6126
 11
-17.517
 21
-18.5803
  0
LINE
  8
0
 10
-17.517
 20
-18.5803
 11
-17.6211
 21
-18.5412
  0
LINE
  8
0
 10
-17.6211
 20
-18.5412
 11
-17.7224
 21
-18.4952
  0
LINE
  8
0
 10
-17.7224
 20
-18.4952
 11
-17.8206
 21
-18.4428
  0
LINE
  8
0
 10
-17.8206
 20
-18.4428
 11
-17.915
 21
-18.384
  0
LINE
  8
0
 10
-17.915
 20
-18.384
 11
-18.0054
 21
-18.3193
  0
LINE
  8
0
 10
-18.0054
 20
-18.3193
 11
-18.0914
 21
-18.2487
  0
LINE
  8
0
 10
-18.0914
 20
-18.2487
 11
-18.1726
 21
-18.1726
  0
LINE
  8
0
 10
-18.1726
 20
-18.1726
 11
-18.2487
 21
-18.0914
  0
LINE
  8
0
 10
-18.2487
 20
-18.0914
 11
-18.3193
 21
-18.0054
  0
LINE
  8
0
 10
-18.3193
 20
-18.0054
 11
-18.384
 21
-17.915
  0
LINE
  8
0
 10
-18.384
 20
-17.915
 11
-18.4428
 21
-17.8206
  0
LINE
  8
0
 10
-18.4428
 20
-17.8206
 11
-18.4952
 21
-17.7224
  0
LINE
  8
0
 10
-18.4952
 20
-17.7224
 11
-18.5412
 21
-17.6211
  0
LINE
  8
0
 10
-18.5412
 20
-17.6211
 11
-18.5803
 21
-17.517
  0
LINE
  8
0
 10
-18.5803
 20
-17.517
 11
-18.6126
 21
-17.4106
  0
LINE
  8
0
 10
-18.6126
 20
-17.4106
 11
-18.6379
 21
-17.3022
  0
LINE
  8
0
 10
-18.6379
 20
-17.3022
 11
-18.656
 21
-17.1924
  0
LINE
  8
0
 10
-18.656
 20
-17.1924
 11
-18.6669
 21
-17.0817
  0
LINE
  8
0
 10
-18.6669
 20
-17.0817
 11
-18.6706
 21
-16.9706
  0
LINE
  8
0
 10
-18.6706
 20
-16.9706
 11
-18.6669
 21
-16.8594
  0
LINE
  8
0
 10
-18.6669
 20
-16.8594
 11
-18.656
 21
-16.7487
  0
LINE
  8
0
 10
-18.656
 20
-16.7487
 11
-18.6379
 21
-16.6389
  0
LINE
  8
0
 10
-18.6379
 20
-16.6389
 11
-18.6126
 21
-16.5306
  0
LINE
  8
0
 10
-18.6126
 20
-16.5306
 11
-18.5803
 21
-16.4241
  0
LINE
  8
0
 10
-18.5803
 20
-16.4241
 11
-18.5412
 21
-16.32
  0
LINE
  8
0
 10
-18.5412
 20
-16.32
 11
-18.4952
 21
-16.2187
  0
LINE
  8
0
 10
-18.4952
 20
-16.2187
 11
-18.4428
 21
-16.1206
  0
LINE
  8
0
 10
-18.4428
 20
-16.1206
 11
-18.384
 21
-16.0261
  0
LINE
  8
0
 10
-18.384
 20
-16.0261
 11
-18.3193
 21
-15.9357
  0
LINE
  8
0
 10
-18.3193
 20
-15.9357
 11
-18.2487
 21
-15.8497
  0
LINE
  8
0
 10
-18.2487
 20
-15.8497
 11
-18.1726
 21
-15.7685
  0
LINE
  8
0
 10
-18.1726
 20
-15.7685
 11
-18.0914
 21
-15.6924
  0
LINE
  8
0
 10
-18.0914
 20
-15.6924
 11
-18.0054
 21
-15.6219
  0
LINE
  8
0
 10
-18.0054
 20
-15.6219
 11
-17.915
 21
-15.5571
  0
LINE
  8
0
 10
-17.915
 20
-15.5571
 11
-17.8206
 21
-15.4983
  0
LINE
  8
0
 10
-17.8206
 20
-15.4983
 11
-17.7224
 21
-15.4459
  0
LINE
  8
0
 10
-17.7224
 20
-15.4459
 11
-17.6211
 21
-15.4
  0
LINE
  8
0
 10
-17.6211
 20
-15.4
 11
-17.517
 21
-15.3608
  0
LINE
  8
0
 10
-17.517
 20
-15.3608
 11
-17.4106
 21
-15.3285
  0
LINE
  8
0
 10
-17.4106
 20
-15.3285
 11
-17.3022
 21
-15.3032
  0
LINE
  8
0
 10
-17.3022
 20
-15.3032
 11
-17.1924
 21
-15.2851
  0
LINE
  8
0
 10
-17.1924
 20
-15.2851
 11
-17.0817
 21
-15.2742
  0
LINE
  8
0
 10
-17.0817
 20
-15.2742
 11
-16.9706
 21
-15.2706
  0
LINE
  8
0
 10
-16.9706
 20
-15.2706
 11
-16.8594
 21
-15.2742
  0
LINE
  8
0
 10
-16.8594
 20
-15.2742
 11
-16.7487
 21
-15.2851
  0
LINE
  8
0
 10
-16.7487
 20
-15.2851
 11
-16.6389
 21
-15.3032
  0
LINE
  8
0
 10
-16.6389
 20
-15.3032
 11
-16.5306
 21
-15.3285
  0
LINE
  8
0
 10
-16.5306
 20
-15.3285
 11
-16.4241
 21
-15.3608
  0
LINE
  8
0
 10
-16.4241
 20
-15.3608
 11
-16.32
 21
-15.4
  0
LINE
  8
0
 10
-16.32
 20
-15.4
 11
-16.2187
 21
-15.4459
  0
LINE
  8
0
 10
-16.2187
 20
-15.4459
 11
-16.1206
 21
-15.4983
  0
LINE
  8
0
 10
-16.1206
 20
-15.4983
 11
-16.0261
 21
-15.5571
  0
LINE
  8
0
 10
-16.0261
 20
-15.5571
 11
-15.9357
 21
-15.6219
  0
LINE
  8
0
 10
-15.9357
 20
-15.6219
 11
-15.8497
 21
-15.6924
  0
LINE
  8
0
 10
-15.8497
 20
-15.6924
 11
-15.7685
 21
-15.7685
  0
LINE
  8
0
 10
-15.7685
 20
-15.7685
 11
-15.6924
 21
-15.8497
  0
LINE
  8
0
 10
-15.6924
 20
-15.8497
 11
-15.6219
 21
-15.9357
  0
LINE
  8
0
 10
-15.6219
 20
-15.9357
 11
-15.5571
 21
-16.0261
  0
LINE
  8
0
 10
-15.5571
 20
-16.0261
 11
-15.4983
 21
-16.1206
  0
LINE
  8
0
 10
-15.4983
 20
-16.1206
 11
-15.4459
 21
-16.2187
  0
LINE
  8
0
 10
-15.4459
 20
-16.2187
 11
-15.4
 21
-16.32
  0
LINE
  8
0
 10
-15.4
 20
-16.32
 11
-15.3608
 21
-16.4241
  0
LINE
  8
0
 10
-15.3608
 20
-16.4241
 11
-15.3285
 21
-16.5306
  0
LINE
  8
0
 10
-15.3285
 20
-16.5306
 11
-15.3032
 21
-16.6389
  0
LINE
  8
0
 10
-15.3032
 20
-16.6389
 11
-15.2851
 21
-16.7487
  0
LINE
  8
0
 10
-15.2851
 20
-16.7487
 11
-15.2742
 21
-16.8594
  0
LINE
  8
0
 10
-15.2742
 20
-16.8594
 11
-15.2706
 21
-16.9706
  0
LINE
  8
0
 10
-15.2706
 20
-16.9706
 11
-15.2742
 21
-17.0817
  0
LINE
  8
0
 10
-15.2742
 20
-17.0817
 11
-15.2851
 21
-17.1924
  0
LINE
  8
0
 10
-15.2851
 20
-17.1924
 11
-15.3032
 21
-17.3022
  0
LINE
  8
0
 10
-15.3032
 20
-17.3022
 11
-15.3285
 21
-17.4106
  0
LINE
  8
0
 10
-15.3285
 20
-17.4106
 11
-15.3608
 21
-17.517
  0
LINE
  8
0
 10
-15.3608
 20
-17.517
 11
-15.4
 21
-17.6211
  0
LINE
  8
0
 10
-15.4
 20
-17.6211
 11
-15.4459
 21
-17.7224
  0
LINE
  8
0
 10
-15.4459
 20
-17.7224
 11
-15.4983
 21
-17.8206
  0
LINE
  8
0
 10
-15.4983
 20
-17.8206
 11
-15.5571
 21
-17.915
  0
LINE
  8
0
 10
-15.5571
 20
-17.915
 11
-15.6219
 21
-18.0054
  0
LINE
  8
0
 10
-15.6219
 20
-18.0054
 11
-15.6924
 21
-18.0914
  0
LINE
  8
0
 10
-15.6924
 20
-18.0914
 11
-15.7685
 21
-18.1726
  0
LINE
  8
0
 10
-15.7685
 20
-18.1726
 11
-15.8497
 21
-18.2487
  0
LINE
  8
0
 10
-15.8497
 20
-18.2487
 11
-15.9357
 21
-18.3193
  0
LINE
  8
0
 10
-15.9357
 20
-18.3193
 11
-16.0261
 21
-18.384
  0
LINE
  8
0
 10
-16.0261
 20
-18.384
 11
-16.1206
 21
-18.4428
  0
LINE
  8
0
 10
-16.1206
 20
-18.4428
 11
-16.2187
 21
-18.4952
  0
LINE
  8
0
 10
-16.2187
 20
-18.4952
 11
-16.32
 21
-18.5412
  0
LINE
  8
0
 10
-16.32
 20
-18.5412
 11
-16.4241
 21
-18.5803
  0
LINE
  8
0
 10
-16.4241
 20
-18.5803
 11
-16.5306
 21
-18.6126
  0
LINE
  8
0
 10
-16.5306
 20
-18.6126
 11
-16.6389
 21
-18.6379
  0
LINE
  8
0
 10
-16.6389
 20
-18.6379
 11
-16.7487
 21
-18.656
  0
LINE
  8
0
 10
-16.7487
 20
-18.656
 11
-16.8594
 21
-18.6669
  0
LINE
  8
0
 10
-16.8594
 20
-18.6669
 11
-16.9706
 21
-18.6706
  0
LINE
  8
0
 10
-16.9706
 20
-18.6706
 11
-17.0817
 21
-18.6669
  0
LINE
  8
0
 10
16.8594
 20
-18.6669
 11
16.7487
 21
-18.656
  0
LINE
  8
0
 10
16.7487
 20
-18.656
 11
16.6389
 21
-18.6379
  0
LINE
  8
0
 10
16.6389
 20
-18.6379
 11
16.5306
 21
-18.6126
  0
LINE
  8
0
 10
16.5306
 20
-18.6126
 11
16.4241
 21
-18.5803
  0
LINE
  8
0
 10
16.4241
 20
-18.5803
 11
16.32
 21
-18.5412
  0
LINE
  8
0
 10
16.32
 20
-18.5412
 11
16.2187
 21
-18.4952
  0
LINE
  8
0
 10
16.2187
 20
-18.4952
 11
16.1206
 21
-18.4428
  0
LINE
  8
0
 10
16.1206
 20
-18.4428
 11
16.0261
 21
-18.384
  0
LINE
  8
0
 10
16.0261
 20
-18.384
 11
15.9357
 21
-18.3193
  0
LINE
  8
0
 10
15.9357
 20
-18.3193
 11
15.8497
 21
-18.2487
  0
LINE
  8
0
 10
15.8497
 20
-18.2487
 11
15.7685
 21
-18.1726
  0
LINE
  8
0
 10
15.7685
 20
-18.1726
 11
15.6924
 21
-18.0914
  0
LINE
  8
0
 10
15.6924
 20
-18.0914
 11
15.6219
 21
-18.0054
  0
LINE
  8
0
 10
15.6219
 20
-18.0054
 11
15.5571
 21
-17.915
  0
LINE
  8
0
 10
15.5571
 20
-17.915
 11
15.4983
 21
-17.8206
  0
LINE
  8
0
 10
15.4983
 20
-17.8206
 11
15.4459
 21
-17.7224
  0
LINE
  8
0
 10
15.4459
 20
-17.7224
 11
15.4
 21
-17.6211
  0
LINE
  8
0
 10
15.4
 20
-17.6211
 11
15.3608
 21
-17.517
  0
LINE
  8
0
 10
15.3608
 20
-17.517
 11
15.3285
 21
-17.4106
  0
LINE
  8
0
 10
15.3285
 20
-17.4106
 11
15.3032
 21
-17.3022
  0
LINE
  8
0
 10
15.3032
 20
-17.3022
 11
15.2851
 21
-17.1924
  0
LINE
  8
0
 10
15.2851
 20
-17.1924
 11
15.2742
 21
-17.0817
  0
LINE
  8
0
 10
15.2742
 20
-17.0817
 11
15.2706
 21
-16.9706
  0
LINE
  8
0
 10
15.2706
 20
-16.9706
 11
15.2742
 21
-16.8594
  0
LINE
  8
0
 10
15.2742
 20
-16.8594
 11
15.2851
 21
-16.7487
  0
LINE
  8
0
 10
15.2851
 20
-16.7487
 11
15.3032
 21
-16.6389
  0
LINE
  8
0
 10
15.3032
 20
-16.6389
 11
15.3285
 21
-16.5306
  0
LINE
  8
0
 10
15.3285
 20
-16.5306
 11
15.3608
 21
-16.4241
  0
LINE
  8
0
 10
15.3608
 20
-16.4241
 11
15.4
 21
-16.32
  0
LINE
  8
0
 10
15.4
 20
-16.32
 11
15.4459
 21
-16.2187
  0
LINE
  8
0
 10
15.4459
 20
-16.2187
 11
15.4983
 21
-16.1206
  0
LINE
  8
0
 10
15.4983
 20
-16.1206
 11
15.5571
 21
-16.0261
  0
LINE
  8
0
 10
15.5571
 20
-16.0261
 11
15.6219
 21
-15.9357
  0
LINE
  8
0
 10
15.6219
 20
-15.9357
 11
15.6924
 21
-15.8497
  0
LINE
  8
0
 10
15.6924
 20
-15.8497
 11
15.7685
 21
-15.7685
  0
LINE
  8
0
 10
15.7685
 20
-15.7685
 11
15.8497
 21
-15.6924
  0
LINE
  8
0
 10
15.8497
 20
-15.6924
 11
15.9357
 21
-15.6219
  0
LINE
  8
0
 10
15.9357
 20
-15.6219
 11
16.0261
 21
-15.5571
  0
LINE
  8
0
 10
16.0261
 20
-15.5571
 11
16.1206
 21
-15.4983
  0
LINE
  8
0
 10
16.1206
 20
-15.4983
 11
16.2187
 21
-15.4459
  0
LINE
  8
0
 10
16.2187
 20
-15.4459
 11
16.32
 21
-15.4
  0
LINE
  8
0
 10
16.32
 20
-15.4
 11
16.4241
 21
-15.3608
  0
LINE
  8
0
 10
16.4241
 20
-15.3608
 11
16.5306
 21
-15.3285
  0
LINE
  8
0
 10
16.5306
 20
-15.3285
 11
16.6389
 21
-15.3032
  0
LINE
  8
0
 10
16.6389
 20
-15.3032
 11
16.7487
 21
-15.2851
  0
LINE
  8
0
 10
16.7487
 20
-15.2851
 11
16.8594
 21
-15.2742
  0
LINE
  8
0
 10
16.8594
 20
-15.2742
 11
16.9706
 21
-15.2706
  0
LINE
  8
0
 10
16.9706
 20
-15.2706
 11
17.0817
 21
-15.2742
  0
LINE
  8
0
 10
17.0817
 20
-15.2742
 11
17.1924
 21
-15.2851
  0
LINE
  8
0
 10
17.1924
 20
-15.2851
 11
17.3022
 21
-15.3032
  0
LINE
  8
0
 10
17.3022
 20
-15.3032
 11
17.4106
 21
-15.3285
  0
LINE
  8
0
 10
17.4106
 20
-15.3285
 11
17.517
 21
-15.3608
  0
LINE
  8
0
 10
17.517
 20
-15.3608
 11
17.6211
 21
-15.4
  0
LINE
  8
0
 10
17.6211
 20
-15.4
 11
17.7224
 21
-15.4459
  0
LINE
  8
0
 10
17.7224
 20
-15.4459
 11
17.8206
 21
-15.4983
  0
LINE
  8
0
 10
17.8206
 20
-15.4983
 11
17.915
 21
-15.5571
  0
LINE
  8
0
 10
17.915
 20
-15.5571
 11
18.0054
 21
-15.6219
  0
LINE
  8
0
 10
18.0054
 20
-15.6219
 11
18.0914
 21
-15.6924
  0
LINE
  8
0
 10
18.0914
 20
-15.6924
 11
18.1726
 21
-15.7685
  0
LINE
  8
0
 10
18.1726
 20
-15.7685
 11
18.2487
 21
-15.8497
  0
LINE
  8
0
 10
18.2487
 20
-15.8497
 11
18.3193
 21
-15.9357
  0
LINE
  8
0
 10
18.3193
 20
-15.9357
 11
18.384
 21
-16.0261
  0
LINE
  8
0
 10
18.384
 20
-16.0261
 11
18.4428
 21
-16.1206
  0
LINE
  8
0
 10
18.4428
 20
-16.1206
 11
18.4952
 21
-16.2187
  0
LINE
  8
0
 10
18.4952
 20
-16.2187
 11
18.5412
 21
-16.32
  0
LINE
  8
0
 10
18.5412
 20
-16.32
 11
18.5803
 21
-16.4241
  0
LINE
  8
0
 10
18.5803
 20
-16.4241
 11
18.6126
 21
-16.5306
  0
LINE
  8
0
 10
18.6126
 20
-16.5306
 11
18.6379
 21
-16.6389
  0
LINE
  8
0
 10
18.6379
 20
-16.6389
 11
18.656
 21
-16.7487
  0
LINE
  8
0
 10
18.656
 20
-16.7487
 11
18.6669
 21
-16.8594
  0
LINE
  8
0
 10
18.6669
 20
-16.8594
 11
18.6706
 21
-16.9706
  0
LINE
  8
0
 10
18.6706
 20
-16.9706
 11
18.6669
 21
-17.0817
  0
LINE
  8
0
 10
18.6669
 20
-17.0817
 11
18.656
 21
-17.1924
  0
LINE
  8
0
 10
18.656
 20
-17.1924
 11
18.6379
 21
-17.3022
  0
LINE
  8
0
 10
18.6379
 20
-17.3022
 11
18.6126
 21
-17.4106
  0
LINE
  8
0
 10
18.6126
 20
-17.4106
 11
18.5803
 21
-17.517
  0
LINE
  8
0
 10
18.5803
 20
-17.517
 11
18.5412
 21
-17.6211
  0
LINE
  8
0
 10
18.5412
 20
-17.6211
 11
18.4952
 21
-17.7224
  0
LINE
  8
0
 10
18.4952
 20
-17.7224
 11
18.4428
 21
-17.8206
  0
LINE
  8
0
 10
18.4428
 20
-17.8206
 11
18.384
 21
-17.915
  0
LINE
  8
0
 10
18.384
 20
-17.915
 11
18.3193
 21
-18.0054
  0
LINE
  8
0
 10
18.3193
 20
-18.0054
 11
18.2487
 21
-18.0914
  0
LINE
  8
0
 10
18.2487
 20
-18.0914
 11
18.1726
 21
-18.1726
  0
LINE
  8
0
 10
18.1726
 20
-18.1726
 11
18.0914
 21
-18.2487
  0
LINE
  8
0
 10
18.0914
 20
-18.2487
 11
18.0054
 21
-18.3193
  0
LINE
  8
0
 10
18.0054
 20
-18.3193
 11
17.915
 21
-18.384
  0
LINE
  8
0
 10
17.915
 20
-18.384
 11
17.8206
 21
-18.4428
  0
LINE
  8
0
 10
17.8206
 20
-18.4428
 11
17.7224
 21
-18.4952
  0
LINE
  8
0
 10
17.7224
 20
-18.4952
 11
17.6211
 21
-18.5412
  0
LINE
  8
0
 10
17.6211
 20
-18.5412
 11
17.517
 21
-18.5803
  0
LINE
  8
0
 10
17.517
 20
-18.5803
 11
17.4106
 21
-18.6126
  0
LINE
  8
0
 10
17.4106
 20
-18.6126
 11
17.3022
 21
-18.6379
  0
LINE
  8
0
 10
17.3022
 20
-18.6379
 11
17.1924
 21
-18.656
  0
LINE
  8
0
 10
17.1924
 20
-18.656
 11
17.0817
 21
-18.6669
  0
LINE
  8
0
 10
17.0817
 20
-18.6669
 11
16.9706
 21
-18.6706
  0
LINE
  8
0
 10
16.9706
 20
-18.6706
 11
16.8594
 21
-18.6669
  0
LINE
  8
0
 10
22.8888
 20
-51.6964
 11
22.7781
 21
-51.6855
  0
LINE
  8
0
 10
22.7781
 20
-51.6855
 11
22.6683
 21
-51.6673
  0
LINE
  8
0
 10
22.6683
 20
-51.6673
 11
22.56
 21
-51.6421
  0
LINE
  8
0
 10
22.56
 20
-51.6421
 11
22.4536
 21
-51.6098
  0
LINE
  8
0
 10
22.4536
 20
-51.6098
 11
22.3494
 21
-51.5706
  0
LINE
  8
0
 10
22.3494
 20
-51.5706
 11
22.2481
 21
-51.5247
  0
LINE
  8
0
 10
22.2481
 20
-51.5247
 11
22.15
 21
-51.4722
  0
LINE
  8
0
 10
22.15
 20
-51.4722
 11
22.0555
 21
-51.4135
  0
LINE
  8
0
 10
22.0555
 20
-51.4135
 11
21.9651
 21
-51.3487
  0
LINE
  8
0
 10
21.9651
 20
-51.3487
 11
21.8791
 21
-51.2781
  0
LINE
  8
0
 10
21.8791
 20
-51.2781
 11
21.7979
 21
-51.2021
  0
LINE
  8
0
 10
21.7979
 20
-51.2021
 11
21.7219
 21
-51.1209
  0
LINE
  8
0
 10
21.7219
 20
-51.1209
 11
21.6513
 21
-51.0349
  0
LINE
  8
0
 10
21.6513
 20
-51.0349
 11
21.5865
 21
-50.9445
  0
LINE
  8
0
 10
21.5865
 20
-50.9445
 11
21.5278
 21
-50.85
  0
LINE
  8
0
 10
21.5278
 20
-50.85
 11
21.4753
 21
-50.7519
  0
LINE
  8
0
 10
21.4753
 20
-50.7519
 11
21.4294
 21
-50.6506
  0
LINE
  8
0
 10
21.4294
 20
-50.6506
 11
21.3902
 21
-50.5464
  0
LINE
  8
0
 10
21.3902
 20
-50.5464
 11
21.3579
 21
-50.44
  0
LINE
  8
0
 10
21.3579
 20
-50.44
 11
21.3327
 21
-50.3316
  0
LINE
  8
0
 10
21.3327
 20
-50.3316
 11
21.3145
 21
-50.2219
  0
LINE
  8
0
 10
21.3145
 20
-50.2219
 11
21.3036
 21
-50.1112
  0
LINE
  8
0
 10
21.3036
 20
-50.1112
 11
21.3
 21
-50
  0
LINE
  8
0
 10
21.3
 20
-50
 11
21.3036
 21
-49.8888
  0
LINE
  8
0
 10
21.3036
 20
-49.8888
 11
21.3145
 21
-49.7781
  0
LINE
  8
0
 10
21.3145
 20
-49.7781
 11
21.3327
 21
-49.6683
  0
LINE
  8
0
 10
21.3327
 20
-49.6683
 11
21.3579
 21
-49.56
  0
LINE
  8
0
 10
21.3579
 20
-49.56
 11
21.3902
 21
-49.4536
  0
LINE
  8
0
 10
21.3902
 20
-49.4536
 11
21.4294
 21
-49.3494
  0
LINE
  8
0
 10
21.4294
 20
-49.3494
 11
21.4753
 21
-49.2481
  0
LINE
  8
0
 10
21.4753
 20
-49.2481
 11
21.5278
 21
-49.15
  0
LINE
  8
0
 10
21.5278
 20
-49.15
 11
21.5865
 21
-49.0555
  0
LINE
  8
0
 10
21.5865
 20
-49.0555
 11
21.6513
 21
-48.9651
  0
LINE
  8
0
 10
21.6513
 20
-48.9651
 11
21.7219
 21
-48.8791
  0
LINE
  8
0
 10
21.7219
 20
-48.8791
 11
21.7979
 21
-48.7979
  0
LINE
  8
0
 10
21.7979
 20
-48.7979
 11
21.8791
 21
-48.7219
  0
LINE
  8
0
 10
21.8791
 20
-48.7219
 11
21.9651
 21
-48.6513
  0
LINE
  8
0
 10
21.9651
 20
-48.6513
 11
22.0555
 21
-48.5865
  0
LINE
  8
0
 10
22.0555
 20
-48.5865
 11
22.15
 21
-48.5278
  0
LINE
  8
0
 10
22.15
 20
-48.5278
 11
22.2481
 21
-48.4753
  0
LINE
  8
0
 10
22.2481
 20
-48.4753
 11
22.3494
 21
-48.4294
  0
LINE
  8
0
 10
22.3494
 20
-48.4294
 11
22.4536
 21
-48.3902
  0
LINE
  8
0
 10
22.4536
 20
-48.3902
 11
22.56
 21
-48.3579
  0
LINE
  8
0
 10
22.56
 20
-48.3579
 11
22.6683
 21
-48.3327
  0
LINE
  8
0
 10
22.6683
 20
-48.3327
 11
22.7781
 21
-48.3145
  0
LINE
  8
0
 10
22.7781
 20
-48.3145
 11
22.8888
 21
-48.3036
  0
LINE
  8
0
 10
22.8888
 20
-48.3036
 11
23
 21
-48.3
  0
LINE
  8
0
 10
23
 20
-48.3
 11
23.1112
 21
-48.3036
  0
LINE
  8
0
 10
23.1112
 20
-48.3036
 11
23.2219
 21
-48.3145
  0
LINE
  8
0
 10
23.2219
 20
-48.3145
 11
23.3316
 21
-48.3327
  0
LINE
  8
0
 10
23.3316
 20
-48.3327
 11
23.44
 21
-48.3579
  0
LINE
  8
0
 10
23.44
 20
-48.3579
 11
23.5464
 21
-48.3902
  0
LINE
  8
0
 10
23.5464
 20
-48.3902
 11
23.6506
 21
-48.4294
  0
LINE
  8
0
 10
23.6506
 20
-48.4294
 11
23.7519
 21
-48.4753
  0
LINE
  8
0
 10
23.7519
 20
-48.4753
 11
23.85
 21
-48.5278
  0
LINE
  8
0
 10
23.85
 20
-48.5278
 11
23.9445
 21
-48.5865
  0
LINE
  8
0
 10
23.9445
 20
-48.5865
 11
24.0349
 21
-48.6513
  0
LINE
  8
0
 10
24.0349
 20
-48.6513
 11
24.1209
 21
-48.7219
  0
LINE
  8
0
 10
24.1209
 20
-48.7219
 11
24.2021
 21
-48.7979
  0
LINE
  8
0
 10
24.2021
 20
-48.7979
 11
24.2781
 21
-48.8791
  0
LINE
  8
0
 10
24.2781
 20
-48.8791
 11
24.3487
 21
-48.9651
  0
LINE
  8
0
 10
24.3487
 20
-48.9651
 11
24.4135
 21
-49.0555
  0
LINE
  8
0
 10
24.4135
 20
-49.0555
 11
24.4722
 21
-49.15
  0
LINE
  8
0
 10
24.4722
 20
-49.15
 11
24.5247
 21
-49.2481
  0
LINE
  8
0
 10
24.5247
 20
-49.2481
 11
24.5706
 21
-49.3494
  0
LINE
  8
0
 10
24.5706
 20
-49.3494
 11
24.6098
 21
-49.4536
  0
LINE
  8
0
 10
24.6098
 20
-49.4536
 11
24.6421
 21
-49.56
  0
LINE
  8
0
 10
24.6421
 20
-49.56
 11
24.6673
 21
-49.6683
  0
LINE
  8
0
 10
24.6673
 20
-49.6683
 11
24.6855
 21
-49.7781
  0
LINE
  8
0
 10
24.6855
 20
-49.7781
 11
24.6964
 21
-49.8888
  0
LINE
  8
0
 10
24.6964
 20
-49.8888
 11
24.7
 21
-50
  0
LINE
  8
0
 10
24.7
 20
-50
 11
24.6964
 21
-50.1112
  0
LINE
  8
0
 10
24.6964
 20
-50.1112
 11
24.6855
 21
-50.2219
  0
LINE
  8
0
 10
24.6855
 20
-50.2219
 11
24.6673
 21
-50.3316
  0
LINE
  8
0
 10
24.6673
 20
-50.3316
 11
24.6421
 21
-50.44
  0
LINE
  8
0
 10
24.6421
 20
-50.44
 11
24.6098
 21
-50.5464
  0
LINE
  8
0
 10
24.6098
 20
-50.5464
 11
24.5706
 21
-50.6506
  0
LINE
  8
0
 10
24.5706
 20
-50.6506
 11
24.5247
 21
-50.7519
  0
LINE
  8
0
 10
24.5247
 20
-50.7519
 11
24.4722
 21
-50.85
  0
LINE
  8
0
 10
24.4722
 20
-50.85
 11
24.4135
 21
-50.9445
  0
LINE
  8
0
 10
24.4135
 20
-50.9445
 11
24.3487
 21
-51.0349
  0
LINE
  8
0
 10
24.3487
 20
-51.0349
 11
24.2781
 21
-51.1209
  0
LINE
  8
0
 10
24.2781
 20
-51.1209
 11
24.2021
 21
-51.2021
  0
LINE
  8
0
 10
24.2021
 20
-51.2021
 11
24.1209
 21
-51.2781
  0
LINE
  8
0
 10
24.1209
 20
-51.2781
 11
24.0349
 21
-51.3487
  0
LINE
  8
0
 10
24.0349
 20
-51.3487
 11
23.9445
 21
-51.4135
  0
LINE
  8
0
 10
23.9445
 20
-51.4135
 11
23.85
 21
-51.4722
  0
LINE
  8
0
 10
23.85
 20
-51.4722
 11
23.7519
 21
-51.5247
  0
LINE
  8
0
 10
23.7519
 20
-51.5247
 11
23.6506
 21
-51.5706
  0
LINE
  8
0
 10
23.6506
 20
-51.5706
 11
23.5464
 21
-51.6098
  0
LINE
  8
0
 10
23.5464
 20
-51.6098
 11
23.44
 21
-51.6421
  0
LINE
  8
0
 10
23.44
 20
-51.6421
 11
23.3316
 21
-51.6673
  0
LINE
  8
0
 10
23.3316
 20
-51.6673
 11
23.2219
 21
-51.6855
  0
LINE
  8
0
 10
23.2219
 20
-51.6855
 11
23.1112
 21
-51.6964
  0
LINE
  8
0
 10
23.1112
 20
-51.6964
 11
23
 21
-51.7
  0
LINE
  8
0
 10
23
 20
-51.7
 11
22.8888
 21
-51.6964
  0
LINE
  8
0
 10
68.8888
 20
-51.6964
 11
68.7781
 21
-51.6855
  0
LINE
  8
0
 10
68.7781
 20
-51.6855
 11
68.6683
 21
-51.6673
  0
LINE
  8
0
 10
68.6683
 20
-51.6673
 11
68.56
 21
-51.6421
  0
LINE
  8
0
 10
68.56
 20
-51.6421
 11
68.4536
 21
-51.6098
  0
LINE
  8
0
 10
68.4536
 20
-51.6098
 11
68.3494
 21
-51.5706
  0
LINE
  8
0
 10
68.3494
 20
-51.5706
 11
68.2481
 21
-51.5247
  0
LINE
  8
0
 10
68.2481
 20
-51.5247
 11
68.15
 21
-51.4722
  0
LINE
  8
0
 10
68.15
 20
-51.4722
 11
68.0555
 21
-51.4135
  0
LINE
  8
0
 10
68.0555
 20
-51.4135
 11
67.9651
 21
-51.3487
  0
LINE
  8
0
 10
67.9651
 20
-51.3487
 11
67.8791
 21
-51.2781
  0
LINE
  8
0
 10
67.8791
 20
-51.2781
 11
67.7979
 21
-51.2021
  0
LINE
  8
0
 10
67.7979
 20
-51.2021
 11
67.7219
 21
-51.1209
  0
LINE
  8
0
 10
67.7219
 20
-51.1209
 11
67.6513
 21
-51.0349
  0
LINE
  8
0
 10
67.6513
 20
-51.0349
 11
67.5865
 21
-50.9445
  0
LINE
  8
0
 10
67.5865
 20
-50.9445
 11
67.5278
 21
-50.85
  0
LINE
  8
0
 10
67.5278
 20
-50.85
 11
67.4753
 21
-50.7519
  0
LINE
  8
0
 10
67.4753
 20
-50.7519
 11
67.4294
 21
-50.6506
  0
LINE
  8
0
 10
67.4294
 20
-50.6506
 11
67.3902
 21
-50.5464
  0
LINE
  8
0
 10
67.3902
 20
-50.5464
 11
67.3579
 21
-50.44
  0
LINE
  8
0
 10
67.3579
 20
-50.44
 11
67.3327
 21
-50.3316
  0
LINE
  8
0
 10
67.3327
 20
-50.3316
 11
67.3145
 21
-50.2219
  0
LINE
  8
0
 10
67.3145
 20
-50.2219
 11
67.3036
 21
-50.1112
  0
LINE
  8
0
 10
67.3036
 20
-50.1112
 11
67.3
 21
-50
  0
LINE
  8
0
 10
67.3
 20
-50
 11
67.3036
 21
-49.8888
  0
LINE
  8
0
 10
67.3036
 20
-49.8888
 11
67.3145
 21
-49.7781
  0
LINE
  8
0
 10
67.3145
 20
-49.7781
 11
67.3327
 21
-49.6683
  0
LINE
  8
0
 10
67.3327
 20
-49.6683
 11
67.3579
 21
-49.56
  0
LINE
  8
0
 10
67.3579
 20
-49.56
 11
67.3902
 21
-49.4536
  0
LINE
  8
0
 10
67.3902
 20
-49.4536
 11
67.4294
 21
-49.3494
  0
LINE
  8
0
 10
67.4294
 20
-49.3494
 11
67.4753
 21
-49.2481
  0
LINE
  8
0
 10
67.4753
 20
-49.2481
 11
67.5278
 21
-49.15
  0
LINE
  8
0
 10
67.5278
 20
-49.15
 11
67.5865
 21
-49.0555
  0
LINE
  8
0
 10
67.5865
 20
-49.0555
 11
67.6513
 21
-48.9651
  0
LINE
  8
0
 10
67.6513
 20
-48.9651
 11
67.7219
 21
-48.8791
  0
LINE
  8
0
 10
67.7219
 20
-48.8791
 11
67.7979
 21
-48.7979
  0
LINE
  8
0
 10
67.7979
 20
-48.7979
 11
67.8791
 21
-48.7219
  0
LINE
  8
0
 10
67.8791
 20
-48.7219
 11
67.9651
 21
-48.6513
  0
LINE
  8
0
 10
67.9651
 20
-48.6513
 11
68.0555
 21
-48.5865
  0
LINE
  8
0
 10
68.0555
 20
-48.5865
 11
68.15
 21
-48.5278
  0
LINE
  8
0
 10
68.15
 20
-48.5278
 11
68.2481
 21
-48.4753
  0
LINE
  8
0
 10
68.2481
 20
-48.4753
 11
68.3494
 21
-48.4294
  0
LINE
  8
0
 10
68.3494
 20
-48.4294
 11
68.4536
 21
-48.3902
  0
LINE
  8
0
 10
68.4536
 20
-48.3902
 11
68.56
 21
-48.3579
  0
LINE
  8
0
 10
68.56
 20
-48.3579
 11
68.6683
 21
-48.3327
  0
LINE
  8
0
 10
68.6683
 20
-48.3327
 11
68.7781
 21
-48.3145
  0
LINE
  8
0
 10
68.7781
 20
-48.3145
 11
68.8888
 21
-48.3036
  0
LINE
  8
0
 10
68.8888
 20
-48.3036
 11
69
 21
-48.3
  0
LINE
  8
0
 10
69
 20
-48.3
 11
69.1112
 21
-48.3036
  0
LINE
  8
0
 10
69.1112
 20
-48.3036
 11
69.2219
 21
-48.3145
  0
LINE
  8
0
 10
69.2219
 20
-48.3145
 11
69.3316
 21
-48.3327
  0
LINE
  8
0
 10
69.3316
 20
-48.3327
 11
69.44
 21
-48.3579
  0
LINE
  8
0
 10
69.44
 20
-48.3579
 11
69.5464
 21
-48.3902
  0
LINE
  8
0
 10
69.5464
 20
-48.3902
 11
69.6506
 21
-48.4294
  0
LINE
  8
0
 10
69.6506
 20
-48.4294
 11
69.7519
 21
-48.4753
  0
LINE
  8
0
 10
69.7519
 20
-48.4753
 11
69.85
 21
-48.5278
  0
LINE
  8
0
 10
69.85
 20
-48.5278
 11
69.9445
 21
-48.5865
  0
LINE
  8
0
 10
69.9445
 20
-48.5865
 11
70.0349
 21
-48.6513
  0
LINE
  8
0
 10
70.0349
 20
-48.6513
 11
70.1209
 21
-48.7219
  0
LINE
  8
0
 10
70.1209
 20
-48.7219
 11
70.2021
 21
-48.7979
  0
LINE
  8
0
 10
70.2021
 20
-48.7979
 11
70.2781
 21
-48.8791
  0
LINE
  8
0
 10
70.2781
 20
-48.8791
 11
70.3487
 21
-48.9651
  0
LINE
  8
0
 10
70.3487
 20
-48.9651
 11
70.4135
 21
-49.0555
  0
LINE
  8
0
 10
70.4135
 20
-49.0555
 11
70.4722
 21
-49.15
  0
LINE
  8
0
 10
70.4722
 20
-49.15
 11
70.5247
 21
-49.2481
  0
LINE
  8
0
 10
70.5247
 20
-49.2481
 11
70.5706
 21
-49.3494
  0
LINE
  8
0
 10
70.5706
 20
-49.3494
 11
70.6098
 21
-49.4536
  0
LINE
  8
0
 10
70.6098
 20
-49.4536
 11
70.6421
 21
-49.56
  0
LINE
  8
0
 10
70.6421
 20
-49.56
 11
70.6673
 21
-49.6683
  0
LINE
  8
0
 10
70.6673
 20
-49.6683
 11
70.6855
 21
-49.7781
  0
LINE
  8
0
 10
70.6855
 20
-49.7781
 11
70.6964
 21
-49.8888
  0
LINE
  8
0
 10
70.6964
 20
-49.8888
 11
70.7
 21
-50
  0
LINE
  8
0
 10
70.7
 20
-50
 11
70.6964
 21
-50.1112
  0
LINE
  8
0
 10
70.6964
 20
-50.1112
 11
70.6855
 21
-50.2219
  0
LINE
  8
0
 10
70.6855
 20
-50.2219
 11
70.6673
 21
-50.3316
  0
LINE
  8
0
 10
70.6673
 20
-50.3316
 11
70.6421
 21
-50.44
  0
LINE
  8
0
 10
70.6421
 20
-50.44
 11
70.6098
 21
-50.5464
  0
LINE
  8
0
 10
70.6098
 20
-50.5464
 11
70.5706
 21
-50.6506
  0
LINE
  8
0
 10
70.5706
 20
-50.6506
 11
70.5247
 21
-50.7519
  0
LINE
  8
0
 10
70.5247
 20
-50.7519
 11
70.4722
 21
-50.85
  0
LINE
  8
0
 10
70.4722
 20
-50.85
 11
70.4135
 21
-50.9445
  0
LINE
  8
0
 10
70.4135
 20
-50.9445
 11
70.3487
 21
-51.0349
  0
LINE
  8
0
 10
70.3487
 20
-51.0349
 11
70.2781
 21
-51.1209
  0
LINE
  8
0
 10
70.2781
 20
-51.1209
 11
70.2021
 21
-51.2021
  0
LINE
  8
0
 10
70.2021
 20
-51.2021
 11
70.1209
 21
-51.2781
  0
LINE
  8
0
 10
70.1209
 20
-51.2781
 11
70.0349
 21
-51.3487
  0
LINE
  8
0
 10
70.0349
 20
-51.3487
 11
69.9445
 21
-51.4135
  0
LINE
  8
0
 10
69.9445
 20
-51.4135
 11
69.85
 21
-51.4722
  0
LINE
  8
0
 10
69.85
 20
-51.4722
 11
69.7519
 21
-51.5247
  0
LINE
  8
0
 10
69.7519
 20
-51.5247
 11
69.6506
 21
-51.5706
  0
LINE
  8
0
 10
69.6506
 20
-51.5706
 11
69.5464
 21
-51.6098
  0
LINE
  8
0
 10
69.5464
 20
-51.6098
 11
69.44
 21
-51.6421
  0
LINE
  8
0
 10
69.44
 20
-51.6421
 11
69.3316
 21
-51.6673
  0
LINE
  8
0
 10
69.3316
 20
-51.6673
 11
69.2219
 21
-51.6855
  0
LINE
  8
0
 10
69.2219
 20
-51.6855
 11
69.1112
 21
-51.6964
  0
LINE
  8
0
 10
69.1112
 20
-51.6964
 11
69
 21
-51.7
  0
LINE
  8
0
 10
69
 20
-51.7
 11
68.8888
 21
-51.6964
  0
LINE
  8
0
 10
-89.1472
 20
-57.2452
 11
-89.2937
 21
-57.2307
  0
LINE
  8
0
 10
-89.2937
 20
-57.2307
 11
-89.4389
 21
-57.2068
  0
LINE
  8
0
 10
-89.4389
 20
-57.2068
 11
-89.5823
 21
-57.1733
  0
LINE
  8
0
 10
-89.5823
 20
-57.1733
 11
-89.7232
 21
-57.1306
  0
LINE
  8
0
 10
-89.7232
 20
-57.1306
 11
-89.861
 21
-57.0787
  0
LINE
  8
0
 10
-89.861
 20
-57.0787
 11
-89.9951
 21
-57.018
  0
LINE
  8
0
 10
-89.9951
 20
-57.018
 11
-90.125
 21
-56.9485
  0
LINE
  8
0
 10
-90.125
 20
-56.9485
 11
-90.25
 21
-56.8708
  0
LINE
  8
0
 10
-90.25
 20
-56.8708
 11
-90.3697
 21
-56.785
  0
LINE
  8
0
 10
-90.3697
 20
-56.785
 11
-90.4835
 21
-56.6916
  0
LINE
  8
0
 10
-90.4835
 20
-56.6916
 11
-90.591
 21
-56.591
  0
LINE
  8
0
 10
-90.591
 20
-56.591
 11
-90.6916
 21
-56.4835
  0
LINE
  8
0
 10
-90.6916
 20
-56.4835
 11
-90.785
 21
-56.3697
  0
LINE
  8
0
 10
-90.785
 20
-56.3697
 11
-90.8708
 21
-56.25
  0
LINE
  8
0
 10
-90.8708
 20
-56.25
 11
-90.9485
 21
-56.125
  0
LINE
  8
0
 10
-90.9485
 20
-56.125
 11
-91.018
 21
-55.9951
  0
LINE
  8
0
 10
-91.018
 20
-55.9951
 11
-91.0787
 21
-55.861
  0
LINE
  8
0
 10
-91.0787
 20
-55.861
 11
-91.1306
 21
-55.7232
  0
LINE
  8
0
 10
-91.1306
 20
-55.7232
 11
-91.1733
 21
-55.5823
  0
LINE
  8
0
 10
-91.1733
 20
-55.5823
 11
-91.2068
 21
-55.4389
  0
LINE
  8
0
 10
-91.2068
 20
-55.4389
 11
-91.2307
 21
-55.2937
  0
LINE
  8
0
 10
-91.2307
 20
-55.2937
 11
-91.2452
 21
-55.1472
  0
LINE
  8
0
 10
-91.2452
 20
-55.1472
 11
-91.25
 21
-55
  0
LINE
  8
0
 10
-91.25
 20
-55
 11
-91.2452
 21
-54.8528
  0
LINE
  8
0
 10
-91.2452
 20
-54.8528
 11
-91.2307
 21
-54.7063
  0
LINE
  8
0
 10
-91.2307
 20
-54.7063
 11
-91.2068
 21
-54.561
  0
LINE
  8
0
 10
-91.2068
 20
-54.561
 11
-91.1733
 21
-54.4176
  0
LINE
  8
0
 10
-91.1733
 20
-54.4176
 11
-91.1306
 21
-54.2767
  0
LINE
  8
0
 10
-91.1306
 20
-54.2767
 11
-91.0787
 21
-54.139
  0
LINE
  8
0
 10
-91.0787
 20
-54.139
 11
-91.018
 21
-54.0048
  0
LINE
  8
0
 10
-91.018
 20
-54.0048
 11
-90.9485
 21
-53.875
  0
LINE
  8
0
 10
-90.9485
 20
-53.875
 11
-90.8708
 21
-53.75
  0
LINE
  8
0
 10
-90.8708
 20
-53.75
 11
-90.785
 21
-53.6303
  0
LINE
  8
0
 10
-90.785
 20
-53.6303
 11
-90.6916
 21
-53.5165
  0
LINE
  8
0
 10
-90.6916
 20
-53.5165
 11
-90.591
 21
-53.409
  0
LINE
  8
0
 10
-90.591
 20
-53.409
 11
-90.4835
 21
-53.3083
  0
LINE
  8
0
 10
-90.4835
 20
-53.3083
 11
-90.3697
 21
-53.215
  0
LINE
  8
0
 10
-90.3697
 20
-53.215
 11
-90.25
 21
-53.1292
  0
LINE
  8
0
 10
-90.25
 20
-53.1292
 11
-90.125
 21
-53.0514
  0
LINE
  8
0
 10
-90.125
 20
-53.0514
 11
-89.9951
 21
-52.982
  0
LINE
  8
0
 10
-89.9951
 20
-52.982
 11
-89.861
 21
-52.9213
  0
LINE
  8
0
 10
-89.861
 20
-52.9213
 11
-89.7232
 21
-52.8694
  0
LINE
  8
0
 10
-89.7232
 20
-52.8694
 11
-89.5823
 21
-52.8267
  0
LINE
  8
0
 10
-89.5823
 20
-52.8267
 11
-89.4389
 21
-52.7932
  0
LINE
  8
0
 10
-89.4389
 20
-52.7932
 11
-89.2937
 21
-52.7692
  0
LINE
  8
0
 10
-89.2937
 20
-52.7692
 11
-89.1472
 21
-52.7548
  0
LINE
  8
0
 10
-89.1472
 20
-52.7548
 11
-89
 21
-52.75
  0
LINE
  8
0
 10
-89
 20
-52.75
 11
-88.8528
 21
-52.7548
  0
LINE
  8
0
 10
-88.8528
 20
-52.7548
 11
-88.7063
 21
-52.7692
  0
LINE
  8
0
 10
-88.7063
 20
-52.7692
 11
-88.561
 21
-52.7932
  0
LINE
  8
0
 10
-88.561
 20
-52.7932
 11
-88.4176
 21
-52.8267
  0
LINE
  8
0
 10
-88.4176
 20
-52.8267
 11
-88.2767
 21
-52.8694
  0
LINE
  8
0
 10
-88.2767
 20
-52.8694
 11
-88.139
 21
-52.9213
  0
LINE
  8
0
 10
-88.139
 20
-52.9213
 11
-88.0048
 21
-52.982
  0
LINE
  8
0
 10
-88.0048
 20
-52.982
 11
-87.875
 21
-53.0514
  0
LINE
  8
0
 10
-87.875
 20
-53.0514
 11
-87.75
 21
-53.1292
  0
LINE
  8
0
 10
-87.75
 20
-53.1292
 11
-87.6303
 21
-53.215
  0
LINE
  8
0
 10
-87.6303
 20
-53.215
 11
-87.5165
 21
-53.3083
  0
LINE
  8
0
 10
-87.5165
 20
-53.3083
 11
-87.409
 21
-53.409
  0
LINE
  8
0
 10
-87.409
 20
-53.409
 11
-87.3083
 21
-53.5165
  0
LINE
  8
0
 10
-87.3083
 20
-53.5165
 11
-87.215
 21
-53.6303
  0
LINE
  8
0
 10
-87.215
 20
-53.6303
 11
-87.1292
 21
-53.75
  0
LINE
  8
0
 10
-87.1292
 20
-53.75
 11
-87.0514
 21
-53.875
  0
LINE
  8
0
 10
-87.0514
 20
-53.875
 11
-86.982
 21
-54.0048
  0
LINE
  8
0
 10
-86.982
 20
-54.0048
 11
-86.9213
 21
-54.139
  0
LINE
  8
0
 10
-86.9213
 20
-54.139
 11
-86.8694
 21
-54.2767
  0
LINE
  8
0
 10
-86.8694
 20
-54.2767
 11
-86.8267
 21
-54.4176
  0
LINE
  8
0
 10
-86.8267
 20
-54.4176
 11
-86.7932
 21
-54.561
  0
LINE
  8
0
 10
-86.7932
 20
-54.561
 11
-86.7692
 21
-54.7063
  0
LINE
  8
0
 10
-86.7692
 20
-54.7063
 11
-86.7548
 21
-54.8528
  0
LINE
  8
0
 10
-86.7548
 20
-54.8528
 11
-86.75
 21
-55
  0
LINE
  8
0
 10
-86.75
 20
-55
 11
-86.7548
 21
-55.1472
  0
LINE
  8
0
 10
-86.7548
 20
-55.1472
 11
-86.7692
 21
-55.2937
  0
LINE
  8
0
 10
-86.7692
 20
-55.2937
 11
-86.7932
 21
-55.4389
  0
LINE
  8
0
 10
-86.7932
 20
-55.4389
 11
-86.8267
 21
-55.5823
  0
LINE
  8
0
 10
-86.8267
 20
-55.5823
 11
-86.8694
 21
-55.7232
  0
LINE
  8
0
 10
-86.8694
 20
-55.7232
 11
-86.9213
 21
-55.861
  0
LINE
  8
0
 10
-86.9213
 20
-55.861
 11
-86.982
 21
-55.9951
  0
LINE
  8
0
 10
-86.982
 20
-55.9951
 11
-87.0514
 21
-56.125
  0
LINE
  8
0
 10
-87.0514
 20
-56.125
 11
-87.1292
 21
-56.25
  0
LINE
  8
0
 10
-87.1292
 20
-56.25
 11
-87.215
 21
-56.3697
  0
LINE
  8
0
 10
-87.215
 20
-56.3697
 11
-87.3083
 21
-56.4835
  0
LINE
  8
0
 10
-87.3083
 20
-56.4835
 11
-87.409
 21
-56.591
  0
LINE
  8
0
 10
-87.409
 20
-56.591
 11
-87.5165
 21
-56.6916
  0
LINE
  8
0
 10
-87.5165
 20
-56.6916
 11
-87.6303
 21
-56.785
  0
LINE
  8
0
 10
-87.6303
 20
-56.785
 11
-87.75
 21
-56.8708
  0
LINE
  8
0
 10
-87.75
 20
-56.8708
 11
-87.875
 21
-56.9485
  0
LINE
  8
0
 10
-87.875
 20
-56.9485
 11
-88.0048
 21
-57.018
  0
LINE
  8
0
 10
-88.0048
 20
-57.018
 11
-88.139
 21
-57.0787
  0
LINE
  8
0
 10
-88.139
 20
-57.0787
 11
-88.2767
 21
-57.1306
  0
LINE
  8
0
 10
-88.2767
 20
-57.1306
 11
-88.4176
 21
-57.1733
  0
LINE
  8
0
 10
-88.4176
 20
-57.1733
 11
-88.561
 21
-57.2068
  0
LINE
  8
0
 10
-88.561
 20
-57.2068
 11
-88.7063
 21
-57.2307
  0
LINE
  8
0
 10
-88.7063
 20
-57.2307
 11
-88.8528
 21
-57.2452
  0
LINE
  8
0
 10
-88.8528
 20
-57.2452
 11
-89
 21
-57.25
  0
LINE
  8
0
 10
-89
 20
-57.25
 11
-89.1472
 21
-57.2452
  0
LINE
  8
0
 10
88.8528
 20
-57.2452
 11
88.7063
 21
-57.2307
  0
LINE
  8
0
 10
88.7063
 20
-57.2307
 11
88.561
 21
-57.2068
  0
LINE
  8
0
 10
88.561
 20
-57.2068
 11
88.4176
 21
-57.1733
  0
LINE
  8
0
 10
88.4176
 20
-57.1733
 11
88.2767
 21
-57.1306
  0
LINE
  8
0
 10
88.2767
 20
-57.1306
 11
88.139
 21
-57.0787
  0
LINE
  8
0
 10
88.139
 20
-57.0787
 11
88.0048
 21
-57.018
  0
LINE
  8
0
 10
88.0048
 20
-57.018
 11
87.875
 21
-56.9485
  0
LINE
  8
0
 10
87.875
 20
-56.9485
 11
87.75
 21
-56.8708
  0
LINE
  8
0
 10
87.75
 20
-56.8708
 11
87.6303
 21
-56.785
  0
LINE
  8
0
 10
87.6303
 20
-56.785
 11
87.5165
 21
-56.6916
  0
LINE
  8
0
 10
87.5165
 20
-56.6916
 11
87.409
 21
-56.591
  0
LINE
  8
0
 10
87.409
 20
-56.591
 11
87.3083
 21
-56.4835
  0
LINE
  8
0
 10
87.3083
 20
-56.4835
 11
87.215
 21
-56.3697
  0
LINE
  8
0
 10
87.215
 20
-56.3697
 11
87.1292
 21
-56.25
  0
LINE
  8
0
 10
87.1292
 20
-56.25
 11
87.0514
 21
-56.125
  0
LINE
  8
0
 10
87.0514
 20
-56.125
 11
86.982
 21
-55.9951
  0
LINE
  8
0
 10
86.982
 20
-55.9951
 11
86.9213
 21
-55.861
  0
LINE
  8
0
 10
86.9213
 20
-55.861
 11
86.8694
 21
-55.7232
  0
LINE
  8
0
 10
86.8694
 20
-55.7232
 11
86.8267
 21
-55.5823
  0
LINE
  8
0
 10
86.8267
 20
-55.5823
 11
86.7932
 21
-55.4389
  0
LINE
  8
0
 10
86.7932
 20
-55.4389
 11
86.7692
 21
-55.2937
  0
LINE
  8
0
 10
86.7692
 20
-55.2937
 11
86.7548
 21
-55.1472
  0
LINE
  8
0
 10
86.7548
 20
-55.1472
 11
86.75
 21
-55
  0
LINE
  8
0
 10
86.75
 20
-55
 11
86.7548
 21
-54.8528
  0
LINE
  8
0
 10
86.7548
 20
-54.8528
 11
86.7692
 21
-54.7063
  0
LINE
  8
0
 10
86.7692
 20
-54.7063
 11
86.7932
 21
-54.561
  0
LINE
  8
0
 10
86.7932
 20
-54.561
 11
86.8267
 21
-54.4176
  0
LINE
  8
0
 10
86.8267
 20
-54.4176
 11
86.8694
 21
-54.2767
  0
LINE
  8
0
 10
86.8694
 20
-54.2767
 11
86.9213
 21
-54.139
  0
LINE
  8
0
 10
86.9213
 20
-54.139
 11
86.982
 21
-54.0048
  0
LINE
  8
0
 10
86.982
 20
-54.0048
 11
87.0514
 21
-53.875
  0
LINE
  8
0
 10
87.0514
 20
-53.875
 11
87.1292
 21
-53.75
  0
LINE
  8
0
 10
87.1292
 20
-53.75
 11
87.215
 21
-53.6303
  0
LINE
  8
0
 10
87.215
 20
-53.6303
 11
87.3083
 21
-53.5165
  0
LINE
  8
0
 10
87.3083
 20
-53.5165
 11
87.409
 21
-53.409
  0
LINE
  8
0
 10
87.409
 20
-53.409
 11
87.5165
 21
-53.3083
  0
LINE
  8
0
 10
87.5165
 20
-53.3083
 11
87.6303
 21
-53.215
  0
LINE
  8
0
 10
87.6303
 20
-53.215
 11
87.75
 21
-53.1292
  0
LINE
  8
0
 10
87.75
 20
-53.1292
 11
87.875
 21
-53.0514
  0
LINE
  8
0
 10
87.875
 20
-53.0514
 11
88.0048
 21
-52.982
  0
LINE
  8
0
 10
88.0048
 20
-52.982
 11
88.139
 21
-52.9213
  0
LINE
  8
0
 10
88.139
 20
-52.9213
 11
88.2767
 21
-52.8694
  0
LINE
  8
0
 10
88.2767
 20
-52.8694
 11
88.4176
 21
-52.8267
  0
LINE
  8
0
 10
88.4176
 20
-52.8267
 11
88.561
 21
-52.7932
  0
LINE
  8
0
 10
88.561
 20
-52.7932
 11
88.7063
 21
-52.7692
  0
LINE
  8
0
 10
88.7063
 20
-52.7692
 11
88.8528
 21
-52.7548
  0
LINE
  8
0
 10
88.8528
 20
-52.7548
 11
89
 21
-52.75
  0
LINE
  8
0
 10
89
 20
-52.75
 11
89.1472
 21
-52.7548
  0
LINE
  8
0
 10
89.1472
 20
-52.7548
 11
89.2937
 21
-52.7692
  0
LINE
  8
0
 10
89.2937
 20
-52.7692
 11
89.4389
 21
-52.7932
  0
LINE
  8
0
 10
89.4389
 20
-52.7932
 11
89.5823
 21
-52.8267
  0
LINE
  8
0
 10
89.5823
 20
-52.8267
 11
89.7232
 21
-52.8694
  0
LINE
  8
0
 10
89.7232
 20
-52.8694
 11
89.861
 21
-52.9213
  0
LINE
  8
0
 10
89.861
 20
-52.9213
 11
89.9951
 21
-52.982
  0
LINE
  8
0
 10
89.9951
 20
-52.982
 11
90.125
 21
-53.0514
  0
LINE
  8
0
 10
90.125
 20
-53.0514
 11
90.25
 21
-53.1292
  0
LINE
  8
0
 10
90.25
 20
-53.1292
 11
90.3697
 21
-53.215
  0
LINE
  8
0
 10
90.3697
 20
-53.215
 11
90.4835
 21
-53.3083
  0
LINE
  8
0
 10
90.4835
 20
-53.3083
 11
90.591
 21
-53.409
  0
LINE
  8
0
 10
90.591
 20
-53.409
 11
90.6916
 21
-53.5165
  0
LINE
  8
0
 10
90.6916
 20
-53.5165
 11
90.785
 21
-53.6303
  0
LINE
  8
0
 10
90.785
 20
-53.6303
 11
90.8708
 21
-53.75
  0
LINE
  8
0
 10
90.8708
 20
-53.75
 11
90.9485
 21
-53.875
  0
LINE
  8
0
 10
90.9485
 20
-53.875
 11
91.018
 21
-54.0048
  0
LINE
  8
0
 10
91.018
 20
-54.0048
 11
91.0787
 21
-54.139
  0
LINE
  8
0
 10
91.0787
 20
-54.139
 11
91.1306
 21
-54.2767
  0
LINE
  8
0
 10
91.1306
 20
-54.2767
 11
91.1733
 21
-54.4176
  0
LINE
  8
0
 10
91.1733
 20
-54.4176
 11
91.2068
 21
-54.561
  0
LINE
  8
0
 10
91.2068
 20
-54.561
 11
91.2307
 21
-54.7063
  0
LINE
  8
0
 10
91.2307
 20
-54.7063
 11
91.2452
 21
-54.8528
  0
LINE
  8
0
 10
91.2452
 20
-54.8528
 11
91.25
 21
-55
  0
LINE
  8
0
 10
91.25
 20
-55
 11
91.2452
 21
-55.1472
  0
LINE
  8
0
 10
91.2452
 20
-55.1472
 11
91.2307
 21
-55.2937
  0
LINE
  8
0
 10
91.2307
 20
-55.2937
 11
91.2068
 21
-55.4389
  0
LINE
  8
0
 10
91.2068
 20
-55.4389
 11
91.1733
 21
-55.5823
  0
LINE
  8
0
 10
91.1733
 20
-55.5823
 11
91.1306
 21
-55.7232
  0
LINE
  8
0
 10
91.1306
 20
-55.7232
 11
91.0787
 21
-55.861
  0
LINE
  8
0
 10
91.0787
 20
-55.861
 11
91.018
 21
-55.9951
  0
LINE
  8
0
 10
91.018
 20
-55.9951
 11
90.9485
 21
-56.125
  0
LINE
  8
0
 10
90.9485
 20
-56.125
 11
90.8708
 21
-56.25
  0
LINE
  8
0
 10
90.8708
 20
-56.25
 11
90.785
 21
-56.3697
  0
LINE
  8
0
 10
90.785
 20
-56.3697
 11
90.6916
 21
-56.4835
  0
LINE
  8
0
 10
90.6916
 20
-56.4835
 11
90.591
 21
-56.591
  0
LINE
  8
0
 10
90.591
 20
-56.591
 11
90.4835
 21
-56.6916
  0
LINE
  8
0
 10
90.4835
 20
-56.6916
 11
90.3697
 21
-56.785
  0
LINE
  8
0
 10
90.3697
 20
-56.785
 11
90.25
 21
-56.8708
  0
LINE
  8
0
 10
90.25
 20
-56.8708
 11
90.125
 21
-56.9485
  0
LINE
  8
0
 10
90.125
 20
-56.9485
 11
89.9951
 21
-57.018
  0
LINE
  8
0
 10
89.9951
 20
-57.018
 11
89.861
 21
-57.0787
  0
LINE
  8
0
 10
89.861
 20
-57.0787
 11
89.7232
 21
-57.1306
  0
LINE
  8
0
 10
89.7232
 20
-57.1306
 11
89.5823
 21
-57.1733
  0
LINE
  8
0
 10
89.5823
 20
-57.1733
 11
89.4389
 21
-57.2068
  0
LINE
  8
0
 10
89.4389
 20
-57.2068
 11
89.2937
 21
-57.2307
  0
LINE
  8
0
 10
89.2937
 20
-57.2307
 11
89.1472
 21
-57.2452
  0
LINE
  8
0
 10
89.1472
 20
-57.2452
 11
89
 21
-57.25
  0
LINE
  8
0
 10
89
 20
-57.25
 11
88.8528
 21
-57.2452
  0
ENDSEC
  0
SECTION
  2
OBJECTS
  0
DICTIONARY
  0
ENDSEC
  0
EOF
