  0
SECTION
  2
BLOCKS
  0
ENDSEC
  0
SECTION
  2
ENTITIES
  0
LINE
  8
0
 10
-32
 20
-25
 11
32
 21
-25
  0
LINE
  8
0
 10
32
 20
-25
 11
32
 21
25
  0
LINE
  8
0
 10
32
 20
25
 11
-32
 21
25
  0
LINE
  8
0
 10
-32
 20
25
 11
-32
 21
-25
  0
LINE
  8
0
 10
-28.7
 20
-17
 11
-28.6673
 21
-16.6683
  0
LINE
  8
0
 10
-28.6673
 20
-16.6683
 11
-28.5706
 21
-16.3494
  0
LINE
  8
0
 10
-28.5706
 20
-16.3494
 11
-28.4135
 21
-16.0555
  0
LINE
  8
0
 10
-28.4135
 20
-16.0555
 11
-28.2021
 21
-15.7979
  0
LINE
  8
0
 10
-28.2021
 20
-15.7979
 11
-27.9445
 21
-15.5865
  0
LINE
  8
0
 10
-27.9445
 20
-15.5865
 11
-27.6506
 21
-15.4294
  0
LINE
  8
0
 10
-27.6506
 20
-15.4294
 11
-27.3317
 21
-15.3327
  0
LINE
  8
0
 10
-27.3317
 20
-15.3327
 11
-27
 21
-15.3
  0
LINE
  8
0
 10
-27
 20
-15.3
 11
-26.6683
 21
-15.3327
  0
LINE
  8
0
 10
-26.6683
 20
-15.3327
 11
-26.3494
 21
-15.4294
  0
LINE
  8
0
 10
-26.3494
 20
-15.4294
 11
-26.0555
 21
-15.5865
  0
LINE
  8
0
 10
-26.0555
 20
-15.5865
 11
-25.7979
 21
-15.7979
  0
LINE
  8
0
 10
-25.7979
 20
-15.7979
 11
-25.5865
 21
-16.0555
  0
LINE
  8
0
 10
-25.5865
 20
-16.0555
 11
-25.4294
 21
-16.3494
  0
LINE
  8
0
 10
-25.4294
 20
-16.3494
 11
-25.3327
 21
-16.6683
  0
LINE
  8
0
 10
-25.3327
 20
-16.6683
 11
-25.3
 21
-17
  0
LINE
  8
0
 10
-25.3
 20
-17
 11
-25.3327
 21
-17.3317
  0
LINE
  8
0
 10
-25.3327
 20
-17.3317
 11
-25.4294
 21
-17.6506
  0
LINE
  8
0
 10
-25.4294
 20
-17.6506
 11
-25.5865
 21
-17.9445
  0
LINE
  8
0
 10
-25.5865
 20
-17.9445
 11
-25.7979
 21
-18.2021
  0
LINE
  8
0
 10
-25.7979
 20
-18.2021
 11
-26.0555
 21
-18.4135
  0
LINE
  8
0
 10
-26.0555
 20
-18.4135
 11
-26.3494
 21
-18.5706
  0
LINE
  8
0
 10
-26.3494
 20
-18.5706
 11
-26.6683
 21
-18.6673
  0
LINE
  8
0
 10
-26.6683
 20
-18.6673
 11
-27
 21
-18.7
  0
LINE
  8
0
 10
-27
 20
-18.7
 11
-27.3317
 21
-18.6673
  0
LINE
  8
0
 10
-27.3317
 20
-18.6673
 11
-27.6506
 21
-18.5706
  0
LINE
  8
0
 10
-27.6506
 20
-18.5706
 11
-27.9445
 21
-18.4135
  0
LINE
  8
0
 10
-27.9445
 20
-18.4135
 11
-28.2021
 21
-18.2021
  0
LINE
  8
0
 10
-28.2021
 20
-18.2021
 11
-28.4135
 21
-17.9445
  0
LINE
  8
0
 10
-28.4135
 20
-17.9445
 11
-28.5706
 21
-17.6506
  0
LINE
  8
0
 10
-28.5706
 20
-17.6506
 11
-28.6673
 21
-17.3317
  0
LINE
  8
0
 10
-28.6673
 20
-17.3317
 11
-28.7
 21
-17
  0
LINE
  8
0
 10
-28.7
 20
17
 11
-28.6673
 21
17.3317
  0
LINE
  8
0
 10
-28.6673
 20
17.3317
 11
-28.5706
 21
17.6506
  0
LINE
  8
0
 10
-28.5706
 20
17.6506
 11
-28.4135
 21
17.9445
  0
LINE
  8
0
 10
-28.4135
 20
17.9445
 11
-28.2021
 21
18.2021
  0
LINE
  8
0
 10
-28.2021
 20
18.2021
 11
-27.9445
 21
18.4135
  0
LINE
  8
0
 10
-27.9445
 20
18.4135
 11
-27.6506
 21
18.5706
  0
LINE
  8
0
 10
-27.6506
 20
18.5706
 11
-27.3317
 21
18.6673
  0
LINE
  8
0
 10
-27.3317
 20
18.6673
 11
-27
 21
18.7
  0
LINE
  8
0
 10
-27
 20
18.7
 11
-26.6683
 21
18.6673
  0
LINE
  8
0
 10
-26.6683
 20
18.6673
 11
-26.3494
 21
18.5706
  0
LINE
  8
0
 10
-26.3494
 20
18.5706
 11
-26.0555
 21
18.4135
  0
LINE
  8
0
 10
-26.0555
 20
18.4135
 11
-25.7979
 21
18.2021
  0
LINE
  8
0
 10
-25.7979
 20
18.2021
 11
-25.5865
 21
17.9445
  0
LINE
  8
0
 10
-25.5865
 20
17.9445
 11
-25.4294
 21
17.6506
  0
LINE
  8
0
 10
-25.4294
 20
17.6506
 11
-25.3327
 21
17.3317
  0
LINE
  8
0
 10
-25.3327
 20
17.3317
 11
-25.3
 21
17
  0
LINE
  8
0
 10
-25.3
 20
17
 11
-25.3327
 21
16.6683
  0
LINE
  8
0
 10
-25.3327
 20
16.6683
 11
-25.4294
 21
16.3494
  0
LINE
  8
0
 10
-25.4294
 20
16.3494
 11
-25.5865
 21
16.0555
  0
LINE
  8
0
 10
-25.5865
 20
16.0555
 11
-25.7979
 21
15.7979
  0
LINE
  8
0
 10
-25.7979
 20
15.7979
 11
-26.0555
 21
15.5865
  0
LINE
  8
0
 10
-26.0555
 20
15.5865
 11
-26.3494
 21
15.4294
  0
LINE
  8
0
 10
-26.3494
 20
15.4294
 11
-26.6683
 21
15.3327
  0
LINE
  8
0
 10
-26.6683
 20
15.3327
 11
-27
 21
15.3
  0
LINE
  8
0
 10
-27
 20
15.3
 11
-27.3317
 21
15.3327
  0
LINE
  8
0
 10
-27.3317
 20
15.3327
 11
-27.6506
 21
15.4294
  0
LINE
  8
0
 10
-27.6506
 20
15.4294
 11
-27.9445
 21
15.5865
  0
LINE
  8
0
 10
-27.9445
 20
15.5865
 11
-28.2021
 21
15.7979
  0
LINE
  8
0
 10
-28.2021
 20
15.7979
 11
-28.4135
 21
16.0555
  0
LINE
  8
0
 10
-28.4135
 20
16.0555
 11
-28.5706
 21
16.3494
  0
LINE
  8
0
 10
-28.5706
 20
16.3494
 11
-28.6673
 21
16.6683
  0
LINE
  8
0
 10
-28.6673
 20
16.6683
 11
-28.7
 21
17
  0
LINE
  8
0
 10
25.3
 20
-17
 11
25.3327
 21
-16.6683
  0
LINE
  8
0
 10
25.3327
 20
-16.6683
 11
25.4294
 21
-16.3494
  0
LINE
  8
0
 10
25.4294
 20
-16.3494
 11
25.5865
 21
-16.0555
  0
LINE
  8
0
 10
25.5865
 20
-16.0555
 11
25.7979
 21
-15.7979
  0
LINE
  8
0
 10
25.7979
 20
-15.7979
 11
26.0555
 21
-15.5865
  0
LINE
  8
0
 10
26.0555
 20
-15.5865
 11
26.3494
 21
-15.4294
  0
LINE
  8
0
 10
26.3494
 20
-15.4294
 11
26.6683
 21
-15.3327
  0
LINE
  8
0
 10
26.6683
 20
-15.3327
 11
27
 21
-15.3
  0
LINE
  8
0
 10
27
 20
-15.3
 11
27.3317
 21
-15.3327
  0
LINE
  8
0
 10
27.3317
 20
-15.3327
 11
27.6506
 21
-15.4294
  0
LINE
  8
0
 10
27.6506
 20
-15.4294
 11
27.9445
 21
-15.5865
  0
LINE
  8
0
 10
27.9445
 20
-15.5865
 11
28.2021
 21
-15.7979
  0
LINE
  8
0
 10
28.2021
 20
-15.7979
 11
28.4135
 21
-16.0555
  0
LINE
  8
0
 10
28.4135
 20
-16.0555
 11
28.5706
 21
-16.3494
  0
LINE
  8
0
 10
28.5706
 20
-16.3494
 11
28.6673
 21
-16.6683
  0
LINE
  8
0
 10
28.6673
 20
-16.6683
 11
28.7
 21
-17
  0
LINE
  8
0
 10
28.7
 20
-17
 11
28.6673
 21
-17.3317
  0
LINE
  8
0
 10
28.6673
 20
-17.3317
 11
28.5706
 21
-17.6506
  0
LINE
  8
0
 10
28.5706
 20
-17.6506
 11
28.4135
 21
-17.9445
  0
LINE
  8
0
 10
28.4135
 20
-17.9445
 11
28.2021
 21
-18.2021
  0
LINE
  8
0
 10
28.2021
 20
-18.2021
 11
27.9445
 21
-18.4135
  0
LINE
  8
0
 10
27.9445
 20
-18.4135
 11
27.6506
 21
-18.5706
  0
LINE
  8
0
 10
27.6506
 20
-18.5706
 11
27.3317
 21
-18.6673
  0
LINE
  8
0
 10
27.3317
 20
-18.6673
 11
27
 21
-18.7
  0
LINE
  8
0
 10
27
 20
-18.7
 11
26.6683
 21
-18.6673
  0
LINE
  8
0
 10
26.6683
 20
-18.6673
 11
26.3494
 21
-18.5706
  0
LINE
  8
0
 10
26.3494
 20
-18.5706
 11
26.0555
 21
-18.4135
  0
LINE
  8
0
 10
26.0555
 20
-18.4135
 11
25.7979
 21
-18.2021
  0
LINE
  8
0
 10
25.7979
 20
-18.2021
 11
25.5865
 21
-17.9445
  0
LINE
  8
0
 10
25.5865
 20
-17.9445
 11
25.4294
 21
-17.6506
  0
LINE
  8
0
 10
25.4294
 20
-17.6506
 11
25.3327
 21
-17.3317
  0
LINE
  8
0
 10
25.3327
 20
-17.3317
 11
25.3
 21
-17
  0
LINE
  8
0
 10
25.3
 20
17
 11
25.3327
 21
17.3317
  0
LINE
  8
0
 10
25.3327
 20
17.3317
 11
25.4294
 21
17.6506
  0
LINE
  8
0
 10
25.4294
 20
17.6506
 11
25.5865
 21
17.9445
  0
LINE
  8
0
 10
25.5865
 20
17.9445
 11
25.7979
 21
18.2021
  0
LINE
  8
0
 10
25.7979
 20
18.2021
 11
26.0555
 21
18.4135
  0
LINE
  8
0
 10
26.0555
 20
18.4135
 11
26.3494
 21
18.5706
  0
LINE
  8
0
 10
26.3494
 20
18.5706
 11
26.6683
 21
18.6673
  0
LINE
  8
0
 10
26.6683
 20
18.6673
 11
27
 21
18.7
  0
LINE
  8
0
 10
27
 20
18.7
 11
27.3317
 21
18.6673
  0
LINE
  8
0
 10
27.3317
 20
18.6673
 11
27.6506
 21
18.5706
  0
LINE
  8
0
 10
27.6506
 20
18.5706
 11
27.9445
 21
18.4135
  0
LINE
  8
0
 10
27.9445
 20
18.4135
 11
28.2021
 21
18.2021
  0
LINE
  8
0
 10
28.2021
 20
18.2021
 11
28.4135
 21
17.9445
  0
LINE
  8
0
 10
28.4135
 20
17.9445
 11
28.5706
 21
17.6506
  0
LINE
  8
0
 10
28.5706
 20
17.6506
 11
28.6673
 21
17.3317
  0
LINE
  8
0
 10
28.6673
 20
17.3317
 11
28.7
 21
17
  0
LINE
  8
0
 10
28.7
 20
17
 11
28.6673
 21
16.6683
  0
LINE
  8
0
 10
28.6673
 20
16.6683
 11
28.5706
 21
16.3494
  0
LINE
  8
0
 10
28.5706
 20
16.3494
 11
28.4135
 21
16.0555
  0
LINE
  8
0
 10
28.4135
 20
16.0555
 11
28.2021
 21
15.7979
  0
LINE
  8
0
 10
28.2021
 20
15.7979
 11
27.9445
 21
15.5865
  0
LINE
  8
0
 10
27.9445
 20
15.5865
 11
27.6506
 21
15.4294
  0
LINE
  8
0
 10
27.6506
 20
15.4294
 11
27.3317
 21
15.3327
  0
LINE
  8
0
 10
27.3317
 20
15.3327
 11
27
 21
15.3
  0
LINE
  8
0
 10
27
 20
15.3
 11
26.6683
 21
15.3327
  0
LINE
  8
0
 10
26.6683
 20
15.3327
 11
26.3494
 21
15.4294
  0
LINE
  8
0
 10
26.3494
 20
15.4294
 11
26.0555
 21
15.5865
  0
LINE
  8
0
 10
26.0555
 20
15.5865
 11
25.7979
 21
15.7979
  0
LINE
  8
0
 10
25.7979
 20
15.7979
 11
25.5865
 21
16.0555
  0
LINE
  8
0
 10
25.5865
 20
16.0555
 11
25.4294
 21
16.3494
  0
LINE
  8
0
 10
25.4294
 20
16.3494
 11
25.3327
 21
16.6683
  0
LINE
  8
0
 10
25.3327
 20
16.6683
 11
25.3
 21
17
  0
ENDSEC
  0
SECTION
  2
OBJECTS
  0
DICTIONARY
  0
ENDSEC
  0
EOF
