  0
SECTION
  2
BLOCKS
  0
ENDSEC
  0
SECTION
  2
ENTITIES
  0
LINE
  8
0
 10
74
 20
-58
 11
74
 21
-90
  0
LINE
  8
0
 10
74
 20
-90
 11
85.2055
 21
-90
  0
LINE
  8
0
 10
85.2055
 20
-90
 11
87.6812
 21
-87.6812
  0
LINE
  8
0
 10
87.6812
 20
-87.6812
 11
93.2281
 21
-81.7589
  0
LINE
  8
0
 10
93.2281
 20
-81.7589
 11
95
 21
-79.5999
  0
LINE
  8
0
 10
95
 20
-79.5999
 11
95
 21
79.5999
  0
LINE
  8
0
 10
95
 20
79.5999
 11
93.2281
 21
81.7589
  0
LINE
  8
0
 10
93.2281
 20
81.7589
 11
87.6812
 21
87.6812
  0
LINE
  8
0
 10
87.6812
 20
87.6812
 11
85.2055
 21
90
  0
LINE
  8
0
 10
85.2055
 20
90
 11
-85.2055
 21
90
  0
LINE
  8
0
 10
-85.2055
 20
90
 11
-87.6812
 21
87.6812
  0
LINE
  8
0
 10
-87.6812
 20
87.6812
 11
-93.2281
 21
81.7589
  0
LINE
  8
0
 10
-93.2281
 20
81.7589
 11
-95
 21
79.5999
  0
LINE
  8
0
 10
-95
 20
79.5999
 11
-95
 21
-79.5999
  0
LINE
  8
0
 10
-95
 20
-79.5999
 11
-93.2281
 21
-81.7589
  0
LINE
  8
0
 10
-93.2281
 20
-81.7589
 11
-87.6812
 21
-87.6812
  0
LINE
  8
0
 10
-87.6812
 20
-87.6812
 11
-85.2055
 21
-90
  0
LINE
  8
0
 10
-85.2055
 20
-90
 11
-24
 21
-90
  0
LINE
  8
0
 10
-24
 20
-90
 11
-24
 21
-58
  0
LINE
  8
0
 10
-24
 20
-58
 11
74
 21
-58
  0
LINE
  8
0
 10
84.0345
 20
82.4493
 11
83.9238
 21
82.4602
  0
LINE
  8
0
 10
83.9238
 20
82.4602
 11
83.814
 21
82.4784
  0
LINE
  8
0
 10
83.814
 20
82.4784
 11
83.7057
 21
82.5036
  0
LINE
  8
0
 10
83.7057
 20
82.5036
 11
83.5993
 21
82.5359
  0
LINE
  8
0
 10
83.5993
 20
82.5359
 11
83.4951
 21
82.5751
  0
LINE
  8
0
 10
83.4951
 20
82.5751
 11
83.3938
 21
82.621
  0
LINE
  8
0
 10
83.3938
 20
82.621
 11
83.2957
 21
82.6735
  0
LINE
  8
0
 10
83.2957
 20
82.6735
 11
83.2012
 21
82.7322
  0
LINE
  8
0
 10
83.2012
 20
82.7322
 11
83.1108
 21
82.797
  0
LINE
  8
0
 10
83.1108
 20
82.797
 11
83.0248
 21
82.8676
  0
LINE
  8
0
 10
83.0248
 20
82.8676
 11
82.9436
 21
82.9436
  0
LINE
  8
0
 10
82.9436
 20
82.9436
 11
82.8676
 21
83.0248
  0
LINE
  8
0
 10
82.8676
 20
83.0248
 11
82.797
 21
83.1108
  0
LINE
  8
0
 10
82.797
 20
83.1108
 11
82.7322
 21
83.2012
  0
LINE
  8
0
 10
82.7322
 20
83.2012
 11
82.6735
 21
83.2957
  0
LINE
  8
0
 10
82.6735
 20
83.2957
 11
82.621
 21
83.3938
  0
LINE
  8
0
 10
82.621
 20
83.3938
 11
82.5751
 21
83.4951
  0
LINE
  8
0
 10
82.5751
 20
83.4951
 11
82.5359
 21
83.5993
  0
LINE
  8
0
 10
82.5359
 20
83.5993
 11
82.5036
 21
83.7057
  0
LINE
  8
0
 10
82.5036
 20
83.7057
 11
82.4784
 21
83.814
  0
LINE
  8
0
 10
82.4784
 20
83.814
 11
82.4602
 21
83.9238
  0
LINE
  8
0
 10
82.4602
 20
83.9238
 11
82.4493
 21
84.0345
  0
LINE
  8
0
 10
82.4493
 20
84.0345
 11
82.4457
 21
84.1457
  0
LINE
  8
0
 10
82.4457
 20
84.1457
 11
82.4493
 21
84.2569
  0
LINE
  8
0
 10
82.4493
 20
84.2569
 11
82.4602
 21
84.3676
  0
LINE
  8
0
 10
82.4602
 20
84.3676
 11
82.4784
 21
84.4774
  0
LINE
  8
0
 10
82.4784
 20
84.4774
 11
82.5036
 21
84.5857
  0
LINE
  8
0
 10
82.5036
 20
84.5857
 11
82.5359
 21
84.6922
  0
LINE
  8
0
 10
82.5359
 20
84.6922
 11
82.5751
 21
84.7963
  0
LINE
  8
0
 10
82.5751
 20
84.7963
 11
82.621
 21
84.8976
  0
LINE
  8
0
 10
82.621
 20
84.8976
 11
82.6735
 21
84.9957
  0
LINE
  8
0
 10
82.6735
 20
84.9957
 11
82.7322
 21
85.0902
  0
LINE
  8
0
 10
82.7322
 20
85.0902
 11
82.797
 21
85.1806
  0
LINE
  8
0
 10
82.797
 20
85.1806
 11
82.8676
 21
85.2666
  0
LINE
  8
0
 10
82.8676
 20
85.2666
 11
82.9436
 21
85.3478
  0
LINE
  8
0
 10
82.9436
 20
85.3478
 11
83.0248
 21
85.4238
  0
LINE
  8
0
 10
83.0248
 20
85.4238
 11
83.1108
 21
85.4944
  0
LINE
  8
0
 10
83.1108
 20
85.4944
 11
83.2012
 21
85.5592
  0
LINE
  8
0
 10
83.2012
 20
85.5592
 11
83.2957
 21
85.6179
  0
LINE
  8
0
 10
83.2957
 20
85.6179
 11
83.3938
 21
85.6704
  0
LINE
  8
0
 10
83.3938
 20
85.6704
 11
83.4951
 21
85.7163
  0
LINE
  8
0
 10
83.4951
 20
85.7163
 11
83.5993
 21
85.7555
  0
LINE
  8
0
 10
83.5993
 20
85.7555
 11
83.7057
 21
85.7878
  0
LINE
  8
0
 10
83.7057
 20
85.7878
 11
83.814
 21
85.813
  0
LINE
  8
0
 10
83.814
 20
85.813
 11
83.9238
 21
85.8312
  0
LINE
  8
0
 10
83.9238
 20
85.8312
 11
84.0345
 21
85.8421
  0
LINE
  8
0
 10
84.0345
 20
85.8421
 11
84.1457
 21
85.8457
  0
LINE
  8
0
 10
84.1457
 20
85.8457
 11
84.2569
 21
85.8421
  0
LINE
  8
0
 10
84.2569
 20
85.8421
 11
84.3676
 21
85.8312
  0
LINE
  8
0
 10
84.3676
 20
85.8312
 11
84.4774
 21
85.813
  0
LINE
  8
0
 10
84.4774
 20
85.813
 11
84.5857
 21
85.7878
  0
LINE
  8
0
 10
84.5857
 20
85.7878
 11
84.6922
 21
85.7555
  0
LINE
  8
0
 10
84.6922
 20
85.7555
 11
84.7963
 21
85.7163
  0
LINE
  8
0
 10
84.7963
 20
85.7163
 11
84.8976
 21
85.6704
  0
LINE
  8
0
 10
84.8976
 20
85.6704
 11
84.9957
 21
85.6179
  0
LINE
  8
0
 10
84.9957
 20
85.6179
 11
85.0902
 21
85.5592
  0
LINE
  8
0
 10
85.0902
 20
85.5592
 11
85.1806
 21
85.4944
  0
LINE
  8
0
 10
85.1806
 20
85.4944
 11
85.2666
 21
85.4238
  0
LINE
  8
0
 10
85.2666
 20
85.4238
 11
85.3478
 21
85.3478
  0
LINE
  8
0
 10
85.3478
 20
85.3478
 11
85.4238
 21
85.2666
  0
LINE
  8
0
 10
85.4238
 20
85.2666
 11
85.4944
 21
85.1806
  0
LINE
  8
0
 10
85.4944
 20
85.1806
 11
85.5592
 21
85.0902
  0
LINE
  8
0
 10
85.5592
 20
85.0902
 11
85.6179
 21
84.9957
  0
LINE
  8
0
 10
85.6179
 20
84.9957
 11
85.6704
 21
84.8976
  0
LINE
  8
0
 10
85.6704
 20
84.8976
 11
85.7163
 21
84.7963
  0
LINE
  8
0
 10
85.7163
 20
84.7963
 11
85.7555
 21
84.6922
  0
LINE
  8
0
 10
85.7555
 20
84.6922
 11
85.7878
 21
84.5857
  0
LINE
  8
0
 10
85.7878
 20
84.5857
 11
85.813
 21
84.4774
  0
LINE
  8
0
 10
85.813
 20
84.4774
 11
85.8312
 21
84.3676
  0
LINE
  8
0
 10
85.8312
 20
84.3676
 11
85.8421
 21
84.2569
  0
LINE
  8
0
 10
85.8421
 20
84.2569
 11
85.8457
 21
84.1457
  0
LINE
  8
0
 10
85.8457
 20
84.1457
 11
85.8421
 21
84.0345
  0
LINE
  8
0
 10
85.8421
 20
84.0345
 11
85.8312
 21
83.9238
  0
LINE
  8
0
 10
85.8312
 20
83.9238
 11
85.813
 21
83.814
  0
LINE
  8
0
 10
85.813
 20
83.814
 11
85.7878
 21
83.7057
  0
LINE
  8
0
 10
85.7878
 20
83.7057
 11
85.7555
 21
83.5993
  0
LINE
  8
0
 10
85.7555
 20
83.5993
 11
85.7163
 21
83.4951
  0
LINE
  8
0
 10
85.7163
 20
83.4951
 11
85.6704
 21
83.3938
  0
LINE
  8
0
 10
85.6704
 20
83.3938
 11
85.6179
 21
83.2957
  0
LINE
  8
0
 10
85.6179
 20
83.2957
 11
85.5592
 21
83.2012
  0
LINE
  8
0
 10
85.5592
 20
83.2012
 11
85.4944
 21
83.1108
  0
LINE
  8
0
 10
85.4944
 20
83.1108
 11
85.4238
 21
83.0248
  0
LINE
  8
0
 10
85.4238
 20
83.0248
 11
85.3478
 21
82.9436
  0
LINE
  8
0
 10
85.3478
 20
82.9436
 11
85.2666
 21
82.8676
  0
LINE
  8
0
 10
85.2666
 20
82.8676
 11
85.1806
 21
82.797
  0
LINE
  8
0
 10
85.1806
 20
82.797
 11
85.0902
 21
82.7322
  0
LINE
  8
0
 10
85.0902
 20
82.7322
 11
84.9957
 21
82.6735
  0
LINE
  8
0
 10
84.9957
 20
82.6735
 11
84.8976
 21
82.621
  0
LINE
  8
0
 10
84.8976
 20
82.621
 11
84.7963
 21
82.5751
  0
LINE
  8
0
 10
84.7963
 20
82.5751
 11
84.6922
 21
82.5359
  0
LINE
  8
0
 10
84.6922
 20
82.5359
 11
84.5857
 21
82.5036
  0
LINE
  8
0
 10
84.5857
 20
82.5036
 11
84.4774
 21
82.4784
  0
LINE
  8
0
 10
84.4774
 20
82.4784
 11
84.3676
 21
82.4602
  0
LINE
  8
0
 10
84.3676
 20
82.4602
 11
84.2569
 21
82.4493
  0
LINE
  8
0
 10
84.2569
 20
82.4493
 11
84.1457
 21
82.4457
  0
LINE
  8
0
 10
84.1457
 20
82.4457
 11
84.0345
 21
82.4493
  0
LINE
  8
0
 10
-84.2569
 20
82.4493
 11
-84.3676
 21
82.4602
  0
LINE
  8
0
 10
-84.3676
 20
82.4602
 11
-84.4774
 21
82.4784
  0
LINE
  8
0
 10
-84.4774
 20
82.4784
 11
-84.5857
 21
82.5036
  0
LINE
  8
0
 10
-84.5857
 20
82.5036
 11
-84.6922
 21
82.5359
  0
LINE
  8
0
 10
-84.6922
 20
82.5359
 11
-84.7963
 21
82.5751
  0
LINE
  8
0
 10
-84.7963
 20
82.5751
 11
-84.8976
 21
82.621
  0
LINE
  8
0
 10
-84.8976
 20
82.621
 11
-84.9957
 21
82.6735
  0
LINE
  8
0
 10
-84.9957
 20
82.6735
 11
-85.0902
 21
82.7322
  0
LINE
  8
0
 10
-85.0902
 20
82.7322
 11
-85.1806
 21
82.797
  0
LINE
  8
0
 10
-85.1806
 20
82.797
 11
-85.2666
 21
82.8676
  0
LINE
  8
0
 10
-85.2666
 20
82.8676
 11
-85.3478
 21
82.9436
  0
LINE
  8
0
 10
-85.3478
 20
82.9436
 11
-85.4238
 21
83.0248
  0
LINE
  8
0
 10
-85.4238
 20
83.0248
 11
-85.4944
 21
83.1108
  0
LINE
  8
0
 10
-85.4944
 20
83.1108
 11
-85.5592
 21
83.2012
  0
LINE
  8
0
 10
-85.5592
 20
83.2012
 11
-85.6179
 21
83.2957
  0
LINE
  8
0
 10
-85.6179
 20
83.2957
 11
-85.6704
 21
83.3938
  0
LINE
  8
0
 10
-85.6704
 20
83.3938
 11
-85.7163
 21
83.4951
  0
LINE
  8
0
 10
-85.7163
 20
83.4951
 11
-85.7555
 21
83.5993
  0
LINE
  8
0
 10
-85.7555
 20
83.5993
 11
-85.7878
 21
83.7057
  0
LINE
  8
0
 10
-85.7878
 20
83.7057
 11
-85.813
 21
83.814
  0
LINE
  8
0
 10
-85.813
 20
83.814
 11
-85.8312
 21
83.9238
  0
LINE
  8
0
 10
-85.8312
 20
83.9238
 11
-85.8421
 21
84.0345
  0
LINE
  8
0
 10
-85.8421
 20
84.0345
 11
-85.8457
 21
84.1457
  0
LINE
  8
0
 10
-85.8457
 20
84.1457
 11
-85.8421
 21
84.2569
  0
LINE
  8
0
 10
-85.8421
 20
84.2569
 11
-85.8312
 21
84.3676
  0
LINE
  8
0
 10
-85.8312
 20
84.3676
 11
-85.813
 21
84.4774
  0
LINE
  8
0
 10
-85.813
 20
84.4774
 11
-85.7878
 21
84.5857
  0
LINE
  8
0
 10
-85.7878
 20
84.5857
 11
-85.7555
 21
84.6922
  0
LINE
  8
0
 10
-85.7555
 20
84.6922
 11
-85.7163
 21
84.7963
  0
LINE
  8
0
 10
-85.7163
 20
84.7963
 11
-85.6704
 21
84.8976
  0
LINE
  8
0
 10
-85.6704
 20
84.8976
 11
-85.6179
 21
84.9957
  0
LINE
  8
0
 10
-85.6179
 20
84.9957
 11
-85.5592
 21
85.0902
  0
LINE
  8
0
 10
-85.5592
 20
85.0902
 11
-85.4944
 21
85.1806
  0
LINE
  8
0
 10
-85.4944
 20
85.1806
 11
-85.4238
 21
85.2666
  0
LINE
  8
0
 10
-85.4238
 20
85.2666
 11
-85.3478
 21
85.3478
  0
LINE
  8
0
 10
-85.3478
 20
85.3478
 11
-85.2666
 21
85.4238
  0
LINE
  8
0
 10
-85.2666
 20
85.4238
 11
-85.1806
 21
85.4944
  0
LINE
  8
0
 10
-85.1806
 20
85.4944
 11
-85.0902
 21
85.5592
  0
LINE
  8
0
 10
-85.0902
 20
85.5592
 11
-84.9957
 21
85.6179
  0
LINE
  8
0
 10
-84.9957
 20
85.6179
 11
-84.8976
 21
85.6704
  0
LINE
  8
0
 10
-84.8976
 20
85.6704
 11
-84.7963
 21
85.7163
  0
LINE
  8
0
 10
-84.7963
 20
85.7163
 11
-84.6922
 21
85.7555
  0
LINE
  8
0
 10
-84.6922
 20
85.7555
 11
-84.5857
 21
85.7878
  0
LINE
  8
0
 10
-84.5857
 20
85.7878
 11
-84.4774
 21
85.813
  0
LINE
  8
0
 10
-84.4774
 20
85.813
 11
-84.3676
 21
85.8312
  0
LINE
  8
0
 10
-84.3676
 20
85.8312
 11
-84.2569
 21
85.8421
  0
LINE
  8
0
 10
-84.2569
 20
85.8421
 11
-84.1457
 21
85.8457
  0
LINE
  8
0
 10
-84.1457
 20
85.8457
 11
-84.0345
 21
85.8421
  0
LINE
  8
0
 10
-84.0345
 20
85.8421
 11
-83.9238
 21
85.8312
  0
LINE
  8
0
 10
-83.9238
 20
85.8312
 11
-83.814
 21
85.813
  0
LINE
  8
0
 10
-83.814
 20
85.813
 11
-83.7057
 21
85.7878
  0
LINE
  8
0
 10
-83.7057
 20
85.7878
 11
-83.5993
 21
85.7555
  0
LINE
  8
0
 10
-83.5993
 20
85.7555
 11
-83.4951
 21
85.7163
  0
LINE
  8
0
 10
-83.4951
 20
85.7163
 11
-83.3938
 21
85.6704
  0
LINE
  8
0
 10
-83.3938
 20
85.6704
 11
-83.2957
 21
85.6179
  0
LINE
  8
0
 10
-83.2957
 20
85.6179
 11
-83.2012
 21
85.5592
  0
LINE
  8
0
 10
-83.2012
 20
85.5592
 11
-83.1108
 21
85.4944
  0
LINE
  8
0
 10
-83.1108
 20
85.4944
 11
-83.0248
 21
85.4238
  0
LINE
  8
0
 10
-83.0248
 20
85.4238
 11
-82.9436
 21
85.3478
  0
LINE
  8
0
 10
-82.9436
 20
85.3478
 11
-82.8676
 21
85.2666
  0
LINE
  8
0
 10
-82.8676
 20
85.2666
 11
-82.797
 21
85.1806
  0
LINE
  8
0
 10
-82.797
 20
85.1806
 11
-82.7322
 21
85.0902
  0
LINE
  8
0
 10
-82.7322
 20
85.0902
 11
-82.6735
 21
84.9957
  0
LINE
  8
0
 10
-82.6735
 20
84.9957
 11
-82.621
 21
84.8976
  0
LINE
  8
0
 10
-82.621
 20
84.8976
 11
-82.5751
 21
84.7963
  0
LINE
  8
0
 10
-82.5751
 20
84.7963
 11
-82.5359
 21
84.6922
  0
LINE
  8
0
 10
-82.5359
 20
84.6922
 11
-82.5036
 21
84.5857
  0
LINE
  8
0
 10
-82.5036
 20
84.5857
 11
-82.4784
 21
84.4774
  0
LINE
  8
0
 10
-82.4784
 20
84.4774
 11
-82.4602
 21
84.3676
  0
LINE
  8
0
 10
-82.4602
 20
84.3676
 11
-82.4493
 21
84.2569
  0
LINE
  8
0
 10
-82.4493
 20
84.2569
 11
-82.4457
 21
84.1457
  0
LINE
  8
0
 10
-82.4457
 20
84.1457
 11
-82.4493
 21
84.0345
  0
LINE
  8
0
 10
-82.4493
 20
84.0345
 11
-82.4602
 21
83.9238
  0
LINE
  8
0
 10
-82.4602
 20
83.9238
 11
-82.4784
 21
83.814
  0
LINE
  8
0
 10
-82.4784
 20
83.814
 11
-82.5036
 21
83.7057
  0
LINE
  8
0
 10
-82.5036
 20
83.7057
 11
-82.5359
 21
83.5993
  0
LINE
  8
0
 10
-82.5359
 20
83.5993
 11
-82.5751
 21
83.4951
  0
LINE
  8
0
 10
-82.5751
 20
83.4951
 11
-82.621
 21
83.3938
  0
LINE
  8
0
 10
-82.621
 20
83.3938
 11
-82.6735
 21
83.2957
  0
LINE
  8
0
 10
-82.6735
 20
83.2957
 11
-82.7322
 21
83.2012
  0
LINE
  8
0
 10
-82.7322
 20
83.2012
 11
-82.797
 21
83.1108
  0
LINE
  8
0
 10
-82.797
 20
83.1108
 11
-82.8676
 21
83.0248
  0
LINE
  8
0
 10
-82.8676
 20
83.0248
 11
-82.9436
 21
82.9436
  0
LINE
  8
0
 10
-82.9436
 20
82.9436
 11
-83.0248
 21
82.8676
  0
LINE
  8
0
 10
-83.0248
 20
82.8676
 11
-83.1108
 21
82.797
  0
LINE
  8
0
 10
-83.1108
 20
82.797
 11
-83.2012
 21
82.7322
  0
LINE
  8
0
 10
-83.2012
 20
82.7322
 11
-83.2957
 21
82.6735
  0
LINE
  8
0
 10
-83.2957
 20
82.6735
 11
-83.3938
 21
82.621
  0
LINE
  8
0
 10
-83.3938
 20
82.621
 11
-83.4951
 21
82.5751
  0
LINE
  8
0
 10
-83.4951
 20
82.5751
 11
-83.5993
 21
82.5359
  0
LINE
  8
0
 10
-83.5993
 20
82.5359
 11
-83.7057
 21
82.5036
  0
LINE
  8
0
 10
-83.7057
 20
82.5036
 11
-83.814
 21
82.4784
  0
LINE
  8
0
 10
-83.814
 20
82.4784
 11
-83.9238
 21
82.4602
  0
LINE
  8
0
 10
-83.9238
 20
82.4602
 11
-84.0345
 21
82.4493
  0
LINE
  8
0
 10
-84.0345
 20
82.4493
 11
-84.1457
 21
82.4457
  0
LINE
  8
0
 10
-84.1457
 20
82.4457
 11
-84.2569
 21
82.4493
  0
LINE
  8
0
 10
-89.1472
 20
52.7548
 11
-89.2937
 21
52.7692
  0
LINE
  8
0
 10
-89.2937
 20
52.7692
 11
-89.4389
 21
52.7932
  0
LINE
  8
0
 10
-89.4389
 20
52.7932
 11
-89.5823
 21
52.8267
  0
LINE
  8
0
 10
-89.5823
 20
52.8267
 11
-89.7232
 21
52.8694
  0
LINE
  8
0
 10
-89.7232
 20
52.8694
 11
-89.861
 21
52.9213
  0
LINE
  8
0
 10
-89.861
 20
52.9213
 11
-89.9951
 21
52.982
  0
LINE
  8
0
 10
-89.9951
 20
52.982
 11
-90.125
 21
53.0514
  0
LINE
  8
0
 10
-90.125
 20
53.0514
 11
-90.25
 21
53.1292
  0
LINE
  8
0
 10
-90.25
 20
53.1292
 11
-90.3697
 21
53.215
  0
LINE
  8
0
 10
-90.3697
 20
53.215
 11
-90.4835
 21
53.3083
  0
LINE
  8
0
 10
-90.4835
 20
53.3083
 11
-90.591
 21
53.409
  0
LINE
  8
0
 10
-90.591
 20
53.409
 11
-90.6916
 21
53.5165
  0
LINE
  8
0
 10
-90.6916
 20
53.5165
 11
-90.785
 21
53.6303
  0
LINE
  8
0
 10
-90.785
 20
53.6303
 11
-90.8708
 21
53.75
  0
LINE
  8
0
 10
-90.8708
 20
53.75
 11
-90.9485
 21
53.875
  0
LINE
  8
0
 10
-90.9485
 20
53.875
 11
-91.018
 21
54.0048
  0
LINE
  8
0
 10
-91.018
 20
54.0048
 11
-91.0787
 21
54.139
  0
LINE
  8
0
 10
-91.0787
 20
54.139
 11
-91.1306
 21
54.2767
  0
LINE
  8
0
 10
-91.1306
 20
54.2767
 11
-91.1733
 21
54.4176
  0
LINE
  8
0
 10
-91.1733
 20
54.4176
 11
-91.2068
 21
54.561
  0
LINE
  8
0
 10
-91.2068
 20
54.561
 11
-91.2307
 21
54.7063
  0
LINE
  8
0
 10
-91.2307
 20
54.7063
 11
-91.2452
 21
54.8528
  0
LINE
  8
0
 10
-91.2452
 20
54.8528
 11
-91.25
 21
55
  0
LINE
  8
0
 10
-91.25
 20
55
 11
-91.2452
 21
55.1472
  0
LINE
  8
0
 10
-91.2452
 20
55.1472
 11
-91.2307
 21
55.2937
  0
LINE
  8
0
 10
-91.2307
 20
55.2937
 11
-91.2068
 21
55.4389
  0
LINE
  8
0
 10
-91.2068
 20
55.4389
 11
-91.1733
 21
55.5823
  0
LINE
  8
0
 10
-91.1733
 20
55.5823
 11
-91.1306
 21
55.7232
  0
LINE
  8
0
 10
-91.1306
 20
55.7232
 11
-91.0787
 21
55.861
  0
LINE
  8
0
 10
-91.0787
 20
55.861
 11
-91.018
 21
55.9951
  0
LINE
  8
0
 10
-91.018
 20
55.9951
 11
-90.9485
 21
56.125
  0
LINE
  8
0
 10
-90.9485
 20
56.125
 11
-90.8708
 21
56.25
  0
LINE
  8
0
 10
-90.8708
 20
56.25
 11
-90.785
 21
56.3697
  0
LINE
  8
0
 10
-90.785
 20
56.3697
 11
-90.6916
 21
56.4835
  0
LINE
  8
0
 10
-90.6916
 20
56.4835
 11
-90.591
 21
56.591
  0
LINE
  8
0
 10
-90.591
 20
56.591
 11
-90.4835
 21
56.6916
  0
LINE
  8
0
 10
-90.4835
 20
56.6916
 11
-90.3697
 21
56.785
  0
LINE
  8
0
 10
-90.3697
 20
56.785
 11
-90.25
 21
56.8708
  0
LINE
  8
0
 10
-90.25
 20
56.8708
 11
-90.125
 21
56.9485
  0
LINE
  8
0
 10
-90.125
 20
56.9485
 11
-89.9951
 21
57.018
  0
LINE
  8
0
 10
-89.9951
 20
57.018
 11
-89.861
 21
57.0787
  0
LINE
  8
0
 10
-89.861
 20
57.0787
 11
-89.7232
 21
57.1306
  0
LINE
  8
0
 10
-89.7232
 20
57.1306
 11
-89.5823
 21
57.1733
  0
LINE
  8
0
 10
-89.5823
 20
57.1733
 11
-89.4389
 21
57.2068
  0
LINE
  8
0
 10
-89.4389
 20
57.2068
 11
-89.2937
 21
57.2307
  0
LINE
  8
0
 10
-89.2937
 20
57.2307
 11
-89.1472
 21
57.2452
  0
LINE
  8
0
 10
-89.1472
 20
57.2452
 11
-89
 21
57.25
  0
LINE
  8
0
 10
-89
 20
57.25
 11
-88.8528
 21
57.2452
  0
LINE
  8
0
 10
-88.8528
 20
57.2452
 11
-88.7063
 21
57.2307
  0
LINE
  8
0
 10
-88.7063
 20
57.2307
 11
-88.561
 21
57.2068
  0
LINE
  8
0
 10
-88.561
 20
57.2068
 11
-88.4176
 21
57.1733
  0
LINE
  8
0
 10
-88.4176
 20
57.1733
 11
-88.2767
 21
57.1306
  0
LINE
  8
0
 10
-88.2767
 20
57.1306
 11
-88.139
 21
57.0787
  0
LINE
  8
0
 10
-88.139
 20
57.0787
 11
-88.0048
 21
57.018
  0
LINE
  8
0
 10
-88.0048
 20
57.018
 11
-87.875
 21
56.9485
  0
LINE
  8
0
 10
-87.875
 20
56.9485
 11
-87.75
 21
56.8708
  0
LINE
  8
0
 10
-87.75
 20
56.8708
 11
-87.6303
 21
56.785
  0
LINE
  8
0
 10
-87.6303
 20
56.785
 11
-87.5165
 21
56.6916
  0
LINE
  8
0
 10
-87.5165
 20
56.6916
 11
-87.409
 21
56.591
  0
LINE
  8
0
 10
-87.409
 20
56.591
 11
-87.3083
 21
56.4835
  0
LINE
  8
0
 10
-87.3083
 20
56.4835
 11
-87.215
 21
56.3697
  0
LINE
  8
0
 10
-87.215
 20
56.3697
 11
-87.1292
 21
56.25
  0
LINE
  8
0
 10
-87.1292
 20
56.25
 11
-87.0514
 21
56.125
  0
LINE
  8
0
 10
-87.0514
 20
56.125
 11
-86.982
 21
55.9951
  0
LINE
  8
0
 10
-86.982
 20
55.9951
 11
-86.9213
 21
55.861
  0
LINE
  8
0
 10
-86.9213
 20
55.861
 11
-86.8694
 21
55.7232
  0
LINE
  8
0
 10
-86.8694
 20
55.7232
 11
-86.8267
 21
55.5823
  0
LINE
  8
0
 10
-86.8267
 20
55.5823
 11
-86.7932
 21
55.4389
  0
LINE
  8
0
 10
-86.7932
 20
55.4389
 11
-86.7692
 21
55.2937
  0
LINE
  8
0
 10
-86.7692
 20
55.2937
 11
-86.7548
 21
55.1472
  0
LINE
  8
0
 10
-86.7548
 20
55.1472
 11
-86.75
 21
55
  0
LINE
  8
0
 10
-86.75
 20
55
 11
-86.7548
 21
54.8528
  0
LINE
  8
0
 10
-86.7548
 20
54.8528
 11
-86.7692
 21
54.7063
  0
LINE
  8
0
 10
-86.7692
 20
54.7063
 11
-86.7932
 21
54.561
  0
LINE
  8
0
 10
-86.7932
 20
54.561
 11
-86.8267
 21
54.4176
  0
LINE
  8
0
 10
-86.8267
 20
54.4176
 11
-86.8694
 21
54.2767
  0
LINE
  8
0
 10
-86.8694
 20
54.2767
 11
-86.9213
 21
54.139
  0
LINE
  8
0
 10
-86.9213
 20
54.139
 11
-86.982
 21
54.0048
  0
LINE
  8
0
 10
-86.982
 20
54.0048
 11
-87.0514
 21
53.875
  0
LINE
  8
0
 10
-87.0514
 20
53.875
 11
-87.1292
 21
53.75
  0
LINE
  8
0
 10
-87.1292
 20
53.75
 11
-87.215
 21
53.6303
  0
LINE
  8
0
 10
-87.215
 20
53.6303
 11
-87.3083
 21
53.5165
  0
LINE
  8
0
 10
-87.3083
 20
53.5165
 11
-87.409
 21
53.409
  0
LINE
  8
0
 10
-87.409
 20
53.409
 11
-87.5165
 21
53.3083
  0
LINE
  8
0
 10
-87.5165
 20
53.3083
 11
-87.6303
 21
53.215
  0
LINE
  8
0
 10
-87.6303
 20
53.215
 11
-87.75
 21
53.1292
  0
LINE
  8
0
 10
-87.75
 20
53.1292
 11
-87.875
 21
53.0514
  0
LINE
  8
0
 10
-87.875
 20
53.0514
 11
-88.0048
 21
52.982
  0
LINE
  8
0
 10
-88.0048
 20
52.982
 11
-88.139
 21
52.9213
  0
LINE
  8
0
 10
-88.139
 20
52.9213
 11
-88.2767
 21
52.8694
  0
LINE
  8
0
 10
-88.2767
 20
52.8694
 11
-88.4176
 21
52.8267
  0
LINE
  8
0
 10
-88.4176
 20
52.8267
 11
-88.561
 21
52.7932
  0
LINE
  8
0
 10
-88.561
 20
52.7932
 11
-88.7063
 21
52.7692
  0
LINE
  8
0
 10
-88.7063
 20
52.7692
 11
-88.8528
 21
52.7548
  0
LINE
  8
0
 10
-88.8528
 20
52.7548
 11
-89
 21
52.75
  0
LINE
  8
0
 10
-89
 20
52.75
 11
-89.1472
 21
52.7548
  0
LINE
  8
0
 10
88.8528
 20
52.7548
 11
88.7063
 21
52.7692
  0
LINE
  8
0
 10
88.7063
 20
52.7692
 11
88.561
 21
52.7932
  0
LINE
  8
0
 10
88.561
 20
52.7932
 11
88.4176
 21
52.8267
  0
LINE
  8
0
 10
88.4176
 20
52.8267
 11
88.2767
 21
52.8694
  0
LINE
  8
0
 10
88.2767
 20
52.8694
 11
88.139
 21
52.9213
  0
LINE
  8
0
 10
88.139
 20
52.9213
 11
88.0048
 21
52.982
  0
LINE
  8
0
 10
88.0048
 20
52.982
 11
87.875
 21
53.0514
  0
LINE
  8
0
 10
87.875
 20
53.0514
 11
87.75
 21
53.1292
  0
LINE
  8
0
 10
87.75
 20
53.1292
 11
87.6303
 21
53.215
  0
LINE
  8
0
 10
87.6303
 20
53.215
 11
87.5165
 21
53.3083
  0
LINE
  8
0
 10
87.5165
 20
53.3083
 11
87.409
 21
53.409
  0
LINE
  8
0
 10
87.409
 20
53.409
 11
87.3083
 21
53.5165
  0
LINE
  8
0
 10
87.3083
 20
53.5165
 11
87.215
 21
53.6303
  0
LINE
  8
0
 10
87.215
 20
53.6303
 11
87.1292
 21
53.75
  0
LINE
  8
0
 10
87.1292
 20
53.75
 11
87.0514
 21
53.875
  0
LINE
  8
0
 10
87.0514
 20
53.875
 11
86.982
 21
54.0048
  0
LINE
  8
0
 10
86.982
 20
54.0048
 11
86.9213
 21
54.139
  0
LINE
  8
0
 10
86.9213
 20
54.139
 11
86.8694
 21
54.2767
  0
LINE
  8
0
 10
86.8694
 20
54.2767
 11
86.8267
 21
54.4176
  0
LINE
  8
0
 10
86.8267
 20
54.4176
 11
86.7932
 21
54.561
  0
LINE
  8
0
 10
86.7932
 20
54.561
 11
86.7692
 21
54.7063
  0
LINE
  8
0
 10
86.7692
 20
54.7063
 11
86.7548
 21
54.8528
  0
LINE
  8
0
 10
86.7548
 20
54.8528
 11
86.75
 21
55
  0
LINE
  8
0
 10
86.75
 20
55
 11
86.7548
 21
55.1472
  0
LINE
  8
0
 10
86.7548
 20
55.1472
 11
86.7692
 21
55.2937
  0
LINE
  8
0
 10
86.7692
 20
55.2937
 11
86.7932
 21
55.4389
  0
LINE
  8
0
 10
86.7932
 20
55.4389
 11
86.8267
 21
55.5823
  0
LINE
  8
0
 10
86.8267
 20
55.5823
 11
86.8694
 21
55.7232
  0
LINE
  8
0
 10
86.8694
 20
55.7232
 11
86.9213
 21
55.861
  0
LINE
  8
0
 10
86.9213
 20
55.861
 11
86.982
 21
55.9951
  0
LINE
  8
0
 10
86.982
 20
55.9951
 11
87.0514
 21
56.125
  0
LINE
  8
0
 10
87.0514
 20
56.125
 11
87.1292
 21
56.25
  0
LINE
  8
0
 10
87.1292
 20
56.25
 11
87.215
 21
56.3697
  0
LINE
  8
0
 10
87.215
 20
56.3697
 11
87.3083
 21
56.4835
  0
LINE
  8
0
 10
87.3083
 20
56.4835
 11
87.409
 21
56.591
  0
LINE
  8
0
 10
87.409
 20
56.591
 11
87.5165
 21
56.6916
  0
LINE
  8
0
 10
87.5165
 20
56.6916
 11
87.6303
 21
56.785
  0
LINE
  8
0
 10
87.6303
 20
56.785
 11
87.75
 21
56.8708
  0
LINE
  8
0
 10
87.75
 20
56.8708
 11
87.875
 21
56.9485
  0
LINE
  8
0
 10
87.875
 20
56.9485
 11
88.0048
 21
57.018
  0
LINE
  8
0
 10
88.0048
 20
57.018
 11
88.139
 21
57.0787
  0
LINE
  8
0
 10
88.139
 20
57.0787
 11
88.2767
 21
57.1306
  0
LINE
  8
0
 10
88.2767
 20
57.1306
 11
88.4176
 21
57.1733
  0
LINE
  8
0
 10
88.4176
 20
57.1733
 11
88.561
 21
57.2068
  0
LINE
  8
0
 10
88.561
 20
57.2068
 11
88.7063
 21
57.2307
  0
LINE
  8
0
 10
88.7063
 20
57.2307
 11
88.8528
 21
57.2452
  0
LINE
  8
0
 10
88.8528
 20
57.2452
 11
89
 21
57.25
  0
LINE
  8
0
 10
89
 20
57.25
 11
89.1472
 21
57.2452
  0
LINE
  8
0
 10
89.1472
 20
57.2452
 11
89.2937
 21
57.2307
  0
LINE
  8
0
 10
89.2937
 20
57.2307
 11
89.4389
 21
57.2068
  0
LINE
  8
0
 10
89.4389
 20
57.2068
 11
89.5823
 21
57.1733
  0
LINE
  8
0
 10
89.5823
 20
57.1733
 11
89.7232
 21
57.1306
  0
LINE
  8
0
 10
89.7232
 20
57.1306
 11
89.861
 21
57.0787
  0
LINE
  8
0
 10
89.861
 20
57.0787
 11
89.9951
 21
57.018
  0
LINE
  8
0
 10
89.9951
 20
57.018
 11
90.125
 21
56.9485
  0
LINE
  8
0
 10
90.125
 20
56.9485
 11
90.25
 21
56.8708
  0
LINE
  8
0
 10
90.25
 20
56.8708
 11
90.3697
 21
56.785
  0
LINE
  8
0
 10
90.3697
 20
56.785
 11
90.4835
 21
56.6916
  0
LINE
  8
0
 10
90.4835
 20
56.6916
 11
90.591
 21
56.591
  0
LINE
  8
0
 10
90.591
 20
56.591
 11
90.6916
 21
56.4835
  0
LINE
  8
0
 10
90.6916
 20
56.4835
 11
90.785
 21
56.3697
  0
LINE
  8
0
 10
90.785
 20
56.3697
 11
90.8708
 21
56.25
  0
LINE
  8
0
 10
90.8708
 20
56.25
 11
90.9485
 21
56.125
  0
LINE
  8
0
 10
90.9485
 20
56.125
 11
91.018
 21
55.9951
  0
LINE
  8
0
 10
91.018
 20
55.9951
 11
91.0787
 21
55.861
  0
LINE
  8
0
 10
91.0787
 20
55.861
 11
91.1306
 21
55.7232
  0
LINE
  8
0
 10
91.1306
 20
55.7232
 11
91.1733
 21
55.5823
  0
LINE
  8
0
 10
91.1733
 20
55.5823
 11
91.2068
 21
55.4389
  0
LINE
  8
0
 10
91.2068
 20
55.4389
 11
91.2307
 21
55.2937
  0
LINE
  8
0
 10
91.2307
 20
55.2937
 11
91.2452
 21
55.1472
  0
LINE
  8
0
 10
91.2452
 20
55.1472
 11
91.25
 21
55
  0
LINE
  8
0
 10
91.25
 20
55
 11
91.2452
 21
54.8528
  0
LINE
  8
0
 10
91.2452
 20
54.8528
 11
91.2307
 21
54.7063
  0
LINE
  8
0
 10
91.2307
 20
54.7063
 11
91.2068
 21
54.561
  0
LINE
  8
0
 10
91.2068
 20
54.561
 11
91.1733
 21
54.4176
  0
LINE
  8
0
 10
91.1733
 20
54.4176
 11
91.1306
 21
54.2767
  0
LINE
  8
0
 10
91.1306
 20
54.2767
 11
91.0787
 21
54.139
  0
LINE
  8
0
 10
91.0787
 20
54.139
 11
91.018
 21
54.0048
  0
LINE
  8
0
 10
91.018
 20
54.0048
 11
90.9485
 21
53.875
  0
LINE
  8
0
 10
90.9485
 20
53.875
 11
90.8708
 21
53.75
  0
LINE
  8
0
 10
90.8708
 20
53.75
 11
90.785
 21
53.6303
  0
LINE
  8
0
 10
90.785
 20
53.6303
 11
90.6916
 21
53.5165
  0
LINE
  8
0
 10
90.6916
 20
53.5165
 11
90.591
 21
53.409
  0
LINE
  8
0
 10
90.591
 20
53.409
 11
90.4835
 21
53.3083
  0
LINE
  8
0
 10
90.4835
 20
53.3083
 11
90.3697
 21
53.215
  0
LINE
  8
0
 10
90.3697
 20
53.215
 11
90.25
 21
53.1292
  0
LINE
  8
0
 10
90.25
 20
53.1292
 11
90.125
 21
53.0514
  0
LINE
  8
0
 10
90.125
 20
53.0514
 11
89.9951
 21
52.982
  0
LINE
  8
0
 10
89.9951
 20
52.982
 11
89.861
 21
52.9213
  0
LINE
  8
0
 10
89.861
 20
52.9213
 11
89.7232
 21
52.8694
  0
LINE
  8
0
 10
89.7232
 20
52.8694
 11
89.5823
 21
52.8267
  0
LINE
  8
0
 10
89.5823
 20
52.8267
 11
89.4389
 21
52.7932
  0
LINE
  8
0
 10
89.4389
 20
52.7932
 11
89.2937
 21
52.7692
  0
LINE
  8
0
 10
89.2937
 20
52.7692
 11
89.1472
 21
52.7548
  0
LINE
  8
0
 10
89.1472
 20
52.7548
 11
89
 21
52.75
  0
LINE
  8
0
 10
89
 20
52.75
 11
88.8528
 21
52.7548
  0
LINE
  8
0
 10
64.8888
 20
48.3036
 11
64.7781
 21
48.3145
  0
LINE
  8
0
 10
64.7781
 20
48.3145
 11
64.6683
 21
48.3327
  0
LINE
  8
0
 10
64.6683
 20
48.3327
 11
64.56
 21
48.3579
  0
LINE
  8
0
 10
64.56
 20
48.3579
 11
64.4536
 21
48.3902
  0
LINE
  8
0
 10
64.4536
 20
48.3902
 11
64.3494
 21
48.4294
  0
LINE
  8
0
 10
64.3494
 20
48.4294
 11
64.2481
 21
48.4753
  0
LINE
  8
0
 10
64.2481
 20
48.4753
 11
64.15
 21
48.5278
  0
LINE
  8
0
 10
64.15
 20
48.5278
 11
64.0555
 21
48.5865
  0
LINE
  8
0
 10
64.0555
 20
48.5865
 11
63.9651
 21
48.6513
  0
LINE
  8
0
 10
63.9651
 20
48.6513
 11
63.8791
 21
48.7219
  0
LINE
  8
0
 10
63.8791
 20
48.7219
 11
63.7979
 21
48.7979
  0
LINE
  8
0
 10
63.7979
 20
48.7979
 11
63.7219
 21
48.8791
  0
LINE
  8
0
 10
63.7219
 20
48.8791
 11
63.6513
 21
48.9651
  0
LINE
  8
0
 10
63.6513
 20
48.9651
 11
63.5865
 21
49.0555
  0
LINE
  8
0
 10
63.5865
 20
49.0555
 11
63.5278
 21
49.15
  0
LINE
  8
0
 10
63.5278
 20
49.15
 11
63.4753
 21
49.2481
  0
LINE
  8
0
 10
63.4753
 20
49.2481
 11
63.4294
 21
49.3494
  0
LINE
  8
0
 10
63.4294
 20
49.3494
 11
63.3902
 21
49.4536
  0
LINE
  8
0
 10
63.3902
 20
49.4536
 11
63.3579
 21
49.56
  0
LINE
  8
0
 10
63.3579
 20
49.56
 11
63.3327
 21
49.6683
  0
LINE
  8
0
 10
63.3327
 20
49.6683
 11
63.3145
 21
49.7781
  0
LINE
  8
0
 10
63.3145
 20
49.7781
 11
63.3036
 21
49.8888
  0
LINE
  8
0
 10
63.3036
 20
49.8888
 11
63.3
 21
50
  0
LINE
  8
0
 10
63.3
 20
50
 11
63.3036
 21
50.1112
  0
LINE
  8
0
 10
63.3036
 20
50.1112
 11
63.3145
 21
50.2219
  0
LINE
  8
0
 10
63.3145
 20
50.2219
 11
63.3327
 21
50.3316
  0
LINE
  8
0
 10
63.3327
 20
50.3316
 11
63.3579
 21
50.44
  0
LINE
  8
0
 10
63.3579
 20
50.44
 11
63.3902
 21
50.5464
  0
LINE
  8
0
 10
63.3902
 20
50.5464
 11
63.4294
 21
50.6506
  0
LINE
  8
0
 10
63.4294
 20
50.6506
 11
63.4753
 21
50.7519
  0
LINE
  8
0
 10
63.4753
 20
50.7519
 11
63.5278
 21
50.85
  0
LINE
  8
0
 10
63.5278
 20
50.85
 11
63.5865
 21
50.9445
  0
LINE
  8
0
 10
63.5865
 20
50.9445
 11
63.6513
 21
51.0349
  0
LINE
  8
0
 10
63.6513
 20
51.0349
 11
63.7219
 21
51.1209
  0
LINE
  8
0
 10
63.7219
 20
51.1209
 11
63.7979
 21
51.2021
  0
LINE
  8
0
 10
63.7979
 20
51.2021
 11
63.8791
 21
51.2781
  0
LINE
  8
0
 10
63.8791
 20
51.2781
 11
63.9651
 21
51.3487
  0
LINE
  8
0
 10
63.9651
 20
51.3487
 11
64.0555
 21
51.4135
  0
LINE
  8
0
 10
64.0555
 20
51.4135
 11
64.15
 21
51.4722
  0
LINE
  8
0
 10
64.15
 20
51.4722
 11
64.2481
 21
51.5247
  0
LINE
  8
0
 10
64.2481
 20
51.5247
 11
64.3494
 21
51.5706
  0
LINE
  8
0
 10
64.3494
 20
51.5706
 11
64.4536
 21
51.6098
  0
LINE
  8
0
 10
64.4536
 20
51.6098
 11
64.56
 21
51.6421
  0
LINE
  8
0
 10
64.56
 20
51.6421
 11
64.6683
 21
51.6673
  0
LINE
  8
0
 10
64.6683
 20
51.6673
 11
64.7781
 21
51.6855
  0
LINE
  8
0
 10
64.7781
 20
51.6855
 11
64.8888
 21
51.6964
  0
LINE
  8
0
 10
64.8888
 20
51.6964
 11
65
 21
51.7
  0
LINE
  8
0
 10
65
 20
51.7
 11
65.1112
 21
51.6964
  0
LINE
  8
0
 10
65.1112
 20
51.6964
 11
65.2219
 21
51.6855
  0
LINE
  8
0
 10
65.2219
 20
51.6855
 11
65.3316
 21
51.6673
  0
LINE
  8
0
 10
65.3316
 20
51.6673
 11
65.44
 21
51.6421
  0
LINE
  8
0
 10
65.44
 20
51.6421
 11
65.5464
 21
51.6098
  0
LINE
  8
0
 10
65.5464
 20
51.6098
 11
65.6506
 21
51.5706
  0
LINE
  8
0
 10
65.6506
 20
51.5706
 11
65.7519
 21
51.5247
  0
LINE
  8
0
 10
65.7519
 20
51.5247
 11
65.85
 21
51.4722
  0
LINE
  8
0
 10
65.85
 20
51.4722
 11
65.9445
 21
51.4135
  0
LINE
  8
0
 10
65.9445
 20
51.4135
 11
66.0349
 21
51.3487
  0
LINE
  8
0
 10
66.0349
 20
51.3487
 11
66.1209
 21
51.2781
  0
LINE
  8
0
 10
66.1209
 20
51.2781
 11
66.2021
 21
51.2021
  0
LINE
  8
0
 10
66.2021
 20
51.2021
 11
66.2781
 21
51.1209
  0
LINE
  8
0
 10
66.2781
 20
51.1209
 11
66.3487
 21
51.0349
  0
LINE
  8
0
 10
66.3487
 20
51.0349
 11
66.4135
 21
50.9445
  0
LINE
  8
0
 10
66.4135
 20
50.9445
 11
66.4722
 21
50.85
  0
LINE
  8
0
 10
66.4722
 20
50.85
 11
66.5247
 21
50.7519
  0
LINE
  8
0
 10
66.5247
 20
50.7519
 11
66.5706
 21
50.6506
  0
LINE
  8
0
 10
66.5706
 20
50.6506
 11
66.6098
 21
50.5464
  0
LINE
  8
0
 10
66.6098
 20
50.5464
 11
66.6421
 21
50.44
  0
LINE
  8
0
 10
66.6421
 20
50.44
 11
66.6673
 21
50.3316
  0
LINE
  8
0
 10
66.6673
 20
50.3316
 11
66.6855
 21
50.2219
  0
LINE
  8
0
 10
66.6855
 20
50.2219
 11
66.6964
 21
50.1112
  0
LINE
  8
0
 10
66.6964
 20
50.1112
 11
66.7
 21
50
  0
LINE
  8
0
 10
66.7
 20
50
 11
66.6964
 21
49.8888
  0
LINE
  8
0
 10
66.6964
 20
49.8888
 11
66.6855
 21
49.7781
  0
LINE
  8
0
 10
66.6855
 20
49.7781
 11
66.6673
 21
49.6683
  0
LINE
  8
0
 10
66.6673
 20
49.6683
 11
66.6421
 21
49.56
  0
LINE
  8
0
 10
66.6421
 20
49.56
 11
66.6098
 21
49.4536
  0
LINE
  8
0
 10
66.6098
 20
49.4536
 11
66.5706
 21
49.3494
  0
LINE
  8
0
 10
66.5706
 20
49.3494
 11
66.5247
 21
49.2481
  0
LINE
  8
0
 10
66.5247
 20
49.2481
 11
66.4722
 21
49.15
  0
LINE
  8
0
 10
66.4722
 20
49.15
 11
66.4135
 21
49.0555
  0
LINE
  8
0
 10
66.4135
 20
49.0555
 11
66.3487
 21
48.9651
  0
LINE
  8
0
 10
66.3487
 20
48.9651
 11
66.2781
 21
48.8791
  0
LINE
  8
0
 10
66.2781
 20
48.8791
 11
66.2021
 21
48.7979
  0
LINE
  8
0
 10
66.2021
 20
48.7979
 11
66.1209
 21
48.7219
  0
LINE
  8
0
 10
66.1209
 20
48.7219
 11
66.0349
 21
48.6513
  0
LINE
  8
0
 10
66.0349
 20
48.6513
 11
65.9445
 21
48.5865
  0
LINE
  8
0
 10
65.9445
 20
48.5865
 11
65.85
 21
48.5278
  0
LINE
  8
0
 10
65.85
 20
48.5278
 11
65.7519
 21
48.4753
  0
LINE
  8
0
 10
65.7519
 20
48.4753
 11
65.6506
 21
48.4294
  0
LINE
  8
0
 10
65.6506
 20
48.4294
 11
65.5464
 21
48.3902
  0
LINE
  8
0
 10
65.5464
 20
48.3902
 11
65.44
 21
48.3579
  0
LINE
  8
0
 10
65.44
 20
48.3579
 11
65.3316
 21
48.3327
  0
LINE
  8
0
 10
65.3316
 20
48.3327
 11
65.2219
 21
48.3145
  0
LINE
  8
0
 10
65.2219
 20
48.3145
 11
65.1112
 21
48.3036
  0
LINE
  8
0
 10
65.1112
 20
48.3036
 11
65
 21
48.3
  0
LINE
  8
0
 10
65
 20
48.3
 11
64.8888
 21
48.3036
  0
LINE
  8
0
 10
-65.1112
 20
48.3036
 11
-65.2219
 21
48.3145
  0
LINE
  8
0
 10
-65.2219
 20
48.3145
 11
-65.3316
 21
48.3327
  0
LINE
  8
0
 10
-65.3316
 20
48.3327
 11
-65.44
 21
48.3579
  0
LINE
  8
0
 10
-65.44
 20
48.3579
 11
-65.5464
 21
48.3902
  0
LINE
  8
0
 10
-65.5464
 20
48.3902
 11
-65.6506
 21
48.4294
  0
LINE
  8
0
 10
-65.6506
 20
48.4294
 11
-65.7519
 21
48.4753
  0
LINE
  8
0
 10
-65.7519
 20
48.4753
 11
-65.85
 21
48.5278
  0
LINE
  8
0
 10
-65.85
 20
48.5278
 11
-65.9445
 21
48.5865
  0
LINE
  8
0
 10
-65.9445
 20
48.5865
 11
-66.0349
 21
48.6513
  0
LINE
  8
0
 10
-66.0349
 20
48.6513
 11
-66.1209
 21
48.7219
  0
LINE
  8
0
 10
-66.1209
 20
48.7219
 11
-66.2021
 21
48.7979
  0
LINE
  8
0
 10
-66.2021
 20
48.7979
 11
-66.2781
 21
48.8791
  0
LINE
  8
0
 10
-66.2781
 20
48.8791
 11
-66.3487
 21
48.9651
  0
LINE
  8
0
 10
-66.3487
 20
48.9651
 11
-66.4135
 21
49.0555
  0
LINE
  8
0
 10
-66.4135
 20
49.0555
 11
-66.4722
 21
49.15
  0
LINE
  8
0
 10
-66.4722
 20
49.15
 11
-66.5247
 21
49.2481
  0
LINE
  8
0
 10
-66.5247
 20
49.2481
 11
-66.5706
 21
49.3494
  0
LINE
  8
0
 10
-66.5706
 20
49.3494
 11
-66.6098
 21
49.4536
  0
LINE
  8
0
 10
-66.6098
 20
49.4536
 11
-66.6421
 21
49.56
  0
LINE
  8
0
 10
-66.6421
 20
49.56
 11
-66.6673
 21
49.6683
  0
LINE
  8
0
 10
-66.6673
 20
49.6683
 11
-66.6855
 21
49.7781
  0
LINE
  8
0
 10
-66.6855
 20
49.7781
 11
-66.6964
 21
49.8888
  0
LINE
  8
0
 10
-66.6964
 20
49.8888
 11
-66.7
 21
50
  0
LINE
  8
0
 10
-66.7
 20
50
 11
-66.6964
 21
50.1112
  0
LINE
  8
0
 10
-66.6964
 20
50.1112
 11
-66.6855
 21
50.2219
  0
LINE
  8
0
 10
-66.6855
 20
50.2219
 11
-66.6673
 21
50.3316
  0
LINE
  8
0
 10
-66.6673
 20
50.3316
 11
-66.6421
 21
50.44
  0
LINE
  8
0
 10
-66.6421
 20
50.44
 11
-66.6098
 21
50.5464
  0
LINE
  8
0
 10
-66.6098
 20
50.5464
 11
-66.5706
 21
50.6506
  0
LINE
  8
0
 10
-66.5706
 20
50.6506
 11
-66.5247
 21
50.7519
  0
LINE
  8
0
 10
-66.5247
 20
50.7519
 11
-66.4722
 21
50.85
  0
LINE
  8
0
 10
-66.4722
 20
50.85
 11
-66.4135
 21
50.9445
  0
LINE
  8
0
 10
-66.4135
 20
50.9445
 11
-66.3487
 21
51.0349
  0
LINE
  8
0
 10
-66.3487
 20
51.0349
 11
-66.2781
 21
51.1209
  0
LINE
  8
0
 10
-66.2781
 20
51.1209
 11
-66.2021
 21
51.2021
  0
LINE
  8
0
 10
-66.2021
 20
51.2021
 11
-66.1209
 21
51.2781
  0
LINE
  8
0
 10
-66.1209
 20
51.2781
 11
-66.0349
 21
51.3487
  0
LINE
  8
0
 10
-66.0349
 20
51.3487
 11
-65.9445
 21
51.4135
  0
LINE
  8
0
 10
-65.9445
 20
51.4135
 11
-65.85
 21
51.4722
  0
LINE
  8
0
 10
-65.85
 20
51.4722
 11
-65.7519
 21
51.5247
  0
LINE
  8
0
 10
-65.7519
 20
51.5247
 11
-65.6506
 21
51.5706
  0
LINE
  8
0
 10
-65.6506
 20
51.5706
 11
-65.5464
 21
51.6098
  0
LINE
  8
0
 10
-65.5464
 20
51.6098
 11
-65.44
 21
51.6421
  0
LINE
  8
0
 10
-65.44
 20
51.6421
 11
-65.3316
 21
51.6673
  0
LINE
  8
0
 10
-65.3316
 20
51.6673
 11
-65.2219
 21
51.6855
  0
LINE
  8
0
 10
-65.2219
 20
51.6855
 11
-65.1112
 21
51.6964
  0
LINE
  8
0
 10
-65.1112
 20
51.6964
 11
-65
 21
51.7
  0
LINE
  8
0
 10
-65
 20
51.7
 11
-64.8888
 21
51.6964
  0
LINE
  8
0
 10
-64.8888
 20
51.6964
 11
-64.7781
 21
51.6855
  0
LINE
  8
0
 10
-64.7781
 20
51.6855
 11
-64.6683
 21
51.6673
  0
LINE
  8
0
 10
-64.6683
 20
51.6673
 11
-64.56
 21
51.6421
  0
LINE
  8
0
 10
-64.56
 20
51.6421
 11
-64.4536
 21
51.6098
  0
LINE
  8
0
 10
-64.4536
 20
51.6098
 11
-64.3494
 21
51.5706
  0
LINE
  8
0
 10
-64.3494
 20
51.5706
 11
-64.2481
 21
51.5247
  0
LINE
  8
0
 10
-64.2481
 20
51.5247
 11
-64.15
 21
51.4722
  0
LINE
  8
0
 10
-64.15
 20
51.4722
 11
-64.0555
 21
51.4135
  0
LINE
  8
0
 10
-64.0555
 20
51.4135
 11
-63.9651
 21
51.3487
  0
LINE
  8
0
 10
-63.9651
 20
51.3487
 11
-63.8791
 21
51.2781
  0
LINE
  8
0
 10
-63.8791
 20
51.2781
 11
-63.7979
 21
51.2021
  0
LINE
  8
0
 10
-63.7979
 20
51.2021
 11
-63.7219
 21
51.1209
  0
LINE
  8
0
 10
-63.7219
 20
51.1209
 11
-63.6513
 21
51.0349
  0
LINE
  8
0
 10
-63.6513
 20
51.0349
 11
-63.5865
 21
50.9445
  0
LINE
  8
0
 10
-63.5865
 20
50.9445
 11
-63.5278
 21
50.85
  0
LINE
  8
0
 10
-63.5278
 20
50.85
 11
-63.4753
 21
50.7519
  0
LINE
  8
0
 10
-63.4753
 20
50.7519
 11
-63.4294
 21
50.6506
  0
LINE
  8
0
 10
-63.4294
 20
50.6506
 11
-63.3902
 21
50.5464
  0
LINE
  8
0
 10
-63.3902
 20
50.5464
 11
-63.3579
 21
50.44
  0
LINE
  8
0
 10
-63.3579
 20
50.44
 11
-63.3327
 21
50.3316
  0
LINE
  8
0
 10
-63.3327
 20
50.3316
 11
-63.3145
 21
50.2219
  0
LINE
  8
0
 10
-63.3145
 20
50.2219
 11
-63.3036
 21
50.1112
  0
LINE
  8
0
 10
-63.3036
 20
50.1112
 11
-63.3
 21
50
  0
LINE
  8
0
 10
-63.3
 20
50
 11
-63.3036
 21
49.8888
  0
LINE
  8
0
 10
-63.3036
 20
49.8888
 11
-63.3145
 21
49.7781
  0
LINE
  8
0
 10
-63.3145
 20
49.7781
 11
-63.3327
 21
49.6683
  0
LINE
  8
0
 10
-63.3327
 20
49.6683
 11
-63.3579
 21
49.56
  0
LINE
  8
0
 10
-63.3579
 20
49.56
 11
-63.3902
 21
49.4536
  0
LINE
  8
0
 10
-63.3902
 20
49.4536
 11
-63.4294
 21
49.3494
  0
LINE
  8
0
 10
-63.4294
 20
49.3494
 11
-63.4753
 21
49.2481
  0
LINE
  8
0
 10
-63.4753
 20
49.2481
 11
-63.5278
 21
49.15
  0
LINE
  8
0
 10
-63.5278
 20
49.15
 11
-63.5865
 21
49.0555
  0
LINE
  8
0
 10
-63.5865
 20
49.0555
 11
-63.6513
 21
48.9651
  0
LINE
  8
0
 10
-63.6513
 20
48.9651
 11
-63.7219
 21
48.8791
  0
LINE
  8
0
 10
-63.7219
 20
48.8791
 11
-63.7979
 21
48.7979
  0
LINE
  8
0
 10
-63.7979
 20
48.7979
 11
-63.8791
 21
48.7219
  0
LINE
  8
0
 10
-63.8791
 20
48.7219
 11
-63.9651
 21
48.6513
  0
LINE
  8
0
 10
-63.9651
 20
48.6513
 11
-64.0555
 21
48.5865
  0
LINE
  8
0
 10
-64.0555
 20
48.5865
 11
-64.15
 21
48.5278
  0
LINE
  8
0
 10
-64.15
 20
48.5278
 11
-64.2481
 21
48.4753
  0
LINE
  8
0
 10
-64.2481
 20
48.4753
 11
-64.3494
 21
48.4294
  0
LINE
  8
0
 10
-64.3494
 20
48.4294
 11
-64.4536
 21
48.3902
  0
LINE
  8
0
 10
-64.4536
 20
48.3902
 11
-64.56
 21
48.3579
  0
LINE
  8
0
 10
-64.56
 20
48.3579
 11
-64.6683
 21
48.3327
  0
LINE
  8
0
 10
-64.6683
 20
48.3327
 11
-64.7781
 21
48.3145
  0
LINE
  8
0
 10
-64.7781
 20
48.3145
 11
-64.8888
 21
48.3036
  0
LINE
  8
0
 10
-64.8888
 20
48.3036
 11
-65
 21
48.3
  0
LINE
  8
0
 10
-65
 20
48.3
 11
-65.1112
 21
48.3036
  0
LINE
  8
0
 10
-46
 20
45
 11
-46
 21
49
  0
LINE
  8
0
 10
-46
 20
49
 11
-24
 21
49
  0
LINE
  8
0
 10
-24
 20
49
 11
-24
 21
45
  0
LINE
  8
0
 10
-24
 20
45
 11
-46
 21
45
  0
LINE
  8
0
 10
24
 20
45
 11
24
 21
49
  0
LINE
  8
0
 10
24
 20
49
 11
46
 21
49
  0
LINE
  8
0
 10
46
 20
49
 11
46
 21
45
  0
LINE
  8
0
 10
46
 20
45
 11
24
 21
45
  0
LINE
  8
0
 10
-46
 20
-9
 11
-46
 21
-5
  0
LINE
  8
0
 10
-46
 20
-5
 11
-24
 21
-5
  0
LINE
  8
0
 10
-24
 20
-5
 11
-24
 21
-9
  0
LINE
  8
0
 10
-24
 20
-9
 11
-46
 21
-9
  0
LINE
  8
0
 10
24
 20
-9
 11
24
 21
-5
  0
LINE
  8
0
 10
24
 20
-5
 11
46
 21
-5
  0
LINE
  8
0
 10
46
 20
-5
 11
46
 21
-9
  0
LINE
  8
0
 10
46
 20
-9
 11
24
 21
-9
  0
LINE
  8
0
 10
64.8888
 20
-21.6964
 11
64.7781
 21
-21.6855
  0
LINE
  8
0
 10
64.7781
 20
-21.6855
 11
64.6683
 21
-21.6673
  0
LINE
  8
0
 10
64.6683
 20
-21.6673
 11
64.56
 21
-21.6421
  0
LINE
  8
0
 10
64.56
 20
-21.6421
 11
64.4536
 21
-21.6098
  0
LINE
  8
0
 10
64.4536
 20
-21.6098
 11
64.3494
 21
-21.5706
  0
LINE
  8
0
 10
64.3494
 20
-21.5706
 11
64.2481
 21
-21.5247
  0
LINE
  8
0
 10
64.2481
 20
-21.5247
 11
64.15
 21
-21.4722
  0
LINE
  8
0
 10
64.15
 20
-21.4722
 11
64.0555
 21
-21.4135
  0
LINE
  8
0
 10
64.0555
 20
-21.4135
 11
63.9651
 21
-21.3487
  0
LINE
  8
0
 10
63.9651
 20
-21.3487
 11
63.8791
 21
-21.2781
  0
LINE
  8
0
 10
63.8791
 20
-21.2781
 11
63.7979
 21
-21.2021
  0
LINE
  8
0
 10
63.7979
 20
-21.2021
 11
63.7219
 21
-21.1209
  0
LINE
  8
0
 10
63.7219
 20
-21.1209
 11
63.6513
 21
-21.0349
  0
LINE
  8
0
 10
63.6513
 20
-21.0349
 11
63.5865
 21
-20.9445
  0
LINE
  8
0
 10
63.5865
 20
-20.9445
 11
63.5278
 21
-20.85
  0
LINE
  8
0
 10
63.5278
 20
-20.85
 11
63.4753
 21
-20.7519
  0
LINE
  8
0
 10
63.4753
 20
-20.7519
 11
63.4294
 21
-20.6506
  0
LINE
  8
0
 10
63.4294
 20
-20.6506
 11
63.3902
 21
-20.5464
  0
LINE
  8
0
 10
63.3902
 20
-20.5464
 11
63.3579
 21
-20.44
  0
LINE
  8
0
 10
63.3579
 20
-20.44
 11
63.3327
 21
-20.3316
  0
LINE
  8
0
 10
63.3327
 20
-20.3316
 11
63.3145
 21
-20.2219
  0
LINE
  8
0
 10
63.3145
 20
-20.2219
 11
63.3036
 21
-20.1112
  0
LINE
  8
0
 10
63.3036
 20
-20.1112
 11
63.3
 21
-20
  0
LINE
  8
0
 10
63.3
 20
-20
 11
63.3036
 21
-19.8888
  0
LINE
  8
0
 10
63.3036
 20
-19.8888
 11
63.3145
 21
-19.7781
  0
LINE
  8
0
 10
63.3145
 20
-19.7781
 11
63.3327
 21
-19.6683
  0
LINE
  8
0
 10
63.3327
 20
-19.6683
 11
63.3579
 21
-19.56
  0
LINE
  8
0
 10
63.3579
 20
-19.56
 11
63.3902
 21
-19.4536
  0
LINE
  8
0
 10
63.3902
 20
-19.4536
 11
63.4294
 21
-19.3494
  0
LINE
  8
0
 10
63.4294
 20
-19.3494
 11
63.4753
 21
-19.2481
  0
LINE
  8
0
 10
63.4753
 20
-19.2481
 11
63.5278
 21
-19.15
  0
LINE
  8
0
 10
63.5278
 20
-19.15
 11
63.5865
 21
-19.0555
  0
LINE
  8
0
 10
63.5865
 20
-19.0555
 11
63.6513
 21
-18.9651
  0
LINE
  8
0
 10
63.6513
 20
-18.9651
 11
63.7219
 21
-18.8791
  0
LINE
  8
0
 10
63.7219
 20
-18.8791
 11
63.7979
 21
-18.7979
  0
LINE
  8
0
 10
63.7979
 20
-18.7979
 11
63.8791
 21
-18.7219
  0
LINE
  8
0
 10
63.8791
 20
-18.7219
 11
63.9651
 21
-18.6513
  0
LINE
  8
0
 10
63.9651
 20
-18.6513
 11
64.0555
 21
-18.5865
  0
LINE
  8
0
 10
64.0555
 20
-18.5865
 11
64.15
 21
-18.5278
  0
LINE
  8
0
 10
64.15
 20
-18.5278
 11
64.2481
 21
-18.4753
  0
LINE
  8
0
 10
64.2481
 20
-18.4753
 11
64.3494
 21
-18.4294
  0
LINE
  8
0
 10
64.3494
 20
-18.4294
 11
64.4536
 21
-18.3902
  0
LINE
  8
0
 10
64.4536
 20
-18.3902
 11
64.56
 21
-18.3579
  0
LINE
  8
0
 10
64.56
 20
-18.3579
 11
64.6683
 21
-18.3327
  0
LINE
  8
0
 10
64.6683
 20
-18.3327
 11
64.7781
 21
-18.3145
  0
LINE
  8
0
 10
64.7781
 20
-18.3145
 11
64.8888
 21
-18.3036
  0
LINE
  8
0
 10
64.8888
 20
-18.3036
 11
65
 21
-18.3
  0
LINE
  8
0
 10
65
 20
-18.3
 11
65.1112
 21
-18.3036
  0
LINE
  8
0
 10
65.1112
 20
-18.3036
 11
65.2219
 21
-18.3145
  0
LINE
  8
0
 10
65.2219
 20
-18.3145
 11
65.3316
 21
-18.3327
  0
LINE
  8
0
 10
65.3316
 20
-18.3327
 11
65.44
 21
-18.3579
  0
LINE
  8
0
 10
65.44
 20
-18.3579
 11
65.5464
 21
-18.3902
  0
LINE
  8
0
 10
65.5464
 20
-18.3902
 11
65.6506
 21
-18.4294
  0
LINE
  8
0
 10
65.6506
 20
-18.4294
 11
65.7519
 21
-18.4753
  0
LINE
  8
0
 10
65.7519
 20
-18.4753
 11
65.85
 21
-18.5278
  0
LINE
  8
0
 10
65.85
 20
-18.5278
 11
65.9445
 21
-18.5865
  0
LINE
  8
0
 10
65.9445
 20
-18.5865
 11
66.0349
 21
-18.6513
  0
LINE
  8
0
 10
66.0349
 20
-18.6513
 11
66.1209
 21
-18.7219
  0
LINE
  8
0
 10
66.1209
 20
-18.7219
 11
66.2021
 21
-18.7979
  0
LINE
  8
0
 10
66.2021
 20
-18.7979
 11
66.2781
 21
-18.8791
  0
LINE
  8
0
 10
66.2781
 20
-18.8791
 11
66.3487
 21
-18.9651
  0
LINE
  8
0
 10
66.3487
 20
-18.9651
 11
66.4135
 21
-19.0555
  0
LINE
  8
0
 10
66.4135
 20
-19.0555
 11
66.4722
 21
-19.15
  0
LINE
  8
0
 10
66.4722
 20
-19.15
 11
66.5247
 21
-19.2481
  0
LINE
  8
0
 10
66.5247
 20
-19.2481
 11
66.5706
 21
-19.3494
  0
LINE
  8
0
 10
66.5706
 20
-19.3494
 11
66.6098
 21
-19.4536
  0
LINE
  8
0
 10
66.6098
 20
-19.4536
 11
66.6421
 21
-19.56
  0
LINE
  8
0
 10
66.6421
 20
-19.56
 11
66.6673
 21
-19.6683
  0
LINE
  8
0
 10
66.6673
 20
-19.6683
 11
66.6855
 21
-19.7781
  0
LINE
  8
0
 10
66.6855
 20
-19.7781
 11
66.6964
 21
-19.8888
  0
LINE
  8
0
 10
66.6964
 20
-19.8888
 11
66.7
 21
-20
  0
LINE
  8
0
 10
66.7
 20
-20
 11
66.6964
 21
-20.1112
  0
LINE
  8
0
 10
66.6964
 20
-20.1112
 11
66.6855
 21
-20.2219
  0
LINE
  8
0
 10
66.6855
 20
-20.2219
 11
66.6673
 21
-20.3316
  0
LINE
  8
0
 10
66.6673
 20
-20.3316
 11
66.6421
 21
-20.44
  0
LINE
  8
0
 10
66.6421
 20
-20.44
 11
66.6098
 21
-20.5464
  0
LINE
  8
0
 10
66.6098
 20
-20.5464
 11
66.5706
 21
-20.6506
  0
LINE
  8
0
 10
66.5706
 20
-20.6506
 11
66.5247
 21
-20.7519
  0
LINE
  8
0
 10
66.5247
 20
-20.7519
 11
66.4722
 21
-20.85
  0
LINE
  8
0
 10
66.4722
 20
-20.85
 11
66.4135
 21
-20.9445
  0
LINE
  8
0
 10
66.4135
 20
-20.9445
 11
66.3487
 21
-21.0349
  0
LINE
  8
0
 10
66.3487
 20
-21.0349
 11
66.2781
 21
-21.1209
  0
LINE
  8
0
 10
66.2781
 20
-21.1209
 11
66.2021
 21
-21.2021
  0
LINE
  8
0
 10
66.2021
 20
-21.2021
 11
66.1209
 21
-21.2781
  0
LINE
  8
0
 10
66.1209
 20
-21.2781
 11
66.0349
 21
-21.3487
  0
LINE
  8
0
 10
66.0349
 20
-21.3487
 11
65.9445
 21
-21.4135
  0
LINE
  8
0
 10
65.9445
 20
-21.4135
 11
65.85
 21
-21.4722
  0
LINE
  8
0
 10
65.85
 20
-21.4722
 11
65.7519
 21
-21.5247
  0
LINE
  8
0
 10
65.7519
 20
-21.5247
 11
65.6506
 21
-21.5706
  0
LINE
  8
0
 10
65.6506
 20
-21.5706
 11
65.5464
 21
-21.6098
  0
LINE
  8
0
 10
65.5464
 20
-21.6098
 11
65.44
 21
-21.6421
  0
LINE
  8
0
 10
65.44
 20
-21.6421
 11
65.3316
 21
-21.6673
  0
LINE
  8
0
 10
65.3316
 20
-21.6673
 11
65.2219
 21
-21.6855
  0
LINE
  8
0
 10
65.2219
 20
-21.6855
 11
65.1112
 21
-21.6964
  0
LINE
  8
0
 10
65.1112
 20
-21.6964
 11
65
 21
-21.7
  0
LINE
  8
0
 10
65
 20
-21.7
 11
64.8888
 21
-21.6964
  0
LINE
  8
0
 10
-65.1112
 20
-21.6964
 11
-65.2219
 21
-21.6855
  0
LINE
  8
0
 10
-65.2219
 20
-21.6855
 11
-65.3316
 21
-21.6673
  0
LINE
  8
0
 10
-65.3316
 20
-21.6673
 11
-65.44
 21
-21.6421
  0
LINE
  8
0
 10
-65.44
 20
-21.6421
 11
-65.5464
 21
-21.6098
  0
LINE
  8
0
 10
-65.5464
 20
-21.6098
 11
-65.6506
 21
-21.5706
  0
LINE
  8
0
 10
-65.6506
 20
-21.5706
 11
-65.7519
 21
-21.5247
  0
LINE
  8
0
 10
-65.7519
 20
-21.5247
 11
-65.85
 21
-21.4722
  0
LINE
  8
0
 10
-65.85
 20
-21.4722
 11
-65.9445
 21
-21.4135
  0
LINE
  8
0
 10
-65.9445
 20
-21.4135
 11
-66.0349
 21
-21.3487
  0
LINE
  8
0
 10
-66.0349
 20
-21.3487
 11
-66.1209
 21
-21.2781
  0
LINE
  8
0
 10
-66.1209
 20
-21.2781
 11
-66.2021
 21
-21.2021
  0
LINE
  8
0
 10
-66.2021
 20
-21.2021
 11
-66.2781
 21
-21.1209
  0
LINE
  8
0
 10
-66.2781
 20
-21.1209
 11
-66.3487
 21
-21.0349
  0
LINE
  8
0
 10
-66.3487
 20
-21.0349
 11
-66.4135
 21
-20.9445
  0
LINE
  8
0
 10
-66.4135
 20
-20.9445
 11
-66.4722
 21
-20.85
  0
LINE
  8
0
 10
-66.4722
 20
-20.85
 11
-66.5247
 21
-20.7519
  0
LINE
  8
0
 10
-66.5247
 20
-20.7519
 11
-66.5706
 21
-20.6506
  0
LINE
  8
0
 10
-66.5706
 20
-20.6506
 11
-66.6098
 21
-20.5464
  0
LINE
  8
0
 10
-66.6098
 20
-20.5464
 11
-66.6421
 21
-20.44
  0
LINE
  8
0
 10
-66.6421
 20
-20.44
 11
-66.6673
 21
-20.3316
  0
LINE
  8
0
 10
-66.6673
 20
-20.3316
 11
-66.6855
 21
-20.2219
  0
LINE
  8
0
 10
-66.6855
 20
-20.2219
 11
-66.6964
 21
-20.1112
  0
LINE
  8
0
 10
-66.6964
 20
-20.1112
 11
-66.7
 21
-20
  0
LINE
  8
0
 10
-66.7
 20
-20
 11
-66.6964
 21
-19.8888
  0
LINE
  8
0
 10
-66.6964
 20
-19.8888
 11
-66.6855
 21
-19.7781
  0
LINE
  8
0
 10
-66.6855
 20
-19.7781
 11
-66.6673
 21
-19.6683
  0
LINE
  8
0
 10
-66.6673
 20
-19.6683
 11
-66.6421
 21
-19.56
  0
LINE
  8
0
 10
-66.6421
 20
-19.56
 11
-66.6098
 21
-19.4536
  0
LINE
  8
0
 10
-66.6098
 20
-19.4536
 11
-66.5706
 21
-19.3494
  0
LINE
  8
0
 10
-66.5706
 20
-19.3494
 11
-66.5247
 21
-19.2481
  0
LINE
  8
0
 10
-66.5247
 20
-19.2481
 11
-66.4722
 21
-19.15
  0
LINE
  8
0
 10
-66.4722
 20
-19.15
 11
-66.4135
 21
-19.0555
  0
LINE
  8
0
 10
-66.4135
 20
-19.0555
 11
-66.3487
 21
-18.9651
  0
LINE
  8
0
 10
-66.3487
 20
-18.9651
 11
-66.2781
 21
-18.8791
  0
LINE
  8
0
 10
-66.2781
 20
-18.8791
 11
-66.2021
 21
-18.7979
  0
LINE
  8
0
 10
-66.2021
 20
-18.7979
 11
-66.1209
 21
-18.7219
  0
LINE
  8
0
 10
-66.1209
 20
-18.7219
 11
-66.0349
 21
-18.6513
  0
LINE
  8
0
 10
-66.0349
 20
-18.6513
 11
-65.9445
 21
-18.5865
  0
LINE
  8
0
 10
-65.9445
 20
-18.5865
 11
-65.85
 21
-18.5278
  0
LINE
  8
0
 10
-65.85
 20
-18.5278
 11
-65.7519
 21
-18.4753
  0
LINE
  8
0
 10
-65.7519
 20
-18.4753
 11
-65.6506
 21
-18.4294
  0
LINE
  8
0
 10
-65.6506
 20
-18.4294
 11
-65.5464
 21
-18.3902
  0
LINE
  8
0
 10
-65.5464
 20
-18.3902
 11
-65.44
 21
-18.3579
  0
LINE
  8
0
 10
-65.44
 20
-18.3579
 11
-65.3316
 21
-18.3327
  0
LINE
  8
0
 10
-65.3316
 20
-18.3327
 11
-65.2219
 21
-18.3145
  0
LINE
  8
0
 10
-65.2219
 20
-18.3145
 11
-65.1112
 21
-18.3036
  0
LINE
  8
0
 10
-65.1112
 20
-18.3036
 11
-65
 21
-18.3
  0
LINE
  8
0
 10
-65
 20
-18.3
 11
-64.8888
 21
-18.3036
  0
LINE
  8
0
 10
-64.8888
 20
-18.3036
 11
-64.7781
 21
-18.3145
  0
LINE
  8
0
 10
-64.7781
 20
-18.3145
 11
-64.6683
 21
-18.3327
  0
LINE
  8
0
 10
-64.6683
 20
-18.3327
 11
-64.56
 21
-18.3579
  0
LINE
  8
0
 10
-64.56
 20
-18.3579
 11
-64.4536
 21
-18.3902
  0
LINE
  8
0
 10
-64.4536
 20
-18.3902
 11
-64.3494
 21
-18.4294
  0
LINE
  8
0
 10
-64.3494
 20
-18.4294
 11
-64.2481
 21
-18.4753
  0
LINE
  8
0
 10
-64.2481
 20
-18.4753
 11
-64.15
 21
-18.5278
  0
LINE
  8
0
 10
-64.15
 20
-18.5278
 11
-64.0555
 21
-18.5865
  0
LINE
  8
0
 10
-64.0555
 20
-18.5865
 11
-63.9651
 21
-18.6513
  0
LINE
  8
0
 10
-63.9651
 20
-18.6513
 11
-63.8791
 21
-18.7219
  0
LINE
  8
0
 10
-63.8791
 20
-18.7219
 11
-63.7979
 21
-18.7979
  0
LINE
  8
0
 10
-63.7979
 20
-18.7979
 11
-63.7219
 21
-18.8791
  0
LINE
  8
0
 10
-63.7219
 20
-18.8791
 11
-63.6513
 21
-18.9651
  0
LINE
  8
0
 10
-63.6513
 20
-18.9651
 11
-63.5865
 21
-19.0555
  0
LINE
  8
0
 10
-63.5865
 20
-19.0555
 11
-63.5278
 21
-19.15
  0
LINE
  8
0
 10
-63.5278
 20
-19.15
 11
-63.4753
 21
-19.2481
  0
LINE
  8
0
 10
-63.4753
 20
-19.2481
 11
-63.4294
 21
-19.3494
  0
LINE
  8
0
 10
-63.4294
 20
-19.3494
 11
-63.3902
 21
-19.4536
  0
LINE
  8
0
 10
-63.3902
 20
-19.4536
 11
-63.3579
 21
-19.56
  0
LINE
  8
0
 10
-63.3579
 20
-19.56
 11
-63.3327
 21
-19.6683
  0
LINE
  8
0
 10
-63.3327
 20
-19.6683
 11
-63.3145
 21
-19.7781
  0
LINE
  8
0
 10
-63.3145
 20
-19.7781
 11
-63.3036
 21
-19.8888
  0
LINE
  8
0
 10
-63.3036
 20
-19.8888
 11
-63.3
 21
-20
  0
LINE
  8
0
 10
-63.3
 20
-20
 11
-63.3036
 21
-20.1112
  0
LINE
  8
0
 10
-63.3036
 20
-20.1112
 11
-63.3145
 21
-20.2219
  0
LINE
  8
0
 10
-63.3145
 20
-20.2219
 11
-63.3327
 21
-20.3316
  0
LINE
  8
0
 10
-63.3327
 20
-20.3316
 11
-63.3579
 21
-20.44
  0
LINE
  8
0
 10
-63.3579
 20
-20.44
 11
-63.3902
 21
-20.5464
  0
LINE
  8
0
 10
-63.3902
 20
-20.5464
 11
-63.4294
 21
-20.6506
  0
LINE
  8
0
 10
-63.4294
 20
-20.6506
 11
-63.4753
 21
-20.7519
  0
LINE
  8
0
 10
-63.4753
 20
-20.7519
 11
-63.5278
 21
-20.85
  0
LINE
  8
0
 10
-63.5278
 20
-20.85
 11
-63.5865
 21
-20.9445
  0
LINE
  8
0
 10
-63.5865
 20
-20.9445
 11
-63.6513
 21
-21.0349
  0
LINE
  8
0
 10
-63.6513
 20
-21.0349
 11
-63.7219
 21
-21.1209
  0
LINE
  8
0
 10
-63.7219
 20
-21.1209
 11
-63.7979
 21
-21.2021
  0
LINE
  8
0
 10
-63.7979
 20
-21.2021
 11
-63.8791
 21
-21.2781
  0
LINE
  8
0
 10
-63.8791
 20
-21.2781
 11
-63.9651
 21
-21.3487
  0
LINE
  8
0
 10
-63.9651
 20
-21.3487
 11
-64.0555
 21
-21.4135
  0
LINE
  8
0
 10
-64.0555
 20
-21.4135
 11
-64.15
 21
-21.4722
  0
LINE
  8
0
 10
-64.15
 20
-21.4722
 11
-64.2481
 21
-21.5247
  0
LINE
  8
0
 10
-64.2481
 20
-21.5247
 11
-64.3494
 21
-21.5706
  0
LINE
  8
0
 10
-64.3494
 20
-21.5706
 11
-64.4536
 21
-21.6098
  0
LINE
  8
0
 10
-64.4536
 20
-21.6098
 11
-64.56
 21
-21.6421
  0
LINE
  8
0
 10
-64.56
 20
-21.6421
 11
-64.6683
 21
-21.6673
  0
LINE
  8
0
 10
-64.6683
 20
-21.6673
 11
-64.7781
 21
-21.6855
  0
LINE
  8
0
 10
-64.7781
 20
-21.6855
 11
-64.8888
 21
-21.6964
  0
LINE
  8
0
 10
-64.8888
 20
-21.6964
 11
-65
 21
-21.7
  0
LINE
  8
0
 10
-65
 20
-21.7
 11
-65.1112
 21
-21.6964
  0
LINE
  8
0
 10
88.8528
 20
-57.2452
 11
88.7063
 21
-57.2307
  0
LINE
  8
0
 10
88.7063
 20
-57.2307
 11
88.561
 21
-57.2068
  0
LINE
  8
0
 10
88.561
 20
-57.2068
 11
88.4176
 21
-57.1733
  0
LINE
  8
0
 10
88.4176
 20
-57.1733
 11
88.2767
 21
-57.1306
  0
LINE
  8
0
 10
88.2767
 20
-57.1306
 11
88.139
 21
-57.0787
  0
LINE
  8
0
 10
88.139
 20
-57.0787
 11
88.0048
 21
-57.018
  0
LINE
  8
0
 10
88.0048
 20
-57.018
 11
87.875
 21
-56.9485
  0
LINE
  8
0
 10
87.875
 20
-56.9485
 11
87.75
 21
-56.8708
  0
LINE
  8
0
 10
87.75
 20
-56.8708
 11
87.6303
 21
-56.785
  0
LINE
  8
0
 10
87.6303
 20
-56.785
 11
87.5165
 21
-56.6916
  0
LINE
  8
0
 10
87.5165
 20
-56.6916
 11
87.409
 21
-56.591
  0
LINE
  8
0
 10
87.409
 20
-56.591
 11
87.3083
 21
-56.4835
  0
LINE
  8
0
 10
87.3083
 20
-56.4835
 11
87.215
 21
-56.3697
  0
LINE
  8
0
 10
87.215
 20
-56.3697
 11
87.1292
 21
-56.25
  0
LINE
  8
0
 10
87.1292
 20
-56.25
 11
87.0514
 21
-56.125
  0
LINE
  8
0
 10
87.0514
 20
-56.125
 11
86.982
 21
-55.9951
  0
LINE
  8
0
 10
86.982
 20
-55.9951
 11
86.9213
 21
-55.861
  0
LINE
  8
0
 10
86.9213
 20
-55.861
 11
86.8694
 21
-55.7232
  0
LINE
  8
0
 10
86.8694
 20
-55.7232
 11
86.8267
 21
-55.5823
  0
LINE
  8
0
 10
86.8267
 20
-55.5823
 11
86.7932
 21
-55.4389
  0
LINE
  8
0
 10
86.7932
 20
-55.4389
 11
86.7692
 21
-55.2937
  0
LINE
  8
0
 10
86.7692
 20
-55.2937
 11
86.7548
 21
-55.1472
  0
LINE
  8
0
 10
86.7548
 20
-55.1472
 11
86.75
 21
-55
  0
LINE
  8
0
 10
86.75
 20
-55
 11
86.7548
 21
-54.8528
  0
LINE
  8
0
 10
86.7548
 20
-54.8528
 11
86.7692
 21
-54.7063
  0
LINE
  8
0
 10
86.7692
 20
-54.7063
 11
86.7932
 21
-54.561
  0
LINE
  8
0
 10
86.7932
 20
-54.561
 11
86.8267
 21
-54.4176
  0
LINE
  8
0
 10
86.8267
 20
-54.4176
 11
86.8694
 21
-54.2767
  0
LINE
  8
0
 10
86.8694
 20
-54.2767
 11
86.9213
 21
-54.139
  0
LINE
  8
0
 10
86.9213
 20
-54.139
 11
86.982
 21
-54.0048
  0
LINE
  8
0
 10
86.982
 20
-54.0048
 11
87.0514
 21
-53.875
  0
LINE
  8
0
 10
87.0514
 20
-53.875
 11
87.1292
 21
-53.75
  0
LINE
  8
0
 10
87.1292
 20
-53.75
 11
87.215
 21
-53.6303
  0
LINE
  8
0
 10
87.215
 20
-53.6303
 11
87.3083
 21
-53.5165
  0
LINE
  8
0
 10
87.3083
 20
-53.5165
 11
87.409
 21
-53.409
  0
LINE
  8
0
 10
87.409
 20
-53.409
 11
87.5165
 21
-53.3083
  0
LINE
  8
0
 10
87.5165
 20
-53.3083
 11
87.6303
 21
-53.215
  0
LINE
  8
0
 10
87.6303
 20
-53.215
 11
87.75
 21
-53.1292
  0
LINE
  8
0
 10
87.75
 20
-53.1292
 11
87.875
 21
-53.0514
  0
LINE
  8
0
 10
87.875
 20
-53.0514
 11
88.0048
 21
-52.982
  0
LINE
  8
0
 10
88.0048
 20
-52.982
 11
88.139
 21
-52.9213
  0
LINE
  8
0
 10
88.139
 20
-52.9213
 11
88.2767
 21
-52.8694
  0
LINE
  8
0
 10
88.2767
 20
-52.8694
 11
88.4176
 21
-52.8267
  0
LINE
  8
0
 10
88.4176
 20
-52.8267
 11
88.561
 21
-52.7932
  0
LINE
  8
0
 10
88.561
 20
-52.7932
 11
88.7063
 21
-52.7692
  0
LINE
  8
0
 10
88.7063
 20
-52.7692
 11
88.8528
 21
-52.7548
  0
LINE
  8
0
 10
88.8528
 20
-52.7548
 11
89
 21
-52.75
  0
LINE
  8
0
 10
89
 20
-52.75
 11
89.1472
 21
-52.7548
  0
LINE
  8
0
 10
89.1472
 20
-52.7548
 11
89.2937
 21
-52.7692
  0
LINE
  8
0
 10
89.2937
 20
-52.7692
 11
89.4389
 21
-52.7932
  0
LINE
  8
0
 10
89.4389
 20
-52.7932
 11
89.5823
 21
-52.8267
  0
LINE
  8
0
 10
89.5823
 20
-52.8267
 11
89.7232
 21
-52.8694
  0
LINE
  8
0
 10
89.7232
 20
-52.8694
 11
89.861
 21
-52.9213
  0
LINE
  8
0
 10
89.861
 20
-52.9213
 11
89.9951
 21
-52.982
  0
LINE
  8
0
 10
89.9951
 20
-52.982
 11
90.125
 21
-53.0514
  0
LINE
  8
0
 10
90.125
 20
-53.0514
 11
90.25
 21
-53.1292
  0
LINE
  8
0
 10
90.25
 20
-53.1292
 11
90.3697
 21
-53.215
  0
LINE
  8
0
 10
90.3697
 20
-53.215
 11
90.4835
 21
-53.3083
  0
LINE
  8
0
 10
90.4835
 20
-53.3083
 11
90.591
 21
-53.409
  0
LINE
  8
0
 10
90.591
 20
-53.409
 11
90.6916
 21
-53.5165
  0
LINE
  8
0
 10
90.6916
 20
-53.5165
 11
90.785
 21
-53.6303
  0
LINE
  8
0
 10
90.785
 20
-53.6303
 11
90.8708
 21
-53.75
  0
LINE
  8
0
 10
90.8708
 20
-53.75
 11
90.9485
 21
-53.875
  0
LINE
  8
0
 10
90.9485
 20
-53.875
 11
91.018
 21
-54.0048
  0
LINE
  8
0
 10
91.018
 20
-54.0048
 11
91.0787
 21
-54.139
  0
LINE
  8
0
 10
91.0787
 20
-54.139
 11
91.1306
 21
-54.2767
  0
LINE
  8
0
 10
91.1306
 20
-54.2767
 11
91.1733
 21
-54.4176
  0
LINE
  8
0
 10
91.1733
 20
-54.4176
 11
91.2068
 21
-54.561
  0
LINE
  8
0
 10
91.2068
 20
-54.561
 11
91.2307
 21
-54.7063
  0
LINE
  8
0
 10
91.2307
 20
-54.7063
 11
91.2452
 21
-54.8528
  0
LINE
  8
0
 10
91.2452
 20
-54.8528
 11
91.25
 21
-55
  0
LINE
  8
0
 10
91.25
 20
-55
 11
91.2452
 21
-55.1472
  0
LINE
  8
0
 10
91.2452
 20
-55.1472
 11
91.2307
 21
-55.2937
  0
LINE
  8
0
 10
91.2307
 20
-55.2937
 11
91.2068
 21
-55.4389
  0
LINE
  8
0
 10
91.2068
 20
-55.4389
 11
91.1733
 21
-55.5823
  0
LINE
  8
0
 10
91.1733
 20
-55.5823
 11
91.1306
 21
-55.7232
  0
LINE
  8
0
 10
91.1306
 20
-55.7232
 11
91.0787
 21
-55.861
  0
LINE
  8
0
 10
91.0787
 20
-55.861
 11
91.018
 21
-55.9951
  0
LINE
  8
0
 10
91.018
 20
-55.9951
 11
90.9485
 21
-56.125
  0
LINE
  8
0
 10
90.9485
 20
-56.125
 11
90.8708
 21
-56.25
  0
LINE
  8
0
 10
90.8708
 20
-56.25
 11
90.785
 21
-56.3697
  0
LINE
  8
0
 10
90.785
 20
-56.3697
 11
90.6916
 21
-56.4835
  0
LINE
  8
0
 10
90.6916
 20
-56.4835
 11
90.591
 21
-56.591
  0
LINE
  8
0
 10
90.591
 20
-56.591
 11
90.4835
 21
-56.6916
  0
LINE
  8
0
 10
90.4835
 20
-56.6916
 11
90.3697
 21
-56.785
  0
LINE
  8
0
 10
90.3697
 20
-56.785
 11
90.25
 21
-56.8708
  0
LINE
  8
0
 10
90.25
 20
-56.8708
 11
90.125
 21
-56.9485
  0
LINE
  8
0
 10
90.125
 20
-56.9485
 11
89.9951
 21
-57.018
  0
LINE
  8
0
 10
89.9951
 20
-57.018
 11
89.861
 21
-57.0787
  0
LINE
  8
0
 10
89.861
 20
-57.0787
 11
89.7232
 21
-57.1306
  0
LINE
  8
0
 10
89.7232
 20
-57.1306
 11
89.5823
 21
-57.1733
  0
LINE
  8
0
 10
89.5823
 20
-57.1733
 11
89.4389
 21
-57.2068
  0
LINE
  8
0
 10
89.4389
 20
-57.2068
 11
89.2937
 21
-57.2307
  0
LINE
  8
0
 10
89.2937
 20
-57.2307
 11
89.1472
 21
-57.2452
  0
LINE
  8
0
 10
89.1472
 20
-57.2452
 11
89
 21
-57.25
  0
LINE
  8
0
 10
89
 20
-57.25
 11
88.8528
 21
-57.2452
  0
LINE
  8
0
 10
-89.1472
 20
-57.2452
 11
-89.2937
 21
-57.2307
  0
LINE
  8
0
 10
-89.2937
 20
-57.2307
 11
-89.4389
 21
-57.2068
  0
LINE
  8
0
 10
-89.4389
 20
-57.2068
 11
-89.5823
 21
-57.1733
  0
LINE
  8
0
 10
-89.5823
 20
-57.1733
 11
-89.7232
 21
-57.1306
  0
LINE
  8
0
 10
-89.7232
 20
-57.1306
 11
-89.861
 21
-57.0787
  0
LINE
  8
0
 10
-89.861
 20
-57.0787
 11
-89.9951
 21
-57.018
  0
LINE
  8
0
 10
-89.9951
 20
-57.018
 11
-90.125
 21
-56.9485
  0
LINE
  8
0
 10
-90.125
 20
-56.9485
 11
-90.25
 21
-56.8708
  0
LINE
  8
0
 10
-90.25
 20
-56.8708
 11
-90.3697
 21
-56.785
  0
LINE
  8
0
 10
-90.3697
 20
-56.785
 11
-90.4835
 21
-56.6916
  0
LINE
  8
0
 10
-90.4835
 20
-56.6916
 11
-90.591
 21
-56.591
  0
LINE
  8
0
 10
-90.591
 20
-56.591
 11
-90.6916
 21
-56.4835
  0
LINE
  8
0
 10
-90.6916
 20
-56.4835
 11
-90.785
 21
-56.3697
  0
LINE
  8
0
 10
-90.785
 20
-56.3697
 11
-90.8708
 21
-56.25
  0
LINE
  8
0
 10
-90.8708
 20
-56.25
 11
-90.9485
 21
-56.125
  0
LINE
  8
0
 10
-90.9485
 20
-56.125
 11
-91.018
 21
-55.9951
  0
LINE
  8
0
 10
-91.018
 20
-55.9951
 11
-91.0787
 21
-55.861
  0
LINE
  8
0
 10
-91.0787
 20
-55.861
 11
-91.1306
 21
-55.7232
  0
LINE
  8
0
 10
-91.1306
 20
-55.7232
 11
-91.1733
 21
-55.5823
  0
LINE
  8
0
 10
-91.1733
 20
-55.5823
 11
-91.2068
 21
-55.4389
  0
LINE
  8
0
 10
-91.2068
 20
-55.4389
 11
-91.2307
 21
-55.2937
  0
LINE
  8
0
 10
-91.2307
 20
-55.2937
 11
-91.2452
 21
-55.1472
  0
LINE
  8
0
 10
-91.2452
 20
-55.1472
 11
-91.25
 21
-55
  0
LINE
  8
0
 10
-91.25
 20
-55
 11
-91.2452
 21
-54.8528
  0
LINE
  8
0
 10
-91.2452
 20
-54.8528
 11
-91.2307
 21
-54.7063
  0
LINE
  8
0
 10
-91.2307
 20
-54.7063
 11
-91.2068
 21
-54.561
  0
LINE
  8
0
 10
-91.2068
 20
-54.561
 11
-91.1733
 21
-54.4176
  0
LINE
  8
0
 10
-91.1733
 20
-54.4176
 11
-91.1306
 21
-54.2767
  0
LINE
  8
0
 10
-91.1306
 20
-54.2767
 11
-91.0787
 21
-54.139
  0
LINE
  8
0
 10
-91.0787
 20
-54.139
 11
-91.018
 21
-54.0048
  0
LINE
  8
0
 10
-91.018
 20
-54.0048
 11
-90.9485
 21
-53.875
  0
LINE
  8
0
 10
-90.9485
 20
-53.875
 11
-90.8708
 21
-53.75
  0
LINE
  8
0
 10
-90.8708
 20
-53.75
 11
-90.785
 21
-53.6303
  0
LINE
  8
0
 10
-90.785
 20
-53.6303
 11
-90.6916
 21
-53.5165
  0
LINE
  8
0
 10
-90.6916
 20
-53.5165
 11
-90.591
 21
-53.409
  0
LINE
  8
0
 10
-90.591
 20
-53.409
 11
-90.4835
 21
-53.3083
  0
LINE
  8
0
 10
-90.4835
 20
-53.3083
 11
-90.3697
 21
-53.215
  0
LINE
  8
0
 10
-90.3697
 20
-53.215
 11
-90.25
 21
-53.1292
  0
LINE
  8
0
 10
-90.25
 20
-53.1292
 11
-90.125
 21
-53.0514
  0
LINE
  8
0
 10
-90.125
 20
-53.0514
 11
-89.9951
 21
-52.982
  0
LINE
  8
0
 10
-89.9951
 20
-52.982
 11
-89.861
 21
-52.9213
  0
LINE
  8
0
 10
-89.861
 20
-52.9213
 11
-89.7232
 21
-52.8694
  0
LINE
  8
0
 10
-89.7232
 20
-52.8694
 11
-89.5823
 21
-52.8267
  0
LINE
  8
0
 10
-89.5823
 20
-52.8267
 11
-89.4389
 21
-52.7932
  0
LINE
  8
0
 10
-89.4389
 20
-52.7932
 11
-89.2937
 21
-52.7692
  0
LINE
  8
0
 10
-89.2937
 20
-52.7692
 11
-89.1472
 21
-52.7548
  0
LINE
  8
0
 10
-89.1472
 20
-52.7548
 11
-89
 21
-52.75
  0
LINE
  8
0
 10
-89
 20
-52.75
 11
-88.8528
 21
-52.7548
  0
LINE
  8
0
 10
-88.8528
 20
-52.7548
 11
-88.7063
 21
-52.7692
  0
LINE
  8
0
 10
-88.7063
 20
-52.7692
 11
-88.561
 21
-52.7932
  0
LINE
  8
0
 10
-88.561
 20
-52.7932
 11
-88.4176
 21
-52.8267
  0
LINE
  8
0
 10
-88.4176
 20
-52.8267
 11
-88.2767
 21
-52.8694
  0
LINE
  8
0
 10
-88.2767
 20
-52.8694
 11
-88.139
 21
-52.9213
  0
LINE
  8
0
 10
-88.139
 20
-52.9213
 11
-88.0048
 21
-52.982
  0
LINE
  8
0
 10
-88.0048
 20
-52.982
 11
-87.875
 21
-53.0514
  0
LINE
  8
0
 10
-87.875
 20
-53.0514
 11
-87.75
 21
-53.1292
  0
LINE
  8
0
 10
-87.75
 20
-53.1292
 11
-87.6303
 21
-53.215
  0
LINE
  8
0
 10
-87.6303
 20
-53.215
 11
-87.5165
 21
-53.3083
  0
LINE
  8
0
 10
-87.5165
 20
-53.3083
 11
-87.409
 21
-53.409
  0
LINE
  8
0
 10
-87.409
 20
-53.409
 11
-87.3083
 21
-53.5165
  0
LINE
  8
0
 10
-87.3083
 20
-53.5165
 11
-87.215
 21
-53.6303
  0
LINE
  8
0
 10
-87.215
 20
-53.6303
 11
-87.1292
 21
-53.75
  0
LINE
  8
0
 10
-87.1292
 20
-53.75
 11
-87.0514
 21
-53.875
  0
LINE
  8
0
 10
-87.0514
 20
-53.875
 11
-86.982
 21
-54.0048
  0
LINE
  8
0
 10
-86.982
 20
-54.0048
 11
-86.9213
 21
-54.139
  0
LINE
  8
0
 10
-86.9213
 20
-54.139
 11
-86.8694
 21
-54.2767
  0
LINE
  8
0
 10
-86.8694
 20
-54.2767
 11
-86.8267
 21
-54.4176
  0
LINE
  8
0
 10
-86.8267
 20
-54.4176
 11
-86.7932
 21
-54.561
  0
LINE
  8
0
 10
-86.7932
 20
-54.561
 11
-86.7692
 21
-54.7063
  0
LINE
  8
0
 10
-86.7692
 20
-54.7063
 11
-86.7548
 21
-54.8528
  0
LINE
  8
0
 10
-86.7548
 20
-54.8528
 11
-86.75
 21
-55
  0
LINE
  8
0
 10
-86.75
 20
-55
 11
-86.7548
 21
-55.1472
  0
LINE
  8
0
 10
-86.7548
 20
-55.1472
 11
-86.7692
 21
-55.2937
  0
LINE
  8
0
 10
-86.7692
 20
-55.2937
 11
-86.7932
 21
-55.4389
  0
LINE
  8
0
 10
-86.7932
 20
-55.4389
 11
-86.8267
 21
-55.5823
  0
LINE
  8
0
 10
-86.8267
 20
-55.5823
 11
-86.8694
 21
-55.7232
  0
LINE
  8
0
 10
-86.8694
 20
-55.7232
 11
-86.9213
 21
-55.861
  0
LINE
  8
0
 10
-86.9213
 20
-55.861
 11
-86.982
 21
-55.9951
  0
LINE
  8
0
 10
-86.982
 20
-55.9951
 11
-87.0514
 21
-56.125
  0
LINE
  8
0
 10
-87.0514
 20
-56.125
 11
-87.1292
 21
-56.25
  0
LINE
  8
0
 10
-87.1292
 20
-56.25
 11
-87.215
 21
-56.3697
  0
LINE
  8
0
 10
-87.215
 20
-56.3697
 11
-87.3083
 21
-56.4835
  0
LINE
  8
0
 10
-87.3083
 20
-56.4835
 11
-87.409
 21
-56.591
  0
LINE
  8
0
 10
-87.409
 20
-56.591
 11
-87.5165
 21
-56.6916
  0
LINE
  8
0
 10
-87.5165
 20
-56.6916
 11
-87.6303
 21
-56.785
  0
LINE
  8
0
 10
-87.6303
 20
-56.785
 11
-87.75
 21
-56.8708
  0
LINE
  8
0
 10
-87.75
 20
-56.8708
 11
-87.875
 21
-56.9485
  0
LINE
  8
0
 10
-87.875
 20
-56.9485
 11
-88.0048
 21
-57.018
  0
LINE
  8
0
 10
-88.0048
 20
-57.018
 11
-88.139
 21
-57.0787
  0
LINE
  8
0
 10
-88.139
 20
-57.0787
 11
-88.2767
 21
-57.1306
  0
LINE
  8
0
 10
-88.2767
 20
-57.1306
 11
-88.4176
 21
-57.1733
  0
LINE
  8
0
 10
-88.4176
 20
-57.1733
 11
-88.561
 21
-57.2068
  0
LINE
  8
0
 10
-88.561
 20
-57.2068
 11
-88.7063
 21
-57.2307
  0
LINE
  8
0
 10
-88.7063
 20
-57.2307
 11
-88.8528
 21
-57.2452
  0
LINE
  8
0
 10
-88.8528
 20
-57.2452
 11
-89
 21
-57.25
  0
LINE
  8
0
 10
-89
 20
-57.25
 11
-89.1472
 21
-57.2452
  0
LINE
  8
0
 10
84.0345
 20
-85.8421
 11
83.9238
 21
-85.8312
  0
LINE
  8
0
 10
83.9238
 20
-85.8312
 11
83.814
 21
-85.813
  0
LINE
  8
0
 10
83.814
 20
-85.813
 11
83.7057
 21
-85.7878
  0
LINE
  8
0
 10
83.7057
 20
-85.7878
 11
83.5993
 21
-85.7555
  0
LINE
  8
0
 10
83.5993
 20
-85.7555
 11
83.4951
 21
-85.7163
  0
LINE
  8
0
 10
83.4951
 20
-85.7163
 11
83.3938
 21
-85.6704
  0
LINE
  8
0
 10
83.3938
 20
-85.6704
 11
83.2957
 21
-85.6179
  0
LINE
  8
0
 10
83.2957
 20
-85.6179
 11
83.2012
 21
-85.5592
  0
LINE
  8
0
 10
83.2012
 20
-85.5592
 11
83.1108
 21
-85.4944
  0
LINE
  8
0
 10
83.1108
 20
-85.4944
 11
83.0248
 21
-85.4238
  0
LINE
  8
0
 10
83.0248
 20
-85.4238
 11
82.9436
 21
-85.3478
  0
LINE
  8
0
 10
82.9436
 20
-85.3478
 11
82.8676
 21
-85.2666
  0
LINE
  8
0
 10
82.8676
 20
-85.2666
 11
82.797
 21
-85.1806
  0
LINE
  8
0
 10
82.797
 20
-85.1806
 11
82.7322
 21
-85.0902
  0
LINE
  8
0
 10
82.7322
 20
-85.0902
 11
82.6735
 21
-84.9957
  0
LINE
  8
0
 10
82.6735
 20
-84.9957
 11
82.621
 21
-84.8976
  0
LINE
  8
0
 10
82.621
 20
-84.8976
 11
82.5751
 21
-84.7963
  0
LINE
  8
0
 10
82.5751
 20
-84.7963
 11
82.5359
 21
-84.6922
  0
LINE
  8
0
 10
82.5359
 20
-84.6922
 11
82.5036
 21
-84.5857
  0
LINE
  8
0
 10
82.5036
 20
-84.5857
 11
82.4784
 21
-84.4774
  0
LINE
  8
0
 10
82.4784
 20
-84.4774
 11
82.4602
 21
-84.3676
  0
LINE
  8
0
 10
82.4602
 20
-84.3676
 11
82.4493
 21
-84.2569
  0
LINE
  8
0
 10
82.4493
 20
-84.2569
 11
82.4457
 21
-84.1457
  0
LINE
  8
0
 10
82.4457
 20
-84.1457
 11
82.4493
 21
-84.0345
  0
LINE
  8
0
 10
82.4493
 20
-84.0345
 11
82.4602
 21
-83.9238
  0
LINE
  8
0
 10
82.4602
 20
-83.9238
 11
82.4784
 21
-83.814
  0
LINE
  8
0
 10
82.4784
 20
-83.814
 11
82.5036
 21
-83.7057
  0
LINE
  8
0
 10
82.5036
 20
-83.7057
 11
82.5359
 21
-83.5993
  0
LINE
  8
0
 10
82.5359
 20
-83.5993
 11
82.5751
 21
-83.4951
  0
LINE
  8
0
 10
82.5751
 20
-83.4951
 11
82.621
 21
-83.3938
  0
LINE
  8
0
 10
82.621
 20
-83.3938
 11
82.6735
 21
-83.2957
  0
LINE
  8
0
 10
82.6735
 20
-83.2957
 11
82.7322
 21
-83.2012
  0
LINE
  8
0
 10
82.7322
 20
-83.2012
 11
82.797
 21
-83.1108
  0
LINE
  8
0
 10
82.797
 20
-83.1108
 11
82.8676
 21
-83.0248
  0
LINE
  8
0
 10
82.8676
 20
-83.0248
 11
82.9436
 21
-82.9436
  0
LINE
  8
0
 10
82.9436
 20
-82.9436
 11
83.0248
 21
-82.8676
  0
LINE
  8
0
 10
83.0248
 20
-82.8676
 11
83.1108
 21
-82.797
  0
LINE
  8
0
 10
83.1108
 20
-82.797
 11
83.2012
 21
-82.7322
  0
LINE
  8
0
 10
83.2012
 20
-82.7322
 11
83.2957
 21
-82.6735
  0
LINE
  8
0
 10
83.2957
 20
-82.6735
 11
83.3938
 21
-82.621
  0
LINE
  8
0
 10
83.3938
 20
-82.621
 11
83.4951
 21
-82.5751
  0
LINE
  8
0
 10
83.4951
 20
-82.5751
 11
83.5993
 21
-82.5359
  0
LINE
  8
0
 10
83.5993
 20
-82.5359
 11
83.7057
 21
-82.5036
  0
LINE
  8
0
 10
83.7057
 20
-82.5036
 11
83.814
 21
-82.4784
  0
LINE
  8
0
 10
83.814
 20
-82.4784
 11
83.9238
 21
-82.4602
  0
LINE
  8
0
 10
83.9238
 20
-82.4602
 11
84.0345
 21
-82.4493
  0
LINE
  8
0
 10
84.0345
 20
-82.4493
 11
84.1457
 21
-82.4457
  0
LINE
  8
0
 10
84.1457
 20
-82.4457
 11
84.2569
 21
-82.4493
  0
LINE
  8
0
 10
84.2569
 20
-82.4493
 11
84.3676
 21
-82.4602
  0
LINE
  8
0
 10
84.3676
 20
-82.4602
 11
84.4774
 21
-82.4784
  0
LINE
  8
0
 10
84.4774
 20
-82.4784
 11
84.5857
 21
-82.5036
  0
LINE
  8
0
 10
84.5857
 20
-82.5036
 11
84.6922
 21
-82.5359
  0
LINE
  8
0
 10
84.6922
 20
-82.5359
 11
84.7963
 21
-82.5751
  0
LINE
  8
0
 10
84.7963
 20
-82.5751
 11
84.8976
 21
-82.621
  0
LINE
  8
0
 10
84.8976
 20
-82.621
 11
84.9957
 21
-82.6735
  0
LINE
  8
0
 10
84.9957
 20
-82.6735
 11
85.0902
 21
-82.7322
  0
LINE
  8
0
 10
85.0902
 20
-82.7322
 11
85.1806
 21
-82.797
  0
LINE
  8
0
 10
85.1806
 20
-82.797
 11
85.2666
 21
-82.8676
  0
LINE
  8
0
 10
85.2666
 20
-82.8676
 11
85.3478
 21
-82.9436
  0
LINE
  8
0
 10
85.3478
 20
-82.9436
 11
85.4238
 21
-83.0248
  0
LINE
  8
0
 10
85.4238
 20
-83.0248
 11
85.4944
 21
-83.1108
  0
LINE
  8
0
 10
85.4944
 20
-83.1108
 11
85.5592
 21
-83.2012
  0
LINE
  8
0
 10
85.5592
 20
-83.2012
 11
85.6179
 21
-83.2957
  0
LINE
  8
0
 10
85.6179
 20
-83.2957
 11
85.6704
 21
-83.3938
  0
LINE
  8
0
 10
85.6704
 20
-83.3938
 11
85.7163
 21
-83.4951
  0
LINE
  8
0
 10
85.7163
 20
-83.4951
 11
85.7555
 21
-83.5993
  0
LINE
  8
0
 10
85.7555
 20
-83.5993
 11
85.7878
 21
-83.7057
  0
LINE
  8
0
 10
85.7878
 20
-83.7057
 11
85.813
 21
-83.814
  0
LINE
  8
0
 10
85.813
 20
-83.814
 11
85.8312
 21
-83.9238
  0
LINE
  8
0
 10
85.8312
 20
-83.9238
 11
85.8421
 21
-84.0345
  0
LINE
  8
0
 10
85.8421
 20
-84.0345
 11
85.8457
 21
-84.1457
  0
LINE
  8
0
 10
85.8457
 20
-84.1457
 11
85.8421
 21
-84.2569
  0
LINE
  8
0
 10
85.8421
 20
-84.2569
 11
85.8312
 21
-84.3676
  0
LINE
  8
0
 10
85.8312
 20
-84.3676
 11
85.813
 21
-84.4774
  0
LINE
  8
0
 10
85.813
 20
-84.4774
 11
85.7878
 21
-84.5857
  0
LINE
  8
0
 10
85.7878
 20
-84.5857
 11
85.7555
 21
-84.6922
  0
LINE
  8
0
 10
85.7555
 20
-84.6922
 11
85.7163
 21
-84.7963
  0
LINE
  8
0
 10
85.7163
 20
-84.7963
 11
85.6704
 21
-84.8976
  0
LINE
  8
0
 10
85.6704
 20
-84.8976
 11
85.6179
 21
-84.9957
  0
LINE
  8
0
 10
85.6179
 20
-84.9957
 11
85.5592
 21
-85.0902
  0
LINE
  8
0
 10
85.5592
 20
-85.0902
 11
85.4944
 21
-85.1806
  0
LINE
  8
0
 10
85.4944
 20
-85.1806
 11
85.4238
 21
-85.2666
  0
LINE
  8
0
 10
85.4238
 20
-85.2666
 11
85.3478
 21
-85.3478
  0
LINE
  8
0
 10
85.3478
 20
-85.3478
 11
85.2666
 21
-85.4238
  0
LINE
  8
0
 10
85.2666
 20
-85.4238
 11
85.1806
 21
-85.4944
  0
LINE
  8
0
 10
85.1806
 20
-85.4944
 11
85.0902
 21
-85.5592
  0
LINE
  8
0
 10
85.0902
 20
-85.5592
 11
84.9957
 21
-85.6179
  0
LINE
  8
0
 10
84.9957
 20
-85.6179
 11
84.8976
 21
-85.6704
  0
LINE
  8
0
 10
84.8976
 20
-85.6704
 11
84.7963
 21
-85.7163
  0
LINE
  8
0
 10
84.7963
 20
-85.7163
 11
84.6922
 21
-85.7555
  0
LINE
  8
0
 10
84.6922
 20
-85.7555
 11
84.5857
 21
-85.7878
  0
LINE
  8
0
 10
84.5857
 20
-85.7878
 11
84.4774
 21
-85.813
  0
LINE
  8
0
 10
84.4774
 20
-85.813
 11
84.3676
 21
-85.8312
  0
LINE
  8
0
 10
84.3676
 20
-85.8312
 11
84.2569
 21
-85.8421
  0
LINE
  8
0
 10
84.2569
 20
-85.8421
 11
84.1457
 21
-85.8457
  0
LINE
  8
0
 10
84.1457
 20
-85.8457
 11
84.0345
 21
-85.8421
  0
LINE
  8
0
 10
-84.2569
 20
-85.8421
 11
-84.3676
 21
-85.8312
  0
LINE
  8
0
 10
-84.3676
 20
-85.8312
 11
-84.4774
 21
-85.813
  0
LINE
  8
0
 10
-84.4774
 20
-85.813
 11
-84.5857
 21
-85.7878
  0
LINE
  8
0
 10
-84.5857
 20
-85.7878
 11
-84.6922
 21
-85.7555
  0
LINE
  8
0
 10
-84.6922
 20
-85.7555
 11
-84.7963
 21
-85.7163
  0
LINE
  8
0
 10
-84.7963
 20
-85.7163
 11
-84.8976
 21
-85.6704
  0
LINE
  8
0
 10
-84.8976
 20
-85.6704
 11
-84.9957
 21
-85.6179
  0
LINE
  8
0
 10
-84.9957
 20
-85.6179
 11
-85.0902
 21
-85.5592
  0
LINE
  8
0
 10
-85.0902
 20
-85.5592
 11
-85.1806
 21
-85.4944
  0
LINE
  8
0
 10
-85.1806
 20
-85.4944
 11
-85.2666
 21
-85.4238
  0
LINE
  8
0
 10
-85.2666
 20
-85.4238
 11
-85.3478
 21
-85.3478
  0
LINE
  8
0
 10
-85.3478
 20
-85.3478
 11
-85.4238
 21
-85.2666
  0
LINE
  8
0
 10
-85.4238
 20
-85.2666
 11
-85.4944
 21
-85.1806
  0
LINE
  8
0
 10
-85.4944
 20
-85.1806
 11
-85.5592
 21
-85.0902
  0
LINE
  8
0
 10
-85.5592
 20
-85.0902
 11
-85.6179
 21
-84.9957
  0
LINE
  8
0
 10
-85.6179
 20
-84.9957
 11
-85.6704
 21
-84.8976
  0
LINE
  8
0
 10
-85.6704
 20
-84.8976
 11
-85.7163
 21
-84.7963
  0
LINE
  8
0
 10
-85.7163
 20
-84.7963
 11
-85.7555
 21
-84.6922
  0
LINE
  8
0
 10
-85.7555
 20
-84.6922
 11
-85.7878
 21
-84.5857
  0
LINE
  8
0
 10
-85.7878
 20
-84.5857
 11
-85.813
 21
-84.4774
  0
LINE
  8
0
 10
-85.813
 20
-84.4774
 11
-85.8312
 21
-84.3676
  0
LINE
  8
0
 10
-85.8312
 20
-84.3676
 11
-85.8421
 21
-84.2569
  0
LINE
  8
0
 10
-85.8421
 20
-84.2569
 11
-85.8457
 21
-84.1457
  0
LINE
  8
0
 10
-85.8457
 20
-84.1457
 11
-85.8421
 21
-84.0345
  0
LINE
  8
0
 10
-85.8421
 20
-84.0345
 11
-85.8312
 21
-83.9238
  0
LINE
  8
0
 10
-85.8312
 20
-83.9238
 11
-85.813
 21
-83.814
  0
LINE
  8
0
 10
-85.813
 20
-83.814
 11
-85.7878
 21
-83.7057
  0
LINE
  8
0
 10
-85.7878
 20
-83.7057
 11
-85.7555
 21
-83.5993
  0
LINE
  8
0
 10
-85.7555
 20
-83.5993
 11
-85.7163
 21
-83.4951
  0
LINE
  8
0
 10
-85.7163
 20
-83.4951
 11
-85.6704
 21
-83.3938
  0
LINE
  8
0
 10
-85.6704
 20
-83.3938
 11
-85.6179
 21
-83.2957
  0
LINE
  8
0
 10
-85.6179
 20
-83.2957
 11
-85.5592
 21
-83.2012
  0
LINE
  8
0
 10
-85.5592
 20
-83.2012
 11
-85.4944
 21
-83.1108
  0
LINE
  8
0
 10
-85.4944
 20
-83.1108
 11
-85.4238
 21
-83.0248
  0
LINE
  8
0
 10
-85.4238
 20
-83.0248
 11
-85.3478
 21
-82.9436
  0
LINE
  8
0
 10
-85.3478
 20
-82.9436
 11
-85.2666
 21
-82.8676
  0
LINE
  8
0
 10
-85.2666
 20
-82.8676
 11
-85.1806
 21
-82.797
  0
LINE
  8
0
 10
-85.1806
 20
-82.797
 11
-85.0902
 21
-82.7322
  0
LINE
  8
0
 10
-85.0902
 20
-82.7322
 11
-84.9957
 21
-82.6735
  0
LINE
  8
0
 10
-84.9957
 20
-82.6735
 11
-84.8976
 21
-82.621
  0
LINE
  8
0
 10
-84.8976
 20
-82.621
 11
-84.7963
 21
-82.5751
  0
LINE
  8
0
 10
-84.7963
 20
-82.5751
 11
-84.6922
 21
-82.5359
  0
LINE
  8
0
 10
-84.6922
 20
-82.5359
 11
-84.5857
 21
-82.5036
  0
LINE
  8
0
 10
-84.5857
 20
-82.5036
 11
-84.4774
 21
-82.4784
  0
LINE
  8
0
 10
-84.4774
 20
-82.4784
 11
-84.3676
 21
-82.4602
  0
LINE
  8
0
 10
-84.3676
 20
-82.4602
 11
-84.2569
 21
-82.4493
  0
LINE
  8
0
 10
-84.2569
 20
-82.4493
 11
-84.1457
 21
-82.4457
  0
LINE
  8
0
 10
-84.1457
 20
-82.4457
 11
-84.0345
 21
-82.4493
  0
LINE
  8
0
 10
-84.0345
 20
-82.4493
 11
-83.9238
 21
-82.4602
  0
LINE
  8
0
 10
-83.9238
 20
-82.4602
 11
-83.814
 21
-82.4784
  0
LINE
  8
0
 10
-83.814
 20
-82.4784
 11
-83.7057
 21
-82.5036
  0
LINE
  8
0
 10
-83.7057
 20
-82.5036
 11
-83.5993
 21
-82.5359
  0
LINE
  8
0
 10
-83.5993
 20
-82.5359
 11
-83.4951
 21
-82.5751
  0
LINE
  8
0
 10
-83.4951
 20
-82.5751
 11
-83.3938
 21
-82.621
  0
LINE
  8
0
 10
-83.3938
 20
-82.621
 11
-83.2957
 21
-82.6735
  0
LINE
  8
0
 10
-83.2957
 20
-82.6735
 11
-83.2012
 21
-82.7322
  0
LINE
  8
0
 10
-83.2012
 20
-82.7322
 11
-83.1108
 21
-82.797
  0
LINE
  8
0
 10
-83.1108
 20
-82.797
 11
-83.0248
 21
-82.8676
  0
LINE
  8
0
 10
-83.0248
 20
-82.8676
 11
-82.9436
 21
-82.9436
  0
LINE
  8
0
 10
-82.9436
 20
-82.9436
 11
-82.8676
 21
-83.0248
  0
LINE
  8
0
 10
-82.8676
 20
-83.0248
 11
-82.797
 21
-83.1108
  0
LINE
  8
0
 10
-82.797
 20
-83.1108
 11
-82.7322
 21
-83.2012
  0
LINE
  8
0
 10
-82.7322
 20
-83.2012
 11
-82.6735
 21
-83.2957
  0
LINE
  8
0
 10
-82.6735
 20
-83.2957
 11
-82.621
 21
-83.3938
  0
LINE
  8
0
 10
-82.621
 20
-83.3938
 11
-82.5751
 21
-83.4951
  0
LINE
  8
0
 10
-82.5751
 20
-83.4951
 11
-82.5359
 21
-83.5993
  0
LINE
  8
0
 10
-82.5359
 20
-83.5993
 11
-82.5036
 21
-83.7057
  0
LINE
  8
0
 10
-82.5036
 20
-83.7057
 11
-82.4784
 21
-83.814
  0
LINE
  8
0
 10
-82.4784
 20
-83.814
 11
-82.4602
 21
-83.9238
  0
LINE
  8
0
 10
-82.4602
 20
-83.9238
 11
-82.4493
 21
-84.0345
  0
LINE
  8
0
 10
-82.4493
 20
-84.0345
 11
-82.4457
 21
-84.1457
  0
LINE
  8
0
 10
-82.4457
 20
-84.1457
 11
-82.4493
 21
-84.2569
  0
LINE
  8
0
 10
-82.4493
 20
-84.2569
 11
-82.4602
 21
-84.3676
  0
LINE
  8
0
 10
-82.4602
 20
-84.3676
 11
-82.4784
 21
-84.4774
  0
LINE
  8
0
 10
-82.4784
 20
-84.4774
 11
-82.5036
 21
-84.5857
  0
LINE
  8
0
 10
-82.5036
 20
-84.5857
 11
-82.5359
 21
-84.6922
  0
LINE
  8
0
 10
-82.5359
 20
-84.6922
 11
-82.5751
 21
-84.7963
  0
LINE
  8
0
 10
-82.5751
 20
-84.7963
 11
-82.621
 21
-84.8976
  0
LINE
  8
0
 10
-82.621
 20
-84.8976
 11
-82.6735
 21
-84.9957
  0
LINE
  8
0
 10
-82.6735
 20
-84.9957
 11
-82.7322
 21
-85.0902
  0
LINE
  8
0
 10
-82.7322
 20
-85.0902
 11
-82.797
 21
-85.1806
  0
LINE
  8
0
 10
-82.797
 20
-85.1806
 11
-82.8676
 21
-85.2666
  0
LINE
  8
0
 10
-82.8676
 20
-85.2666
 11
-82.9436
 21
-85.3478
  0
LINE
  8
0
 10
-82.9436
 20
-85.3478
 11
-83.0248
 21
-85.4238
  0
LINE
  8
0
 10
-83.0248
 20
-85.4238
 11
-83.1108
 21
-85.4944
  0
LINE
  8
0
 10
-83.1108
 20
-85.4944
 11
-83.2012
 21
-85.5592
  0
LINE
  8
0
 10
-83.2012
 20
-85.5592
 11
-83.2957
 21
-85.6179
  0
LINE
  8
0
 10
-83.2957
 20
-85.6179
 11
-83.3938
 21
-85.6704
  0
LINE
  8
0
 10
-83.3938
 20
-85.6704
 11
-83.4951
 21
-85.7163
  0
LINE
  8
0
 10
-83.4951
 20
-85.7163
 11
-83.5993
 21
-85.7555
  0
LINE
  8
0
 10
-83.5993
 20
-85.7555
 11
-83.7057
 21
-85.7878
  0
LINE
  8
0
 10
-83.7057
 20
-85.7878
 11
-83.814
 21
-85.813
  0
LINE
  8
0
 10
-83.814
 20
-85.813
 11
-83.9238
 21
-85.8312
  0
LINE
  8
0
 10
-83.9238
 20
-85.8312
 11
-84.0345
 21
-85.8421
  0
LINE
  8
0
 10
-84.0345
 20
-85.8421
 11
-84.1457
 21
-85.8457
  0
LINE
  8
0
 10
-84.1457
 20
-85.8457
 11
-84.2569
 21
-85.8421
  0
ENDSEC
  0
SECTION
  2
OBJECTS
  0
DICTIONARY
  0
ENDSEC
  0
EOF
