  0
SECTION
  2
BLOCKS
  0
ENDSEC
  0
SECTION
  2
ENTITIES
  0
LINE
  8
0
 10
32
 20
-22.0017
 11
32
 21
22.0017
  0
LINE
  8
0
 10
32
 20
22.0017
 11
22.0017
 21
32
  0
LINE
  8
0
 10
22.0017
 20
32
 11
-22.0017
 21
32
  0
LINE
  8
0
 10
-22.0017
 20
32
 11
-32
 21
22.0017
  0
LINE
  8
0
 10
-32
 20
22.0017
 11
-32
 21
-22.0017
  0
LINE
  8
0
 10
-32
 20
-22.0017
 11
-22.0017
 21
-32
  0
LINE
  8
0
 10
-22.0017
 20
-32
 11
22.0017
 21
-32
  0
LINE
  8
0
 10
22.0017
 20
-32
 11
32
 21
-22.0017
  0
LINE
  8
0
 10
-25.1472
 20
19.7548
 11
-25.2937
 21
19.7692
  0
LINE
  8
0
 10
-25.2937
 20
19.7692
 11
-25.4389
 21
19.7932
  0
LINE
  8
0
 10
-25.4389
 20
19.7932
 11
-25.5823
 21
19.8267
  0
LINE
  8
0
 10
-25.5823
 20
19.8267
 11
-25.7232
 21
19.8694
  0
LINE
  8
0
 10
-25.7232
 20
19.8694
 11
-25.861
 21
19.9213
  0
LINE
  8
0
 10
-25.861
 20
19.9213
 11
-25.9951
 21
19.982
  0
LINE
  8
0
 10
-25.9951
 20
19.982
 11
-26.125
 21
20.0514
  0
LINE
  8
0
 10
-26.125
 20
20.0514
 11
-26.25
 21
20.1292
  0
LINE
  8
0
 10
-26.25
 20
20.1292
 11
-26.3697
 21
20.215
  0
LINE
  8
0
 10
-26.3697
 20
20.215
 11
-26.4835
 21
20.3083
  0
LINE
  8
0
 10
-26.4835
 20
20.3083
 11
-26.591
 21
20.409
  0
LINE
  8
0
 10
-26.591
 20
20.409
 11
-26.6916
 21
20.5165
  0
LINE
  8
0
 10
-26.6916
 20
20.5165
 11
-26.785
 21
20.6303
  0
LINE
  8
0
 10
-26.785
 20
20.6303
 11
-26.8708
 21
20.75
  0
LINE
  8
0
 10
-26.8708
 20
20.75
 11
-26.9485
 21
20.875
  0
LINE
  8
0
 10
-26.9485
 20
20.875
 11
-27.018
 21
21.0048
  0
LINE
  8
0
 10
-27.018
 20
21.0048
 11
-27.0787
 21
21.139
  0
LINE
  8
0
 10
-27.0787
 20
21.139
 11
-27.1306
 21
21.2767
  0
LINE
  8
0
 10
-27.1306
 20
21.2767
 11
-27.1733
 21
21.4176
  0
LINE
  8
0
 10
-27.1733
 20
21.4176
 11
-27.2068
 21
21.561
  0
LINE
  8
0
 10
-27.2068
 20
21.561
 11
-27.2307
 21
21.7063
  0
LINE
  8
0
 10
-27.2307
 20
21.7063
 11
-27.2452
 21
21.8528
  0
LINE
  8
0
 10
-27.2452
 20
21.8528
 11
-27.25
 21
22
  0
LINE
  8
0
 10
-27.25
 20
22
 11
-27.2452
 21
22.1472
  0
LINE
  8
0
 10
-27.2452
 20
22.1472
 11
-27.2307
 21
22.2937
  0
LINE
  8
0
 10
-27.2307
 20
22.2937
 11
-27.2068
 21
22.4389
  0
LINE
  8
0
 10
-27.2068
 20
22.4389
 11
-27.1733
 21
22.5823
  0
LINE
  8
0
 10
-27.1733
 20
22.5823
 11
-27.1306
 21
22.7232
  0
LINE
  8
0
 10
-27.1306
 20
22.7232
 11
-27.0787
 21
22.861
  0
LINE
  8
0
 10
-27.0787
 20
22.861
 11
-27.018
 21
22.9951
  0
LINE
  8
0
 10
-27.018
 20
22.9951
 11
-26.9485
 21
23.125
  0
LINE
  8
0
 10
-26.9485
 20
23.125
 11
-26.8708
 21
23.25
  0
LINE
  8
0
 10
-26.8708
 20
23.25
 11
-26.785
 21
23.3697
  0
LINE
  8
0
 10
-26.785
 20
23.3697
 11
-26.6916
 21
23.4835
  0
LINE
  8
0
 10
-26.6916
 20
23.4835
 11
-26.591
 21
23.591
  0
LINE
  8
0
 10
-26.591
 20
23.591
 11
-26.4835
 21
23.6916
  0
LINE
  8
0
 10
-26.4835
 20
23.6916
 11
-26.3697
 21
23.785
  0
LINE
  8
0
 10
-26.3697
 20
23.785
 11
-26.25
 21
23.8708
  0
LINE
  8
0
 10
-26.25
 20
23.8708
 11
-26.125
 21
23.9485
  0
LINE
  8
0
 10
-26.125
 20
23.9485
 11
-25.9951
 21
24.018
  0
LINE
  8
0
 10
-25.9951
 20
24.018
 11
-25.861
 21
24.0787
  0
LINE
  8
0
 10
-25.861
 20
24.0787
 11
-25.7232
 21
24.1306
  0
LINE
  8
0
 10
-25.7232
 20
24.1306
 11
-25.5823
 21
24.1733
  0
LINE
  8
0
 10
-25.5823
 20
24.1733
 11
-25.4389
 21
24.2068
  0
LINE
  8
0
 10
-25.4389
 20
24.2068
 11
-25.2937
 21
24.2307
  0
LINE
  8
0
 10
-25.2937
 20
24.2307
 11
-25.1472
 21
24.2452
  0
LINE
  8
0
 10
-25.1472
 20
24.2452
 11
-25
 21
24.25
  0
LINE
  8
0
 10
-25
 20
24.25
 11
-24.8528
 21
24.2452
  0
LINE
  8
0
 10
-24.8528
 20
24.2452
 11
-24.7063
 21
24.2307
  0
LINE
  8
0
 10
-24.7063
 20
24.2307
 11
-24.561
 21
24.2068
  0
LINE
  8
0
 10
-24.561
 20
24.2068
 11
-24.4176
 21
24.1733
  0
LINE
  8
0
 10
-24.4176
 20
24.1733
 11
-24.2767
 21
24.1306
  0
LINE
  8
0
 10
-24.2767
 20
24.1306
 11
-24.139
 21
24.0787
  0
LINE
  8
0
 10
-24.139
 20
24.0787
 11
-24.0048
 21
24.018
  0
LINE
  8
0
 10
-24.0048
 20
24.018
 11
-23.875
 21
23.9485
  0
LINE
  8
0
 10
-23.875
 20
23.9485
 11
-23.75
 21
23.8708
  0
LINE
  8
0
 10
-23.75
 20
23.8708
 11
-23.6303
 21
23.785
  0
LINE
  8
0
 10
-23.6303
 20
23.785
 11
-23.5165
 21
23.6916
  0
LINE
  8
0
 10
-23.5165
 20
23.6916
 11
-23.409
 21
23.591
  0
LINE
  8
0
 10
-23.409
 20
23.591
 11
-23.3083
 21
23.4835
  0
LINE
  8
0
 10
-23.3083
 20
23.4835
 11
-23.215
 21
23.3697
  0
LINE
  8
0
 10
-23.215
 20
23.3697
 11
-23.1292
 21
23.25
  0
LINE
  8
0
 10
-23.1292
 20
23.25
 11
-23.0514
 21
23.125
  0
LINE
  8
0
 10
-23.0514
 20
23.125
 11
-22.982
 21
22.9951
  0
LINE
  8
0
 10
-22.982
 20
22.9951
 11
-22.9213
 21
22.861
  0
LINE
  8
0
 10
-22.9213
 20
22.861
 11
-22.8694
 21
22.7232
  0
LINE
  8
0
 10
-22.8694
 20
22.7232
 11
-22.8267
 21
22.5823
  0
LINE
  8
0
 10
-22.8267
 20
22.5823
 11
-22.7932
 21
22.4389
  0
LINE
  8
0
 10
-22.7932
 20
22.4389
 11
-22.7692
 21
22.2937
  0
LINE
  8
0
 10
-22.7692
 20
22.2937
 11
-22.7548
 21
22.1472
  0
LINE
  8
0
 10
-22.7548
 20
22.1472
 11
-22.75
 21
22
  0
LINE
  8
0
 10
-22.75
 20
22
 11
-22.7548
 21
21.8528
  0
LINE
  8
0
 10
-22.7548
 20
21.8528
 11
-22.7692
 21
21.7063
  0
LINE
  8
0
 10
-22.7692
 20
21.7063
 11
-22.7932
 21
21.561
  0
LINE
  8
0
 10
-22.7932
 20
21.561
 11
-22.8267
 21
21.4176
  0
LINE
  8
0
 10
-22.8267
 20
21.4176
 11
-22.8694
 21
21.2767
  0
LINE
  8
0
 10
-22.8694
 20
21.2767
 11
-22.9213
 21
21.139
  0
LINE
  8
0
 10
-22.9213
 20
21.139
 11
-22.982
 21
21.0048
  0
LINE
  8
0
 10
-22.982
 20
21.0048
 11
-23.0514
 21
20.875
  0
LINE
  8
0
 10
-23.0514
 20
20.875
 11
-23.1292
 21
20.75
  0
LINE
  8
0
 10
-23.1292
 20
20.75
 11
-23.215
 21
20.6303
  0
LINE
  8
0
 10
-23.215
 20
20.6303
 11
-23.3083
 21
20.5165
  0
LINE
  8
0
 10
-23.3083
 20
20.5165
 11
-23.409
 21
20.409
  0
LINE
  8
0
 10
-23.409
 20
20.409
 11
-23.5165
 21
20.3083
  0
LINE
  8
0
 10
-23.5165
 20
20.3083
 11
-23.6303
 21
20.215
  0
LINE
  8
0
 10
-23.6303
 20
20.215
 11
-23.75
 21
20.1292
  0
LINE
  8
0
 10
-23.75
 20
20.1292
 11
-23.875
 21
20.0514
  0
LINE
  8
0
 10
-23.875
 20
20.0514
 11
-24.0048
 21
19.982
  0
LINE
  8
0
 10
-24.0048
 20
19.982
 11
-24.139
 21
19.9213
  0
LINE
  8
0
 10
-24.139
 20
19.9213
 11
-24.2767
 21
19.8694
  0
LINE
  8
0
 10
-24.2767
 20
19.8694
 11
-24.4176
 21
19.8267
  0
LINE
  8
0
 10
-24.4176
 20
19.8267
 11
-24.561
 21
19.7932
  0
LINE
  8
0
 10
-24.561
 20
19.7932
 11
-24.7063
 21
19.7692
  0
LINE
  8
0
 10
-24.7063
 20
19.7692
 11
-24.8528
 21
19.7548
  0
LINE
  8
0
 10
-24.8528
 20
19.7548
 11
-25
 21
19.75
  0
LINE
  8
0
 10
-25
 20
19.75
 11
-25.1472
 21
19.7548
  0
LINE
  8
0
 10
24.8528
 20
19.7548
 11
24.7063
 21
19.7692
  0
LINE
  8
0
 10
24.7063
 20
19.7692
 11
24.561
 21
19.7932
  0
LINE
  8
0
 10
24.561
 20
19.7932
 11
24.4176
 21
19.8267
  0
LINE
  8
0
 10
24.4176
 20
19.8267
 11
24.2767
 21
19.8694
  0
LINE
  8
0
 10
24.2767
 20
19.8694
 11
24.139
 21
19.9213
  0
LINE
  8
0
 10
24.139
 20
19.9213
 11
24.0048
 21
19.982
  0
LINE
  8
0
 10
24.0048
 20
19.982
 11
23.875
 21
20.0514
  0
LINE
  8
0
 10
23.875
 20
20.0514
 11
23.75
 21
20.1292
  0
LINE
  8
0
 10
23.75
 20
20.1292
 11
23.6303
 21
20.215
  0
LINE
  8
0
 10
23.6303
 20
20.215
 11
23.5165
 21
20.3083
  0
LINE
  8
0
 10
23.5165
 20
20.3083
 11
23.409
 21
20.409
  0
LINE
  8
0
 10
23.409
 20
20.409
 11
23.3083
 21
20.5165
  0
LINE
  8
0
 10
23.3083
 20
20.5165
 11
23.215
 21
20.6303
  0
LINE
  8
0
 10
23.215
 20
20.6303
 11
23.1292
 21
20.75
  0
LINE
  8
0
 10
23.1292
 20
20.75
 11
23.0514
 21
20.875
  0
LINE
  8
0
 10
23.0514
 20
20.875
 11
22.982
 21
21.0048
  0
LINE
  8
0
 10
22.982
 20
21.0048
 11
22.9213
 21
21.139
  0
LINE
  8
0
 10
22.9213
 20
21.139
 11
22.8694
 21
21.2767
  0
LINE
  8
0
 10
22.8694
 20
21.2767
 11
22.8267
 21
21.4176
  0
LINE
  8
0
 10
22.8267
 20
21.4176
 11
22.7932
 21
21.561
  0
LINE
  8
0
 10
22.7932
 20
21.561
 11
22.7692
 21
21.7063
  0
LINE
  8
0
 10
22.7692
 20
21.7063
 11
22.7548
 21
21.8528
  0
LINE
  8
0
 10
22.7548
 20
21.8528
 11
22.75
 21
22
  0
LINE
  8
0
 10
22.75
 20
22
 11
22.7548
 21
22.1472
  0
LINE
  8
0
 10
22.7548
 20
22.1472
 11
22.7692
 21
22.2937
  0
LINE
  8
0
 10
22.7692
 20
22.2937
 11
22.7932
 21
22.4389
  0
LINE
  8
0
 10
22.7932
 20
22.4389
 11
22.8267
 21
22.5823
  0
LINE
  8
0
 10
22.8267
 20
22.5823
 11
22.8694
 21
22.7232
  0
LINE
  8
0
 10
22.8694
 20
22.7232
 11
22.9213
 21
22.861
  0
LINE
  8
0
 10
22.9213
 20
22.861
 11
22.982
 21
22.9951
  0
LINE
  8
0
 10
22.982
 20
22.9951
 11
23.0514
 21
23.125
  0
LINE
  8
0
 10
23.0514
 20
23.125
 11
23.1292
 21
23.25
  0
LINE
  8
0
 10
23.1292
 20
23.25
 11
23.215
 21
23.3697
  0
LINE
  8
0
 10
23.215
 20
23.3697
 11
23.3083
 21
23.4835
  0
LINE
  8
0
 10
23.3083
 20
23.4835
 11
23.409
 21
23.591
  0
LINE
  8
0
 10
23.409
 20
23.591
 11
23.5165
 21
23.6916
  0
LINE
  8
0
 10
23.5165
 20
23.6916
 11
23.6303
 21
23.785
  0
LINE
  8
0
 10
23.6303
 20
23.785
 11
23.75
 21
23.8708
  0
LINE
  8
0
 10
23.75
 20
23.8708
 11
23.875
 21
23.9485
  0
LINE
  8
0
 10
23.875
 20
23.9485
 11
24.0048
 21
24.018
  0
LINE
  8
0
 10
24.0048
 20
24.018
 11
24.139
 21
24.0787
  0
LINE
  8
0
 10
24.139
 20
24.0787
 11
24.2767
 21
24.1306
  0
LINE
  8
0
 10
24.2767
 20
24.1306
 11
24.4176
 21
24.1733
  0
LINE
  8
0
 10
24.4176
 20
24.1733
 11
24.561
 21
24.2068
  0
LINE
  8
0
 10
24.561
 20
24.2068
 11
24.7063
 21
24.2307
  0
LINE
  8
0
 10
24.7063
 20
24.2307
 11
24.8528
 21
24.2452
  0
LINE
  8
0
 10
24.8528
 20
24.2452
 11
25
 21
24.25
  0
LINE
  8
0
 10
25
 20
24.25
 11
25.1472
 21
24.2452
  0
LINE
  8
0
 10
25.1472
 20
24.2452
 11
25.2937
 21
24.2307
  0
LINE
  8
0
 10
25.2937
 20
24.2307
 11
25.4389
 21
24.2068
  0
LINE
  8
0
 10
25.4389
 20
24.2068
 11
25.5823
 21
24.1733
  0
LINE
  8
0
 10
25.5823
 20
24.1733
 11
25.7232
 21
24.1306
  0
LINE
  8
0
 10
25.7232
 20
24.1306
 11
25.861
 21
24.0787
  0
LINE
  8
0
 10
25.861
 20
24.0787
 11
25.9951
 21
24.018
  0
LINE
  8
0
 10
25.9951
 20
24.018
 11
26.125
 21
23.9485
  0
LINE
  8
0
 10
26.125
 20
23.9485
 11
26.25
 21
23.8708
  0
LINE
  8
0
 10
26.25
 20
23.8708
 11
26.3697
 21
23.785
  0
LINE
  8
0
 10
26.3697
 20
23.785
 11
26.4835
 21
23.6916
  0
LINE
  8
0
 10
26.4835
 20
23.6916
 11
26.591
 21
23.591
  0
LINE
  8
0
 10
26.591
 20
23.591
 11
26.6916
 21
23.4835
  0
LINE
  8
0
 10
26.6916
 20
23.4835
 11
26.785
 21
23.3697
  0
LINE
  8
0
 10
26.785
 20
23.3697
 11
26.8708
 21
23.25
  0
LINE
  8
0
 10
26.8708
 20
23.25
 11
26.9485
 21
23.125
  0
LINE
  8
0
 10
26.9485
 20
23.125
 11
27.018
 21
22.9951
  0
LINE
  8
0
 10
27.018
 20
22.9951
 11
27.0787
 21
22.861
  0
LINE
  8
0
 10
27.0787
 20
22.861
 11
27.1306
 21
22.7232
  0
LINE
  8
0
 10
27.1306
 20
22.7232
 11
27.1733
 21
22.5823
  0
LINE
  8
0
 10
27.1733
 20
22.5823
 11
27.2068
 21
22.4389
  0
LINE
  8
0
 10
27.2068
 20
22.4389
 11
27.2307
 21
22.2937
  0
LINE
  8
0
 10
27.2307
 20
22.2937
 11
27.2452
 21
22.1472
  0
LINE
  8
0
 10
27.2452
 20
22.1472
 11
27.25
 21
22
  0
LINE
  8
0
 10
27.25
 20
22
 11
27.2452
 21
21.8528
  0
LINE
  8
0
 10
27.2452
 20
21.8528
 11
27.2307
 21
21.7063
  0
LINE
  8
0
 10
27.2307
 20
21.7063
 11
27.2068
 21
21.561
  0
LINE
  8
0
 10
27.2068
 20
21.561
 11
27.1733
 21
21.4176
  0
LINE
  8
0
 10
27.1733
 20
21.4176
 11
27.1306
 21
21.2767
  0
LINE
  8
0
 10
27.1306
 20
21.2767
 11
27.0787
 21
21.139
  0
LINE
  8
0
 10
27.0787
 20
21.139
 11
27.018
 21
21.0048
  0
LINE
  8
0
 10
27.018
 20
21.0048
 11
26.9485
 21
20.875
  0
LINE
  8
0
 10
26.9485
 20
20.875
 11
26.8708
 21
20.75
  0
LINE
  8
0
 10
26.8708
 20
20.75
 11
26.785
 21
20.6303
  0
LINE
  8
0
 10
26.785
 20
20.6303
 11
26.6916
 21
20.5165
  0
LINE
  8
0
 10
26.6916
 20
20.5165
 11
26.591
 21
20.409
  0
LINE
  8
0
 10
26.591
 20
20.409
 11
26.4835
 21
20.3083
  0
LINE
  8
0
 10
26.4835
 20
20.3083
 11
26.3697
 21
20.215
  0
LINE
  8
0
 10
26.3697
 20
20.215
 11
26.25
 21
20.1292
  0
LINE
  8
0
 10
26.25
 20
20.1292
 11
26.125
 21
20.0514
  0
LINE
  8
0
 10
26.125
 20
20.0514
 11
25.9951
 21
19.982
  0
LINE
  8
0
 10
25.9951
 20
19.982
 11
25.861
 21
19.9213
  0
LINE
  8
0
 10
25.861
 20
19.9213
 11
25.7232
 21
19.8694
  0
LINE
  8
0
 10
25.7232
 20
19.8694
 11
25.5823
 21
19.8267
  0
LINE
  8
0
 10
25.5823
 20
19.8267
 11
25.4389
 21
19.7932
  0
LINE
  8
0
 10
25.4389
 20
19.7932
 11
25.2937
 21
19.7692
  0
LINE
  8
0
 10
25.2937
 20
19.7692
 11
25.1472
 21
19.7548
  0
LINE
  8
0
 10
25.1472
 20
19.7548
 11
25
 21
19.75
  0
LINE
  8
0
 10
25
 20
19.75
 11
24.8528
 21
19.7548
  0
LINE
  8
0
 10
-0.179855
 20
18.2559
 11
-0.358932
 21
18.2735
  0
LINE
  8
0
 10
-0.358932
 20
18.2735
 11
-0.536484
 21
18.3028
  0
LINE
  8
0
 10
-0.536484
 20
18.3028
 11
-0.711746
 21
18.3437
  0
LINE
  8
0
 10
-0.711746
 20
18.3437
 11
-0.883957
 21
18.3959
  0
LINE
  8
0
 10
-0.883957
 20
18.3959
 11
-1.05237
 21
18.4593
  0
LINE
  8
0
 10
-1.05237
 20
18.4593
 11
-1.21629
 21
18.5336
  0
LINE
  8
0
 10
-1.21629
 20
18.5336
 11
-1.375
 21
18.6184
  0
LINE
  8
0
 10
-1.375
 20
18.6184
 11
-1.52782
 21
18.7135
  0
LINE
  8
0
 10
-1.52782
 20
18.7135
 11
-1.67409
 21
18.8183
  0
LINE
  8
0
 10
-1.67409
 20
18.8183
 11
-1.81319
 21
18.9324
  0
LINE
  8
0
 10
-1.81319
 20
18.9324
 11
-1.94453
 21
19.0555
  0
LINE
  8
0
 10
-1.94453
 20
19.0555
 11
-2.06755
 21
19.1868
  0
LINE
  8
0
 10
-2.06755
 20
19.1868
 11
-2.18172
 21
19.3259
  0
LINE
  8
0
 10
-2.18172
 20
19.3259
 11
-2.28653
 21
19.4722
  0
LINE
  8
0
 10
-2.28653
 20
19.4722
 11
-2.38156
 21
19.625
  0
LINE
  8
0
 10
-2.38156
 20
19.625
 11
-2.46638
 21
19.7837
  0
LINE
  8
0
 10
-2.46638
 20
19.7837
 11
-2.54066
 21
19.9476
  0
LINE
  8
0
 10
-2.54066
 20
19.9476
 11
-2.60405
 21
20.116
  0
LINE
  8
0
 10
-2.60405
 20
20.116
 11
-2.6563
 21
20.2882
  0
LINE
  8
0
 10
-2.6563
 20
20.2882
 11
-2.69716
 21
20.4635
  0
LINE
  8
0
 10
-2.69716
 20
20.4635
 11
-2.72647
 21
20.6411
  0
LINE
  8
0
 10
-2.72647
 20
20.6411
 11
-2.74411
 21
20.8201
  0
LINE
  8
0
 10
-2.74411
 20
20.8201
 11
-2.75
 21
21
  0
LINE
  8
0
 10
-2.75
 20
21
 11
-2.74411
 21
21.1799
  0
LINE
  8
0
 10
-2.74411
 20
21.1799
 11
-2.72647
 21
21.3589
  0
LINE
  8
0
 10
-2.72647
 20
21.3589
 11
-2.69716
 21
21.5365
  0
LINE
  8
0
 10
-2.69716
 20
21.5365
 11
-2.6563
 21
21.7117
  0
LINE
  8
0
 10
-2.6563
 20
21.7117
 11
-2.60405
 21
21.884
  0
LINE
  8
0
 10
-2.60405
 20
21.884
 11
-2.54066
 21
22.0524
  0
LINE
  8
0
 10
-2.54066
 20
22.0524
 11
-2.46638
 21
22.2163
  0
LINE
  8
0
 10
-2.46638
 20
22.2163
 11
-2.38156
 21
22.375
  0
LINE
  8
0
 10
-2.38156
 20
22.375
 11
-2.28653
 21
22.5278
  0
LINE
  8
0
 10
-2.28653
 20
22.5278
 11
-2.18172
 21
22.6741
  0
LINE
  8
0
 10
-2.18172
 20
22.6741
 11
-2.06755
 21
22.8132
  0
LINE
  8
0
 10
-2.06755
 20
22.8132
 11
-1.94453
 21
22.9445
  0
LINE
  8
0
 10
-1.94453
 20
22.9445
 11
-1.81319
 21
23.0676
  0
LINE
  8
0
 10
-1.81319
 20
23.0676
 11
-1.67409
 21
23.1817
  0
LINE
  8
0
 10
-1.67409
 20
23.1817
 11
-1.52782
 21
23.2865
  0
LINE
  8
0
 10
-1.52782
 20
23.2865
 11
-1.375
 21
23.3816
  0
LINE
  8
0
 10
-1.375
 20
23.3816
 11
-1.21629
 21
23.4664
  0
LINE
  8
0
 10
-1.21629
 20
23.4664
 11
-1.05237
 21
23.5407
  0
LINE
  8
0
 10
-1.05237
 20
23.5407
 11
-0.883957
 21
23.604
  0
LINE
  8
0
 10
-0.883957
 20
23.604
 11
-0.711746
 21
23.6563
  0
LINE
  8
0
 10
-0.711746
 20
23.6563
 11
-0.536484
 21
23.6972
  0
LINE
  8
0
 10
-0.536484
 20
23.6972
 11
-0.358932
 21
23.7265
  0
LINE
  8
0
 10
-0.358932
 20
23.7265
 11
-0.179855
 21
23.7441
  0
LINE
  8
0
 10
-0.179855
 20
23.7441
 11
0
 21
23.75
  0
LINE
  8
0
 10
0
 20
23.75
 11
0.179855
 21
23.7441
  0
LINE
  8
0
 10
0.179855
 20
23.7441
 11
0.358932
 21
23.7265
  0
LINE
  8
0
 10
0.358932
 20
23.7265
 11
0.536484
 21
23.6972
  0
LINE
  8
0
 10
0.536484
 20
23.6972
 11
0.711746
 21
23.6563
  0
LINE
  8
0
 10
0.711746
 20
23.6563
 11
0.883957
 21
23.604
  0
LINE
  8
0
 10
0.883957
 20
23.604
 11
1.05237
 21
23.5407
  0
LINE
  8
0
 10
1.05237
 20
23.5407
 11
1.21629
 21
23.4664
  0
LINE
  8
0
 10
1.21629
 20
23.4664
 11
1.375
 21
23.3816
  0
LINE
  8
0
 10
1.375
 20
23.3816
 11
1.52782
 21
23.2865
  0
LINE
  8
0
 10
1.52782
 20
23.2865
 11
1.67409
 21
23.1817
  0
LINE
  8
0
 10
1.67409
 20
23.1817
 11
1.81319
 21
23.0676
  0
LINE
  8
0
 10
1.81319
 20
23.0676
 11
1.94453
 21
22.9445
  0
LINE
  8
0
 10
1.94453
 20
22.9445
 11
2.06755
 21
22.8132
  0
LINE
  8
0
 10
2.06755
 20
22.8132
 11
2.18172
 21
22.6741
  0
LINE
  8
0
 10
2.18172
 20
22.6741
 11
2.28653
 21
22.5278
  0
LINE
  8
0
 10
2.28653
 20
22.5278
 11
2.38156
 21
22.375
  0
LINE
  8
0
 10
2.38156
 20
22.375
 11
2.46638
 21
22.2163
  0
LINE
  8
0
 10
2.46638
 20
22.2163
 11
2.54066
 21
22.0524
  0
LINE
  8
0
 10
2.54066
 20
22.0524
 11
2.60405
 21
21.884
  0
LINE
  8
0
 10
2.60405
 20
21.884
 11
2.6563
 21
21.7117
  0
LINE
  8
0
 10
2.6563
 20
21.7117
 11
2.69716
 21
21.5365
  0
LINE
  8
0
 10
2.69716
 20
21.5365
 11
2.72647
 21
21.3589
  0
LINE
  8
0
 10
2.72647
 20
21.3589
 11
2.74411
 21
21.1799
  0
LINE
  8
0
 10
2.74411
 20
21.1799
 11
2.75
 21
21
  0
LINE
  8
0
 10
2.75
 20
21
 11
2.74411
 21
20.8201
  0
LINE
  8
0
 10
2.74411
 20
20.8201
 11
2.72647
 21
20.6411
  0
LINE
  8
0
 10
2.72647
 20
20.6411
 11
2.69716
 21
20.4635
  0
LINE
  8
0
 10
2.69716
 20
20.4635
 11
2.6563
 21
20.2882
  0
LINE
  8
0
 10
2.6563
 20
20.2882
 11
2.60405
 21
20.116
  0
LINE
  8
0
 10
2.60405
 20
20.116
 11
2.54066
 21
19.9476
  0
LINE
  8
0
 10
2.54066
 20
19.9476
 11
2.46638
 21
19.7837
  0
LINE
  8
0
 10
2.46638
 20
19.7837
 11
2.38156
 21
19.625
  0
LINE
  8
0
 10
2.38156
 20
19.625
 11
2.28653
 21
19.4722
  0
LINE
  8
0
 10
2.28653
 20
19.4722
 11
2.18172
 21
19.3259
  0
LINE
  8
0
 10
2.18172
 20
19.3259
 11
2.06755
 21
19.1868
  0
LINE
  8
0
 10
2.06755
 20
19.1868
 11
1.94453
 21
19.0555
  0
LINE
  8
0
 10
1.94453
 20
19.0555
 11
1.81319
 21
18.9324
  0
LINE
  8
0
 10
1.81319
 20
18.9324
 11
1.67409
 21
18.8183
  0
LINE
  8
0
 10
1.67409
 20
18.8183
 11
1.52782
 21
18.7135
  0
LINE
  8
0
 10
1.52782
 20
18.7135
 11
1.375
 21
18.6184
  0
LINE
  8
0
 10
1.375
 20
18.6184
 11
1.21629
 21
18.5336
  0
LINE
  8
0
 10
1.21629
 20
18.5336
 11
1.05237
 21
18.4593
  0
LINE
  8
0
 10
1.05237
 20
18.4593
 11
0.883957
 21
18.3959
  0
LINE
  8
0
 10
0.883957
 20
18.3959
 11
0.711746
 21
18.3437
  0
LINE
  8
0
 10
0.711746
 20
18.3437
 11
0.536484
 21
18.3028
  0
LINE
  8
0
 10
0.536484
 20
18.3028
 11
0.358932
 21
18.2735
  0
LINE
  8
0
 10
0.358932
 20
18.2735
 11
0.179855
 21
18.2559
  0
LINE
  8
0
 10
0.179855
 20
18.2559
 11
0
 21
18.25
  0
LINE
  8
0
 10
0
 20
18.25
 11
-0.179855
 21
18.2559
  0
LINE
  8
0
 10
-0.850235
 20
-12.9722
 11
-1.69684
 21
-12.8888
  0
LINE
  8
0
 10
-1.69684
 20
-12.8888
 11
-2.53616
 21
-12.7502
  0
LINE
  8
0
 10
-2.53616
 20
-12.7502
 11
-3.36464
 21
-12.557
  0
LINE
  8
0
 10
-3.36464
 20
-12.557
 11
-4.17871
 21
-12.3101
  0
LINE
  8
0
 10
-4.17871
 20
-12.3101
 11
-4.97488
 21
-12.0104
  0
LINE
  8
0
 10
-4.97488
 20
-12.0104
 11
-5.74974
 21
-11.6593
  0
LINE
  8
0
 10
-5.74974
 20
-11.6593
 11
-6.5
 21
-11.2583
  0
LINE
  8
0
 10
-6.5
 20
-11.2583
 11
-7.22241
 21
-10.8091
  0
LINE
  8
0
 10
-7.22241
 20
-10.8091
 11
-7.91389
 21
-10.3136
  0
LINE
  8
0
 10
-7.91389
 20
-10.3136
 11
-8.57149
 21
-9.77391
  0
LINE
  8
0
 10
-8.57149
 20
-9.77391
 11
-9.19238
 21
-9.19238
  0
LINE
  8
0
 10
-9.19238
 20
-9.19238
 11
-9.77391
 21
-8.57149
  0
LINE
  8
0
 10
-9.77391
 20
-8.57149
 11
-10.3136
 21
-7.91389
  0
LINE
  8
0
 10
-10.3136
 20
-7.91389
 11
-10.8091
 21
-7.22241
  0
LINE
  8
0
 10
-10.8091
 20
-7.22241
 11
-11.2583
 21
-6.5
  0
LINE
  8
0
 10
-11.2583
 20
-6.5
 11
-11.6593
 21
-5.74974
  0
LINE
  8
0
 10
-11.6593
 20
-5.74974
 11
-12.0104
 21
-4.97488
  0
LINE
  8
0
 10
-12.0104
 20
-4.97488
 11
-12.3101
 21
-4.17871
  0
LINE
  8
0
 10
-12.3101
 20
-4.17871
 11
-12.557
 21
-3.36464
  0
LINE
  8
0
 10
-12.557
 20
-3.36464
 11
-12.7502
 21
-2.53616
  0
LINE
  8
0
 10
-12.7502
 20
-2.53616
 11
-12.8888
 21
-1.69684
  0
LINE
  8
0
 10
-12.8888
 20
-1.69684
 11
-12.9722
 21
-0.850235
  0
LINE
  8
0
 10
-12.9722
 20
-0.850235
 11
-13
 21
0
  0
LINE
  8
0
 10
-13
 20
0
 11
-12.9722
 21
0.850235
  0
LINE
  8
0
 10
-12.9722
 20
0.850235
 11
-12.8888
 21
1.69684
  0
LINE
  8
0
 10
-12.8888
 20
1.69684
 11
-12.7502
 21
2.53616
  0
LINE
  8
0
 10
-12.7502
 20
2.53616
 11
-12.557
 21
3.36464
  0
LINE
  8
0
 10
-12.557
 20
3.36464
 11
-12.3101
 21
4.17871
  0
LINE
  8
0
 10
-12.3101
 20
4.17871
 11
-12.0104
 21
4.97488
  0
LINE
  8
0
 10
-12.0104
 20
4.97488
 11
-11.6593
 21
5.74974
  0
LINE
  8
0
 10
-11.6593
 20
5.74974
 11
-11.2583
 21
6.5
  0
LINE
  8
0
 10
-11.2583
 20
6.5
 11
-10.8091
 21
7.22241
  0
LINE
  8
0
 10
-10.8091
 20
7.22241
 11
-10.3136
 21
7.91389
  0
LINE
  8
0
 10
-10.3136
 20
7.91389
 11
-9.77391
 21
8.57149
  0
LINE
  8
0
 10
-9.77391
 20
8.57149
 11
-9.19238
 21
9.19238
  0
LINE
  8
0
 10
-9.19238
 20
9.19238
 11
-8.57149
 21
9.77391
  0
LINE
  8
0
 10
-8.57149
 20
9.77391
 11
-7.91389
 21
10.3136
  0
LINE
  8
0
 10
-7.91389
 20
10.3136
 11
-7.22241
 21
10.8091
  0
LINE
  8
0
 10
-7.22241
 20
10.8091
 11
-6.5
 21
11.2583
  0
LINE
  8
0
 10
-6.5
 20
11.2583
 11
-5.74974
 21
11.6593
  0
LINE
  8
0
 10
-5.74974
 20
11.6593
 11
-4.97488
 21
12.0104
  0
LINE
  8
0
 10
-4.97488
 20
12.0104
 11
-4.17871
 21
12.3101
  0
LINE
  8
0
 10
-4.17871
 20
12.3101
 11
-3.36464
 21
12.557
  0
LINE
  8
0
 10
-3.36464
 20
12.557
 11
-2.53616
 21
12.7502
  0
LINE
  8
0
 10
-2.53616
 20
12.7502
 11
-1.69684
 21
12.8888
  0
LINE
  8
0
 10
-1.69684
 20
12.8888
 11
-0.850235
 21
12.9722
  0
LINE
  8
0
 10
-0.850235
 20
12.9722
 11
0
 21
13
  0
LINE
  8
0
 10
0
 20
13
 11
0.850235
 21
12.9722
  0
LINE
  8
0
 10
0.850235
 20
12.9722
 11
1.69684
 21
12.8888
  0
LINE
  8
0
 10
1.69684
 20
12.8888
 11
2.53616
 21
12.7502
  0
LINE
  8
0
 10
2.53616
 20
12.7502
 11
3.36464
 21
12.557
  0
LINE
  8
0
 10
3.36464
 20
12.557
 11
4.17871
 21
12.3101
  0
LINE
  8
0
 10
4.17871
 20
12.3101
 11
4.97488
 21
12.0104
  0
LINE
  8
0
 10
4.97488
 20
12.0104
 11
5.74974
 21
11.6593
  0
LINE
  8
0
 10
5.74974
 20
11.6593
 11
6.5
 21
11.2583
  0
LINE
  8
0
 10
6.5
 20
11.2583
 11
7.22241
 21
10.8091
  0
LINE
  8
0
 10
7.22241
 20
10.8091
 11
7.91389
 21
10.3136
  0
LINE
  8
0
 10
7.91389
 20
10.3136
 11
8.57149
 21
9.77391
  0
LINE
  8
0
 10
8.57149
 20
9.77391
 11
9.19238
 21
9.19238
  0
LINE
  8
0
 10
9.19238
 20
9.19238
 11
9.77391
 21
8.57149
  0
LINE
  8
0
 10
9.77391
 20
8.57149
 11
10.3136
 21
7.91389
  0
LINE
  8
0
 10
10.3136
 20
7.91389
 11
10.8091
 21
7.22241
  0
LINE
  8
0
 10
10.8091
 20
7.22241
 11
11.2583
 21
6.5
  0
LINE
  8
0
 10
11.2583
 20
6.5
 11
11.6593
 21
5.74974
  0
LINE
  8
0
 10
11.6593
 20
5.74974
 11
12.0104
 21
4.97488
  0
LINE
  8
0
 10
12.0104
 20
4.97488
 11
12.3101
 21
4.17871
  0
LINE
  8
0
 10
12.3101
 20
4.17871
 11
12.557
 21
3.36464
  0
LINE
  8
0
 10
12.557
 20
3.36464
 11
12.7502
 21
2.53616
  0
LINE
  8
0
 10
12.7502
 20
2.53616
 11
12.8888
 21
1.69684
  0
LINE
  8
0
 10
12.8888
 20
1.69684
 11
12.9722
 21
0.850235
  0
LINE
  8
0
 10
12.9722
 20
0.850235
 11
13
 21
0
  0
LINE
  8
0
 10
13
 20
0
 11
12.9722
 21
-0.850235
  0
LINE
  8
0
 10
12.9722
 20
-0.850235
 11
12.8888
 21
-1.69684
  0
LINE
  8
0
 10
12.8888
 20
-1.69684
 11
12.7502
 21
-2.53616
  0
LINE
  8
0
 10
12.7502
 20
-2.53616
 11
12.557
 21
-3.36464
  0
LINE
  8
0
 10
12.557
 20
-3.36464
 11
12.3101
 21
-4.17871
  0
LINE
  8
0
 10
12.3101
 20
-4.17871
 11
12.0104
 21
-4.97488
  0
LINE
  8
0
 10
12.0104
 20
-4.97488
 11
11.6593
 21
-5.74974
  0
LINE
  8
0
 10
11.6593
 20
-5.74974
 11
11.2583
 21
-6.5
  0
LINE
  8
0
 10
11.2583
 20
-6.5
 11
10.8091
 21
-7.22241
  0
LINE
  8
0
 10
10.8091
 20
-7.22241
 11
10.3136
 21
-7.91389
  0
LINE
  8
0
 10
10.3136
 20
-7.91389
 11
9.77391
 21
-8.57149
  0
LINE
  8
0
 10
9.77391
 20
-8.57149
 11
9.19238
 21
-9.19238
  0
LINE
  8
0
 10
9.19238
 20
-9.19238
 11
8.57149
 21
-9.77391
  0
LINE
  8
0
 10
8.57149
 20
-9.77391
 11
7.91389
 21
-10.3136
  0
LINE
  8
0
 10
7.91389
 20
-10.3136
 11
7.22241
 21
-10.8091
  0
LINE
  8
0
 10
7.22241
 20
-10.8091
 11
6.5
 21
-11.2583
  0
LINE
  8
0
 10
6.5
 20
-11.2583
 11
5.74974
 21
-11.6593
  0
LINE
  8
0
 10
5.74974
 20
-11.6593
 11
4.97488
 21
-12.0104
  0
LINE
  8
0
 10
4.97488
 20
-12.0104
 11
4.17871
 21
-12.3101
  0
LINE
  8
0
 10
4.17871
 20
-12.3101
 11
3.36464
 21
-12.557
  0
LINE
  8
0
 10
3.36464
 20
-12.557
 11
2.53616
 21
-12.7502
  0
LINE
  8
0
 10
2.53616
 20
-12.7502
 11
1.69684
 21
-12.8888
  0
LINE
  8
0
 10
1.69684
 20
-12.8888
 11
0.850235
 21
-12.9722
  0
LINE
  8
0
 10
0.850235
 20
-12.9722
 11
0
 21
-13
  0
LINE
  8
0
 10
0
 20
-13
 11
-0.850235
 21
-12.9722
  0
LINE
  8
0
 10
-0.179855
 20
-23.7441
 11
-0.358932
 21
-23.7265
  0
LINE
  8
0
 10
-0.358932
 20
-23.7265
 11
-0.536484
 21
-23.6972
  0
LINE
  8
0
 10
-0.536484
 20
-23.6972
 11
-0.711746
 21
-23.6563
  0
LINE
  8
0
 10
-0.711746
 20
-23.6563
 11
-0.883957
 21
-23.604
  0
LINE
  8
0
 10
-0.883957
 20
-23.604
 11
-1.05237
 21
-23.5407
  0
LINE
  8
0
 10
-1.05237
 20
-23.5407
 11
-1.21629
 21
-23.4664
  0
LINE
  8
0
 10
-1.21629
 20
-23.4664
 11
-1.375
 21
-23.3816
  0
LINE
  8
0
 10
-1.375
 20
-23.3816
 11
-1.52782
 21
-23.2865
  0
LINE
  8
0
 10
-1.52782
 20
-23.2865
 11
-1.67409
 21
-23.1817
  0
LINE
  8
0
 10
-1.67409
 20
-23.1817
 11
-1.81319
 21
-23.0676
  0
LINE
  8
0
 10
-1.81319
 20
-23.0676
 11
-1.94453
 21
-22.9445
  0
LINE
  8
0
 10
-1.94453
 20
-22.9445
 11
-2.06755
 21
-22.8132
  0
LINE
  8
0
 10
-2.06755
 20
-22.8132
 11
-2.18172
 21
-22.6741
  0
LINE
  8
0
 10
-2.18172
 20
-22.6741
 11
-2.28653
 21
-22.5278
  0
LINE
  8
0
 10
-2.28653
 20
-22.5278
 11
-2.38156
 21
-22.375
  0
LINE
  8
0
 10
-2.38156
 20
-22.375
 11
-2.46638
 21
-22.2163
  0
LINE
  8
0
 10
-2.46638
 20
-22.2163
 11
-2.54066
 21
-22.0524
  0
LINE
  8
0
 10
-2.54066
 20
-22.0524
 11
-2.60405
 21
-21.884
  0
LINE
  8
0
 10
-2.60405
 20
-21.884
 11
-2.6563
 21
-21.7117
  0
LINE
  8
0
 10
-2.6563
 20
-21.7117
 11
-2.69716
 21
-21.5365
  0
LINE
  8
0
 10
-2.69716
 20
-21.5365
 11
-2.72647
 21
-21.3589
  0
LINE
  8
0
 10
-2.72647
 20
-21.3589
 11
-2.74411
 21
-21.1799
  0
LINE
  8
0
 10
-2.74411
 20
-21.1799
 11
-2.75
 21
-21
  0
LINE
  8
0
 10
-2.75
 20
-21
 11
-2.74411
 21
-20.8201
  0
LINE
  8
0
 10
-2.74411
 20
-20.8201
 11
-2.72647
 21
-20.6411
  0
LINE
  8
0
 10
-2.72647
 20
-20.6411
 11
-2.69716
 21
-20.4635
  0
LINE
  8
0
 10
-2.69716
 20
-20.4635
 11
-2.6563
 21
-20.2882
  0
LINE
  8
0
 10
-2.6563
 20
-20.2882
 11
-2.60405
 21
-20.116
  0
LINE
  8
0
 10
-2.60405
 20
-20.116
 11
-2.54066
 21
-19.9476
  0
LINE
  8
0
 10
-2.54066
 20
-19.9476
 11
-2.46638
 21
-19.7837
  0
LINE
  8
0
 10
-2.46638
 20
-19.7837
 11
-2.38156
 21
-19.625
  0
LINE
  8
0
 10
-2.38156
 20
-19.625
 11
-2.28653
 21
-19.4722
  0
LINE
  8
0
 10
-2.28653
 20
-19.4722
 11
-2.18172
 21
-19.3259
  0
LINE
  8
0
 10
-2.18172
 20
-19.3259
 11
-2.06755
 21
-19.1868
  0
LINE
  8
0
 10
-2.06755
 20
-19.1868
 11
-1.94453
 21
-19.0555
  0
LINE
  8
0
 10
-1.94453
 20
-19.0555
 11
-1.81319
 21
-18.9324
  0
LINE
  8
0
 10
-1.81319
 20
-18.9324
 11
-1.67409
 21
-18.8183
  0
LINE
  8
0
 10
-1.67409
 20
-18.8183
 11
-1.52782
 21
-18.7135
  0
LINE
  8
0
 10
-1.52782
 20
-18.7135
 11
-1.375
 21
-18.6184
  0
LINE
  8
0
 10
-1.375
 20
-18.6184
 11
-1.21629
 21
-18.5336
  0
LINE
  8
0
 10
-1.21629
 20
-18.5336
 11
-1.05237
 21
-18.4593
  0
LINE
  8
0
 10
-1.05237
 20
-18.4593
 11
-0.883957
 21
-18.3959
  0
LINE
  8
0
 10
-0.883957
 20
-18.3959
 11
-0.711746
 21
-18.3437
  0
LINE
  8
0
 10
-0.711746
 20
-18.3437
 11
-0.536484
 21
-18.3028
  0
LINE
  8
0
 10
-0.536484
 20
-18.3028
 11
-0.358932
 21
-18.2735
  0
LINE
  8
0
 10
-0.358932
 20
-18.2735
 11
-0.179855
 21
-18.2559
  0
LINE
  8
0
 10
-0.179855
 20
-18.2559
 11
0
 21
-18.25
  0
LINE
  8
0
 10
0
 20
-18.25
 11
0.179855
 21
-18.2559
  0
LINE
  8
0
 10
0.179855
 20
-18.2559
 11
0.358932
 21
-18.2735
  0
LINE
  8
0
 10
0.358932
 20
-18.2735
 11
0.536484
 21
-18.3028
  0
LINE
  8
0
 10
0.536484
 20
-18.3028
 11
0.711746
 21
-18.3437
  0
LINE
  8
0
 10
0.711746
 20
-18.3437
 11
0.883957
 21
-18.3959
  0
LINE
  8
0
 10
0.883957
 20
-18.3959
 11
1.05237
 21
-18.4593
  0
LINE
  8
0
 10
1.05237
 20
-18.4593
 11
1.21629
 21
-18.5336
  0
LINE
  8
0
 10
1.21629
 20
-18.5336
 11
1.375
 21
-18.6184
  0
LINE
  8
0
 10
1.375
 20
-18.6184
 11
1.52782
 21
-18.7135
  0
LINE
  8
0
 10
1.52782
 20
-18.7135
 11
1.67409
 21
-18.8183
  0
LINE
  8
0
 10
1.67409
 20
-18.8183
 11
1.81319
 21
-18.9324
  0
LINE
  8
0
 10
1.81319
 20
-18.9324
 11
1.94453
 21
-19.0555
  0
LINE
  8
0
 10
1.94453
 20
-19.0555
 11
2.06755
 21
-19.1868
  0
LINE
  8
0
 10
2.06755
 20
-19.1868
 11
2.18172
 21
-19.3259
  0
LINE
  8
0
 10
2.18172
 20
-19.3259
 11
2.28653
 21
-19.4722
  0
LINE
  8
0
 10
2.28653
 20
-19.4722
 11
2.38156
 21
-19.625
  0
LINE
  8
0
 10
2.38156
 20
-19.625
 11
2.46638
 21
-19.7837
  0
LINE
  8
0
 10
2.46638
 20
-19.7837
 11
2.54066
 21
-19.9476
  0
LINE
  8
0
 10
2.54066
 20
-19.9476
 11
2.60405
 21
-20.116
  0
LINE
  8
0
 10
2.60405
 20
-20.116
 11
2.6563
 21
-20.2882
  0
LINE
  8
0
 10
2.6563
 20
-20.2882
 11
2.69716
 21
-20.4635
  0
LINE
  8
0
 10
2.69716
 20
-20.4635
 11
2.72647
 21
-20.6411
  0
LINE
  8
0
 10
2.72647
 20
-20.6411
 11
2.74411
 21
-20.8201
  0
LINE
  8
0
 10
2.74411
 20
-20.8201
 11
2.75
 21
-21
  0
LINE
  8
0
 10
2.75
 20
-21
 11
2.74411
 21
-21.1799
  0
LINE
  8
0
 10
2.74411
 20
-21.1799
 11
2.72647
 21
-21.3589
  0
LINE
  8
0
 10
2.72647
 20
-21.3589
 11
2.69716
 21
-21.5365
  0
LINE
  8
0
 10
2.69716
 20
-21.5365
 11
2.6563
 21
-21.7117
  0
LINE
  8
0
 10
2.6563
 20
-21.7117
 11
2.60405
 21
-21.884
  0
LINE
  8
0
 10
2.60405
 20
-21.884
 11
2.54066
 21
-22.0524
  0
LINE
  8
0
 10
2.54066
 20
-22.0524
 11
2.46638
 21
-22.2163
  0
LINE
  8
0
 10
2.46638
 20
-22.2163
 11
2.38156
 21
-22.375
  0
LINE
  8
0
 10
2.38156
 20
-22.375
 11
2.28653
 21
-22.5278
  0
LINE
  8
0
 10
2.28653
 20
-22.5278
 11
2.18172
 21
-22.6741
  0
LINE
  8
0
 10
2.18172
 20
-22.6741
 11
2.06755
 21
-22.8132
  0
LINE
  8
0
 10
2.06755
 20
-22.8132
 11
1.94453
 21
-22.9445
  0
LINE
  8
0
 10
1.94453
 20
-22.9445
 11
1.81319
 21
-23.0676
  0
LINE
  8
0
 10
1.81319
 20
-23.0676
 11
1.67409
 21
-23.1817
  0
LINE
  8
0
 10
1.67409
 20
-23.1817
 11
1.52782
 21
-23.2865
  0
LINE
  8
0
 10
1.52782
 20
-23.2865
 11
1.375
 21
-23.3816
  0
LINE
  8
0
 10
1.375
 20
-23.3816
 11
1.21629
 21
-23.4664
  0
LINE
  8
0
 10
1.21629
 20
-23.4664
 11
1.05237
 21
-23.5407
  0
LINE
  8
0
 10
1.05237
 20
-23.5407
 11
0.883957
 21
-23.604
  0
LINE
  8
0
 10
0.883957
 20
-23.604
 11
0.711746
 21
-23.6563
  0
LINE
  8
0
 10
0.711746
 20
-23.6563
 11
0.536484
 21
-23.6972
  0
LINE
  8
0
 10
0.536484
 20
-23.6972
 11
0.358932
 21
-23.7265
  0
LINE
  8
0
 10
0.358932
 20
-23.7265
 11
0.179855
 21
-23.7441
  0
LINE
  8
0
 10
0.179855
 20
-23.7441
 11
0
 21
-23.75
  0
LINE
  8
0
 10
0
 20
-23.75
 11
-0.179855
 21
-23.7441
  0
LINE
  8
0
 10
-25.1472
 20
-24.2452
 11
-25.2937
 21
-24.2307
  0
LINE
  8
0
 10
-25.2937
 20
-24.2307
 11
-25.4389
 21
-24.2068
  0
LINE
  8
0
 10
-25.4389
 20
-24.2068
 11
-25.5823
 21
-24.1733
  0
LINE
  8
0
 10
-25.5823
 20
-24.1733
 11
-25.7232
 21
-24.1306
  0
LINE
  8
0
 10
-25.7232
 20
-24.1306
 11
-25.861
 21
-24.0787
  0
LINE
  8
0
 10
-25.861
 20
-24.0787
 11
-25.9951
 21
-24.018
  0
LINE
  8
0
 10
-25.9951
 20
-24.018
 11
-26.125
 21
-23.9485
  0
LINE
  8
0
 10
-26.125
 20
-23.9485
 11
-26.25
 21
-23.8708
  0
LINE
  8
0
 10
-26.25
 20
-23.8708
 11
-26.3697
 21
-23.785
  0
LINE
  8
0
 10
-26.3697
 20
-23.785
 11
-26.4835
 21
-23.6916
  0
LINE
  8
0
 10
-26.4835
 20
-23.6916
 11
-26.591
 21
-23.591
  0
LINE
  8
0
 10
-26.591
 20
-23.591
 11
-26.6916
 21
-23.4835
  0
LINE
  8
0
 10
-26.6916
 20
-23.4835
 11
-26.785
 21
-23.3697
  0
LINE
  8
0
 10
-26.785
 20
-23.3697
 11
-26.8708
 21
-23.25
  0
LINE
  8
0
 10
-26.8708
 20
-23.25
 11
-26.9485
 21
-23.125
  0
LINE
  8
0
 10
-26.9485
 20
-23.125
 11
-27.018
 21
-22.9951
  0
LINE
  8
0
 10
-27.018
 20
-22.9951
 11
-27.0787
 21
-22.861
  0
LINE
  8
0
 10
-27.0787
 20
-22.861
 11
-27.1306
 21
-22.7232
  0
LINE
  8
0
 10
-27.1306
 20
-22.7232
 11
-27.1733
 21
-22.5823
  0
LINE
  8
0
 10
-27.1733
 20
-22.5823
 11
-27.2068
 21
-22.4389
  0
LINE
  8
0
 10
-27.2068
 20
-22.4389
 11
-27.2307
 21
-22.2937
  0
LINE
  8
0
 10
-27.2307
 20
-22.2937
 11
-27.2452
 21
-22.1472
  0
LINE
  8
0
 10
-27.2452
 20
-22.1472
 11
-27.25
 21
-22
  0
LINE
  8
0
 10
-27.25
 20
-22
 11
-27.2452
 21
-21.8528
  0
LINE
  8
0
 10
-27.2452
 20
-21.8528
 11
-27.2307
 21
-21.7063
  0
LINE
  8
0
 10
-27.2307
 20
-21.7063
 11
-27.2068
 21
-21.561
  0
LINE
  8
0
 10
-27.2068
 20
-21.561
 11
-27.1733
 21
-21.4176
  0
LINE
  8
0
 10
-27.1733
 20
-21.4176
 11
-27.1306
 21
-21.2767
  0
LINE
  8
0
 10
-27.1306
 20
-21.2767
 11
-27.0787
 21
-21.139
  0
LINE
  8
0
 10
-27.0787
 20
-21.139
 11
-27.018
 21
-21.0048
  0
LINE
  8
0
 10
-27.018
 20
-21.0048
 11
-26.9485
 21
-20.875
  0
LINE
  8
0
 10
-26.9485
 20
-20.875
 11
-26.8708
 21
-20.75
  0
LINE
  8
0
 10
-26.8708
 20
-20.75
 11
-26.785
 21
-20.6303
  0
LINE
  8
0
 10
-26.785
 20
-20.6303
 11
-26.6916
 21
-20.5165
  0
LINE
  8
0
 10
-26.6916
 20
-20.5165
 11
-26.591
 21
-20.409
  0
LINE
  8
0
 10
-26.591
 20
-20.409
 11
-26.4835
 21
-20.3083
  0
LINE
  8
0
 10
-26.4835
 20
-20.3083
 11
-26.3697
 21
-20.215
  0
LINE
  8
0
 10
-26.3697
 20
-20.215
 11
-26.25
 21
-20.1292
  0
LINE
  8
0
 10
-26.25
 20
-20.1292
 11
-26.125
 21
-20.0514
  0
LINE
  8
0
 10
-26.125
 20
-20.0514
 11
-25.9951
 21
-19.982
  0
LINE
  8
0
 10
-25.9951
 20
-19.982
 11
-25.861
 21
-19.9213
  0
LINE
  8
0
 10
-25.861
 20
-19.9213
 11
-25.7232
 21
-19.8694
  0
LINE
  8
0
 10
-25.7232
 20
-19.8694
 11
-25.5823
 21
-19.8267
  0
LINE
  8
0
 10
-25.5823
 20
-19.8267
 11
-25.4389
 21
-19.7932
  0
LINE
  8
0
 10
-25.4389
 20
-19.7932
 11
-25.2937
 21
-19.7692
  0
LINE
  8
0
 10
-25.2937
 20
-19.7692
 11
-25.1472
 21
-19.7548
  0
LINE
  8
0
 10
-25.1472
 20
-19.7548
 11
-25
 21
-19.75
  0
LINE
  8
0
 10
-25
 20
-19.75
 11
-24.8528
 21
-19.7548
  0
LINE
  8
0
 10
-24.8528
 20
-19.7548
 11
-24.7063
 21
-19.7692
  0
LINE
  8
0
 10
-24.7063
 20
-19.7692
 11
-24.561
 21
-19.7932
  0
LINE
  8
0
 10
-24.561
 20
-19.7932
 11
-24.4176
 21
-19.8267
  0
LINE
  8
0
 10
-24.4176
 20
-19.8267
 11
-24.2767
 21
-19.8694
  0
LINE
  8
0
 10
-24.2767
 20
-19.8694
 11
-24.139
 21
-19.9213
  0
LINE
  8
0
 10
-24.139
 20
-19.9213
 11
-24.0048
 21
-19.982
  0
LINE
  8
0
 10
-24.0048
 20
-19.982
 11
-23.875
 21
-20.0514
  0
LINE
  8
0
 10
-23.875
 20
-20.0514
 11
-23.75
 21
-20.1292
  0
LINE
  8
0
 10
-23.75
 20
-20.1292
 11
-23.6303
 21
-20.215
  0
LINE
  8
0
 10
-23.6303
 20
-20.215
 11
-23.5165
 21
-20.3083
  0
LINE
  8
0
 10
-23.5165
 20
-20.3083
 11
-23.409
 21
-20.409
  0
LINE
  8
0
 10
-23.409
 20
-20.409
 11
-23.3083
 21
-20.5165
  0
LINE
  8
0
 10
-23.3083
 20
-20.5165
 11
-23.215
 21
-20.6303
  0
LINE
  8
0
 10
-23.215
 20
-20.6303
 11
-23.1292
 21
-20.75
  0
LINE
  8
0
 10
-23.1292
 20
-20.75
 11
-23.0514
 21
-20.875
  0
LINE
  8
0
 10
-23.0514
 20
-20.875
 11
-22.982
 21
-21.0048
  0
LINE
  8
0
 10
-22.982
 20
-21.0048
 11
-22.9213
 21
-21.139
  0
LINE
  8
0
 10
-22.9213
 20
-21.139
 11
-22.8694
 21
-21.2767
  0
LINE
  8
0
 10
-22.8694
 20
-21.2767
 11
-22.8267
 21
-21.4176
  0
LINE
  8
0
 10
-22.8267
 20
-21.4176
 11
-22.7932
 21
-21.561
  0
LINE
  8
0
 10
-22.7932
 20
-21.561
 11
-22.7692
 21
-21.7063
  0
LINE
  8
0
 10
-22.7692
 20
-21.7063
 11
-22.7548
 21
-21.8528
  0
LINE
  8
0
 10
-22.7548
 20
-21.8528
 11
-22.75
 21
-22
  0
LINE
  8
0
 10
-22.75
 20
-22
 11
-22.7548
 21
-22.1472
  0
LINE
  8
0
 10
-22.7548
 20
-22.1472
 11
-22.7692
 21
-22.2937
  0
LINE
  8
0
 10
-22.7692
 20
-22.2937
 11
-22.7932
 21
-22.4389
  0
LINE
  8
0
 10
-22.7932
 20
-22.4389
 11
-22.8267
 21
-22.5823
  0
LINE
  8
0
 10
-22.8267
 20
-22.5823
 11
-22.8694
 21
-22.7232
  0
LINE
  8
0
 10
-22.8694
 20
-22.7232
 11
-22.9213
 21
-22.861
  0
LINE
  8
0
 10
-22.9213
 20
-22.861
 11
-22.982
 21
-22.9951
  0
LINE
  8
0
 10
-22.982
 20
-22.9951
 11
-23.0514
 21
-23.125
  0
LINE
  8
0
 10
-23.0514
 20
-23.125
 11
-23.1292
 21
-23.25
  0
LINE
  8
0
 10
-23.1292
 20
-23.25
 11
-23.215
 21
-23.3697
  0
LINE
  8
0
 10
-23.215
 20
-23.3697
 11
-23.3083
 21
-23.4835
  0
LINE
  8
0
 10
-23.3083
 20
-23.4835
 11
-23.409
 21
-23.591
  0
LINE
  8
0
 10
-23.409
 20
-23.591
 11
-23.5165
 21
-23.6916
  0
LINE
  8
0
 10
-23.5165
 20
-23.6916
 11
-23.6303
 21
-23.785
  0
LINE
  8
0
 10
-23.6303
 20
-23.785
 11
-23.75
 21
-23.8708
  0
LINE
  8
0
 10
-23.75
 20
-23.8708
 11
-23.875
 21
-23.9485
  0
LINE
  8
0
 10
-23.875
 20
-23.9485
 11
-24.0048
 21
-24.018
  0
LINE
  8
0
 10
-24.0048
 20
-24.018
 11
-24.139
 21
-24.0787
  0
LINE
  8
0
 10
-24.139
 20
-24.0787
 11
-24.2767
 21
-24.1306
  0
LINE
  8
0
 10
-24.2767
 20
-24.1306
 11
-24.4176
 21
-24.1733
  0
LINE
  8
0
 10
-24.4176
 20
-24.1733
 11
-24.561
 21
-24.2068
  0
LINE
  8
0
 10
-24.561
 20
-24.2068
 11
-24.7063
 21
-24.2307
  0
LINE
  8
0
 10
-24.7063
 20
-24.2307
 11
-24.8528
 21
-24.2452
  0
LINE
  8
0
 10
-24.8528
 20
-24.2452
 11
-25
 21
-24.25
  0
LINE
  8
0
 10
-25
 20
-24.25
 11
-25.1472
 21
-24.2452
  0
LINE
  8
0
 10
24.8528
 20
-24.2452
 11
24.7063
 21
-24.2307
  0
LINE
  8
0
 10
24.7063
 20
-24.2307
 11
24.561
 21
-24.2068
  0
LINE
  8
0
 10
24.561
 20
-24.2068
 11
24.4176
 21
-24.1733
  0
LINE
  8
0
 10
24.4176
 20
-24.1733
 11
24.2767
 21
-24.1306
  0
LINE
  8
0
 10
24.2767
 20
-24.1306
 11
24.139
 21
-24.0787
  0
LINE
  8
0
 10
24.139
 20
-24.0787
 11
24.0048
 21
-24.018
  0
LINE
  8
0
 10
24.0048
 20
-24.018
 11
23.875
 21
-23.9485
  0
LINE
  8
0
 10
23.875
 20
-23.9485
 11
23.75
 21
-23.8708
  0
LINE
  8
0
 10
23.75
 20
-23.8708
 11
23.6303
 21
-23.785
  0
LINE
  8
0
 10
23.6303
 20
-23.785
 11
23.5165
 21
-23.6916
  0
LINE
  8
0
 10
23.5165
 20
-23.6916
 11
23.409
 21
-23.591
  0
LINE
  8
0
 10
23.409
 20
-23.591
 11
23.3083
 21
-23.4835
  0
LINE
  8
0
 10
23.3083
 20
-23.4835
 11
23.215
 21
-23.3697
  0
LINE
  8
0
 10
23.215
 20
-23.3697
 11
23.1292
 21
-23.25
  0
LINE
  8
0
 10
23.1292
 20
-23.25
 11
23.0514
 21
-23.125
  0
LINE
  8
0
 10
23.0514
 20
-23.125
 11
22.982
 21
-22.9951
  0
LINE
  8
0
 10
22.982
 20
-22.9951
 11
22.9213
 21
-22.861
  0
LINE
  8
0
 10
22.9213
 20
-22.861
 11
22.8694
 21
-22.7232
  0
LINE
  8
0
 10
22.8694
 20
-22.7232
 11
22.8267
 21
-22.5823
  0
LINE
  8
0
 10
22.8267
 20
-22.5823
 11
22.7932
 21
-22.4389
  0
LINE
  8
0
 10
22.7932
 20
-22.4389
 11
22.7692
 21
-22.2937
  0
LINE
  8
0
 10
22.7692
 20
-22.2937
 11
22.7548
 21
-22.1472
  0
LINE
  8
0
 10
22.7548
 20
-22.1472
 11
22.75
 21
-22
  0
LINE
  8
0
 10
22.75
 20
-22
 11
22.7548
 21
-21.8528
  0
LINE
  8
0
 10
22.7548
 20
-21.8528
 11
22.7692
 21
-21.7063
  0
LINE
  8
0
 10
22.7692
 20
-21.7063
 11
22.7932
 21
-21.561
  0
LINE
  8
0
 10
22.7932
 20
-21.561
 11
22.8267
 21
-21.4176
  0
LINE
  8
0
 10
22.8267
 20
-21.4176
 11
22.8694
 21
-21.2767
  0
LINE
  8
0
 10
22.8694
 20
-21.2767
 11
22.9213
 21
-21.139
  0
LINE
  8
0
 10
22.9213
 20
-21.139
 11
22.982
 21
-21.0048
  0
LINE
  8
0
 10
22.982
 20
-21.0048
 11
23.0514
 21
-20.875
  0
LINE
  8
0
 10
23.0514
 20
-20.875
 11
23.1292
 21
-20.75
  0
LINE
  8
0
 10
23.1292
 20
-20.75
 11
23.215
 21
-20.6303
  0
LINE
  8
0
 10
23.215
 20
-20.6303
 11
23.3083
 21
-20.5165
  0
LINE
  8
0
 10
23.3083
 20
-20.5165
 11
23.409
 21
-20.409
  0
LINE
  8
0
 10
23.409
 20
-20.409
 11
23.5165
 21
-20.3083
  0
LINE
  8
0
 10
23.5165
 20
-20.3083
 11
23.6303
 21
-20.215
  0
LINE
  8
0
 10
23.6303
 20
-20.215
 11
23.75
 21
-20.1292
  0
LINE
  8
0
 10
23.75
 20
-20.1292
 11
23.875
 21
-20.0514
  0
LINE
  8
0
 10
23.875
 20
-20.0514
 11
24.0048
 21
-19.982
  0
LINE
  8
0
 10
24.0048
 20
-19.982
 11
24.139
 21
-19.9213
  0
LINE
  8
0
 10
24.139
 20
-19.9213
 11
24.2767
 21
-19.8694
  0
LINE
  8
0
 10
24.2767
 20
-19.8694
 11
24.4176
 21
-19.8267
  0
LINE
  8
0
 10
24.4176
 20
-19.8267
 11
24.561
 21
-19.7932
  0
LINE
  8
0
 10
24.561
 20
-19.7932
 11
24.7063
 21
-19.7692
  0
LINE
  8
0
 10
24.7063
 20
-19.7692
 11
24.8528
 21
-19.7548
  0
LINE
  8
0
 10
24.8528
 20
-19.7548
 11
25
 21
-19.75
  0
LINE
  8
0
 10
25
 20
-19.75
 11
25.1472
 21
-19.7548
  0
LINE
  8
0
 10
25.1472
 20
-19.7548
 11
25.2937
 21
-19.7692
  0
LINE
  8
0
 10
25.2937
 20
-19.7692
 11
25.4389
 21
-19.7932
  0
LINE
  8
0
 10
25.4389
 20
-19.7932
 11
25.5823
 21
-19.8267
  0
LINE
  8
0
 10
25.5823
 20
-19.8267
 11
25.7232
 21
-19.8694
  0
LINE
  8
0
 10
25.7232
 20
-19.8694
 11
25.861
 21
-19.9213
  0
LINE
  8
0
 10
25.861
 20
-19.9213
 11
25.9951
 21
-19.982
  0
LINE
  8
0
 10
25.9951
 20
-19.982
 11
26.125
 21
-20.0514
  0
LINE
  8
0
 10
26.125
 20
-20.0514
 11
26.25
 21
-20.1292
  0
LINE
  8
0
 10
26.25
 20
-20.1292
 11
26.3697
 21
-20.215
  0
LINE
  8
0
 10
26.3697
 20
-20.215
 11
26.4835
 21
-20.3083
  0
LINE
  8
0
 10
26.4835
 20
-20.3083
 11
26.591
 21
-20.409
  0
LINE
  8
0
 10
26.591
 20
-20.409
 11
26.6916
 21
-20.5165
  0
LINE
  8
0
 10
26.6916
 20
-20.5165
 11
26.785
 21
-20.6303
  0
LINE
  8
0
 10
26.785
 20
-20.6303
 11
26.8708
 21
-20.75
  0
LINE
  8
0
 10
26.8708
 20
-20.75
 11
26.9485
 21
-20.875
  0
LINE
  8
0
 10
26.9485
 20
-20.875
 11
27.018
 21
-21.0048
  0
LINE
  8
0
 10
27.018
 20
-21.0048
 11
27.0787
 21
-21.139
  0
LINE
  8
0
 10
27.0787
 20
-21.139
 11
27.1306
 21
-21.2767
  0
LINE
  8
0
 10
27.1306
 20
-21.2767
 11
27.1733
 21
-21.4176
  0
LINE
  8
0
 10
27.1733
 20
-21.4176
 11
27.2068
 21
-21.561
  0
LINE
  8
0
 10
27.2068
 20
-21.561
 11
27.2307
 21
-21.7063
  0
LINE
  8
0
 10
27.2307
 20
-21.7063
 11
27.2452
 21
-21.8528
  0
LINE
  8
0
 10
27.2452
 20
-21.8528
 11
27.25
 21
-22
  0
LINE
  8
0
 10
27.25
 20
-22
 11
27.2452
 21
-22.1472
  0
LINE
  8
0
 10
27.2452
 20
-22.1472
 11
27.2307
 21
-22.2937
  0
LINE
  8
0
 10
27.2307
 20
-22.2937
 11
27.2068
 21
-22.4389
  0
LINE
  8
0
 10
27.2068
 20
-22.4389
 11
27.1733
 21
-22.5823
  0
LINE
  8
0
 10
27.1733
 20
-22.5823
 11
27.1306
 21
-22.7232
  0
LINE
  8
0
 10
27.1306
 20
-22.7232
 11
27.0787
 21
-22.861
  0
LINE
  8
0
 10
27.0787
 20
-22.861
 11
27.018
 21
-22.9951
  0
LINE
  8
0
 10
27.018
 20
-22.9951
 11
26.9485
 21
-23.125
  0
LINE
  8
0
 10
26.9485
 20
-23.125
 11
26.8708
 21
-23.25
  0
LINE
  8
0
 10
26.8708
 20
-23.25
 11
26.785
 21
-23.3697
  0
LINE
  8
0
 10
26.785
 20
-23.3697
 11
26.6916
 21
-23.4835
  0
LINE
  8
0
 10
26.6916
 20
-23.4835
 11
26.591
 21
-23.591
  0
LINE
  8
0
 10
26.591
 20
-23.591
 11
26.4835
 21
-23.6916
  0
LINE
  8
0
 10
26.4835
 20
-23.6916
 11
26.3697
 21
-23.785
  0
LINE
  8
0
 10
26.3697
 20
-23.785
 11
26.25
 21
-23.8708
  0
LINE
  8
0
 10
26.25
 20
-23.8708
 11
26.125
 21
-23.9485
  0
LINE
  8
0
 10
26.125
 20
-23.9485
 11
25.9951
 21
-24.018
  0
LINE
  8
0
 10
25.9951
 20
-24.018
 11
25.861
 21
-24.0787
  0
LINE
  8
0
 10
25.861
 20
-24.0787
 11
25.7232
 21
-24.1306
  0
LINE
  8
0
 10
25.7232
 20
-24.1306
 11
25.5823
 21
-24.1733
  0
LINE
  8
0
 10
25.5823
 20
-24.1733
 11
25.4389
 21
-24.2068
  0
LINE
  8
0
 10
25.4389
 20
-24.2068
 11
25.2937
 21
-24.2307
  0
LINE
  8
0
 10
25.2937
 20
-24.2307
 11
25.1472
 21
-24.2452
  0
LINE
  8
0
 10
25.1472
 20
-24.2452
 11
25
 21
-24.25
  0
LINE
  8
0
 10
25
 20
-24.25
 11
24.8528
 21
-24.2452
  0
ENDSEC
  0
SECTION
  2
OBJECTS
  0
DICTIONARY
  0
ENDSEC
  0
EOF
