  0
SECTION
  2
BLOCKS
  0
ENDSEC
  0
SECTION
  2
ENTITIES
  0
LINE
  8
0
 10
80
 20
425
 11
-80
 21
425
  0
LINE
  8
0
 10
-80
 20
425
 11
-80
 21
170
  0
LINE
  8
0
 10
-80
 20
170
 11
80
 21
170
  0
LINE
  8
0
 10
80
 20
170
 11
80
 21
425
  0
LINE
  8
0
 10
-25.1472
 20
409.755
 11
-25.2937
 21
409.769
  0
LINE
  8
0
 10
-25.2937
 20
409.769
 11
-25.4389
 21
409.793
  0
LINE
  8
0
 10
-25.4389
 20
409.793
 11
-25.5823
 21
409.827
  0
LINE
  8
0
 10
-25.5823
 20
409.827
 11
-25.7232
 21
409.869
  0
LINE
  8
0
 10
-25.7232
 20
409.869
 11
-25.861
 21
409.921
  0
LINE
  8
0
 10
-25.861
 20
409.921
 11
-25.9951
 21
409.982
  0
LINE
  8
0
 10
-25.9951
 20
409.982
 11
-26.125
 21
410.051
  0
LINE
  8
0
 10
-26.125
 20
410.051
 11
-26.25
 21
410.129
  0
LINE
  8
0
 10
-26.25
 20
410.129
 11
-26.3697
 21
410.215
  0
LINE
  8
0
 10
-26.3697
 20
410.215
 11
-26.4835
 21
410.308
  0
LINE
  8
0
 10
-26.4835
 20
410.308
 11
-26.591
 21
410.409
  0
LINE
  8
0
 10
-26.591
 20
410.409
 11
-26.6916
 21
410.516
  0
LINE
  8
0
 10
-26.6916
 20
410.516
 11
-26.785
 21
410.63
  0
LINE
  8
0
 10
-26.785
 20
410.63
 11
-26.8708
 21
410.75
  0
LINE
  8
0
 10
-26.8708
 20
410.75
 11
-26.9485
 21
410.875
  0
LINE
  8
0
 10
-26.9485
 20
410.875
 11
-27.018
 21
411.005
  0
LINE
  8
0
 10
-27.018
 20
411.005
 11
-27.0787
 21
411.139
  0
LINE
  8
0
 10
-27.0787
 20
411.139
 11
-27.1306
 21
411.277
  0
LINE
  8
0
 10
-27.1306
 20
411.277
 11
-27.1733
 21
411.418
  0
LINE
  8
0
 10
-27.1733
 20
411.418
 11
-27.2068
 21
411.561
  0
LINE
  8
0
 10
-27.2068
 20
411.561
 11
-27.2307
 21
411.706
  0
LINE
  8
0
 10
-27.2307
 20
411.706
 11
-27.2452
 21
411.853
  0
LINE
  8
0
 10
-27.2452
 20
411.853
 11
-27.25
 21
412
  0
LINE
  8
0
 10
-27.25
 20
412
 11
-27.2452
 21
412.147
  0
LINE
  8
0
 10
-27.2452
 20
412.147
 11
-27.2307
 21
412.294
  0
LINE
  8
0
 10
-27.2307
 20
412.294
 11
-27.2068
 21
412.439
  0
LINE
  8
0
 10
-27.2068
 20
412.439
 11
-27.1733
 21
412.582
  0
LINE
  8
0
 10
-27.1733
 20
412.582
 11
-27.1306
 21
412.723
  0
LINE
  8
0
 10
-27.1306
 20
412.723
 11
-27.0787
 21
412.861
  0
LINE
  8
0
 10
-27.0787
 20
412.861
 11
-27.018
 21
412.995
  0
LINE
  8
0
 10
-27.018
 20
412.995
 11
-26.9485
 21
413.125
  0
LINE
  8
0
 10
-26.9485
 20
413.125
 11
-26.8708
 21
413.25
  0
LINE
  8
0
 10
-26.8708
 20
413.25
 11
-26.785
 21
413.37
  0
LINE
  8
0
 10
-26.785
 20
413.37
 11
-26.6916
 21
413.484
  0
LINE
  8
0
 10
-26.6916
 20
413.484
 11
-26.591
 21
413.591
  0
LINE
  8
0
 10
-26.591
 20
413.591
 11
-26.4835
 21
413.692
  0
LINE
  8
0
 10
-26.4835
 20
413.692
 11
-26.3697
 21
413.785
  0
LINE
  8
0
 10
-26.3697
 20
413.785
 11
-26.25
 21
413.871
  0
LINE
  8
0
 10
-26.25
 20
413.871
 11
-26.125
 21
413.949
  0
LINE
  8
0
 10
-26.125
 20
413.949
 11
-25.9951
 21
414.018
  0
LINE
  8
0
 10
-25.9951
 20
414.018
 11
-25.861
 21
414.079
  0
LINE
  8
0
 10
-25.861
 20
414.079
 11
-25.7232
 21
414.131
  0
LINE
  8
0
 10
-25.7232
 20
414.131
 11
-25.5823
 21
414.173
  0
LINE
  8
0
 10
-25.5823
 20
414.173
 11
-25.4389
 21
414.207
  0
LINE
  8
0
 10
-25.4389
 20
414.207
 11
-25.2937
 21
414.231
  0
LINE
  8
0
 10
-25.2937
 20
414.231
 11
-25.1472
 21
414.245
  0
LINE
  8
0
 10
-25.1472
 20
414.245
 11
-25
 21
414.25
  0
LINE
  8
0
 10
-25
 20
414.25
 11
-24.8528
 21
414.245
  0
LINE
  8
0
 10
-24.8528
 20
414.245
 11
-24.7063
 21
414.231
  0
LINE
  8
0
 10
-24.7063
 20
414.231
 11
-24.561
 21
414.207
  0
LINE
  8
0
 10
-24.561
 20
414.207
 11
-24.4176
 21
414.173
  0
LINE
  8
0
 10
-24.4176
 20
414.173
 11
-24.2767
 21
414.131
  0
LINE
  8
0
 10
-24.2767
 20
414.131
 11
-24.139
 21
414.079
  0
LINE
  8
0
 10
-24.139
 20
414.079
 11
-24.0048
 21
414.018
  0
LINE
  8
0
 10
-24.0048
 20
414.018
 11
-23.875
 21
413.949
  0
LINE
  8
0
 10
-23.875
 20
413.949
 11
-23.75
 21
413.871
  0
LINE
  8
0
 10
-23.75
 20
413.871
 11
-23.6303
 21
413.785
  0
LINE
  8
0
 10
-23.6303
 20
413.785
 11
-23.5165
 21
413.692
  0
LINE
  8
0
 10
-23.5165
 20
413.692
 11
-23.409
 21
413.591
  0
LINE
  8
0
 10
-23.409
 20
413.591
 11
-23.3083
 21
413.484
  0
LINE
  8
0
 10
-23.3083
 20
413.484
 11
-23.215
 21
413.37
  0
LINE
  8
0
 10
-23.215
 20
413.37
 11
-23.1292
 21
413.25
  0
LINE
  8
0
 10
-23.1292
 20
413.25
 11
-23.0514
 21
413.125
  0
LINE
  8
0
 10
-23.0514
 20
413.125
 11
-22.982
 21
412.995
  0
LINE
  8
0
 10
-22.982
 20
412.995
 11
-22.9213
 21
412.861
  0
LINE
  8
0
 10
-22.9213
 20
412.861
 11
-22.8694
 21
412.723
  0
LINE
  8
0
 10
-22.8694
 20
412.723
 11
-22.8267
 21
412.582
  0
LINE
  8
0
 10
-22.8267
 20
412.582
 11
-22.7932
 21
412.439
  0
LINE
  8
0
 10
-22.7932
 20
412.439
 11
-22.7692
 21
412.294
  0
LINE
  8
0
 10
-22.7692
 20
412.294
 11
-22.7548
 21
412.147
  0
LINE
  8
0
 10
-22.7548
 20
412.147
 11
-22.75
 21
412
  0
LINE
  8
0
 10
-22.75
 20
412
 11
-22.7548
 21
411.853
  0
LINE
  8
0
 10
-22.7548
 20
411.853
 11
-22.7692
 21
411.706
  0
LINE
  8
0
 10
-22.7692
 20
411.706
 11
-22.7932
 21
411.561
  0
LINE
  8
0
 10
-22.7932
 20
411.561
 11
-22.8267
 21
411.418
  0
LINE
  8
0
 10
-22.8267
 20
411.418
 11
-22.8694
 21
411.277
  0
LINE
  8
0
 10
-22.8694
 20
411.277
 11
-22.9213
 21
411.139
  0
LINE
  8
0
 10
-22.9213
 20
411.139
 11
-22.982
 21
411.005
  0
LINE
  8
0
 10
-22.982
 20
411.005
 11
-23.0514
 21
410.875
  0
LINE
  8
0
 10
-23.0514
 20
410.875
 11
-23.1292
 21
410.75
  0
LINE
  8
0
 10
-23.1292
 20
410.75
 11
-23.215
 21
410.63
  0
LINE
  8
0
 10
-23.215
 20
410.63
 11
-23.3083
 21
410.516
  0
LINE
  8
0
 10
-23.3083
 20
410.516
 11
-23.409
 21
410.409
  0
LINE
  8
0
 10
-23.409
 20
410.409
 11
-23.5165
 21
410.308
  0
LINE
  8
0
 10
-23.5165
 20
410.308
 11
-23.6303
 21
410.215
  0
LINE
  8
0
 10
-23.6303
 20
410.215
 11
-23.75
 21
410.129
  0
LINE
  8
0
 10
-23.75
 20
410.129
 11
-23.875
 21
410.051
  0
LINE
  8
0
 10
-23.875
 20
410.051
 11
-24.0048
 21
409.982
  0
LINE
  8
0
 10
-24.0048
 20
409.982
 11
-24.139
 21
409.921
  0
LINE
  8
0
 10
-24.139
 20
409.921
 11
-24.2767
 21
409.869
  0
LINE
  8
0
 10
-24.2767
 20
409.869
 11
-24.4176
 21
409.827
  0
LINE
  8
0
 10
-24.4176
 20
409.827
 11
-24.561
 21
409.793
  0
LINE
  8
0
 10
-24.561
 20
409.793
 11
-24.7063
 21
409.769
  0
LINE
  8
0
 10
-24.7063
 20
409.769
 11
-24.8528
 21
409.755
  0
LINE
  8
0
 10
-24.8528
 20
409.755
 11
-25
 21
409.75
  0
LINE
  8
0
 10
-25
 20
409.75
 11
-25.1472
 21
409.755
  0
LINE
  8
0
 10
24.8528
 20
409.755
 11
24.7063
 21
409.769
  0
LINE
  8
0
 10
24.7063
 20
409.769
 11
24.561
 21
409.793
  0
LINE
  8
0
 10
24.561
 20
409.793
 11
24.4176
 21
409.827
  0
LINE
  8
0
 10
24.4176
 20
409.827
 11
24.2767
 21
409.869
  0
LINE
  8
0
 10
24.2767
 20
409.869
 11
24.139
 21
409.921
  0
LINE
  8
0
 10
24.139
 20
409.921
 11
24.0048
 21
409.982
  0
LINE
  8
0
 10
24.0048
 20
409.982
 11
23.875
 21
410.051
  0
LINE
  8
0
 10
23.875
 20
410.051
 11
23.75
 21
410.129
  0
LINE
  8
0
 10
23.75
 20
410.129
 11
23.6303
 21
410.215
  0
LINE
  8
0
 10
23.6303
 20
410.215
 11
23.5165
 21
410.308
  0
LINE
  8
0
 10
23.5165
 20
410.308
 11
23.409
 21
410.409
  0
LINE
  8
0
 10
23.409
 20
410.409
 11
23.3083
 21
410.516
  0
LINE
  8
0
 10
23.3083
 20
410.516
 11
23.215
 21
410.63
  0
LINE
  8
0
 10
23.215
 20
410.63
 11
23.1292
 21
410.75
  0
LINE
  8
0
 10
23.1292
 20
410.75
 11
23.0514
 21
410.875
  0
LINE
  8
0
 10
23.0514
 20
410.875
 11
22.982
 21
411.005
  0
LINE
  8
0
 10
22.982
 20
411.005
 11
22.9213
 21
411.139
  0
LINE
  8
0
 10
22.9213
 20
411.139
 11
22.8694
 21
411.277
  0
LINE
  8
0
 10
22.8694
 20
411.277
 11
22.8267
 21
411.418
  0
LINE
  8
0
 10
22.8267
 20
411.418
 11
22.7932
 21
411.561
  0
LINE
  8
0
 10
22.7932
 20
411.561
 11
22.7692
 21
411.706
  0
LINE
  8
0
 10
22.7692
 20
411.706
 11
22.7548
 21
411.853
  0
LINE
  8
0
 10
22.7548
 20
411.853
 11
22.75
 21
412
  0
LINE
  8
0
 10
22.75
 20
412
 11
22.7548
 21
412.147
  0
LINE
  8
0
 10
22.7548
 20
412.147
 11
22.7692
 21
412.294
  0
LINE
  8
0
 10
22.7692
 20
412.294
 11
22.7932
 21
412.439
  0
LINE
  8
0
 10
22.7932
 20
412.439
 11
22.8267
 21
412.582
  0
LINE
  8
0
 10
22.8267
 20
412.582
 11
22.8694
 21
412.723
  0
LINE
  8
0
 10
22.8694
 20
412.723
 11
22.9213
 21
412.861
  0
LINE
  8
0
 10
22.9213
 20
412.861
 11
22.982
 21
412.995
  0
LINE
  8
0
 10
22.982
 20
412.995
 11
23.0514
 21
413.125
  0
LINE
  8
0
 10
23.0514
 20
413.125
 11
23.1292
 21
413.25
  0
LINE
  8
0
 10
23.1292
 20
413.25
 11
23.215
 21
413.37
  0
LINE
  8
0
 10
23.215
 20
413.37
 11
23.3083
 21
413.484
  0
LINE
  8
0
 10
23.3083
 20
413.484
 11
23.409
 21
413.591
  0
LINE
  8
0
 10
23.409
 20
413.591
 11
23.5165
 21
413.692
  0
LINE
  8
0
 10
23.5165
 20
413.692
 11
23.6303
 21
413.785
  0
LINE
  8
0
 10
23.6303
 20
413.785
 11
23.75
 21
413.871
  0
LINE
  8
0
 10
23.75
 20
413.871
 11
23.875
 21
413.949
  0
LINE
  8
0
 10
23.875
 20
413.949
 11
24.0048
 21
414.018
  0
LINE
  8
0
 10
24.0048
 20
414.018
 11
24.139
 21
414.079
  0
LINE
  8
0
 10
24.139
 20
414.079
 11
24.2767
 21
414.131
  0
LINE
  8
0
 10
24.2767
 20
414.131
 11
24.4176
 21
414.173
  0
LINE
  8
0
 10
24.4176
 20
414.173
 11
24.561
 21
414.207
  0
LINE
  8
0
 10
24.561
 20
414.207
 11
24.7063
 21
414.231
  0
LINE
  8
0
 10
24.7063
 20
414.231
 11
24.8528
 21
414.245
  0
LINE
  8
0
 10
24.8528
 20
414.245
 11
25
 21
414.25
  0
LINE
  8
0
 10
25
 20
414.25
 11
25.1472
 21
414.245
  0
LINE
  8
0
 10
25.1472
 20
414.245
 11
25.2937
 21
414.231
  0
LINE
  8
0
 10
25.2937
 20
414.231
 11
25.4389
 21
414.207
  0
LINE
  8
0
 10
25.4389
 20
414.207
 11
25.5823
 21
414.173
  0
LINE
  8
0
 10
25.5823
 20
414.173
 11
25.7232
 21
414.131
  0
LINE
  8
0
 10
25.7232
 20
414.131
 11
25.861
 21
414.079
  0
LINE
  8
0
 10
25.861
 20
414.079
 11
25.9951
 21
414.018
  0
LINE
  8
0
 10
25.9951
 20
414.018
 11
26.125
 21
413.949
  0
LINE
  8
0
 10
26.125
 20
413.949
 11
26.25
 21
413.871
  0
LINE
  8
0
 10
26.25
 20
413.871
 11
26.3697
 21
413.785
  0
LINE
  8
0
 10
26.3697
 20
413.785
 11
26.4835
 21
413.692
  0
LINE
  8
0
 10
26.4835
 20
413.692
 11
26.591
 21
413.591
  0
LINE
  8
0
 10
26.591
 20
413.591
 11
26.6916
 21
413.484
  0
LINE
  8
0
 10
26.6916
 20
413.484
 11
26.785
 21
413.37
  0
LINE
  8
0
 10
26.785
 20
413.37
 11
26.8708
 21
413.25
  0
LINE
  8
0
 10
26.8708
 20
413.25
 11
26.9485
 21
413.125
  0
LINE
  8
0
 10
26.9485
 20
413.125
 11
27.018
 21
412.995
  0
LINE
  8
0
 10
27.018
 20
412.995
 11
27.0787
 21
412.861
  0
LINE
  8
0
 10
27.0787
 20
412.861
 11
27.1306
 21
412.723
  0
LINE
  8
0
 10
27.1306
 20
412.723
 11
27.1733
 21
412.582
  0
LINE
  8
0
 10
27.1733
 20
412.582
 11
27.2068
 21
412.439
  0
LINE
  8
0
 10
27.2068
 20
412.439
 11
27.2307
 21
412.294
  0
LINE
  8
0
 10
27.2307
 20
412.294
 11
27.2452
 21
412.147
  0
LINE
  8
0
 10
27.2452
 20
412.147
 11
27.25
 21
412
  0
LINE
  8
0
 10
27.25
 20
412
 11
27.2452
 21
411.853
  0
LINE
  8
0
 10
27.2452
 20
411.853
 11
27.2307
 21
411.706
  0
LINE
  8
0
 10
27.2307
 20
411.706
 11
27.2068
 21
411.561
  0
LINE
  8
0
 10
27.2068
 20
411.561
 11
27.1733
 21
411.418
  0
LINE
  8
0
 10
27.1733
 20
411.418
 11
27.1306
 21
411.277
  0
LINE
  8
0
 10
27.1306
 20
411.277
 11
27.0787
 21
411.139
  0
LINE
  8
0
 10
27.0787
 20
411.139
 11
27.018
 21
411.005
  0
LINE
  8
0
 10
27.018
 20
411.005
 11
26.9485
 21
410.875
  0
LINE
  8
0
 10
26.9485
 20
410.875
 11
26.8708
 21
410.75
  0
LINE
  8
0
 10
26.8708
 20
410.75
 11
26.785
 21
410.63
  0
LINE
  8
0
 10
26.785
 20
410.63
 11
26.6916
 21
410.516
  0
LINE
  8
0
 10
26.6916
 20
410.516
 11
26.591
 21
410.409
  0
LINE
  8
0
 10
26.591
 20
410.409
 11
26.4835
 21
410.308
  0
LINE
  8
0
 10
26.4835
 20
410.308
 11
26.3697
 21
410.215
  0
LINE
  8
0
 10
26.3697
 20
410.215
 11
26.25
 21
410.129
  0
LINE
  8
0
 10
26.25
 20
410.129
 11
26.125
 21
410.051
  0
LINE
  8
0
 10
26.125
 20
410.051
 11
25.9951
 21
409.982
  0
LINE
  8
0
 10
25.9951
 20
409.982
 11
25.861
 21
409.921
  0
LINE
  8
0
 10
25.861
 20
409.921
 11
25.7232
 21
409.869
  0
LINE
  8
0
 10
25.7232
 20
409.869
 11
25.5823
 21
409.827
  0
LINE
  8
0
 10
25.5823
 20
409.827
 11
25.4389
 21
409.793
  0
LINE
  8
0
 10
25.4389
 20
409.793
 11
25.2937
 21
409.769
  0
LINE
  8
0
 10
25.2937
 20
409.769
 11
25.1472
 21
409.755
  0
LINE
  8
0
 10
25.1472
 20
409.755
 11
25
 21
409.75
  0
LINE
  8
0
 10
25
 20
409.75
 11
24.8528
 21
409.755
  0
LINE
  8
0
 10
-55.1472
 20
400.755
 11
-55.2937
 21
400.769
  0
LINE
  8
0
 10
-55.2937
 20
400.769
 11
-55.4389
 21
400.793
  0
LINE
  8
0
 10
-55.4389
 20
400.793
 11
-55.5823
 21
400.827
  0
LINE
  8
0
 10
-55.5823
 20
400.827
 11
-55.7232
 21
400.869
  0
LINE
  8
0
 10
-55.7232
 20
400.869
 11
-55.861
 21
400.921
  0
LINE
  8
0
 10
-55.861
 20
400.921
 11
-55.9951
 21
400.982
  0
LINE
  8
0
 10
-55.9951
 20
400.982
 11
-56.125
 21
401.051
  0
LINE
  8
0
 10
-56.125
 20
401.051
 11
-56.25
 21
401.129
  0
LINE
  8
0
 10
-56.25
 20
401.129
 11
-56.3697
 21
401.215
  0
LINE
  8
0
 10
-56.3697
 20
401.215
 11
-56.4835
 21
401.308
  0
LINE
  8
0
 10
-56.4835
 20
401.308
 11
-56.591
 21
401.409
  0
LINE
  8
0
 10
-56.591
 20
401.409
 11
-56.6916
 21
401.516
  0
LINE
  8
0
 10
-56.6916
 20
401.516
 11
-56.785
 21
401.63
  0
LINE
  8
0
 10
-56.785
 20
401.63
 11
-56.8708
 21
401.75
  0
LINE
  8
0
 10
-56.8708
 20
401.75
 11
-56.9485
 21
401.875
  0
LINE
  8
0
 10
-56.9485
 20
401.875
 11
-57.018
 21
402.005
  0
LINE
  8
0
 10
-57.018
 20
402.005
 11
-57.0787
 21
402.139
  0
LINE
  8
0
 10
-57.0787
 20
402.139
 11
-57.1306
 21
402.277
  0
LINE
  8
0
 10
-57.1306
 20
402.277
 11
-57.1733
 21
402.418
  0
LINE
  8
0
 10
-57.1733
 20
402.418
 11
-57.2068
 21
402.561
  0
LINE
  8
0
 10
-57.2068
 20
402.561
 11
-57.2307
 21
402.706
  0
LINE
  8
0
 10
-57.2307
 20
402.706
 11
-57.2452
 21
402.853
  0
LINE
  8
0
 10
-57.2452
 20
402.853
 11
-57.25
 21
403
  0
LINE
  8
0
 10
-57.25
 20
403
 11
-57.2452
 21
403.147
  0
LINE
  8
0
 10
-57.2452
 20
403.147
 11
-57.2307
 21
403.294
  0
LINE
  8
0
 10
-57.2307
 20
403.294
 11
-57.2068
 21
403.439
  0
LINE
  8
0
 10
-57.2068
 20
403.439
 11
-57.1733
 21
403.582
  0
LINE
  8
0
 10
-57.1733
 20
403.582
 11
-57.1306
 21
403.723
  0
LINE
  8
0
 10
-57.1306
 20
403.723
 11
-57.0787
 21
403.861
  0
LINE
  8
0
 10
-57.0787
 20
403.861
 11
-57.018
 21
403.995
  0
LINE
  8
0
 10
-57.018
 20
403.995
 11
-56.9485
 21
404.125
  0
LINE
  8
0
 10
-56.9485
 20
404.125
 11
-56.8708
 21
404.25
  0
LINE
  8
0
 10
-56.8708
 20
404.25
 11
-56.785
 21
404.37
  0
LINE
  8
0
 10
-56.785
 20
404.37
 11
-56.6916
 21
404.484
  0
LINE
  8
0
 10
-56.6916
 20
404.484
 11
-56.591
 21
404.591
  0
LINE
  8
0
 10
-56.591
 20
404.591
 11
-56.4835
 21
404.692
  0
LINE
  8
0
 10
-56.4835
 20
404.692
 11
-56.3697
 21
404.785
  0
LINE
  8
0
 10
-56.3697
 20
404.785
 11
-56.25
 21
404.871
  0
LINE
  8
0
 10
-56.25
 20
404.871
 11
-56.125
 21
404.949
  0
LINE
  8
0
 10
-56.125
 20
404.949
 11
-55.9951
 21
405.018
  0
LINE
  8
0
 10
-55.9951
 20
405.018
 11
-55.861
 21
405.079
  0
LINE
  8
0
 10
-55.861
 20
405.079
 11
-55.7232
 21
405.131
  0
LINE
  8
0
 10
-55.7232
 20
405.131
 11
-55.5823
 21
405.173
  0
LINE
  8
0
 10
-55.5823
 20
405.173
 11
-55.4389
 21
405.207
  0
LINE
  8
0
 10
-55.4389
 20
405.207
 11
-55.2937
 21
405.231
  0
LINE
  8
0
 10
-55.2937
 20
405.231
 11
-55.1472
 21
405.245
  0
LINE
  8
0
 10
-55.1472
 20
405.245
 11
-55
 21
405.25
  0
LINE
  8
0
 10
-55
 20
405.25
 11
-54.8528
 21
405.245
  0
LINE
  8
0
 10
-54.8528
 20
405.245
 11
-54.7063
 21
405.231
  0
LINE
  8
0
 10
-54.7063
 20
405.231
 11
-54.561
 21
405.207
  0
LINE
  8
0
 10
-54.561
 20
405.207
 11
-54.4176
 21
405.173
  0
LINE
  8
0
 10
-54.4176
 20
405.173
 11
-54.2767
 21
405.131
  0
LINE
  8
0
 10
-54.2767
 20
405.131
 11
-54.139
 21
405.079
  0
LINE
  8
0
 10
-54.139
 20
405.079
 11
-54.0048
 21
405.018
  0
LINE
  8
0
 10
-54.0048
 20
405.018
 11
-53.875
 21
404.949
  0
LINE
  8
0
 10
-53.875
 20
404.949
 11
-53.75
 21
404.871
  0
LINE
  8
0
 10
-53.75
 20
404.871
 11
-53.6303
 21
404.785
  0
LINE
  8
0
 10
-53.6303
 20
404.785
 11
-53.5165
 21
404.692
  0
LINE
  8
0
 10
-53.5165
 20
404.692
 11
-53.409
 21
404.591
  0
LINE
  8
0
 10
-53.409
 20
404.591
 11
-53.3083
 21
404.484
  0
LINE
  8
0
 10
-53.3083
 20
404.484
 11
-53.215
 21
404.37
  0
LINE
  8
0
 10
-53.215
 20
404.37
 11
-53.1292
 21
404.25
  0
LINE
  8
0
 10
-53.1292
 20
404.25
 11
-53.0514
 21
404.125
  0
LINE
  8
0
 10
-53.0514
 20
404.125
 11
-52.982
 21
403.995
  0
LINE
  8
0
 10
-52.982
 20
403.995
 11
-52.9213
 21
403.861
  0
LINE
  8
0
 10
-52.9213
 20
403.861
 11
-52.8694
 21
403.723
  0
LINE
  8
0
 10
-52.8694
 20
403.723
 11
-52.8267
 21
403.582
  0
LINE
  8
0
 10
-52.8267
 20
403.582
 11
-52.7932
 21
403.439
  0
LINE
  8
0
 10
-52.7932
 20
403.439
 11
-52.7692
 21
403.294
  0
LINE
  8
0
 10
-52.7692
 20
403.294
 11
-52.7548
 21
403.147
  0
LINE
  8
0
 10
-52.7548
 20
403.147
 11
-52.75
 21
403
  0
LINE
  8
0
 10
-52.75
 20
403
 11
-52.7548
 21
402.853
  0
LINE
  8
0
 10
-52.7548
 20
402.853
 11
-52.7692
 21
402.706
  0
LINE
  8
0
 10
-52.7692
 20
402.706
 11
-52.7932
 21
402.561
  0
LINE
  8
0
 10
-52.7932
 20
402.561
 11
-52.8267
 21
402.418
  0
LINE
  8
0
 10
-52.8267
 20
402.418
 11
-52.8694
 21
402.277
  0
LINE
  8
0
 10
-52.8694
 20
402.277
 11
-52.9213
 21
402.139
  0
LINE
  8
0
 10
-52.9213
 20
402.139
 11
-52.982
 21
402.005
  0
LINE
  8
0
 10
-52.982
 20
402.005
 11
-53.0514
 21
401.875
  0
LINE
  8
0
 10
-53.0514
 20
401.875
 11
-53.1292
 21
401.75
  0
LINE
  8
0
 10
-53.1292
 20
401.75
 11
-53.215
 21
401.63
  0
LINE
  8
0
 10
-53.215
 20
401.63
 11
-53.3083
 21
401.516
  0
LINE
  8
0
 10
-53.3083
 20
401.516
 11
-53.409
 21
401.409
  0
LINE
  8
0
 10
-53.409
 20
401.409
 11
-53.5165
 21
401.308
  0
LINE
  8
0
 10
-53.5165
 20
401.308
 11
-53.6303
 21
401.215
  0
LINE
  8
0
 10
-53.6303
 20
401.215
 11
-53.75
 21
401.129
  0
LINE
  8
0
 10
-53.75
 20
401.129
 11
-53.875
 21
401.051
  0
LINE
  8
0
 10
-53.875
 20
401.051
 11
-54.0048
 21
400.982
  0
LINE
  8
0
 10
-54.0048
 20
400.982
 11
-54.139
 21
400.921
  0
LINE
  8
0
 10
-54.139
 20
400.921
 11
-54.2767
 21
400.869
  0
LINE
  8
0
 10
-54.2767
 20
400.869
 11
-54.4176
 21
400.827
  0
LINE
  8
0
 10
-54.4176
 20
400.827
 11
-54.561
 21
400.793
  0
LINE
  8
0
 10
-54.561
 20
400.793
 11
-54.7063
 21
400.769
  0
LINE
  8
0
 10
-54.7063
 20
400.769
 11
-54.8528
 21
400.755
  0
LINE
  8
0
 10
-54.8528
 20
400.755
 11
-55
 21
400.75
  0
LINE
  8
0
 10
-55
 20
400.75
 11
-55.1472
 21
400.755
  0
LINE
  8
0
 10
54.8528
 20
400.755
 11
54.7063
 21
400.769
  0
LINE
  8
0
 10
54.7063
 20
400.769
 11
54.561
 21
400.793
  0
LINE
  8
0
 10
54.561
 20
400.793
 11
54.4176
 21
400.827
  0
LINE
  8
0
 10
54.4176
 20
400.827
 11
54.2767
 21
400.869
  0
LINE
  8
0
 10
54.2767
 20
400.869
 11
54.139
 21
400.921
  0
LINE
  8
0
 10
54.139
 20
400.921
 11
54.0048
 21
400.982
  0
LINE
  8
0
 10
54.0048
 20
400.982
 11
53.875
 21
401.051
  0
LINE
  8
0
 10
53.875
 20
401.051
 11
53.75
 21
401.129
  0
LINE
  8
0
 10
53.75
 20
401.129
 11
53.6303
 21
401.215
  0
LINE
  8
0
 10
53.6303
 20
401.215
 11
53.5165
 21
401.308
  0
LINE
  8
0
 10
53.5165
 20
401.308
 11
53.409
 21
401.409
  0
LINE
  8
0
 10
53.409
 20
401.409
 11
53.3083
 21
401.516
  0
LINE
  8
0
 10
53.3083
 20
401.516
 11
53.215
 21
401.63
  0
LINE
  8
0
 10
53.215
 20
401.63
 11
53.1292
 21
401.75
  0
LINE
  8
0
 10
53.1292
 20
401.75
 11
53.0514
 21
401.875
  0
LINE
  8
0
 10
53.0514
 20
401.875
 11
52.982
 21
402.005
  0
LINE
  8
0
 10
52.982
 20
402.005
 11
52.9213
 21
402.139
  0
LINE
  8
0
 10
52.9213
 20
402.139
 11
52.8694
 21
402.277
  0
LINE
  8
0
 10
52.8694
 20
402.277
 11
52.8267
 21
402.418
  0
LINE
  8
0
 10
52.8267
 20
402.418
 11
52.7932
 21
402.561
  0
LINE
  8
0
 10
52.7932
 20
402.561
 11
52.7692
 21
402.706
  0
LINE
  8
0
 10
52.7692
 20
402.706
 11
52.7548
 21
402.853
  0
LINE
  8
0
 10
52.7548
 20
402.853
 11
52.75
 21
403
  0
LINE
  8
0
 10
52.75
 20
403
 11
52.7548
 21
403.147
  0
LINE
  8
0
 10
52.7548
 20
403.147
 11
52.7692
 21
403.294
  0
LINE
  8
0
 10
52.7692
 20
403.294
 11
52.7932
 21
403.439
  0
LINE
  8
0
 10
52.7932
 20
403.439
 11
52.8267
 21
403.582
  0
LINE
  8
0
 10
52.8267
 20
403.582
 11
52.8694
 21
403.723
  0
LINE
  8
0
 10
52.8694
 20
403.723
 11
52.9213
 21
403.861
  0
LINE
  8
0
 10
52.9213
 20
403.861
 11
52.982
 21
403.995
  0
LINE
  8
0
 10
52.982
 20
403.995
 11
53.0514
 21
404.125
  0
LINE
  8
0
 10
53.0514
 20
404.125
 11
53.1292
 21
404.25
  0
LINE
  8
0
 10
53.1292
 20
404.25
 11
53.215
 21
404.37
  0
LINE
  8
0
 10
53.215
 20
404.37
 11
53.3083
 21
404.484
  0
LINE
  8
0
 10
53.3083
 20
404.484
 11
53.409
 21
404.591
  0
LINE
  8
0
 10
53.409
 20
404.591
 11
53.5165
 21
404.692
  0
LINE
  8
0
 10
53.5165
 20
404.692
 11
53.6303
 21
404.785
  0
LINE
  8
0
 10
53.6303
 20
404.785
 11
53.75
 21
404.871
  0
LINE
  8
0
 10
53.75
 20
404.871
 11
53.875
 21
404.949
  0
LINE
  8
0
 10
53.875
 20
404.949
 11
54.0048
 21
405.018
  0
LINE
  8
0
 10
54.0048
 20
405.018
 11
54.139
 21
405.079
  0
LINE
  8
0
 10
54.139
 20
405.079
 11
54.2767
 21
405.131
  0
LINE
  8
0
 10
54.2767
 20
405.131
 11
54.4176
 21
405.173
  0
LINE
  8
0
 10
54.4176
 20
405.173
 11
54.561
 21
405.207
  0
LINE
  8
0
 10
54.561
 20
405.207
 11
54.7063
 21
405.231
  0
LINE
  8
0
 10
54.7063
 20
405.231
 11
54.8528
 21
405.245
  0
LINE
  8
0
 10
54.8528
 20
405.245
 11
55
 21
405.25
  0
LINE
  8
0
 10
55
 20
405.25
 11
55.1472
 21
405.245
  0
LINE
  8
0
 10
55.1472
 20
405.245
 11
55.2937
 21
405.231
  0
LINE
  8
0
 10
55.2937
 20
405.231
 11
55.4389
 21
405.207
  0
LINE
  8
0
 10
55.4389
 20
405.207
 11
55.5823
 21
405.173
  0
LINE
  8
0
 10
55.5823
 20
405.173
 11
55.7232
 21
405.131
  0
LINE
  8
0
 10
55.7232
 20
405.131
 11
55.861
 21
405.079
  0
LINE
  8
0
 10
55.861
 20
405.079
 11
55.9951
 21
405.018
  0
LINE
  8
0
 10
55.9951
 20
405.018
 11
56.125
 21
404.949
  0
LINE
  8
0
 10
56.125
 20
404.949
 11
56.25
 21
404.871
  0
LINE
  8
0
 10
56.25
 20
404.871
 11
56.3697
 21
404.785
  0
LINE
  8
0
 10
56.3697
 20
404.785
 11
56.4835
 21
404.692
  0
LINE
  8
0
 10
56.4835
 20
404.692
 11
56.591
 21
404.591
  0
LINE
  8
0
 10
56.591
 20
404.591
 11
56.6916
 21
404.484
  0
LINE
  8
0
 10
56.6916
 20
404.484
 11
56.785
 21
404.37
  0
LINE
  8
0
 10
56.785
 20
404.37
 11
56.8708
 21
404.25
  0
LINE
  8
0
 10
56.8708
 20
404.25
 11
56.9485
 21
404.125
  0
LINE
  8
0
 10
56.9485
 20
404.125
 11
57.018
 21
403.995
  0
LINE
  8
0
 10
57.018
 20
403.995
 11
57.0787
 21
403.861
  0
LINE
  8
0
 10
57.0787
 20
403.861
 11
57.1306
 21
403.723
  0
LINE
  8
0
 10
57.1306
 20
403.723
 11
57.1733
 21
403.582
  0
LINE
  8
0
 10
57.1733
 20
403.582
 11
57.2068
 21
403.439
  0
LINE
  8
0
 10
57.2068
 20
403.439
 11
57.2307
 21
403.294
  0
LINE
  8
0
 10
57.2307
 20
403.294
 11
57.2452
 21
403.147
  0
LINE
  8
0
 10
57.2452
 20
403.147
 11
57.25
 21
403
  0
LINE
  8
0
 10
57.25
 20
403
 11
57.2452
 21
402.853
  0
LINE
  8
0
 10
57.2452
 20
402.853
 11
57.2307
 21
402.706
  0
LINE
  8
0
 10
57.2307
 20
402.706
 11
57.2068
 21
402.561
  0
LINE
  8
0
 10
57.2068
 20
402.561
 11
57.1733
 21
402.418
  0
LINE
  8
0
 10
57.1733
 20
402.418
 11
57.1306
 21
402.277
  0
LINE
  8
0
 10
57.1306
 20
402.277
 11
57.0787
 21
402.139
  0
LINE
  8
0
 10
57.0787
 20
402.139
 11
57.018
 21
402.005
  0
LINE
  8
0
 10
57.018
 20
402.005
 11
56.9485
 21
401.875
  0
LINE
  8
0
 10
56.9485
 20
401.875
 11
56.8708
 21
401.75
  0
LINE
  8
0
 10
56.8708
 20
401.75
 11
56.785
 21
401.63
  0
LINE
  8
0
 10
56.785
 20
401.63
 11
56.6916
 21
401.516
  0
LINE
  8
0
 10
56.6916
 20
401.516
 11
56.591
 21
401.409
  0
LINE
  8
0
 10
56.591
 20
401.409
 11
56.4835
 21
401.308
  0
LINE
  8
0
 10
56.4835
 20
401.308
 11
56.3697
 21
401.215
  0
LINE
  8
0
 10
56.3697
 20
401.215
 11
56.25
 21
401.129
  0
LINE
  8
0
 10
56.25
 20
401.129
 11
56.125
 21
401.051
  0
LINE
  8
0
 10
56.125
 20
401.051
 11
55.9951
 21
400.982
  0
LINE
  8
0
 10
55.9951
 20
400.982
 11
55.861
 21
400.921
  0
LINE
  8
0
 10
55.861
 20
400.921
 11
55.7232
 21
400.869
  0
LINE
  8
0
 10
55.7232
 20
400.869
 11
55.5823
 21
400.827
  0
LINE
  8
0
 10
55.5823
 20
400.827
 11
55.4389
 21
400.793
  0
LINE
  8
0
 10
55.4389
 20
400.793
 11
55.2937
 21
400.769
  0
LINE
  8
0
 10
55.2937
 20
400.769
 11
55.1472
 21
400.755
  0
LINE
  8
0
 10
55.1472
 20
400.755
 11
55
 21
400.75
  0
LINE
  8
0
 10
55
 20
400.75
 11
54.8528
 21
400.755
  0
LINE
  8
0
 10
-0.850235
 20
377.028
 11
-1.69684
 21
377.111
  0
LINE
  8
0
 10
-1.69684
 20
377.111
 11
-2.53616
 21
377.25
  0
LINE
  8
0
 10
-2.53616
 20
377.25
 11
-3.36464
 21
377.443
  0
LINE
  8
0
 10
-3.36464
 20
377.443
 11
-4.17871
 21
377.69
  0
LINE
  8
0
 10
-4.17871
 20
377.69
 11
-4.97488
 21
377.99
  0
LINE
  8
0
 10
-4.97488
 20
377.99
 11
-5.74974
 21
378.341
  0
LINE
  8
0
 10
-5.74974
 20
378.341
 11
-6.5
 21
378.742
  0
LINE
  8
0
 10
-6.5
 20
378.742
 11
-7.22241
 21
379.191
  0
LINE
  8
0
 10
-7.22241
 20
379.191
 11
-7.91389
 21
379.686
  0
LINE
  8
0
 10
-7.91389
 20
379.686
 11
-8.57149
 21
380.226
  0
LINE
  8
0
 10
-8.57149
 20
380.226
 11
-9.19238
 21
380.808
  0
LINE
  8
0
 10
-9.19238
 20
380.808
 11
-9.77391
 21
381.428
  0
LINE
  8
0
 10
-9.77391
 20
381.428
 11
-10.3136
 21
382.086
  0
LINE
  8
0
 10
-10.3136
 20
382.086
 11
-10.8091
 21
382.778
  0
LINE
  8
0
 10
-10.8091
 20
382.778
 11
-11.2583
 21
383.5
  0
LINE
  8
0
 10
-11.2583
 20
383.5
 11
-11.6593
 21
384.25
  0
LINE
  8
0
 10
-11.6593
 20
384.25
 11
-12.0104
 21
385.025
  0
LINE
  8
0
 10
-12.0104
 20
385.025
 11
-12.3101
 21
385.821
  0
LINE
  8
0
 10
-12.3101
 20
385.821
 11
-12.557
 21
386.635
  0
LINE
  8
0
 10
-12.557
 20
386.635
 11
-12.7502
 21
387.464
  0
LINE
  8
0
 10
-12.7502
 20
387.464
 11
-12.8888
 21
388.303
  0
LINE
  8
0
 10
-12.8888
 20
388.303
 11
-12.9722
 21
389.15
  0
LINE
  8
0
 10
-12.9722
 20
389.15
 11
-13
 21
390
  0
LINE
  8
0
 10
-13
 20
390
 11
-12.9722
 21
390.85
  0
LINE
  8
0
 10
-12.9722
 20
390.85
 11
-12.8888
 21
391.697
  0
LINE
  8
0
 10
-12.8888
 20
391.697
 11
-12.7502
 21
392.536
  0
LINE
  8
0
 10
-12.7502
 20
392.536
 11
-12.557
 21
393.365
  0
LINE
  8
0
 10
-12.557
 20
393.365
 11
-12.3101
 21
394.179
  0
LINE
  8
0
 10
-12.3101
 20
394.179
 11
-12.0104
 21
394.975
  0
LINE
  8
0
 10
-12.0104
 20
394.975
 11
-11.6593
 21
395.75
  0
LINE
  8
0
 10
-11.6593
 20
395.75
 11
-11.2583
 21
396.5
  0
LINE
  8
0
 10
-11.2583
 20
396.5
 11
-10.8091
 21
397.222
  0
LINE
  8
0
 10
-10.8091
 20
397.222
 11
-10.3136
 21
397.914
  0
LINE
  8
0
 10
-10.3136
 20
397.914
 11
-9.77391
 21
398.571
  0
LINE
  8
0
 10
-9.77391
 20
398.571
 11
-9.19238
 21
399.192
  0
LINE
  8
0
 10
-9.19238
 20
399.192
 11
-8.57149
 21
399.774
  0
LINE
  8
0
 10
-8.57149
 20
399.774
 11
-7.91389
 21
400.314
  0
LINE
  8
0
 10
-7.91389
 20
400.314
 11
-7.22241
 21
400.809
  0
LINE
  8
0
 10
-7.22241
 20
400.809
 11
-6.5
 21
401.258
  0
LINE
  8
0
 10
-6.5
 20
401.258
 11
-5.74974
 21
401.659
  0
LINE
  8
0
 10
-5.74974
 20
401.659
 11
-4.97488
 21
402.01
  0
LINE
  8
0
 10
-4.97488
 20
402.01
 11
-4.17871
 21
402.31
  0
LINE
  8
0
 10
-4.17871
 20
402.31
 11
-3.36464
 21
402.557
  0
LINE
  8
0
 10
-3.36464
 20
402.557
 11
-2.53616
 21
402.75
  0
LINE
  8
0
 10
-2.53616
 20
402.75
 11
-1.69684
 21
402.889
  0
LINE
  8
0
 10
-1.69684
 20
402.889
 11
-0.850235
 21
402.972
  0
LINE
  8
0
 10
-0.850235
 20
402.972
 11
0
 21
403
  0
LINE
  8
0
 10
0
 20
403
 11
0.850235
 21
402.972
  0
LINE
  8
0
 10
0.850235
 20
402.972
 11
1.69684
 21
402.889
  0
LINE
  8
0
 10
1.69684
 20
402.889
 11
2.53616
 21
402.75
  0
LINE
  8
0
 10
2.53616
 20
402.75
 11
3.36464
 21
402.557
  0
LINE
  8
0
 10
3.36464
 20
402.557
 11
4.17871
 21
402.31
  0
LINE
  8
0
 10
4.17871
 20
402.31
 11
4.97488
 21
402.01
  0
LINE
  8
0
 10
4.97488
 20
402.01
 11
5.74974
 21
401.659
  0
LINE
  8
0
 10
5.74974
 20
401.659
 11
6.5
 21
401.258
  0
LINE
  8
0
 10
6.5
 20
401.258
 11
7.22241
 21
400.809
  0
LINE
  8
0
 10
7.22241
 20
400.809
 11
7.91389
 21
400.314
  0
LINE
  8
0
 10
7.91389
 20
400.314
 11
8.57149
 21
399.774
  0
LINE
  8
0
 10
8.57149
 20
399.774
 11
9.19238
 21
399.192
  0
LINE
  8
0
 10
9.19238
 20
399.192
 11
9.77391
 21
398.571
  0
LINE
  8
0
 10
9.77391
 20
398.571
 11
10.3136
 21
397.914
  0
LINE
  8
0
 10
10.3136
 20
397.914
 11
10.8091
 21
397.222
  0
LINE
  8
0
 10
10.8091
 20
397.222
 11
11.2583
 21
396.5
  0
LINE
  8
0
 10
11.2583
 20
396.5
 11
11.6593
 21
395.75
  0
LINE
  8
0
 10
11.6593
 20
395.75
 11
12.0104
 21
394.975
  0
LINE
  8
0
 10
12.0104
 20
394.975
 11
12.3101
 21
394.179
  0
LINE
  8
0
 10
12.3101
 20
394.179
 11
12.557
 21
393.365
  0
LINE
  8
0
 10
12.557
 20
393.365
 11
12.7502
 21
392.536
  0
LINE
  8
0
 10
12.7502
 20
392.536
 11
12.8888
 21
391.697
  0
LINE
  8
0
 10
12.8888
 20
391.697
 11
12.9722
 21
390.85
  0
LINE
  8
0
 10
12.9722
 20
390.85
 11
13
 21
390
  0
LINE
  8
0
 10
13
 20
390
 11
12.9722
 21
389.15
  0
LINE
  8
0
 10
12.9722
 20
389.15
 11
12.8888
 21
388.303
  0
LINE
  8
0
 10
12.8888
 20
388.303
 11
12.7502
 21
387.464
  0
LINE
  8
0
 10
12.7502
 20
387.464
 11
12.557
 21
386.635
  0
LINE
  8
0
 10
12.557
 20
386.635
 11
12.3101
 21
385.821
  0
LINE
  8
0
 10
12.3101
 20
385.821
 11
12.0104
 21
385.025
  0
LINE
  8
0
 10
12.0104
 20
385.025
 11
11.6593
 21
384.25
  0
LINE
  8
0
 10
11.6593
 20
384.25
 11
11.2583
 21
383.5
  0
LINE
  8
0
 10
11.2583
 20
383.5
 11
10.8091
 21
382.778
  0
LINE
  8
0
 10
10.8091
 20
382.778
 11
10.3136
 21
382.086
  0
LINE
  8
0
 10
10.3136
 20
382.086
 11
9.77391
 21
381.428
  0
LINE
  8
0
 10
9.77391
 20
381.428
 11
9.19238
 21
380.808
  0
LINE
  8
0
 10
9.19238
 20
380.808
 11
8.57149
 21
380.226
  0
LINE
  8
0
 10
8.57149
 20
380.226
 11
7.91389
 21
379.686
  0
LINE
  8
0
 10
7.91389
 20
379.686
 11
7.22241
 21
379.191
  0
LINE
  8
0
 10
7.22241
 20
379.191
 11
6.5
 21
378.742
  0
LINE
  8
0
 10
6.5
 20
378.742
 11
5.74974
 21
378.341
  0
LINE
  8
0
 10
5.74974
 20
378.341
 11
4.97488
 21
377.99
  0
LINE
  8
0
 10
4.97488
 20
377.99
 11
4.17871
 21
377.69
  0
LINE
  8
0
 10
4.17871
 20
377.69
 11
3.36464
 21
377.443
  0
LINE
  8
0
 10
3.36464
 20
377.443
 11
2.53616
 21
377.25
  0
LINE
  8
0
 10
2.53616
 20
377.25
 11
1.69684
 21
377.111
  0
LINE
  8
0
 10
1.69684
 20
377.111
 11
0.850235
 21
377.028
  0
LINE
  8
0
 10
0.850235
 20
377.028
 11
0
 21
377
  0
LINE
  8
0
 10
0
 20
377
 11
-0.850235
 21
377.028
  0
LINE
  8
0
 10
-25.1472
 20
365.755
 11
-25.2937
 21
365.769
  0
LINE
  8
0
 10
-25.2937
 20
365.769
 11
-25.4389
 21
365.793
  0
LINE
  8
0
 10
-25.4389
 20
365.793
 11
-25.5823
 21
365.827
  0
LINE
  8
0
 10
-25.5823
 20
365.827
 11
-25.7232
 21
365.869
  0
LINE
  8
0
 10
-25.7232
 20
365.869
 11
-25.861
 21
365.921
  0
LINE
  8
0
 10
-25.861
 20
365.921
 11
-25.9951
 21
365.982
  0
LINE
  8
0
 10
-25.9951
 20
365.982
 11
-26.125
 21
366.051
  0
LINE
  8
0
 10
-26.125
 20
366.051
 11
-26.25
 21
366.129
  0
LINE
  8
0
 10
-26.25
 20
366.129
 11
-26.3697
 21
366.215
  0
LINE
  8
0
 10
-26.3697
 20
366.215
 11
-26.4835
 21
366.308
  0
LINE
  8
0
 10
-26.4835
 20
366.308
 11
-26.591
 21
366.409
  0
LINE
  8
0
 10
-26.591
 20
366.409
 11
-26.6916
 21
366.516
  0
LINE
  8
0
 10
-26.6916
 20
366.516
 11
-26.785
 21
366.63
  0
LINE
  8
0
 10
-26.785
 20
366.63
 11
-26.8708
 21
366.75
  0
LINE
  8
0
 10
-26.8708
 20
366.75
 11
-26.9485
 21
366.875
  0
LINE
  8
0
 10
-26.9485
 20
366.875
 11
-27.018
 21
367.005
  0
LINE
  8
0
 10
-27.018
 20
367.005
 11
-27.0787
 21
367.139
  0
LINE
  8
0
 10
-27.0787
 20
367.139
 11
-27.1306
 21
367.277
  0
LINE
  8
0
 10
-27.1306
 20
367.277
 11
-27.1733
 21
367.418
  0
LINE
  8
0
 10
-27.1733
 20
367.418
 11
-27.2068
 21
367.561
  0
LINE
  8
0
 10
-27.2068
 20
367.561
 11
-27.2307
 21
367.706
  0
LINE
  8
0
 10
-27.2307
 20
367.706
 11
-27.2452
 21
367.853
  0
LINE
  8
0
 10
-27.2452
 20
367.853
 11
-27.25
 21
368
  0
LINE
  8
0
 10
-27.25
 20
368
 11
-27.2452
 21
368.147
  0
LINE
  8
0
 10
-27.2452
 20
368.147
 11
-27.2307
 21
368.294
  0
LINE
  8
0
 10
-27.2307
 20
368.294
 11
-27.2068
 21
368.439
  0
LINE
  8
0
 10
-27.2068
 20
368.439
 11
-27.1733
 21
368.582
  0
LINE
  8
0
 10
-27.1733
 20
368.582
 11
-27.1306
 21
368.723
  0
LINE
  8
0
 10
-27.1306
 20
368.723
 11
-27.0787
 21
368.861
  0
LINE
  8
0
 10
-27.0787
 20
368.861
 11
-27.018
 21
368.995
  0
LINE
  8
0
 10
-27.018
 20
368.995
 11
-26.9485
 21
369.125
  0
LINE
  8
0
 10
-26.9485
 20
369.125
 11
-26.8708
 21
369.25
  0
LINE
  8
0
 10
-26.8708
 20
369.25
 11
-26.785
 21
369.37
  0
LINE
  8
0
 10
-26.785
 20
369.37
 11
-26.6916
 21
369.484
  0
LINE
  8
0
 10
-26.6916
 20
369.484
 11
-26.591
 21
369.591
  0
LINE
  8
0
 10
-26.591
 20
369.591
 11
-26.4835
 21
369.692
  0
LINE
  8
0
 10
-26.4835
 20
369.692
 11
-26.3697
 21
369.785
  0
LINE
  8
0
 10
-26.3697
 20
369.785
 11
-26.25
 21
369.871
  0
LINE
  8
0
 10
-26.25
 20
369.871
 11
-26.125
 21
369.949
  0
LINE
  8
0
 10
-26.125
 20
369.949
 11
-25.9951
 21
370.018
  0
LINE
  8
0
 10
-25.9951
 20
370.018
 11
-25.861
 21
370.079
  0
LINE
  8
0
 10
-25.861
 20
370.079
 11
-25.7232
 21
370.131
  0
LINE
  8
0
 10
-25.7232
 20
370.131
 11
-25.5823
 21
370.173
  0
LINE
  8
0
 10
-25.5823
 20
370.173
 11
-25.4389
 21
370.207
  0
LINE
  8
0
 10
-25.4389
 20
370.207
 11
-25.2937
 21
370.231
  0
LINE
  8
0
 10
-25.2937
 20
370.231
 11
-25.1472
 21
370.245
  0
LINE
  8
0
 10
-25.1472
 20
370.245
 11
-25
 21
370.25
  0
LINE
  8
0
 10
-25
 20
370.25
 11
-24.8528
 21
370.245
  0
LINE
  8
0
 10
-24.8528
 20
370.245
 11
-24.7063
 21
370.231
  0
LINE
  8
0
 10
-24.7063
 20
370.231
 11
-24.561
 21
370.207
  0
LINE
  8
0
 10
-24.561
 20
370.207
 11
-24.4176
 21
370.173
  0
LINE
  8
0
 10
-24.4176
 20
370.173
 11
-24.2767
 21
370.131
  0
LINE
  8
0
 10
-24.2767
 20
370.131
 11
-24.139
 21
370.079
  0
LINE
  8
0
 10
-24.139
 20
370.079
 11
-24.0048
 21
370.018
  0
LINE
  8
0
 10
-24.0048
 20
370.018
 11
-23.875
 21
369.949
  0
LINE
  8
0
 10
-23.875
 20
369.949
 11
-23.75
 21
369.871
  0
LINE
  8
0
 10
-23.75
 20
369.871
 11
-23.6303
 21
369.785
  0
LINE
  8
0
 10
-23.6303
 20
369.785
 11
-23.5165
 21
369.692
  0
LINE
  8
0
 10
-23.5165
 20
369.692
 11
-23.409
 21
369.591
  0
LINE
  8
0
 10
-23.409
 20
369.591
 11
-23.3083
 21
369.484
  0
LINE
  8
0
 10
-23.3083
 20
369.484
 11
-23.215
 21
369.37
  0
LINE
  8
0
 10
-23.215
 20
369.37
 11
-23.1292
 21
369.25
  0
LINE
  8
0
 10
-23.1292
 20
369.25
 11
-23.0514
 21
369.125
  0
LINE
  8
0
 10
-23.0514
 20
369.125
 11
-22.982
 21
368.995
  0
LINE
  8
0
 10
-22.982
 20
368.995
 11
-22.9213
 21
368.861
  0
LINE
  8
0
 10
-22.9213
 20
368.861
 11
-22.8694
 21
368.723
  0
LINE
  8
0
 10
-22.8694
 20
368.723
 11
-22.8267
 21
368.582
  0
LINE
  8
0
 10
-22.8267
 20
368.582
 11
-22.7932
 21
368.439
  0
LINE
  8
0
 10
-22.7932
 20
368.439
 11
-22.7692
 21
368.294
  0
LINE
  8
0
 10
-22.7692
 20
368.294
 11
-22.7548
 21
368.147
  0
LINE
  8
0
 10
-22.7548
 20
368.147
 11
-22.75
 21
368
  0
LINE
  8
0
 10
-22.75
 20
368
 11
-22.7548
 21
367.853
  0
LINE
  8
0
 10
-22.7548
 20
367.853
 11
-22.7692
 21
367.706
  0
LINE
  8
0
 10
-22.7692
 20
367.706
 11
-22.7932
 21
367.561
  0
LINE
  8
0
 10
-22.7932
 20
367.561
 11
-22.8267
 21
367.418
  0
LINE
  8
0
 10
-22.8267
 20
367.418
 11
-22.8694
 21
367.277
  0
LINE
  8
0
 10
-22.8694
 20
367.277
 11
-22.9213
 21
367.139
  0
LINE
  8
0
 10
-22.9213
 20
367.139
 11
-22.982
 21
367.005
  0
LINE
  8
0
 10
-22.982
 20
367.005
 11
-23.0514
 21
366.875
  0
LINE
  8
0
 10
-23.0514
 20
366.875
 11
-23.1292
 21
366.75
  0
LINE
  8
0
 10
-23.1292
 20
366.75
 11
-23.215
 21
366.63
  0
LINE
  8
0
 10
-23.215
 20
366.63
 11
-23.3083
 21
366.516
  0
LINE
  8
0
 10
-23.3083
 20
366.516
 11
-23.409
 21
366.409
  0
LINE
  8
0
 10
-23.409
 20
366.409
 11
-23.5165
 21
366.308
  0
LINE
  8
0
 10
-23.5165
 20
366.308
 11
-23.6303
 21
366.215
  0
LINE
  8
0
 10
-23.6303
 20
366.215
 11
-23.75
 21
366.129
  0
LINE
  8
0
 10
-23.75
 20
366.129
 11
-23.875
 21
366.051
  0
LINE
  8
0
 10
-23.875
 20
366.051
 11
-24.0048
 21
365.982
  0
LINE
  8
0
 10
-24.0048
 20
365.982
 11
-24.139
 21
365.921
  0
LINE
  8
0
 10
-24.139
 20
365.921
 11
-24.2767
 21
365.869
  0
LINE
  8
0
 10
-24.2767
 20
365.869
 11
-24.4176
 21
365.827
  0
LINE
  8
0
 10
-24.4176
 20
365.827
 11
-24.561
 21
365.793
  0
LINE
  8
0
 10
-24.561
 20
365.793
 11
-24.7063
 21
365.769
  0
LINE
  8
0
 10
-24.7063
 20
365.769
 11
-24.8528
 21
365.755
  0
LINE
  8
0
 10
-24.8528
 20
365.755
 11
-25
 21
365.75
  0
LINE
  8
0
 10
-25
 20
365.75
 11
-25.1472
 21
365.755
  0
LINE
  8
0
 10
24.8528
 20
365.755
 11
24.7063
 21
365.769
  0
LINE
  8
0
 10
24.7063
 20
365.769
 11
24.561
 21
365.793
  0
LINE
  8
0
 10
24.561
 20
365.793
 11
24.4176
 21
365.827
  0
LINE
  8
0
 10
24.4176
 20
365.827
 11
24.2767
 21
365.869
  0
LINE
  8
0
 10
24.2767
 20
365.869
 11
24.139
 21
365.921
  0
LINE
  8
0
 10
24.139
 20
365.921
 11
24.0048
 21
365.982
  0
LINE
  8
0
 10
24.0048
 20
365.982
 11
23.875
 21
366.051
  0
LINE
  8
0
 10
23.875
 20
366.051
 11
23.75
 21
366.129
  0
LINE
  8
0
 10
23.75
 20
366.129
 11
23.6303
 21
366.215
  0
LINE
  8
0
 10
23.6303
 20
366.215
 11
23.5165
 21
366.308
  0
LINE
  8
0
 10
23.5165
 20
366.308
 11
23.409
 21
366.409
  0
LINE
  8
0
 10
23.409
 20
366.409
 11
23.3083
 21
366.516
  0
LINE
  8
0
 10
23.3083
 20
366.516
 11
23.215
 21
366.63
  0
LINE
  8
0
 10
23.215
 20
366.63
 11
23.1292
 21
366.75
  0
LINE
  8
0
 10
23.1292
 20
366.75
 11
23.0514
 21
366.875
  0
LINE
  8
0
 10
23.0514
 20
366.875
 11
22.982
 21
367.005
  0
LINE
  8
0
 10
22.982
 20
367.005
 11
22.9213
 21
367.139
  0
LINE
  8
0
 10
22.9213
 20
367.139
 11
22.8694
 21
367.277
  0
LINE
  8
0
 10
22.8694
 20
367.277
 11
22.8267
 21
367.418
  0
LINE
  8
0
 10
22.8267
 20
367.418
 11
22.7932
 21
367.561
  0
LINE
  8
0
 10
22.7932
 20
367.561
 11
22.7692
 21
367.706
  0
LINE
  8
0
 10
22.7692
 20
367.706
 11
22.7548
 21
367.853
  0
LINE
  8
0
 10
22.7548
 20
367.853
 11
22.75
 21
368
  0
LINE
  8
0
 10
22.75
 20
368
 11
22.7548
 21
368.147
  0
LINE
  8
0
 10
22.7548
 20
368.147
 11
22.7692
 21
368.294
  0
LINE
  8
0
 10
22.7692
 20
368.294
 11
22.7932
 21
368.439
  0
LINE
  8
0
 10
22.7932
 20
368.439
 11
22.8267
 21
368.582
  0
LINE
  8
0
 10
22.8267
 20
368.582
 11
22.8694
 21
368.723
  0
LINE
  8
0
 10
22.8694
 20
368.723
 11
22.9213
 21
368.861
  0
LINE
  8
0
 10
22.9213
 20
368.861
 11
22.982
 21
368.995
  0
LINE
  8
0
 10
22.982
 20
368.995
 11
23.0514
 21
369.125
  0
LINE
  8
0
 10
23.0514
 20
369.125
 11
23.1292
 21
369.25
  0
LINE
  8
0
 10
23.1292
 20
369.25
 11
23.215
 21
369.37
  0
LINE
  8
0
 10
23.215
 20
369.37
 11
23.3083
 21
369.484
  0
LINE
  8
0
 10
23.3083
 20
369.484
 11
23.409
 21
369.591
  0
LINE
  8
0
 10
23.409
 20
369.591
 11
23.5165
 21
369.692
  0
LINE
  8
0
 10
23.5165
 20
369.692
 11
23.6303
 21
369.785
  0
LINE
  8
0
 10
23.6303
 20
369.785
 11
23.75
 21
369.871
  0
LINE
  8
0
 10
23.75
 20
369.871
 11
23.875
 21
369.949
  0
LINE
  8
0
 10
23.875
 20
369.949
 11
24.0048
 21
370.018
  0
LINE
  8
0
 10
24.0048
 20
370.018
 11
24.139
 21
370.079
  0
LINE
  8
0
 10
24.139
 20
370.079
 11
24.2767
 21
370.131
  0
LINE
  8
0
 10
24.2767
 20
370.131
 11
24.4176
 21
370.173
  0
LINE
  8
0
 10
24.4176
 20
370.173
 11
24.561
 21
370.207
  0
LINE
  8
0
 10
24.561
 20
370.207
 11
24.7063
 21
370.231
  0
LINE
  8
0
 10
24.7063
 20
370.231
 11
24.8528
 21
370.245
  0
LINE
  8
0
 10
24.8528
 20
370.245
 11
25
 21
370.25
  0
LINE
  8
0
 10
25
 20
370.25
 11
25.1472
 21
370.245
  0
LINE
  8
0
 10
25.1472
 20
370.245
 11
25.2937
 21
370.231
  0
LINE
  8
0
 10
25.2937
 20
370.231
 11
25.4389
 21
370.207
  0
LINE
  8
0
 10
25.4389
 20
370.207
 11
25.5823
 21
370.173
  0
LINE
  8
0
 10
25.5823
 20
370.173
 11
25.7232
 21
370.131
  0
LINE
  8
0
 10
25.7232
 20
370.131
 11
25.861
 21
370.079
  0
LINE
  8
0
 10
25.861
 20
370.079
 11
25.9951
 21
370.018
  0
LINE
  8
0
 10
25.9951
 20
370.018
 11
26.125
 21
369.949
  0
LINE
  8
0
 10
26.125
 20
369.949
 11
26.25
 21
369.871
  0
LINE
  8
0
 10
26.25
 20
369.871
 11
26.3697
 21
369.785
  0
LINE
  8
0
 10
26.3697
 20
369.785
 11
26.4835
 21
369.692
  0
LINE
  8
0
 10
26.4835
 20
369.692
 11
26.591
 21
369.591
  0
LINE
  8
0
 10
26.591
 20
369.591
 11
26.6916
 21
369.484
  0
LINE
  8
0
 10
26.6916
 20
369.484
 11
26.785
 21
369.37
  0
LINE
  8
0
 10
26.785
 20
369.37
 11
26.8708
 21
369.25
  0
LINE
  8
0
 10
26.8708
 20
369.25
 11
26.9485
 21
369.125
  0
LINE
  8
0
 10
26.9485
 20
369.125
 11
27.018
 21
368.995
  0
LINE
  8
0
 10
27.018
 20
368.995
 11
27.0787
 21
368.861
  0
LINE
  8
0
 10
27.0787
 20
368.861
 11
27.1306
 21
368.723
  0
LINE
  8
0
 10
27.1306
 20
368.723
 11
27.1733
 21
368.582
  0
LINE
  8
0
 10
27.1733
 20
368.582
 11
27.2068
 21
368.439
  0
LINE
  8
0
 10
27.2068
 20
368.439
 11
27.2307
 21
368.294
  0
LINE
  8
0
 10
27.2307
 20
368.294
 11
27.2452
 21
368.147
  0
LINE
  8
0
 10
27.2452
 20
368.147
 11
27.25
 21
368
  0
LINE
  8
0
 10
27.25
 20
368
 11
27.2452
 21
367.853
  0
LINE
  8
0
 10
27.2452
 20
367.853
 11
27.2307
 21
367.706
  0
LINE
  8
0
 10
27.2307
 20
367.706
 11
27.2068
 21
367.561
  0
LINE
  8
0
 10
27.2068
 20
367.561
 11
27.1733
 21
367.418
  0
LINE
  8
0
 10
27.1733
 20
367.418
 11
27.1306
 21
367.277
  0
LINE
  8
0
 10
27.1306
 20
367.277
 11
27.0787
 21
367.139
  0
LINE
  8
0
 10
27.0787
 20
367.139
 11
27.018
 21
367.005
  0
LINE
  8
0
 10
27.018
 20
367.005
 11
26.9485
 21
366.875
  0
LINE
  8
0
 10
26.9485
 20
366.875
 11
26.8708
 21
366.75
  0
LINE
  8
0
 10
26.8708
 20
366.75
 11
26.785
 21
366.63
  0
LINE
  8
0
 10
26.785
 20
366.63
 11
26.6916
 21
366.516
  0
LINE
  8
0
 10
26.6916
 20
366.516
 11
26.591
 21
366.409
  0
LINE
  8
0
 10
26.591
 20
366.409
 11
26.4835
 21
366.308
  0
LINE
  8
0
 10
26.4835
 20
366.308
 11
26.3697
 21
366.215
  0
LINE
  8
0
 10
26.3697
 20
366.215
 11
26.25
 21
366.129
  0
LINE
  8
0
 10
26.25
 20
366.129
 11
26.125
 21
366.051
  0
LINE
  8
0
 10
26.125
 20
366.051
 11
25.9951
 21
365.982
  0
LINE
  8
0
 10
25.9951
 20
365.982
 11
25.861
 21
365.921
  0
LINE
  8
0
 10
25.861
 20
365.921
 11
25.7232
 21
365.869
  0
LINE
  8
0
 10
25.7232
 20
365.869
 11
25.5823
 21
365.827
  0
LINE
  8
0
 10
25.5823
 20
365.827
 11
25.4389
 21
365.793
  0
LINE
  8
0
 10
25.4389
 20
365.793
 11
25.2937
 21
365.769
  0
LINE
  8
0
 10
25.2937
 20
365.769
 11
25.1472
 21
365.755
  0
LINE
  8
0
 10
25.1472
 20
365.755
 11
25
 21
365.75
  0
LINE
  8
0
 10
25
 20
365.75
 11
24.8528
 21
365.755
  0
LINE
  8
0
 10
69.8528
 20
362.755
 11
69.7063
 21
362.769
  0
LINE
  8
0
 10
69.7063
 20
362.769
 11
69.561
 21
362.793
  0
LINE
  8
0
 10
69.561
 20
362.793
 11
69.4176
 21
362.827
  0
LINE
  8
0
 10
69.4176
 20
362.827
 11
69.2767
 21
362.869
  0
LINE
  8
0
 10
69.2767
 20
362.869
 11
69.139
 21
362.921
  0
LINE
  8
0
 10
69.139
 20
362.921
 11
69.0048
 21
362.982
  0
LINE
  8
0
 10
69.0048
 20
362.982
 11
68.875
 21
363.051
  0
LINE
  8
0
 10
68.875
 20
363.051
 11
68.75
 21
363.129
  0
LINE
  8
0
 10
68.75
 20
363.129
 11
68.6303
 21
363.215
  0
LINE
  8
0
 10
68.6303
 20
363.215
 11
68.5165
 21
363.308
  0
LINE
  8
0
 10
68.5165
 20
363.308
 11
68.409
 21
363.409
  0
LINE
  8
0
 10
68.409
 20
363.409
 11
68.3083
 21
363.516
  0
LINE
  8
0
 10
68.3083
 20
363.516
 11
68.215
 21
363.63
  0
LINE
  8
0
 10
68.215
 20
363.63
 11
68.1292
 21
363.75
  0
LINE
  8
0
 10
68.1292
 20
363.75
 11
68.0514
 21
363.875
  0
LINE
  8
0
 10
68.0514
 20
363.875
 11
67.982
 21
364.005
  0
LINE
  8
0
 10
67.982
 20
364.005
 11
67.9213
 21
364.139
  0
LINE
  8
0
 10
67.9213
 20
364.139
 11
67.8694
 21
364.277
  0
LINE
  8
0
 10
67.8694
 20
364.277
 11
67.8267
 21
364.418
  0
LINE
  8
0
 10
67.8267
 20
364.418
 11
67.7932
 21
364.561
  0
LINE
  8
0
 10
67.7932
 20
364.561
 11
67.7692
 21
364.706
  0
LINE
  8
0
 10
67.7692
 20
364.706
 11
67.7548
 21
364.853
  0
LINE
  8
0
 10
67.7548
 20
364.853
 11
67.75
 21
365
  0
LINE
  8
0
 10
67.75
 20
365
 11
67.7548
 21
365.147
  0
LINE
  8
0
 10
67.7548
 20
365.147
 11
67.7692
 21
365.294
  0
LINE
  8
0
 10
67.7692
 20
365.294
 11
67.7932
 21
365.439
  0
LINE
  8
0
 10
67.7932
 20
365.439
 11
67.8267
 21
365.582
  0
LINE
  8
0
 10
67.8267
 20
365.582
 11
67.8694
 21
365.723
  0
LINE
  8
0
 10
67.8694
 20
365.723
 11
67.9213
 21
365.861
  0
LINE
  8
0
 10
67.9213
 20
365.861
 11
67.982
 21
365.995
  0
LINE
  8
0
 10
67.982
 20
365.995
 11
68.0514
 21
366.125
  0
LINE
  8
0
 10
68.0514
 20
366.125
 11
68.1292
 21
366.25
  0
LINE
  8
0
 10
68.1292
 20
366.25
 11
68.215
 21
366.37
  0
LINE
  8
0
 10
68.215
 20
366.37
 11
68.3083
 21
366.484
  0
LINE
  8
0
 10
68.3083
 20
366.484
 11
68.409
 21
366.591
  0
LINE
  8
0
 10
68.409
 20
366.591
 11
68.5165
 21
366.692
  0
LINE
  8
0
 10
68.5165
 20
366.692
 11
68.6303
 21
366.785
  0
LINE
  8
0
 10
68.6303
 20
366.785
 11
68.75
 21
366.871
  0
LINE
  8
0
 10
68.75
 20
366.871
 11
68.875
 21
366.949
  0
LINE
  8
0
 10
68.875
 20
366.949
 11
69.0048
 21
367.018
  0
LINE
  8
0
 10
69.0048
 20
367.018
 11
69.139
 21
367.079
  0
LINE
  8
0
 10
69.139
 20
367.079
 11
69.2767
 21
367.131
  0
LINE
  8
0
 10
69.2767
 20
367.131
 11
69.4176
 21
367.173
  0
LINE
  8
0
 10
69.4176
 20
367.173
 11
69.561
 21
367.207
  0
LINE
  8
0
 10
69.561
 20
367.207
 11
69.7063
 21
367.231
  0
LINE
  8
0
 10
69.7063
 20
367.231
 11
69.8528
 21
367.245
  0
LINE
  8
0
 10
69.8528
 20
367.245
 11
70
 21
367.25
  0
LINE
  8
0
 10
70
 20
367.25
 11
70.1472
 21
367.245
  0
LINE
  8
0
 10
70.1472
 20
367.245
 11
70.2937
 21
367.231
  0
LINE
  8
0
 10
70.2937
 20
367.231
 11
70.4389
 21
367.207
  0
LINE
  8
0
 10
70.4389
 20
367.207
 11
70.5823
 21
367.173
  0
LINE
  8
0
 10
70.5823
 20
367.173
 11
70.7232
 21
367.131
  0
LINE
  8
0
 10
70.7232
 20
367.131
 11
70.861
 21
367.079
  0
LINE
  8
0
 10
70.861
 20
367.079
 11
70.9951
 21
367.018
  0
LINE
  8
0
 10
70.9951
 20
367.018
 11
71.125
 21
366.949
  0
LINE
  8
0
 10
71.125
 20
366.949
 11
71.25
 21
366.871
  0
LINE
  8
0
 10
71.25
 20
366.871
 11
71.3697
 21
366.785
  0
LINE
  8
0
 10
71.3697
 20
366.785
 11
71.4835
 21
366.692
  0
LINE
  8
0
 10
71.4835
 20
366.692
 11
71.591
 21
366.591
  0
LINE
  8
0
 10
71.591
 20
366.591
 11
71.6916
 21
366.484
  0
LINE
  8
0
 10
71.6916
 20
366.484
 11
71.785
 21
366.37
  0
LINE
  8
0
 10
71.785
 20
366.37
 11
71.8708
 21
366.25
  0
LINE
  8
0
 10
71.8708
 20
366.25
 11
71.9485
 21
366.125
  0
LINE
  8
0
 10
71.9485
 20
366.125
 11
72.018
 21
365.995
  0
LINE
  8
0
 10
72.018
 20
365.995
 11
72.0787
 21
365.861
  0
LINE
  8
0
 10
72.0787
 20
365.861
 11
72.1306
 21
365.723
  0
LINE
  8
0
 10
72.1306
 20
365.723
 11
72.1733
 21
365.582
  0
LINE
  8
0
 10
72.1733
 20
365.582
 11
72.2068
 21
365.439
  0
LINE
  8
0
 10
72.2068
 20
365.439
 11
72.2307
 21
365.294
  0
LINE
  8
0
 10
72.2307
 20
365.294
 11
72.2452
 21
365.147
  0
LINE
  8
0
 10
72.2452
 20
365.147
 11
72.25
 21
365
  0
LINE
  8
0
 10
72.25
 20
365
 11
72.2452
 21
364.853
  0
LINE
  8
0
 10
72.2452
 20
364.853
 11
72.2307
 21
364.706
  0
LINE
  8
0
 10
72.2307
 20
364.706
 11
72.2068
 21
364.561
  0
LINE
  8
0
 10
72.2068
 20
364.561
 11
72.1733
 21
364.418
  0
LINE
  8
0
 10
72.1733
 20
364.418
 11
72.1306
 21
364.277
  0
LINE
  8
0
 10
72.1306
 20
364.277
 11
72.0787
 21
364.139
  0
LINE
  8
0
 10
72.0787
 20
364.139
 11
72.018
 21
364.005
  0
LINE
  8
0
 10
72.018
 20
364.005
 11
71.9485
 21
363.875
  0
LINE
  8
0
 10
71.9485
 20
363.875
 11
71.8708
 21
363.75
  0
LINE
  8
0
 10
71.8708
 20
363.75
 11
71.785
 21
363.63
  0
LINE
  8
0
 10
71.785
 20
363.63
 11
71.6916
 21
363.516
  0
LINE
  8
0
 10
71.6916
 20
363.516
 11
71.591
 21
363.409
  0
LINE
  8
0
 10
71.591
 20
363.409
 11
71.4835
 21
363.308
  0
LINE
  8
0
 10
71.4835
 20
363.308
 11
71.3697
 21
363.215
  0
LINE
  8
0
 10
71.3697
 20
363.215
 11
71.25
 21
363.129
  0
LINE
  8
0
 10
71.25
 20
363.129
 11
71.125
 21
363.051
  0
LINE
  8
0
 10
71.125
 20
363.051
 11
70.9951
 21
362.982
  0
LINE
  8
0
 10
70.9951
 20
362.982
 11
70.861
 21
362.921
  0
LINE
  8
0
 10
70.861
 20
362.921
 11
70.7232
 21
362.869
  0
LINE
  8
0
 10
70.7232
 20
362.869
 11
70.5823
 21
362.827
  0
LINE
  8
0
 10
70.5823
 20
362.827
 11
70.4389
 21
362.793
  0
LINE
  8
0
 10
70.4389
 20
362.793
 11
70.2937
 21
362.769
  0
LINE
  8
0
 10
70.2937
 20
362.769
 11
70.1472
 21
362.755
  0
LINE
  8
0
 10
70.1472
 20
362.755
 11
70
 21
362.75
  0
LINE
  8
0
 10
70
 20
362.75
 11
69.8528
 21
362.755
  0
LINE
  8
0
 10
-70.1472
 20
362.755
 11
-70.2937
 21
362.769
  0
LINE
  8
0
 10
-70.2937
 20
362.769
 11
-70.4389
 21
362.793
  0
LINE
  8
0
 10
-70.4389
 20
362.793
 11
-70.5823
 21
362.827
  0
LINE
  8
0
 10
-70.5823
 20
362.827
 11
-70.7232
 21
362.869
  0
LINE
  8
0
 10
-70.7232
 20
362.869
 11
-70.861
 21
362.921
  0
LINE
  8
0
 10
-70.861
 20
362.921
 11
-70.9951
 21
362.982
  0
LINE
  8
0
 10
-70.9951
 20
362.982
 11
-71.125
 21
363.051
  0
LINE
  8
0
 10
-71.125
 20
363.051
 11
-71.25
 21
363.129
  0
LINE
  8
0
 10
-71.25
 20
363.129
 11
-71.3697
 21
363.215
  0
LINE
  8
0
 10
-71.3697
 20
363.215
 11
-71.4835
 21
363.308
  0
LINE
  8
0
 10
-71.4835
 20
363.308
 11
-71.591
 21
363.409
  0
LINE
  8
0
 10
-71.591
 20
363.409
 11
-71.6916
 21
363.516
  0
LINE
  8
0
 10
-71.6916
 20
363.516
 11
-71.785
 21
363.63
  0
LINE
  8
0
 10
-71.785
 20
363.63
 11
-71.8708
 21
363.75
  0
LINE
  8
0
 10
-71.8708
 20
363.75
 11
-71.9485
 21
363.875
  0
LINE
  8
0
 10
-71.9485
 20
363.875
 11
-72.018
 21
364.005
  0
LINE
  8
0
 10
-72.018
 20
364.005
 11
-72.0787
 21
364.139
  0
LINE
  8
0
 10
-72.0787
 20
364.139
 11
-72.1306
 21
364.277
  0
LINE
  8
0
 10
-72.1306
 20
364.277
 11
-72.1733
 21
364.418
  0
LINE
  8
0
 10
-72.1733
 20
364.418
 11
-72.2068
 21
364.561
  0
LINE
  8
0
 10
-72.2068
 20
364.561
 11
-72.2307
 21
364.706
  0
LINE
  8
0
 10
-72.2307
 20
364.706
 11
-72.2452
 21
364.853
  0
LINE
  8
0
 10
-72.2452
 20
364.853
 11
-72.25
 21
365
  0
LINE
  8
0
 10
-72.25
 20
365
 11
-72.2452
 21
365.147
  0
LINE
  8
0
 10
-72.2452
 20
365.147
 11
-72.2307
 21
365.294
  0
LINE
  8
0
 10
-72.2307
 20
365.294
 11
-72.2068
 21
365.439
  0
LINE
  8
0
 10
-72.2068
 20
365.439
 11
-72.1733
 21
365.582
  0
LINE
  8
0
 10
-72.1733
 20
365.582
 11
-72.1306
 21
365.723
  0
LINE
  8
0
 10
-72.1306
 20
365.723
 11
-72.0787
 21
365.861
  0
LINE
  8
0
 10
-72.0787
 20
365.861
 11
-72.018
 21
365.995
  0
LINE
  8
0
 10
-72.018
 20
365.995
 11
-71.9485
 21
366.125
  0
LINE
  8
0
 10
-71.9485
 20
366.125
 11
-71.8708
 21
366.25
  0
LINE
  8
0
 10
-71.8708
 20
366.25
 11
-71.785
 21
366.37
  0
LINE
  8
0
 10
-71.785
 20
366.37
 11
-71.6916
 21
366.484
  0
LINE
  8
0
 10
-71.6916
 20
366.484
 11
-71.591
 21
366.591
  0
LINE
  8
0
 10
-71.591
 20
366.591
 11
-71.4835
 21
366.692
  0
LINE
  8
0
 10
-71.4835
 20
366.692
 11
-71.3697
 21
366.785
  0
LINE
  8
0
 10
-71.3697
 20
366.785
 11
-71.25
 21
366.871
  0
LINE
  8
0
 10
-71.25
 20
366.871
 11
-71.125
 21
366.949
  0
LINE
  8
0
 10
-71.125
 20
366.949
 11
-70.9951
 21
367.018
  0
LINE
  8
0
 10
-70.9951
 20
367.018
 11
-70.861
 21
367.079
  0
LINE
  8
0
 10
-70.861
 20
367.079
 11
-70.7232
 21
367.131
  0
LINE
  8
0
 10
-70.7232
 20
367.131
 11
-70.5823
 21
367.173
  0
LINE
  8
0
 10
-70.5823
 20
367.173
 11
-70.4389
 21
367.207
  0
LINE
  8
0
 10
-70.4389
 20
367.207
 11
-70.2937
 21
367.231
  0
LINE
  8
0
 10
-70.2937
 20
367.231
 11
-70.1472
 21
367.245
  0
LINE
  8
0
 10
-70.1472
 20
367.245
 11
-70
 21
367.25
  0
LINE
  8
0
 10
-70
 20
367.25
 11
-69.8528
 21
367.245
  0
LINE
  8
0
 10
-69.8528
 20
367.245
 11
-69.7063
 21
367.231
  0
LINE
  8
0
 10
-69.7063
 20
367.231
 11
-69.561
 21
367.207
  0
LINE
  8
0
 10
-69.561
 20
367.207
 11
-69.4176
 21
367.173
  0
LINE
  8
0
 10
-69.4176
 20
367.173
 11
-69.2767
 21
367.131
  0
LINE
  8
0
 10
-69.2767
 20
367.131
 11
-69.139
 21
367.079
  0
LINE
  8
0
 10
-69.139
 20
367.079
 11
-69.0048
 21
367.018
  0
LINE
  8
0
 10
-69.0048
 20
367.018
 11
-68.875
 21
366.949
  0
LINE
  8
0
 10
-68.875
 20
366.949
 11
-68.75
 21
366.871
  0
LINE
  8
0
 10
-68.75
 20
366.871
 11
-68.6303
 21
366.785
  0
LINE
  8
0
 10
-68.6303
 20
366.785
 11
-68.5165
 21
366.692
  0
LINE
  8
0
 10
-68.5165
 20
366.692
 11
-68.409
 21
366.591
  0
LINE
  8
0
 10
-68.409
 20
366.591
 11
-68.3083
 21
366.484
  0
LINE
  8
0
 10
-68.3083
 20
366.484
 11
-68.215
 21
366.37
  0
LINE
  8
0
 10
-68.215
 20
366.37
 11
-68.1292
 21
366.25
  0
LINE
  8
0
 10
-68.1292
 20
366.25
 11
-68.0514
 21
366.125
  0
LINE
  8
0
 10
-68.0514
 20
366.125
 11
-67.982
 21
365.995
  0
LINE
  8
0
 10
-67.982
 20
365.995
 11
-67.9213
 21
365.861
  0
LINE
  8
0
 10
-67.9213
 20
365.861
 11
-67.8694
 21
365.723
  0
LINE
  8
0
 10
-67.8694
 20
365.723
 11
-67.8267
 21
365.582
  0
LINE
  8
0
 10
-67.8267
 20
365.582
 11
-67.7932
 21
365.439
  0
LINE
  8
0
 10
-67.7932
 20
365.439
 11
-67.7692
 21
365.294
  0
LINE
  8
0
 10
-67.7692
 20
365.294
 11
-67.7548
 21
365.147
  0
LINE
  8
0
 10
-67.7548
 20
365.147
 11
-67.75
 21
365
  0
LINE
  8
0
 10
-67.75
 20
365
 11
-67.7548
 21
364.853
  0
LINE
  8
0
 10
-67.7548
 20
364.853
 11
-67.7692
 21
364.706
  0
LINE
  8
0
 10
-67.7692
 20
364.706
 11
-67.7932
 21
364.561
  0
LINE
  8
0
 10
-67.7932
 20
364.561
 11
-67.8267
 21
364.418
  0
LINE
  8
0
 10
-67.8267
 20
364.418
 11
-67.8694
 21
364.277
  0
LINE
  8
0
 10
-67.8694
 20
364.277
 11
-67.9213
 21
364.139
  0
LINE
  8
0
 10
-67.9213
 20
364.139
 11
-67.982
 21
364.005
  0
LINE
  8
0
 10
-67.982
 20
364.005
 11
-68.0514
 21
363.875
  0
LINE
  8
0
 10
-68.0514
 20
363.875
 11
-68.1292
 21
363.75
  0
LINE
  8
0
 10
-68.1292
 20
363.75
 11
-68.215
 21
363.63
  0
LINE
  8
0
 10
-68.215
 20
363.63
 11
-68.3083
 21
363.516
  0
LINE
  8
0
 10
-68.3083
 20
363.516
 11
-68.409
 21
363.409
  0
LINE
  8
0
 10
-68.409
 20
363.409
 11
-68.5165
 21
363.308
  0
LINE
  8
0
 10
-68.5165
 20
363.308
 11
-68.6303
 21
363.215
  0
LINE
  8
0
 10
-68.6303
 20
363.215
 11
-68.75
 21
363.129
  0
LINE
  8
0
 10
-68.75
 20
363.129
 11
-68.875
 21
363.051
  0
LINE
  8
0
 10
-68.875
 20
363.051
 11
-69.0048
 21
362.982
  0
LINE
  8
0
 10
-69.0048
 20
362.982
 11
-69.139
 21
362.921
  0
LINE
  8
0
 10
-69.139
 20
362.921
 11
-69.2767
 21
362.869
  0
LINE
  8
0
 10
-69.2767
 20
362.869
 11
-69.4176
 21
362.827
  0
LINE
  8
0
 10
-69.4176
 20
362.827
 11
-69.561
 21
362.793
  0
LINE
  8
0
 10
-69.561
 20
362.793
 11
-69.7063
 21
362.769
  0
LINE
  8
0
 10
-69.7063
 20
362.769
 11
-69.8528
 21
362.755
  0
LINE
  8
0
 10
-69.8528
 20
362.755
 11
-70
 21
362.75
  0
LINE
  8
0
 10
-70
 20
362.75
 11
-70.1472
 21
362.755
  0
LINE
  8
0
 10
-62
 20
190
 11
-62
 21
246.174
  0
LINE
  8
0
 10
-62
 20
246.174
 11
-61.434
 21
246.346
  0
LINE
  8
0
 10
-61.434
 20
246.346
 11
-60.6991
 21
246.623
  0
LINE
  8
0
 10
-60.6991
 20
246.623
 11
-59.9838
 21
246.947
  0
LINE
  8
0
 10
-59.9838
 20
246.947
 11
-59.2913
 21
247.317
  0
LINE
  8
0
 10
-59.2913
 20
247.317
 11
-58.6245
 21
247.732
  0
LINE
  8
0
 10
-58.6245
 20
247.732
 11
-57.9862
 21
248.189
  0
LINE
  8
0
 10
-57.9862
 20
248.189
 11
-57.3792
 21
248.687
  0
LINE
  8
0
 10
-57.3792
 20
248.687
 11
-56.806
 21
249.224
  0
LINE
  8
0
 10
-56.806
 20
249.224
 11
-56.2692
 21
249.797
  0
LINE
  8
0
 10
-56.2692
 20
249.797
 11
-55.7711
 21
250.404
  0
LINE
  8
0
 10
-55.7711
 20
250.404
 11
-55.3137
 21
251.042
  0
LINE
  8
0
 10
-55.3137
 20
251.042
 11
-54.899
 21
251.709
  0
LINE
  8
0
 10
-54.899
 20
251.709
 11
-54.5288
 21
252.402
  0
LINE
  8
0
 10
-54.5288
 20
252.402
 11
-54.2048
 21
253.117
  0
LINE
  8
0
 10
-54.2048
 20
253.117
 11
-53.9281
 21
253.852
  0
LINE
  8
0
 10
-53.9281
 20
253.852
 11
-53.7002
 21
254.603
  0
LINE
  8
0
 10
-53.7002
 20
254.603
 11
-53.5219
 21
255.368
  0
LINE
  8
0
 10
-53.5219
 20
255.368
 11
-53.394
 21
256.143
  0
LINE
  8
0
 10
-53.394
 20
256.143
 11
-53.317
 21
256.924
  0
LINE
  8
0
 10
-53.317
 20
256.924
 11
-53.2913
 21
257.709
  0
LINE
  8
0
 10
-53.2913
 20
257.709
 11
-53.317
 21
258.494
  0
LINE
  8
0
 10
-53.317
 20
258.494
 11
-53.394
 21
259.275
  0
LINE
  8
0
 10
-53.394
 20
259.275
 11
-53.5219
 21
260.05
  0
LINE
  8
0
 10
-53.5219
 20
260.05
 11
-53.7002
 21
260.815
  0
LINE
  8
0
 10
-53.7002
 20
260.815
 11
-53.9281
 21
261.566
  0
LINE
  8
0
 10
-53.9281
 20
261.566
 11
-54.2048
 21
262.301
  0
LINE
  8
0
 10
-54.2048
 20
262.301
 11
-54.5288
 21
263.017
  0
LINE
  8
0
 10
-54.5288
 20
263.017
 11
-54.899
 21
263.709
  0
LINE
  8
0
 10
-54.899
 20
263.709
 11
-55.3137
 21
264.376
  0
LINE
  8
0
 10
-55.3137
 20
264.376
 11
-55.7711
 21
265.014
  0
LINE
  8
0
 10
-55.7711
 20
265.014
 11
-56.2692
 21
265.621
  0
LINE
  8
0
 10
-56.2692
 20
265.621
 11
-56.806
 21
266.194
  0
LINE
  8
0
 10
-56.806
 20
266.194
 11
-57.3792
 21
266.731
  0
LINE
  8
0
 10
-57.3792
 20
266.731
 11
-57.9862
 21
267.229
  0
LINE
  8
0
 10
-57.9862
 20
267.229
 11
-58.6245
 21
267.687
  0
LINE
  8
0
 10
-58.6245
 20
267.687
 11
-59.2913
 21
268.101
  0
LINE
  8
0
 10
-59.2913
 20
268.101
 11
-59.9838
 21
268.472
  0
LINE
  8
0
 10
-59.9838
 20
268.472
 11
-60.6991
 21
268.796
  0
LINE
  8
0
 10
-60.6991
 20
268.796
 11
-61.434
 21
269.072
  0
LINE
  8
0
 10
-61.434
 20
269.072
 11
-62
 21
269.244
  0
LINE
  8
0
 10
-62
 20
269.244
 11
-62
 21
310.314
  0
LINE
  8
0
 10
-62
 20
310.314
 11
-23.0579
 21
307.171
  0
LINE
  8
0
 10
-23.0579
 20
307.171
 11
-22.2731
 21
307.146
  0
LINE
  8
0
 10
-22.2731
 20
307.146
 11
-21.4882
 21
307.171
  0
LINE
  8
0
 10
-21.4882
 20
307.171
 11
-20.7068
 21
307.248
  0
LINE
  8
0
 10
-20.7068
 20
307.248
 11
-19.932
 21
307.376
  0
LINE
  8
0
 10
-19.932
 20
307.376
 11
-19.1673
 21
307.554
  0
LINE
  8
0
 10
-19.1673
 20
307.554
 11
-18.4158
 21
307.782
  0
LINE
  8
0
 10
-18.4158
 20
307.782
 11
-17.6809
 21
308.059
  0
LINE
  8
0
 10
-17.6809
 20
308.059
 11
-16.9656
 21
308.383
  0
LINE
  8
0
 10
-16.9656
 20
308.383
 11
-16.2731
 21
308.753
  0
LINE
  8
0
 10
-16.2731
 20
308.753
 11
-15.6062
 21
309.168
  0
LINE
  8
0
 10
-15.6062
 20
309.168
 11
-14.9679
 21
309.625
  0
LINE
  8
0
 10
-14.9679
 20
309.625
 11
-14.3609
 21
310.123
  0
LINE
  8
0
 10
-14.3609
 20
310.123
 11
-13.7878
 21
310.66
  0
LINE
  8
0
 10
-13.7878
 20
310.66
 11
-13.251
 21
311.233
  0
LINE
  8
0
 10
-13.251
 20
311.233
 11
-12.7528
 21
311.84
  0
LINE
  8
0
 10
-12.7528
 20
311.84
 11
-12.2954
 21
312.479
  0
LINE
  8
0
 10
-12.2954
 20
312.479
 11
-11.8808
 21
313.146
  0
LINE
  8
0
 10
-11.8808
 20
313.146
 11
-11.5106
 21
313.838
  0
LINE
  8
0
 10
-11.5106
 20
313.838
 11
-11.1865
 21
314.553
  0
LINE
  8
0
 10
-11.1865
 20
314.553
 11
-10.9099
 21
315.288
  0
LINE
  8
0
 10
-10.9099
 20
315.288
 11
-10.682
 21
316.04
  0
LINE
  8
0
 10
-10.682
 20
316.04
 11
-10.5037
 21
316.804
  0
LINE
  8
0
 10
-10.5037
 20
316.804
 11
-10.3757
 21
317.579
  0
LINE
  8
0
 10
-10.3757
 20
317.579
 11
-10.2988
 21
318.361
  0
LINE
  8
0
 10
-10.2988
 20
318.361
 11
-10.2731
 21
319.146
  0
LINE
  8
0
 10
-10.2731
 20
319.146
 11
-10.2988
 21
319.93
  0
LINE
  8
0
 10
-10.2988
 20
319.93
 11
-10.3757
 21
320.712
  0
LINE
  8
0
 10
-10.3757
 20
320.712
 11
-10.5037
 21
321.487
  0
LINE
  8
0
 10
-10.5037
 20
321.487
 11
-10.682
 21
322.251
  0
LINE
  8
0
 10
-10.682
 20
322.251
 11
-10.9099
 21
323.003
  0
LINE
  8
0
 10
-10.9099
 20
323.003
 11
-11.1865
 21
323.738
  0
LINE
  8
0
 10
-11.1865
 20
323.738
 11
-11.5106
 21
324.453
  0
LINE
  8
0
 10
-11.5106
 20
324.453
 11
-11.8808
 21
325.146
  0
LINE
  8
0
 10
-11.8808
 20
325.146
 11
-12.2954
 21
325.812
  0
LINE
  8
0
 10
-12.2954
 20
325.812
 11
-12.7528
 21
326.451
  0
LINE
  8
0
 10
-12.7528
 20
326.451
 11
-13.251
 21
327.058
  0
LINE
  8
0
 10
-13.251
 20
327.058
 11
-13.7878
 21
327.631
  0
LINE
  8
0
 10
-13.7878
 20
327.631
 11
-14.3609
 21
328.168
  0
LINE
  8
0
 10
-14.3609
 20
328.168
 11
-14.9679
 21
328.666
  0
LINE
  8
0
 10
-14.9679
 20
328.666
 11
-15.6062
 21
329.123
  0
LINE
  8
0
 10
-15.6062
 20
329.123
 11
-16.2731
 21
329.538
  0
LINE
  8
0
 10
-16.2731
 20
329.538
 11
-16.9656
 21
329.908
  0
LINE
  8
0
 10
-16.9656
 20
329.908
 11
-17.6809
 21
330.232
  0
LINE
  8
0
 10
-17.6809
 20
330.232
 11
-18.4158
 21
330.509
  0
LINE
  8
0
 10
-18.4158
 20
330.509
 11
-19.1673
 21
330.737
  0
LINE
  8
0
 10
-19.1673
 20
330.737
 11
-19.932
 21
330.915
  0
LINE
  8
0
 10
-19.932
 20
330.915
 11
-20.7068
 21
331.043
  0
LINE
  8
0
 10
-20.7068
 20
331.043
 11
-21.4882
 21
331.12
  0
LINE
  8
0
 10
-21.4882
 20
331.12
 11
-22.2731
 21
331.146
  0
LINE
  8
0
 10
-22.2731
 20
331.146
 11
-23.0579
 21
331.12
  0
LINE
  8
0
 10
-23.0579
 20
331.12
 11
-62
 21
327.978
  0
LINE
  8
0
 10
-62
 20
327.978
 11
-62
 21
355
  0
LINE
  8
0
 10
-62
 20
355
 11
62
 21
355
  0
LINE
  8
0
 10
62
 20
355
 11
62
 21
190
  0
LINE
  8
0
 10
62
 20
190
 11
-62
 21
190
  0
LINE
  8
0
 10
-22.4856
 20
315.903
 11
-22.6973
 21
315.923
  0
LINE
  8
0
 10
-22.6973
 20
315.923
 11
-22.9071
 21
315.958
  0
LINE
  8
0
 10
-22.9071
 20
315.958
 11
-23.1142
 21
316.006
  0
LINE
  8
0
 10
-23.1142
 20
316.006
 11
-23.3178
 21
316.068
  0
LINE
  8
0
 10
-23.3178
 20
316.068
 11
-23.5168
 21
316.143
  0
LINE
  8
0
 10
-23.5168
 20
316.143
 11
-23.7105
 21
316.231
  0
LINE
  8
0
 10
-23.7105
 20
316.231
 11
-23.8981
 21
316.331
  0
LINE
  8
0
 10
-23.8981
 20
316.331
 11
-24.0787
 21
316.443
  0
LINE
  8
0
 10
-24.0787
 20
316.443
 11
-24.2516
 21
316.567
  0
LINE
  8
0
 10
-24.2516
 20
316.567
 11
-24.416
 21
316.702
  0
LINE
  8
0
 10
-24.416
 20
316.702
 11
-24.5712
 21
316.847
  0
LINE
  8
0
 10
-24.5712
 20
316.847
 11
-24.7166
 21
317.003
  0
LINE
  8
0
 10
-24.7166
 20
317.003
 11
-24.8515
 21
317.167
  0
LINE
  8
0
 10
-24.8515
 20
317.167
 11
-24.9754
 21
317.34
  0
LINE
  8
0
 10
-24.9754
 20
317.34
 11
-25.0877
 21
317.521
  0
LINE
  8
0
 10
-25.0877
 20
317.521
 11
-25.1879
 21
317.708
  0
LINE
  8
0
 10
-25.1879
 20
317.708
 11
-25.2757
 21
317.902
  0
LINE
  8
0
 10
-25.2757
 20
317.902
 11
-25.3506
 21
318.101
  0
LINE
  8
0
 10
-25.3506
 20
318.101
 11
-25.4123
 21
318.304
  0
LINE
  8
0
 10
-25.4123
 20
318.304
 11
-25.4606
 21
318.512
  0
LINE
  8
0
 10
-25.4606
 20
318.512
 11
-25.4953
 21
318.721
  0
LINE
  8
0
 10
-25.4953
 20
318.721
 11
-25.5161
 21
318.933
  0
LINE
  8
0
 10
-25.5161
 20
318.933
 11
-25.5231
 21
319.146
  0
LINE
  8
0
 10
-25.5231
 20
319.146
 11
-25.5161
 21
319.358
  0
LINE
  8
0
 10
-25.5161
 20
319.358
 11
-25.4953
 21
319.57
  0
LINE
  8
0
 10
-25.4953
 20
319.57
 11
-25.4606
 21
319.78
  0
LINE
  8
0
 10
-25.4606
 20
319.78
 11
-25.4123
 21
319.987
  0
LINE
  8
0
 10
-25.4123
 20
319.987
 11
-25.3506
 21
320.19
  0
LINE
  8
0
 10
-25.3506
 20
320.19
 11
-25.2757
 21
320.389
  0
LINE
  8
0
 10
-25.2757
 20
320.389
 11
-25.1879
 21
320.583
  0
LINE
  8
0
 10
-25.1879
 20
320.583
 11
-25.0877
 21
320.771
  0
LINE
  8
0
 10
-25.0877
 20
320.771
 11
-24.9754
 21
320.951
  0
LINE
  8
0
 10
-24.9754
 20
320.951
 11
-24.8515
 21
321.124
  0
LINE
  8
0
 10
-24.8515
 20
321.124
 11
-24.7166
 21
321.288
  0
LINE
  8
0
 10
-24.7166
 20
321.288
 11
-24.5712
 21
321.444
  0
LINE
  8
0
 10
-24.5712
 20
321.444
 11
-24.416
 21
321.589
  0
LINE
  8
0
 10
-24.416
 20
321.589
 11
-24.2516
 21
321.724
  0
LINE
  8
0
 10
-24.2516
 20
321.724
 11
-24.0787
 21
321.848
  0
LINE
  8
0
 10
-24.0787
 20
321.848
 11
-23.8981
 21
321.96
  0
LINE
  8
0
 10
-23.8981
 20
321.96
 11
-23.7105
 21
322.06
  0
LINE
  8
0
 10
-23.7105
 20
322.06
 11
-23.5168
 21
322.148
  0
LINE
  8
0
 10
-23.5168
 20
322.148
 11
-23.3178
 21
322.223
  0
LINE
  8
0
 10
-23.3178
 20
322.223
 11
-23.1142
 21
322.285
  0
LINE
  8
0
 10
-23.1142
 20
322.285
 11
-22.9071
 21
322.333
  0
LINE
  8
0
 10
-22.9071
 20
322.333
 11
-22.6973
 21
322.368
  0
LINE
  8
0
 10
-22.6973
 20
322.368
 11
-22.4856
 21
322.389
  0
LINE
  8
0
 10
-22.4856
 20
322.389
 11
-22.2731
 21
322.396
  0
LINE
  8
0
 10
-22.2731
 20
322.396
 11
-22.0605
 21
322.389
  0
LINE
  8
0
 10
-22.0605
 20
322.389
 11
-21.8489
 21
322.368
  0
LINE
  8
0
 10
-21.8489
 20
322.368
 11
-21.639
 21
322.333
  0
LINE
  8
0
 10
-21.639
 20
322.333
 11
-21.4319
 21
322.285
  0
LINE
  8
0
 10
-21.4319
 20
322.285
 11
-21.2284
 21
322.223
  0
LINE
  8
0
 10
-21.2284
 20
322.223
 11
-21.0294
 21
322.148
  0
LINE
  8
0
 10
-21.0294
 20
322.148
 11
-20.8356
 21
322.06
  0
LINE
  8
0
 10
-20.8356
 20
322.06
 11
-20.6481
 21
321.96
  0
LINE
  8
0
 10
-20.6481
 20
321.96
 11
-20.4675
 21
321.848
  0
LINE
  8
0
 10
-20.4675
 20
321.848
 11
-20.2946
 21
321.724
  0
LINE
  8
0
 10
-20.2946
 20
321.724
 11
-20.1302
 21
321.589
  0
LINE
  8
0
 10
-20.1302
 20
321.589
 11
-19.975
 21
321.444
  0
LINE
  8
0
 10
-19.975
 20
321.444
 11
-19.8296
 21
321.288
  0
LINE
  8
0
 10
-19.8296
 20
321.288
 11
-19.6947
 21
321.124
  0
LINE
  8
0
 10
-19.6947
 20
321.124
 11
-19.5708
 21
320.951
  0
LINE
  8
0
 10
-19.5708
 20
320.951
 11
-19.4585
 21
320.771
  0
LINE
  8
0
 10
-19.4585
 20
320.771
 11
-19.3582
 21
320.583
  0
LINE
  8
0
 10
-19.3582
 20
320.583
 11
-19.2705
 21
320.389
  0
LINE
  8
0
 10
-19.2705
 20
320.389
 11
-19.1956
 21
320.19
  0
LINE
  8
0
 10
-19.1956
 20
320.19
 11
-19.1338
 21
319.987
  0
LINE
  8
0
 10
-19.1338
 20
319.987
 11
-19.0855
 21
319.78
  0
LINE
  8
0
 10
-19.0855
 20
319.78
 11
-19.0509
 21
319.57
  0
LINE
  8
0
 10
-19.0509
 20
319.57
 11
-19.03
 21
319.358
  0
LINE
  8
0
 10
-19.03
 20
319.358
 11
-19.0231
 21
319.146
  0
LINE
  8
0
 10
-19.0231
 20
319.146
 11
-19.03
 21
318.933
  0
LINE
  8
0
 10
-19.03
 20
318.933
 11
-19.0509
 21
318.721
  0
LINE
  8
0
 10
-19.0509
 20
318.721
 11
-19.0855
 21
318.512
  0
LINE
  8
0
 10
-19.0855
 20
318.512
 11
-19.1338
 21
318.304
  0
LINE
  8
0
 10
-19.1338
 20
318.304
 11
-19.1956
 21
318.101
  0
LINE
  8
0
 10
-19.1956
 20
318.101
 11
-19.2705
 21
317.902
  0
LINE
  8
0
 10
-19.2705
 20
317.902
 11
-19.3582
 21
317.708
  0
LINE
  8
0
 10
-19.3582
 20
317.708
 11
-19.4585
 21
317.521
  0
LINE
  8
0
 10
-19.4585
 20
317.521
 11
-19.5708
 21
317.34
  0
LINE
  8
0
 10
-19.5708
 20
317.34
 11
-19.6947
 21
317.167
  0
LINE
  8
0
 10
-19.6947
 20
317.167
 11
-19.8296
 21
317.003
  0
LINE
  8
0
 10
-19.8296
 20
317.003
 11
-19.975
 21
316.847
  0
LINE
  8
0
 10
-19.975
 20
316.847
 11
-20.1302
 21
316.702
  0
LINE
  8
0
 10
-20.1302
 20
316.702
 11
-20.2946
 21
316.567
  0
LINE
  8
0
 10
-20.2946
 20
316.567
 11
-20.4675
 21
316.443
  0
LINE
  8
0
 10
-20.4675
 20
316.443
 11
-20.6481
 21
316.331
  0
LINE
  8
0
 10
-20.6481
 20
316.331
 11
-20.8356
 21
316.231
  0
LINE
  8
0
 10
-20.8356
 20
316.231
 11
-21.0294
 21
316.143
  0
LINE
  8
0
 10
-21.0294
 20
316.143
 11
-21.2284
 21
316.068
  0
LINE
  8
0
 10
-21.2284
 20
316.068
 11
-21.4319
 21
316.006
  0
LINE
  8
0
 10
-21.4319
 20
316.006
 11
-21.639
 21
315.958
  0
LINE
  8
0
 10
-21.639
 20
315.958
 11
-21.8489
 21
315.923
  0
LINE
  8
0
 10
-21.8489
 20
315.923
 11
-22.0605
 21
315.903
  0
LINE
  8
0
 10
-22.0605
 20
315.903
 11
-22.2731
 21
315.896
  0
LINE
  8
0
 10
-22.2731
 20
315.896
 11
-22.4856
 21
315.903
  0
LINE
  8
0
 10
-70.1472
 20
272.755
 11
-70.2937
 21
272.769
  0
LINE
  8
0
 10
-70.2937
 20
272.769
 11
-70.4389
 21
272.793
  0
LINE
  8
0
 10
-70.4389
 20
272.793
 11
-70.5823
 21
272.827
  0
LINE
  8
0
 10
-70.5823
 20
272.827
 11
-70.7232
 21
272.869
  0
LINE
  8
0
 10
-70.7232
 20
272.869
 11
-70.861
 21
272.921
  0
LINE
  8
0
 10
-70.861
 20
272.921
 11
-70.9951
 21
272.982
  0
LINE
  8
0
 10
-70.9951
 20
272.982
 11
-71.125
 21
273.051
  0
LINE
  8
0
 10
-71.125
 20
273.051
 11
-71.25
 21
273.129
  0
LINE
  8
0
 10
-71.25
 20
273.129
 11
-71.3697
 21
273.215
  0
LINE
  8
0
 10
-71.3697
 20
273.215
 11
-71.4835
 21
273.308
  0
LINE
  8
0
 10
-71.4835
 20
273.308
 11
-71.591
 21
273.409
  0
LINE
  8
0
 10
-71.591
 20
273.409
 11
-71.6916
 21
273.516
  0
LINE
  8
0
 10
-71.6916
 20
273.516
 11
-71.785
 21
273.63
  0
LINE
  8
0
 10
-71.785
 20
273.63
 11
-71.8708
 21
273.75
  0
LINE
  8
0
 10
-71.8708
 20
273.75
 11
-71.9485
 21
273.875
  0
LINE
  8
0
 10
-71.9485
 20
273.875
 11
-72.018
 21
274.005
  0
LINE
  8
0
 10
-72.018
 20
274.005
 11
-72.0787
 21
274.139
  0
LINE
  8
0
 10
-72.0787
 20
274.139
 11
-72.1306
 21
274.277
  0
LINE
  8
0
 10
-72.1306
 20
274.277
 11
-72.1733
 21
274.418
  0
LINE
  8
0
 10
-72.1733
 20
274.418
 11
-72.2068
 21
274.561
  0
LINE
  8
0
 10
-72.2068
 20
274.561
 11
-72.2307
 21
274.706
  0
LINE
  8
0
 10
-72.2307
 20
274.706
 11
-72.2452
 21
274.853
  0
LINE
  8
0
 10
-72.2452
 20
274.853
 11
-72.25
 21
275
  0
LINE
  8
0
 10
-72.25
 20
275
 11
-72.2452
 21
275.147
  0
LINE
  8
0
 10
-72.2452
 20
275.147
 11
-72.2307
 21
275.294
  0
LINE
  8
0
 10
-72.2307
 20
275.294
 11
-72.2068
 21
275.439
  0
LINE
  8
0
 10
-72.2068
 20
275.439
 11
-72.1733
 21
275.582
  0
LINE
  8
0
 10
-72.1733
 20
275.582
 11
-72.1306
 21
275.723
  0
LINE
  8
0
 10
-72.1306
 20
275.723
 11
-72.0787
 21
275.861
  0
LINE
  8
0
 10
-72.0787
 20
275.861
 11
-72.018
 21
275.995
  0
LINE
  8
0
 10
-72.018
 20
275.995
 11
-71.9485
 21
276.125
  0
LINE
  8
0
 10
-71.9485
 20
276.125
 11
-71.8708
 21
276.25
  0
LINE
  8
0
 10
-71.8708
 20
276.25
 11
-71.785
 21
276.37
  0
LINE
  8
0
 10
-71.785
 20
276.37
 11
-71.6916
 21
276.484
  0
LINE
  8
0
 10
-71.6916
 20
276.484
 11
-71.591
 21
276.591
  0
LINE
  8
0
 10
-71.591
 20
276.591
 11
-71.4835
 21
276.692
  0
LINE
  8
0
 10
-71.4835
 20
276.692
 11
-71.3697
 21
276.785
  0
LINE
  8
0
 10
-71.3697
 20
276.785
 11
-71.25
 21
276.871
  0
LINE
  8
0
 10
-71.25
 20
276.871
 11
-71.125
 21
276.949
  0
LINE
  8
0
 10
-71.125
 20
276.949
 11
-70.9951
 21
277.018
  0
LINE
  8
0
 10
-70.9951
 20
277.018
 11
-70.861
 21
277.079
  0
LINE
  8
0
 10
-70.861
 20
277.079
 11
-70.7232
 21
277.131
  0
LINE
  8
0
 10
-70.7232
 20
277.131
 11
-70.5823
 21
277.173
  0
LINE
  8
0
 10
-70.5823
 20
277.173
 11
-70.4389
 21
277.207
  0
LINE
  8
0
 10
-70.4389
 20
277.207
 11
-70.2937
 21
277.231
  0
LINE
  8
0
 10
-70.2937
 20
277.231
 11
-70.1472
 21
277.245
  0
LINE
  8
0
 10
-70.1472
 20
277.245
 11
-70
 21
277.25
  0
LINE
  8
0
 10
-70
 20
277.25
 11
-69.8528
 21
277.245
  0
LINE
  8
0
 10
-69.8528
 20
277.245
 11
-69.7063
 21
277.231
  0
LINE
  8
0
 10
-69.7063
 20
277.231
 11
-69.561
 21
277.207
  0
LINE
  8
0
 10
-69.561
 20
277.207
 11
-69.4176
 21
277.173
  0
LINE
  8
0
 10
-69.4176
 20
277.173
 11
-69.2767
 21
277.131
  0
LINE
  8
0
 10
-69.2767
 20
277.131
 11
-69.139
 21
277.079
  0
LINE
  8
0
 10
-69.139
 20
277.079
 11
-69.0048
 21
277.018
  0
LINE
  8
0
 10
-69.0048
 20
277.018
 11
-68.875
 21
276.949
  0
LINE
  8
0
 10
-68.875
 20
276.949
 11
-68.75
 21
276.871
  0
LINE
  8
0
 10
-68.75
 20
276.871
 11
-68.6303
 21
276.785
  0
LINE
  8
0
 10
-68.6303
 20
276.785
 11
-68.5165
 21
276.692
  0
LINE
  8
0
 10
-68.5165
 20
276.692
 11
-68.409
 21
276.591
  0
LINE
  8
0
 10
-68.409
 20
276.591
 11
-68.3083
 21
276.484
  0
LINE
  8
0
 10
-68.3083
 20
276.484
 11
-68.215
 21
276.37
  0
LINE
  8
0
 10
-68.215
 20
276.37
 11
-68.1292
 21
276.25
  0
LINE
  8
0
 10
-68.1292
 20
276.25
 11
-68.0514
 21
276.125
  0
LINE
  8
0
 10
-68.0514
 20
276.125
 11
-67.982
 21
275.995
  0
LINE
  8
0
 10
-67.982
 20
275.995
 11
-67.9213
 21
275.861
  0
LINE
  8
0
 10
-67.9213
 20
275.861
 11
-67.8694
 21
275.723
  0
LINE
  8
0
 10
-67.8694
 20
275.723
 11
-67.8267
 21
275.582
  0
LINE
  8
0
 10
-67.8267
 20
275.582
 11
-67.7932
 21
275.439
  0
LINE
  8
0
 10
-67.7932
 20
275.439
 11
-67.7692
 21
275.294
  0
LINE
  8
0
 10
-67.7692
 20
275.294
 11
-67.7548
 21
275.147
  0
LINE
  8
0
 10
-67.7548
 20
275.147
 11
-67.75
 21
275
  0
LINE
  8
0
 10
-67.75
 20
275
 11
-67.7548
 21
274.853
  0
LINE
  8
0
 10
-67.7548
 20
274.853
 11
-67.7692
 21
274.706
  0
LINE
  8
0
 10
-67.7692
 20
274.706
 11
-67.7932
 21
274.561
  0
LINE
  8
0
 10
-67.7932
 20
274.561
 11
-67.8267
 21
274.418
  0
LINE
  8
0
 10
-67.8267
 20
274.418
 11
-67.8694
 21
274.277
  0
LINE
  8
0
 10
-67.8694
 20
274.277
 11
-67.9213
 21
274.139
  0
LINE
  8
0
 10
-67.9213
 20
274.139
 11
-67.982
 21
274.005
  0
LINE
  8
0
 10
-67.982
 20
274.005
 11
-68.0514
 21
273.875
  0
LINE
  8
0
 10
-68.0514
 20
273.875
 11
-68.1292
 21
273.75
  0
LINE
  8
0
 10
-68.1292
 20
273.75
 11
-68.215
 21
273.63
  0
LINE
  8
0
 10
-68.215
 20
273.63
 11
-68.3083
 21
273.516
  0
LINE
  8
0
 10
-68.3083
 20
273.516
 11
-68.409
 21
273.409
  0
LINE
  8
0
 10
-68.409
 20
273.409
 11
-68.5165
 21
273.308
  0
LINE
  8
0
 10
-68.5165
 20
273.308
 11
-68.6303
 21
273.215
  0
LINE
  8
0
 10
-68.6303
 20
273.215
 11
-68.75
 21
273.129
  0
LINE
  8
0
 10
-68.75
 20
273.129
 11
-68.875
 21
273.051
  0
LINE
  8
0
 10
-68.875
 20
273.051
 11
-69.0048
 21
272.982
  0
LINE
  8
0
 10
-69.0048
 20
272.982
 11
-69.139
 21
272.921
  0
LINE
  8
0
 10
-69.139
 20
272.921
 11
-69.2767
 21
272.869
  0
LINE
  8
0
 10
-69.2767
 20
272.869
 11
-69.4176
 21
272.827
  0
LINE
  8
0
 10
-69.4176
 20
272.827
 11
-69.561
 21
272.793
  0
LINE
  8
0
 10
-69.561
 20
272.793
 11
-69.7063
 21
272.769
  0
LINE
  8
0
 10
-69.7063
 20
272.769
 11
-69.8528
 21
272.755
  0
LINE
  8
0
 10
-69.8528
 20
272.755
 11
-70
 21
272.75
  0
LINE
  8
0
 10
-70
 20
272.75
 11
-70.1472
 21
272.755
  0
LINE
  8
0
 10
69.8528
 20
272.755
 11
69.7063
 21
272.769
  0
LINE
  8
0
 10
69.7063
 20
272.769
 11
69.561
 21
272.793
  0
LINE
  8
0
 10
69.561
 20
272.793
 11
69.4176
 21
272.827
  0
LINE
  8
0
 10
69.4176
 20
272.827
 11
69.2767
 21
272.869
  0
LINE
  8
0
 10
69.2767
 20
272.869
 11
69.139
 21
272.921
  0
LINE
  8
0
 10
69.139
 20
272.921
 11
69.0048
 21
272.982
  0
LINE
  8
0
 10
69.0048
 20
272.982
 11
68.875
 21
273.051
  0
LINE
  8
0
 10
68.875
 20
273.051
 11
68.75
 21
273.129
  0
LINE
  8
0
 10
68.75
 20
273.129
 11
68.6303
 21
273.215
  0
LINE
  8
0
 10
68.6303
 20
273.215
 11
68.5165
 21
273.308
  0
LINE
  8
0
 10
68.5165
 20
273.308
 11
68.409
 21
273.409
  0
LINE
  8
0
 10
68.409
 20
273.409
 11
68.3083
 21
273.516
  0
LINE
  8
0
 10
68.3083
 20
273.516
 11
68.215
 21
273.63
  0
LINE
  8
0
 10
68.215
 20
273.63
 11
68.1292
 21
273.75
  0
LINE
  8
0
 10
68.1292
 20
273.75
 11
68.0514
 21
273.875
  0
LINE
  8
0
 10
68.0514
 20
273.875
 11
67.982
 21
274.005
  0
LINE
  8
0
 10
67.982
 20
274.005
 11
67.9213
 21
274.139
  0
LINE
  8
0
 10
67.9213
 20
274.139
 11
67.8694
 21
274.277
  0
LINE
  8
0
 10
67.8694
 20
274.277
 11
67.8267
 21
274.418
  0
LINE
  8
0
 10
67.8267
 20
274.418
 11
67.7932
 21
274.561
  0
LINE
  8
0
 10
67.7932
 20
274.561
 11
67.7692
 21
274.706
  0
LINE
  8
0
 10
67.7692
 20
274.706
 11
67.7548
 21
274.853
  0
LINE
  8
0
 10
67.7548
 20
274.853
 11
67.75
 21
275
  0
LINE
  8
0
 10
67.75
 20
275
 11
67.7548
 21
275.147
  0
LINE
  8
0
 10
67.7548
 20
275.147
 11
67.7692
 21
275.294
  0
LINE
  8
0
 10
67.7692
 20
275.294
 11
67.7932
 21
275.439
  0
LINE
  8
0
 10
67.7932
 20
275.439
 11
67.8267
 21
275.582
  0
LINE
  8
0
 10
67.8267
 20
275.582
 11
67.8694
 21
275.723
  0
LINE
  8
0
 10
67.8694
 20
275.723
 11
67.9213
 21
275.861
  0
LINE
  8
0
 10
67.9213
 20
275.861
 11
67.982
 21
275.995
  0
LINE
  8
0
 10
67.982
 20
275.995
 11
68.0514
 21
276.125
  0
LINE
  8
0
 10
68.0514
 20
276.125
 11
68.1292
 21
276.25
  0
LINE
  8
0
 10
68.1292
 20
276.25
 11
68.215
 21
276.37
  0
LINE
  8
0
 10
68.215
 20
276.37
 11
68.3083
 21
276.484
  0
LINE
  8
0
 10
68.3083
 20
276.484
 11
68.409
 21
276.591
  0
LINE
  8
0
 10
68.409
 20
276.591
 11
68.5165
 21
276.692
  0
LINE
  8
0
 10
68.5165
 20
276.692
 11
68.6303
 21
276.785
  0
LINE
  8
0
 10
68.6303
 20
276.785
 11
68.75
 21
276.871
  0
LINE
  8
0
 10
68.75
 20
276.871
 11
68.875
 21
276.949
  0
LINE
  8
0
 10
68.875
 20
276.949
 11
69.0048
 21
277.018
  0
LINE
  8
0
 10
69.0048
 20
277.018
 11
69.139
 21
277.079
  0
LINE
  8
0
 10
69.139
 20
277.079
 11
69.2767
 21
277.131
  0
LINE
  8
0
 10
69.2767
 20
277.131
 11
69.4176
 21
277.173
  0
LINE
  8
0
 10
69.4176
 20
277.173
 11
69.561
 21
277.207
  0
LINE
  8
0
 10
69.561
 20
277.207
 11
69.7063
 21
277.231
  0
LINE
  8
0
 10
69.7063
 20
277.231
 11
69.8528
 21
277.245
  0
LINE
  8
0
 10
69.8528
 20
277.245
 11
70
 21
277.25
  0
LINE
  8
0
 10
70
 20
277.25
 11
70.1472
 21
277.245
  0
LINE
  8
0
 10
70.1472
 20
277.245
 11
70.2937
 21
277.231
  0
LINE
  8
0
 10
70.2937
 20
277.231
 11
70.4389
 21
277.207
  0
LINE
  8
0
 10
70.4389
 20
277.207
 11
70.5823
 21
277.173
  0
LINE
  8
0
 10
70.5823
 20
277.173
 11
70.7232
 21
277.131
  0
LINE
  8
0
 10
70.7232
 20
277.131
 11
70.861
 21
277.079
  0
LINE
  8
0
 10
70.861
 20
277.079
 11
70.9951
 21
277.018
  0
LINE
  8
0
 10
70.9951
 20
277.018
 11
71.125
 21
276.949
  0
LINE
  8
0
 10
71.125
 20
276.949
 11
71.25
 21
276.871
  0
LINE
  8
0
 10
71.25
 20
276.871
 11
71.3697
 21
276.785
  0
LINE
  8
0
 10
71.3697
 20
276.785
 11
71.4835
 21
276.692
  0
LINE
  8
0
 10
71.4835
 20
276.692
 11
71.591
 21
276.591
  0
LINE
  8
0
 10
71.591
 20
276.591
 11
71.6916
 21
276.484
  0
LINE
  8
0
 10
71.6916
 20
276.484
 11
71.785
 21
276.37
  0
LINE
  8
0
 10
71.785
 20
276.37
 11
71.8708
 21
276.25
  0
LINE
  8
0
 10
71.8708
 20
276.25
 11
71.9485
 21
276.125
  0
LINE
  8
0
 10
71.9485
 20
276.125
 11
72.018
 21
275.995
  0
LINE
  8
0
 10
72.018
 20
275.995
 11
72.0787
 21
275.861
  0
LINE
  8
0
 10
72.0787
 20
275.861
 11
72.1306
 21
275.723
  0
LINE
  8
0
 10
72.1306
 20
275.723
 11
72.1733
 21
275.582
  0
LINE
  8
0
 10
72.1733
 20
275.582
 11
72.2068
 21
275.439
  0
LINE
  8
0
 10
72.2068
 20
275.439
 11
72.2307
 21
275.294
  0
LINE
  8
0
 10
72.2307
 20
275.294
 11
72.2452
 21
275.147
  0
LINE
  8
0
 10
72.2452
 20
275.147
 11
72.25
 21
275
  0
LINE
  8
0
 10
72.25
 20
275
 11
72.2452
 21
274.853
  0
LINE
  8
0
 10
72.2452
 20
274.853
 11
72.2307
 21
274.706
  0
LINE
  8
0
 10
72.2307
 20
274.706
 11
72.2068
 21
274.561
  0
LINE
  8
0
 10
72.2068
 20
274.561
 11
72.1733
 21
274.418
  0
LINE
  8
0
 10
72.1733
 20
274.418
 11
72.1306
 21
274.277
  0
LINE
  8
0
 10
72.1306
 20
274.277
 11
72.0787
 21
274.139
  0
LINE
  8
0
 10
72.0787
 20
274.139
 11
72.018
 21
274.005
  0
LINE
  8
0
 10
72.018
 20
274.005
 11
71.9485
 21
273.875
  0
LINE
  8
0
 10
71.9485
 20
273.875
 11
71.8708
 21
273.75
  0
LINE
  8
0
 10
71.8708
 20
273.75
 11
71.785
 21
273.63
  0
LINE
  8
0
 10
71.785
 20
273.63
 11
71.6916
 21
273.516
  0
LINE
  8
0
 10
71.6916
 20
273.516
 11
71.591
 21
273.409
  0
LINE
  8
0
 10
71.591
 20
273.409
 11
71.4835
 21
273.308
  0
LINE
  8
0
 10
71.4835
 20
273.308
 11
71.3697
 21
273.215
  0
LINE
  8
0
 10
71.3697
 20
273.215
 11
71.25
 21
273.129
  0
LINE
  8
0
 10
71.25
 20
273.129
 11
71.125
 21
273.051
  0
LINE
  8
0
 10
71.125
 20
273.051
 11
70.9951
 21
272.982
  0
LINE
  8
0
 10
70.9951
 20
272.982
 11
70.861
 21
272.921
  0
LINE
  8
0
 10
70.861
 20
272.921
 11
70.7232
 21
272.869
  0
LINE
  8
0
 10
70.7232
 20
272.869
 11
70.5823
 21
272.827
  0
LINE
  8
0
 10
70.5823
 20
272.827
 11
70.4389
 21
272.793
  0
LINE
  8
0
 10
70.4389
 20
272.793
 11
70.2937
 21
272.769
  0
LINE
  8
0
 10
70.2937
 20
272.769
 11
70.1472
 21
272.755
  0
LINE
  8
0
 10
70.1472
 20
272.755
 11
70
 21
272.75
  0
LINE
  8
0
 10
70
 20
272.75
 11
69.8528
 21
272.755
  0
LINE
  8
0
 10
-65.5039
 20
254.466
 11
-65.7155
 21
254.487
  0
LINE
  8
0
 10
-65.7155
 20
254.487
 11
-65.9254
 21
254.522
  0
LINE
  8
0
 10
-65.9254
 20
254.522
 11
-66.1325
 21
254.57
  0
LINE
  8
0
 10
-66.1325
 20
254.57
 11
-66.336
 21
254.632
  0
LINE
  8
0
 10
-66.336
 20
254.632
 11
-66.535
 21
254.707
  0
LINE
  8
0
 10
-66.535
 20
254.707
 11
-66.7287
 21
254.794
  0
LINE
  8
0
 10
-66.7287
 20
254.794
 11
-66.9163
 21
254.895
  0
LINE
  8
0
 10
-66.9163
 20
254.895
 11
-67.0969
 21
255.007
  0
LINE
  8
0
 10
-67.0969
 20
255.007
 11
-67.2698
 21
255.131
  0
LINE
  8
0
 10
-67.2698
 20
255.131
 11
-67.4342
 21
255.266
  0
LINE
  8
0
 10
-67.4342
 20
255.266
 11
-67.5894
 21
255.411
  0
LINE
  8
0
 10
-67.5894
 20
255.411
 11
-67.7348
 21
255.566
  0
LINE
  8
0
 10
-67.7348
 20
255.566
 11
-67.8697
 21
255.731
  0
LINE
  8
0
 10
-67.8697
 20
255.731
 11
-67.9936
 21
255.904
  0
LINE
  8
0
 10
-67.9936
 20
255.904
 11
-68.1059
 21
256.084
  0
LINE
  8
0
 10
-68.1059
 20
256.084
 11
-68.2061
 21
256.272
  0
LINE
  8
0
 10
-68.2061
 20
256.272
 11
-68.2939
 21
256.465
  0
LINE
  8
0
 10
-68.2939
 20
256.465
 11
-68.3688
 21
256.664
  0
LINE
  8
0
 10
-68.3688
 20
256.664
 11
-68.4306
 21
256.868
  0
LINE
  8
0
 10
-68.4306
 20
256.868
 11
-68.4789
 21
257.075
  0
LINE
  8
0
 10
-68.4789
 20
257.075
 11
-68.5135
 21
257.285
  0
LINE
  8
0
 10
-68.5135
 20
257.285
 11
-68.5343
 21
257.497
  0
LINE
  8
0
 10
-68.5343
 20
257.497
 11
-68.5413
 21
257.709
  0
LINE
  8
0
 10
-68.5413
 20
257.709
 11
-68.5343
 21
257.922
  0
LINE
  8
0
 10
-68.5343
 20
257.922
 11
-68.5135
 21
258.133
  0
LINE
  8
0
 10
-68.5135
 20
258.133
 11
-68.4789
 21
258.343
  0
LINE
  8
0
 10
-68.4789
 20
258.343
 11
-68.4306
 21
258.55
  0
LINE
  8
0
 10
-68.4306
 20
258.55
 11
-68.3688
 21
258.754
  0
LINE
  8
0
 10
-68.3688
 20
258.754
 11
-68.2939
 21
258.953
  0
LINE
  8
0
 10
-68.2939
 20
258.953
 11
-68.2061
 21
259.147
  0
LINE
  8
0
 10
-68.2061
 20
259.147
 11
-68.1059
 21
259.334
  0
LINE
  8
0
 10
-68.1059
 20
259.334
 11
-67.9936
 21
259.515
  0
LINE
  8
0
 10
-67.9936
 20
259.515
 11
-67.8697
 21
259.688
  0
LINE
  8
0
 10
-67.8697
 20
259.688
 11
-67.7348
 21
259.852
  0
LINE
  8
0
 10
-67.7348
 20
259.852
 11
-67.5894
 21
260.007
  0
LINE
  8
0
 10
-67.5894
 20
260.007
 11
-67.4342
 21
260.153
  0
LINE
  8
0
 10
-67.4342
 20
260.153
 11
-67.2698
 21
260.288
  0
LINE
  8
0
 10
-67.2698
 20
260.288
 11
-67.0969
 21
260.411
  0
LINE
  8
0
 10
-67.0969
 20
260.411
 11
-66.9163
 21
260.524
  0
LINE
  8
0
 10
-66.9163
 20
260.524
 11
-66.7287
 21
260.624
  0
LINE
  8
0
 10
-66.7287
 20
260.624
 11
-66.535
 21
260.712
  0
LINE
  8
0
 10
-66.535
 20
260.712
 11
-66.336
 21
260.787
  0
LINE
  8
0
 10
-66.336
 20
260.787
 11
-66.1325
 21
260.848
  0
LINE
  8
0
 10
-66.1325
 20
260.848
 11
-65.9254
 21
260.897
  0
LINE
  8
0
 10
-65.9254
 20
260.897
 11
-65.7155
 21
260.931
  0
LINE
  8
0
 10
-65.7155
 20
260.931
 11
-65.5039
 21
260.952
  0
LINE
  8
0
 10
-65.5039
 20
260.952
 11
-65.2913
 21
260.959
  0
LINE
  8
0
 10
-65.2913
 20
260.959
 11
-65.0788
 21
260.952
  0
LINE
  8
0
 10
-65.0788
 20
260.952
 11
-64.8671
 21
260.931
  0
LINE
  8
0
 10
-64.8671
 20
260.931
 11
-64.6573
 21
260.897
  0
LINE
  8
0
 10
-64.6573
 20
260.897
 11
-64.4501
 21
260.848
  0
LINE
  8
0
 10
-64.4501
 20
260.848
 11
-64.2466
 21
260.787
  0
LINE
  8
0
 10
-64.2466
 20
260.787
 11
-64.0476
 21
260.712
  0
LINE
  8
0
 10
-64.0476
 20
260.712
 11
-63.8539
 21
260.624
  0
LINE
  8
0
 10
-63.8539
 20
260.624
 11
-63.6663
 21
260.524
  0
LINE
  8
0
 10
-63.6663
 20
260.524
 11
-63.4857
 21
260.411
  0
LINE
  8
0
 10
-63.4857
 20
260.411
 11
-63.3128
 21
260.288
  0
LINE
  8
0
 10
-63.3128
 20
260.288
 11
-63.1484
 21
260.153
  0
LINE
  8
0
 10
-63.1484
 20
260.153
 11
-62.9932
 21
260.007
  0
LINE
  8
0
 10
-62.9932
 20
260.007
 11
-62.8478
 21
259.852
  0
LINE
  8
0
 10
-62.8478
 20
259.852
 11
-62.7129
 21
259.688
  0
LINE
  8
0
 10
-62.7129
 20
259.688
 11
-62.589
 21
259.515
  0
LINE
  8
0
 10
-62.589
 20
259.515
 11
-62.4767
 21
259.334
  0
LINE
  8
0
 10
-62.4767
 20
259.334
 11
-62.3765
 21
259.147
  0
LINE
  8
0
 10
-62.3765
 20
259.147
 11
-62.2887
 21
258.953
  0
LINE
  8
0
 10
-62.2887
 20
258.953
 11
-62.2138
 21
258.754
  0
LINE
  8
0
 10
-62.2138
 20
258.754
 11
-62.1521
 21
258.55
  0
LINE
  8
0
 10
-62.1521
 20
258.55
 11
-62.1038
 21
258.343
  0
LINE
  8
0
 10
-62.1038
 20
258.343
 11
-62.0691
 21
258.133
  0
LINE
  8
0
 10
-62.0691
 20
258.133
 11
-62.0483
 21
257.922
  0
LINE
  8
0
 10
-62.0483
 20
257.922
 11
-62.0413
 21
257.709
  0
LINE
  8
0
 10
-62.0413
 20
257.709
 11
-62.0483
 21
257.497
  0
LINE
  8
0
 10
-62.0483
 20
257.497
 11
-62.0691
 21
257.285
  0
LINE
  8
0
 10
-62.0691
 20
257.285
 11
-62.1038
 21
257.075
  0
LINE
  8
0
 10
-62.1038
 20
257.075
 11
-62.1521
 21
256.868
  0
LINE
  8
0
 10
-62.1521
 20
256.868
 11
-62.2138
 21
256.664
  0
LINE
  8
0
 10
-62.2138
 20
256.664
 11
-62.2887
 21
256.465
  0
LINE
  8
0
 10
-62.2887
 20
256.465
 11
-62.3765
 21
256.272
  0
LINE
  8
0
 10
-62.3765
 20
256.272
 11
-62.4767
 21
256.084
  0
LINE
  8
0
 10
-62.4767
 20
256.084
 11
-62.589
 21
255.904
  0
LINE
  8
0
 10
-62.589
 20
255.904
 11
-62.7129
 21
255.731
  0
LINE
  8
0
 10
-62.7129
 20
255.731
 11
-62.8478
 21
255.566
  0
LINE
  8
0
 10
-62.8478
 20
255.566
 11
-62.9932
 21
255.411
  0
LINE
  8
0
 10
-62.9932
 20
255.411
 11
-63.1484
 21
255.266
  0
LINE
  8
0
 10
-63.1484
 20
255.266
 11
-63.3128
 21
255.131
  0
LINE
  8
0
 10
-63.3128
 20
255.131
 11
-63.4857
 21
255.007
  0
LINE
  8
0
 10
-63.4857
 20
255.007
 11
-63.6663
 21
254.895
  0
LINE
  8
0
 10
-63.6663
 20
254.895
 11
-63.8539
 21
254.794
  0
LINE
  8
0
 10
-63.8539
 20
254.794
 11
-64.0476
 21
254.707
  0
LINE
  8
0
 10
-64.0476
 20
254.707
 11
-64.2466
 21
254.632
  0
LINE
  8
0
 10
-64.2466
 20
254.632
 11
-64.4501
 21
254.57
  0
LINE
  8
0
 10
-64.4501
 20
254.57
 11
-64.6573
 21
254.522
  0
LINE
  8
0
 10
-64.6573
 20
254.522
 11
-64.8671
 21
254.487
  0
LINE
  8
0
 10
-64.8671
 20
254.487
 11
-65.0788
 21
254.466
  0
LINE
  8
0
 10
-65.0788
 20
254.466
 11
-65.2913
 21
254.459
  0
LINE
  8
0
 10
-65.2913
 20
254.459
 11
-65.5039
 21
254.466
  0
LINE
  8
0
 10
54.8528
 20
180.755
 11
54.7063
 21
180.769
  0
LINE
  8
0
 10
54.7063
 20
180.769
 11
54.561
 21
180.793
  0
LINE
  8
0
 10
54.561
 20
180.793
 11
54.4176
 21
180.827
  0
LINE
  8
0
 10
54.4176
 20
180.827
 11
54.2767
 21
180.869
  0
LINE
  8
0
 10
54.2767
 20
180.869
 11
54.139
 21
180.921
  0
LINE
  8
0
 10
54.139
 20
180.921
 11
54.0048
 21
180.982
  0
LINE
  8
0
 10
54.0048
 20
180.982
 11
53.875
 21
181.051
  0
LINE
  8
0
 10
53.875
 20
181.051
 11
53.75
 21
181.129
  0
LINE
  8
0
 10
53.75
 20
181.129
 11
53.6303
 21
181.215
  0
LINE
  8
0
 10
53.6303
 20
181.215
 11
53.5165
 21
181.308
  0
LINE
  8
0
 10
53.5165
 20
181.308
 11
53.409
 21
181.409
  0
LINE
  8
0
 10
53.409
 20
181.409
 11
53.3083
 21
181.516
  0
LINE
  8
0
 10
53.3083
 20
181.516
 11
53.215
 21
181.63
  0
LINE
  8
0
 10
53.215
 20
181.63
 11
53.1292
 21
181.75
  0
LINE
  8
0
 10
53.1292
 20
181.75
 11
53.0514
 21
181.875
  0
LINE
  8
0
 10
53.0514
 20
181.875
 11
52.982
 21
182.005
  0
LINE
  8
0
 10
52.982
 20
182.005
 11
52.9213
 21
182.139
  0
LINE
  8
0
 10
52.9213
 20
182.139
 11
52.8694
 21
182.277
  0
LINE
  8
0
 10
52.8694
 20
182.277
 11
52.8267
 21
182.418
  0
LINE
  8
0
 10
52.8267
 20
182.418
 11
52.7932
 21
182.561
  0
LINE
  8
0
 10
52.7932
 20
182.561
 11
52.7692
 21
182.706
  0
LINE
  8
0
 10
52.7692
 20
182.706
 11
52.7548
 21
182.853
  0
LINE
  8
0
 10
52.7548
 20
182.853
 11
52.75
 21
183
  0
LINE
  8
0
 10
52.75
 20
183
 11
52.7548
 21
183.147
  0
LINE
  8
0
 10
52.7548
 20
183.147
 11
52.7692
 21
183.294
  0
LINE
  8
0
 10
52.7692
 20
183.294
 11
52.7932
 21
183.439
  0
LINE
  8
0
 10
52.7932
 20
183.439
 11
52.8267
 21
183.582
  0
LINE
  8
0
 10
52.8267
 20
183.582
 11
52.8694
 21
183.723
  0
LINE
  8
0
 10
52.8694
 20
183.723
 11
52.9213
 21
183.861
  0
LINE
  8
0
 10
52.9213
 20
183.861
 11
52.982
 21
183.995
  0
LINE
  8
0
 10
52.982
 20
183.995
 11
53.0514
 21
184.125
  0
LINE
  8
0
 10
53.0514
 20
184.125
 11
53.1292
 21
184.25
  0
LINE
  8
0
 10
53.1292
 20
184.25
 11
53.215
 21
184.37
  0
LINE
  8
0
 10
53.215
 20
184.37
 11
53.3083
 21
184.484
  0
LINE
  8
0
 10
53.3083
 20
184.484
 11
53.409
 21
184.591
  0
LINE
  8
0
 10
53.409
 20
184.591
 11
53.5165
 21
184.692
  0
LINE
  8
0
 10
53.5165
 20
184.692
 11
53.6303
 21
184.785
  0
LINE
  8
0
 10
53.6303
 20
184.785
 11
53.75
 21
184.871
  0
LINE
  8
0
 10
53.75
 20
184.871
 11
53.875
 21
184.949
  0
LINE
  8
0
 10
53.875
 20
184.949
 11
54.0048
 21
185.018
  0
LINE
  8
0
 10
54.0048
 20
185.018
 11
54.139
 21
185.079
  0
LINE
  8
0
 10
54.139
 20
185.079
 11
54.2767
 21
185.131
  0
LINE
  8
0
 10
54.2767
 20
185.131
 11
54.4176
 21
185.173
  0
LINE
  8
0
 10
54.4176
 20
185.173
 11
54.561
 21
185.207
  0
LINE
  8
0
 10
54.561
 20
185.207
 11
54.7063
 21
185.231
  0
LINE
  8
0
 10
54.7063
 20
185.231
 11
54.8528
 21
185.245
  0
LINE
  8
0
 10
54.8528
 20
185.245
 11
55
 21
185.25
  0
LINE
  8
0
 10
55
 20
185.25
 11
55.1472
 21
185.245
  0
LINE
  8
0
 10
55.1472
 20
185.245
 11
55.2937
 21
185.231
  0
LINE
  8
0
 10
55.2937
 20
185.231
 11
55.4389
 21
185.207
  0
LINE
  8
0
 10
55.4389
 20
185.207
 11
55.5823
 21
185.173
  0
LINE
  8
0
 10
55.5823
 20
185.173
 11
55.7232
 21
185.131
  0
LINE
  8
0
 10
55.7232
 20
185.131
 11
55.861
 21
185.079
  0
LINE
  8
0
 10
55.861
 20
185.079
 11
55.9951
 21
185.018
  0
LINE
  8
0
 10
55.9951
 20
185.018
 11
56.125
 21
184.949
  0
LINE
  8
0
 10
56.125
 20
184.949
 11
56.25
 21
184.871
  0
LINE
  8
0
 10
56.25
 20
184.871
 11
56.3697
 21
184.785
  0
LINE
  8
0
 10
56.3697
 20
184.785
 11
56.4835
 21
184.692
  0
LINE
  8
0
 10
56.4835
 20
184.692
 11
56.591
 21
184.591
  0
LINE
  8
0
 10
56.591
 20
184.591
 11
56.6916
 21
184.484
  0
LINE
  8
0
 10
56.6916
 20
184.484
 11
56.785
 21
184.37
  0
LINE
  8
0
 10
56.785
 20
184.37
 11
56.8708
 21
184.25
  0
LINE
  8
0
 10
56.8708
 20
184.25
 11
56.9485
 21
184.125
  0
LINE
  8
0
 10
56.9485
 20
184.125
 11
57.018
 21
183.995
  0
LINE
  8
0
 10
57.018
 20
183.995
 11
57.0787
 21
183.861
  0
LINE
  8
0
 10
57.0787
 20
183.861
 11
57.1306
 21
183.723
  0
LINE
  8
0
 10
57.1306
 20
183.723
 11
57.1733
 21
183.582
  0
LINE
  8
0
 10
57.1733
 20
183.582
 11
57.2068
 21
183.439
  0
LINE
  8
0
 10
57.2068
 20
183.439
 11
57.2307
 21
183.294
  0
LINE
  8
0
 10
57.2307
 20
183.294
 11
57.2452
 21
183.147
  0
LINE
  8
0
 10
57.2452
 20
183.147
 11
57.25
 21
183
  0
LINE
  8
0
 10
57.25
 20
183
 11
57.2452
 21
182.853
  0
LINE
  8
0
 10
57.2452
 20
182.853
 11
57.2307
 21
182.706
  0
LINE
  8
0
 10
57.2307
 20
182.706
 11
57.2068
 21
182.561
  0
LINE
  8
0
 10
57.2068
 20
182.561
 11
57.1733
 21
182.418
  0
LINE
  8
0
 10
57.1733
 20
182.418
 11
57.1306
 21
182.277
  0
LINE
  8
0
 10
57.1306
 20
182.277
 11
57.0787
 21
182.139
  0
LINE
  8
0
 10
57.0787
 20
182.139
 11
57.018
 21
182.005
  0
LINE
  8
0
 10
57.018
 20
182.005
 11
56.9485
 21
181.875
  0
LINE
  8
0
 10
56.9485
 20
181.875
 11
56.8708
 21
181.75
  0
LINE
  8
0
 10
56.8708
 20
181.75
 11
56.785
 21
181.63
  0
LINE
  8
0
 10
56.785
 20
181.63
 11
56.6916
 21
181.516
  0
LINE
  8
0
 10
56.6916
 20
181.516
 11
56.591
 21
181.409
  0
LINE
  8
0
 10
56.591
 20
181.409
 11
56.4835
 21
181.308
  0
LINE
  8
0
 10
56.4835
 20
181.308
 11
56.3697
 21
181.215
  0
LINE
  8
0
 10
56.3697
 20
181.215
 11
56.25
 21
181.129
  0
LINE
  8
0
 10
56.25
 20
181.129
 11
56.125
 21
181.051
  0
LINE
  8
0
 10
56.125
 20
181.051
 11
55.9951
 21
180.982
  0
LINE
  8
0
 10
55.9951
 20
180.982
 11
55.861
 21
180.921
  0
LINE
  8
0
 10
55.861
 20
180.921
 11
55.7232
 21
180.869
  0
LINE
  8
0
 10
55.7232
 20
180.869
 11
55.5823
 21
180.827
  0
LINE
  8
0
 10
55.5823
 20
180.827
 11
55.4389
 21
180.793
  0
LINE
  8
0
 10
55.4389
 20
180.793
 11
55.2937
 21
180.769
  0
LINE
  8
0
 10
55.2937
 20
180.769
 11
55.1472
 21
180.755
  0
LINE
  8
0
 10
55.1472
 20
180.755
 11
55
 21
180.75
  0
LINE
  8
0
 10
55
 20
180.75
 11
54.8528
 21
180.755
  0
LINE
  8
0
 10
-55.1472
 20
180.755
 11
-55.2937
 21
180.769
  0
LINE
  8
0
 10
-55.2937
 20
180.769
 11
-55.4389
 21
180.793
  0
LINE
  8
0
 10
-55.4389
 20
180.793
 11
-55.5823
 21
180.827
  0
LINE
  8
0
 10
-55.5823
 20
180.827
 11
-55.7232
 21
180.869
  0
LINE
  8
0
 10
-55.7232
 20
180.869
 11
-55.861
 21
180.921
  0
LINE
  8
0
 10
-55.861
 20
180.921
 11
-55.9951
 21
180.982
  0
LINE
  8
0
 10
-55.9951
 20
180.982
 11
-56.125
 21
181.051
  0
LINE
  8
0
 10
-56.125
 20
181.051
 11
-56.25
 21
181.129
  0
LINE
  8
0
 10
-56.25
 20
181.129
 11
-56.3697
 21
181.215
  0
LINE
  8
0
 10
-56.3697
 20
181.215
 11
-56.4835
 21
181.308
  0
LINE
  8
0
 10
-56.4835
 20
181.308
 11
-56.591
 21
181.409
  0
LINE
  8
0
 10
-56.591
 20
181.409
 11
-56.6916
 21
181.516
  0
LINE
  8
0
 10
-56.6916
 20
181.516
 11
-56.785
 21
181.63
  0
LINE
  8
0
 10
-56.785
 20
181.63
 11
-56.8708
 21
181.75
  0
LINE
  8
0
 10
-56.8708
 20
181.75
 11
-56.9485
 21
181.875
  0
LINE
  8
0
 10
-56.9485
 20
181.875
 11
-57.018
 21
182.005
  0
LINE
  8
0
 10
-57.018
 20
182.005
 11
-57.0787
 21
182.139
  0
LINE
  8
0
 10
-57.0787
 20
182.139
 11
-57.1306
 21
182.277
  0
LINE
  8
0
 10
-57.1306
 20
182.277
 11
-57.1733
 21
182.418
  0
LINE
  8
0
 10
-57.1733
 20
182.418
 11
-57.2068
 21
182.561
  0
LINE
  8
0
 10
-57.2068
 20
182.561
 11
-57.2307
 21
182.706
  0
LINE
  8
0
 10
-57.2307
 20
182.706
 11
-57.2452
 21
182.853
  0
LINE
  8
0
 10
-57.2452
 20
182.853
 11
-57.25
 21
183
  0
LINE
  8
0
 10
-57.25
 20
183
 11
-57.2452
 21
183.147
  0
LINE
  8
0
 10
-57.2452
 20
183.147
 11
-57.2307
 21
183.294
  0
LINE
  8
0
 10
-57.2307
 20
183.294
 11
-57.2068
 21
183.439
  0
LINE
  8
0
 10
-57.2068
 20
183.439
 11
-57.1733
 21
183.582
  0
LINE
  8
0
 10
-57.1733
 20
183.582
 11
-57.1306
 21
183.723
  0
LINE
  8
0
 10
-57.1306
 20
183.723
 11
-57.0787
 21
183.861
  0
LINE
  8
0
 10
-57.0787
 20
183.861
 11
-57.018
 21
183.995
  0
LINE
  8
0
 10
-57.018
 20
183.995
 11
-56.9485
 21
184.125
  0
LINE
  8
0
 10
-56.9485
 20
184.125
 11
-56.8708
 21
184.25
  0
LINE
  8
0
 10
-56.8708
 20
184.25
 11
-56.785
 21
184.37
  0
LINE
  8
0
 10
-56.785
 20
184.37
 11
-56.6916
 21
184.484
  0
LINE
  8
0
 10
-56.6916
 20
184.484
 11
-56.591
 21
184.591
  0
LINE
  8
0
 10
-56.591
 20
184.591
 11
-56.4835
 21
184.692
  0
LINE
  8
0
 10
-56.4835
 20
184.692
 11
-56.3697
 21
184.785
  0
LINE
  8
0
 10
-56.3697
 20
184.785
 11
-56.25
 21
184.871
  0
LINE
  8
0
 10
-56.25
 20
184.871
 11
-56.125
 21
184.949
  0
LINE
  8
0
 10
-56.125
 20
184.949
 11
-55.9951
 21
185.018
  0
LINE
  8
0
 10
-55.9951
 20
185.018
 11
-55.861
 21
185.079
  0
LINE
  8
0
 10
-55.861
 20
185.079
 11
-55.7232
 21
185.131
  0
LINE
  8
0
 10
-55.7232
 20
185.131
 11
-55.5823
 21
185.173
  0
LINE
  8
0
 10
-55.5823
 20
185.173
 11
-55.4389
 21
185.207
  0
LINE
  8
0
 10
-55.4389
 20
185.207
 11
-55.2937
 21
185.231
  0
LINE
  8
0
 10
-55.2937
 20
185.231
 11
-55.1472
 21
185.245
  0
LINE
  8
0
 10
-55.1472
 20
185.245
 11
-55
 21
185.25
  0
LINE
  8
0
 10
-55
 20
185.25
 11
-54.8528
 21
185.245
  0
LINE
  8
0
 10
-54.8528
 20
185.245
 11
-54.7063
 21
185.231
  0
LINE
  8
0
 10
-54.7063
 20
185.231
 11
-54.561
 21
185.207
  0
LINE
  8
0
 10
-54.561
 20
185.207
 11
-54.4176
 21
185.173
  0
LINE
  8
0
 10
-54.4176
 20
185.173
 11
-54.2767
 21
185.131
  0
LINE
  8
0
 10
-54.2767
 20
185.131
 11
-54.139
 21
185.079
  0
LINE
  8
0
 10
-54.139
 20
185.079
 11
-54.0048
 21
185.018
  0
LINE
  8
0
 10
-54.0048
 20
185.018
 11
-53.875
 21
184.949
  0
LINE
  8
0
 10
-53.875
 20
184.949
 11
-53.75
 21
184.871
  0
LINE
  8
0
 10
-53.75
 20
184.871
 11
-53.6303
 21
184.785
  0
LINE
  8
0
 10
-53.6303
 20
184.785
 11
-53.5165
 21
184.692
  0
LINE
  8
0
 10
-53.5165
 20
184.692
 11
-53.409
 21
184.591
  0
LINE
  8
0
 10
-53.409
 20
184.591
 11
-53.3083
 21
184.484
  0
LINE
  8
0
 10
-53.3083
 20
184.484
 11
-53.215
 21
184.37
  0
LINE
  8
0
 10
-53.215
 20
184.37
 11
-53.1292
 21
184.25
  0
LINE
  8
0
 10
-53.1292
 20
184.25
 11
-53.0514
 21
184.125
  0
LINE
  8
0
 10
-53.0514
 20
184.125
 11
-52.982
 21
183.995
  0
LINE
  8
0
 10
-52.982
 20
183.995
 11
-52.9213
 21
183.861
  0
LINE
  8
0
 10
-52.9213
 20
183.861
 11
-52.8694
 21
183.723
  0
LINE
  8
0
 10
-52.8694
 20
183.723
 11
-52.8267
 21
183.582
  0
LINE
  8
0
 10
-52.8267
 20
183.582
 11
-52.7932
 21
183.439
  0
LINE
  8
0
 10
-52.7932
 20
183.439
 11
-52.7692
 21
183.294
  0
LINE
  8
0
 10
-52.7692
 20
183.294
 11
-52.7548
 21
183.147
  0
LINE
  8
0
 10
-52.7548
 20
183.147
 11
-52.75
 21
183
  0
LINE
  8
0
 10
-52.75
 20
183
 11
-52.7548
 21
182.853
  0
LINE
  8
0
 10
-52.7548
 20
182.853
 11
-52.7692
 21
182.706
  0
LINE
  8
0
 10
-52.7692
 20
182.706
 11
-52.7932
 21
182.561
  0
LINE
  8
0
 10
-52.7932
 20
182.561
 11
-52.8267
 21
182.418
  0
LINE
  8
0
 10
-52.8267
 20
182.418
 11
-52.8694
 21
182.277
  0
LINE
  8
0
 10
-52.8694
 20
182.277
 11
-52.9213
 21
182.139
  0
LINE
  8
0
 10
-52.9213
 20
182.139
 11
-52.982
 21
182.005
  0
LINE
  8
0
 10
-52.982
 20
182.005
 11
-53.0514
 21
181.875
  0
LINE
  8
0
 10
-53.0514
 20
181.875
 11
-53.1292
 21
181.75
  0
LINE
  8
0
 10
-53.1292
 20
181.75
 11
-53.215
 21
181.63
  0
LINE
  8
0
 10
-53.215
 20
181.63
 11
-53.3083
 21
181.516
  0
LINE
  8
0
 10
-53.3083
 20
181.516
 11
-53.409
 21
181.409
  0
LINE
  8
0
 10
-53.409
 20
181.409
 11
-53.5165
 21
181.308
  0
LINE
  8
0
 10
-53.5165
 20
181.308
 11
-53.6303
 21
181.215
  0
LINE
  8
0
 10
-53.6303
 20
181.215
 11
-53.75
 21
181.129
  0
LINE
  8
0
 10
-53.75
 20
181.129
 11
-53.875
 21
181.051
  0
LINE
  8
0
 10
-53.875
 20
181.051
 11
-54.0048
 21
180.982
  0
LINE
  8
0
 10
-54.0048
 20
180.982
 11
-54.139
 21
180.921
  0
LINE
  8
0
 10
-54.139
 20
180.921
 11
-54.2767
 21
180.869
  0
LINE
  8
0
 10
-54.2767
 20
180.869
 11
-54.4176
 21
180.827
  0
LINE
  8
0
 10
-54.4176
 20
180.827
 11
-54.561
 21
180.793
  0
LINE
  8
0
 10
-54.561
 20
180.793
 11
-54.7063
 21
180.769
  0
LINE
  8
0
 10
-54.7063
 20
180.769
 11
-54.8528
 21
180.755
  0
LINE
  8
0
 10
-54.8528
 20
180.755
 11
-55
 21
180.75
  0
LINE
  8
0
 10
-55
 20
180.75
 11
-55.1472
 21
180.755
  0
ENDSEC
  0
SECTION
  2
OBJECTS
  0
DICTIONARY
  0
ENDSEC
  0
EOF
