  0
SECTION
  2
BLOCKS
  0
ENDSEC
  0
SECTION
  2
ENTITIES
  0
LINE
  8
0
 10
-22
 20
-4
 11
-8
 21
-4
  0
LINE
  8
0
 10
-8
 20
-4
 11
-8
 21
-96
  0
LINE
  8
0
 10
-8
 20
-96
 11
8
 21
-96
  0
LINE
  8
0
 10
8
 20
-96
 11
8
 21
-4
  0
LINE
  8
0
 10
8
 20
-4
 11
22
 21
-4
  0
LINE
  8
0
 10
22
 20
-4
 11
22
 21
4
  0
LINE
  8
0
 10
22
 20
4
 11
8
 21
4
  0
LINE
  8
0
 10
8
 20
4
 11
8
 21
55
  0
LINE
  8
0
 10
8
 20
55
 11
-8
 21
55
  0
LINE
  8
0
 10
-8
 20
55
 11
-8
 21
4
  0
LINE
  8
0
 10
-8
 20
4
 11
-22
 21
4
  0
LINE
  8
0
 10
-22
 20
4
 11
-22
 21
-4
  0
LINE
  8
0
 10
-7.6
 20
-81.25
 11
-7.6
 21
-76.75
  0
LINE
  8
0
 10
-7.6
 20
-76.75
 11
-4.4
 21
-76.75
  0
LINE
  8
0
 10
-4.4
 20
-76.75
 11
-4.4
 21
-81.25
  0
LINE
  8
0
 10
-4.4
 20
-81.25
 11
-7.6
 21
-81.25
  0
LINE
  8
0
 10
-7.6
 20
-54.25
 11
-7.6
 21
-49.75
  0
LINE
  8
0
 10
-7.6
 20
-49.75
 11
-4.4
 21
-49.75
  0
LINE
  8
0
 10
-4.4
 20
-49.75
 11
-4.4
 21
-54.25
  0
LINE
  8
0
 10
-4.4
 20
-54.25
 11
-7.6
 21
-54.25
  0
LINE
  8
0
 10
-7.6
 20
-7.25
 11
-7.6
 21
-4
  0
LINE
  8
0
 10
-7.6
 20
-4
 11
-4.4
 21
-4
  0
LINE
  8
0
 10
-4.4
 20
-4
 11
-4.4
 21
-7.25
  0
LINE
  8
0
 10
-4.4
 20
-7.25
 11
-7.6
 21
-7.25
  0
LINE
  8
0
 10
-7.6
 20
19.75
 11
-7.6
 21
24.25
  0
LINE
  8
0
 10
-7.6
 20
24.25
 11
-4.4
 21
24.25
  0
LINE
  8
0
 10
-4.4
 20
24.25
 11
-4.4
 21
19.75
  0
LINE
  8
0
 10
-4.4
 20
19.75
 11
-7.6
 21
19.75
  0
LINE
  8
0
 10
-1.7
 20
-90
 11
-1.66733
 21
-89.6683
  0
LINE
  8
0
 10
-1.66733
 20
-89.6683
 11
-1.57059
 21
-89.3494
  0
LINE
  8
0
 10
-1.57059
 20
-89.3494
 11
-1.4135
 21
-89.0555
  0
LINE
  8
0
 10
-1.4135
 20
-89.0555
 11
-1.20208
 21
-88.7979
  0
LINE
  8
0
 10
-1.20208
 20
-88.7979
 11
-0.944468
 21
-88.5865
  0
LINE
  8
0
 10
-0.944468
 20
-88.5865
 11
-0.650561
 21
-88.4294
  0
LINE
  8
0
 10
-0.650561
 20
-88.4294
 11
-0.331653
 21
-88.3327
  0
LINE
  8
0
 10
-0.331653
 20
-88.3327
 11
0
 21
-88.3
  0
LINE
  8
0
 10
0
 20
-88.3
 11
0.331653
 21
-88.3327
  0
LINE
  8
0
 10
0.331653
 20
-88.3327
 11
0.650561
 21
-88.4294
  0
LINE
  8
0
 10
0.650561
 20
-88.4294
 11
0.944468
 21
-88.5865
  0
LINE
  8
0
 10
0.944468
 20
-88.5865
 11
1.20208
 21
-88.7979
  0
LINE
  8
0
 10
1.20208
 20
-88.7979
 11
1.4135
 21
-89.0555
  0
LINE
  8
0
 10
1.4135
 20
-89.0555
 11
1.57059
 21
-89.3494
  0
LINE
  8
0
 10
1.57059
 20
-89.3494
 11
1.66733
 21
-89.6683
  0
LINE
  8
0
 10
1.66733
 20
-89.6683
 11
1.7
 21
-90
  0
LINE
  8
0
 10
1.7
 20
-90
 11
1.66733
 21
-90.3317
  0
LINE
  8
0
 10
1.66733
 20
-90.3317
 11
1.57059
 21
-90.6506
  0
LINE
  8
0
 10
1.57059
 20
-90.6506
 11
1.4135
 21
-90.9445
  0
LINE
  8
0
 10
1.4135
 20
-90.9445
 11
1.20208
 21
-91.2021
  0
LINE
  8
0
 10
1.20208
 20
-91.2021
 11
0.944468
 21
-91.4135
  0
LINE
  8
0
 10
0.944468
 20
-91.4135
 11
0.650561
 21
-91.5706
  0
LINE
  8
0
 10
0.650561
 20
-91.5706
 11
0.331653
 21
-91.6673
  0
LINE
  8
0
 10
0.331653
 20
-91.6673
 11
0
 21
-91.7
  0
LINE
  8
0
 10
0
 20
-91.7
 11
-0.331653
 21
-91.6673
  0
LINE
  8
0
 10
-0.331653
 20
-91.6673
 11
-0.650561
 21
-91.5706
  0
LINE
  8
0
 10
-0.650561
 20
-91.5706
 11
-0.944468
 21
-91.4135
  0
LINE
  8
0
 10
-0.944468
 20
-91.4135
 11
-1.20208
 21
-91.2021
  0
LINE
  8
0
 10
-1.20208
 20
-91.2021
 11
-1.4135
 21
-90.9445
  0
LINE
  8
0
 10
-1.4135
 20
-90.9445
 11
-1.57059
 21
-90.6506
  0
LINE
  8
0
 10
-1.57059
 20
-90.6506
 11
-1.66733
 21
-90.3317
  0
LINE
  8
0
 10
-1.66733
 20
-90.3317
 11
-1.7
 21
-90
  0
LINE
  8
0
 10
-1.7
 20
-23
 11
-1.66733
 21
-22.6683
  0
LINE
  8
0
 10
-1.66733
 20
-22.6683
 11
-1.57059
 21
-22.3494
  0
LINE
  8
0
 10
-1.57059
 20
-22.3494
 11
-1.4135
 21
-22.0555
  0
LINE
  8
0
 10
-1.4135
 20
-22.0555
 11
-1.20208
 21
-21.7979
  0
LINE
  8
0
 10
-1.20208
 20
-21.7979
 11
-0.944468
 21
-21.5865
  0
LINE
  8
0
 10
-0.944468
 20
-21.5865
 11
-0.650561
 21
-21.4294
  0
LINE
  8
0
 10
-0.650561
 20
-21.4294
 11
-0.331653
 21
-21.3327
  0
LINE
  8
0
 10
-0.331653
 20
-21.3327
 11
0
 21
-21.3
  0
LINE
  8
0
 10
0
 20
-21.3
 11
0.331653
 21
-21.3327
  0
LINE
  8
0
 10
0.331653
 20
-21.3327
 11
0.650561
 21
-21.4294
  0
LINE
  8
0
 10
0.650561
 20
-21.4294
 11
0.944468
 21
-21.5865
  0
LINE
  8
0
 10
0.944468
 20
-21.5865
 11
1.20208
 21
-21.7979
  0
LINE
  8
0
 10
1.20208
 20
-21.7979
 11
1.4135
 21
-22.0555
  0
LINE
  8
0
 10
1.4135
 20
-22.0555
 11
1.57059
 21
-22.3494
  0
LINE
  8
0
 10
1.57059
 20
-22.3494
 11
1.66733
 21
-22.6683
  0
LINE
  8
0
 10
1.66733
 20
-22.6683
 11
1.7
 21
-23
  0
LINE
  8
0
 10
1.7
 20
-23
 11
1.66733
 21
-23.3317
  0
LINE
  8
0
 10
1.66733
 20
-23.3317
 11
1.57059
 21
-23.6506
  0
LINE
  8
0
 10
1.57059
 20
-23.6506
 11
1.4135
 21
-23.9445
  0
LINE
  8
0
 10
1.4135
 20
-23.9445
 11
1.20208
 21
-24.2021
  0
LINE
  8
0
 10
1.20208
 20
-24.2021
 11
0.944468
 21
-24.4135
  0
LINE
  8
0
 10
0.944468
 20
-24.4135
 11
0.650561
 21
-24.5706
  0
LINE
  8
0
 10
0.650561
 20
-24.5706
 11
0.331653
 21
-24.6673
  0
LINE
  8
0
 10
0.331653
 20
-24.6673
 11
0
 21
-24.7
  0
LINE
  8
0
 10
0
 20
-24.7
 11
-0.331653
 21
-24.6673
  0
LINE
  8
0
 10
-0.331653
 20
-24.6673
 11
-0.650561
 21
-24.5706
  0
LINE
  8
0
 10
-0.650561
 20
-24.5706
 11
-0.944468
 21
-24.4135
  0
LINE
  8
0
 10
-0.944468
 20
-24.4135
 11
-1.20208
 21
-24.2021
  0
LINE
  8
0
 10
-1.20208
 20
-24.2021
 11
-1.4135
 21
-23.9445
  0
LINE
  8
0
 10
-1.4135
 20
-23.9445
 11
-1.57059
 21
-23.6506
  0
LINE
  8
0
 10
-1.57059
 20
-23.6506
 11
-1.66733
 21
-23.3317
  0
LINE
  8
0
 10
-1.66733
 20
-23.3317
 11
-1.7
 21
-23
  0
LINE
  8
0
 10
-1.7
 20
52
 11
-1.66733
 21
52.3317
  0
LINE
  8
0
 10
-1.66733
 20
52.3317
 11
-1.57059
 21
52.6506
  0
LINE
  8
0
 10
-1.57059
 20
52.6506
 11
-1.4135
 21
52.9445
  0
LINE
  8
0
 10
-1.4135
 20
52.9445
 11
-1.20208
 21
53.2021
  0
LINE
  8
0
 10
-1.20208
 20
53.2021
 11
-0.944468
 21
53.4135
  0
LINE
  8
0
 10
-0.944468
 20
53.4135
 11
-0.650561
 21
53.5706
  0
LINE
  8
0
 10
-0.650561
 20
53.5706
 11
-0.331653
 21
53.6673
  0
LINE
  8
0
 10
-0.331653
 20
53.6673
 11
0
 21
53.7
  0
LINE
  8
0
 10
0
 20
53.7
 11
0.331653
 21
53.6673
  0
LINE
  8
0
 10
0.331653
 20
53.6673
 11
0.650561
 21
53.5706
  0
LINE
  8
0
 10
0.650561
 20
53.5706
 11
0.944468
 21
53.4135
  0
LINE
  8
0
 10
0.944468
 20
53.4135
 11
1.20208
 21
53.2021
  0
LINE
  8
0
 10
1.20208
 20
53.2021
 11
1.4135
 21
52.9445
  0
LINE
  8
0
 10
1.4135
 20
52.9445
 11
1.57059
 21
52.6506
  0
LINE
  8
0
 10
1.57059
 20
52.6506
 11
1.66733
 21
52.3317
  0
LINE
  8
0
 10
1.66733
 20
52.3317
 11
1.7
 21
52
  0
LINE
  8
0
 10
1.7
 20
52
 11
1.66733
 21
51.6683
  0
LINE
  8
0
 10
1.66733
 20
51.6683
 11
1.57059
 21
51.3494
  0
LINE
  8
0
 10
1.57059
 20
51.3494
 11
1.4135
 21
51.0555
  0
LINE
  8
0
 10
1.4135
 20
51.0555
 11
1.20208
 21
50.7979
  0
LINE
  8
0
 10
1.20208
 20
50.7979
 11
0.944468
 21
50.5865
  0
LINE
  8
0
 10
0.944468
 20
50.5865
 11
0.650561
 21
50.4294
  0
LINE
  8
0
 10
0.650561
 20
50.4294
 11
0.331653
 21
50.3327
  0
LINE
  8
0
 10
0.331653
 20
50.3327
 11
0
 21
50.3
  0
LINE
  8
0
 10
0
 20
50.3
 11
-0.331653
 21
50.3327
  0
LINE
  8
0
 10
-0.331653
 20
50.3327
 11
-0.650561
 21
50.4294
  0
LINE
  8
0
 10
-0.650561
 20
50.4294
 11
-0.944468
 21
50.5865
  0
LINE
  8
0
 10
-0.944468
 20
50.5865
 11
-1.20208
 21
50.7979
  0
LINE
  8
0
 10
-1.20208
 20
50.7979
 11
-1.4135
 21
51.0555
  0
LINE
  8
0
 10
-1.4135
 20
51.0555
 11
-1.57059
 21
51.3494
  0
LINE
  8
0
 10
-1.57059
 20
51.3494
 11
-1.66733
 21
51.6683
  0
LINE
  8
0
 10
-1.66733
 20
51.6683
 11
-1.7
 21
52
  0
LINE
  8
0
 10
4.4
 20
-81.25
 11
4.4
 21
-76.75
  0
LINE
  8
0
 10
4.4
 20
-76.75
 11
7.6
 21
-76.75
  0
LINE
  8
0
 10
7.6
 20
-76.75
 11
7.6
 21
-81.25
  0
LINE
  8
0
 10
7.6
 20
-81.25
 11
4.4
 21
-81.25
  0
LINE
  8
0
 10
4.4
 20
-54.25
 11
4.4
 21
-49.75
  0
LINE
  8
0
 10
4.4
 20
-49.75
 11
7.6
 21
-49.75
  0
LINE
  8
0
 10
7.6
 20
-49.75
 11
7.6
 21
-54.25
  0
LINE
  8
0
 10
7.6
 20
-54.25
 11
4.4
 21
-54.25
  0
LINE
  8
0
 10
4.4
 20
-7.25
 11
4.4
 21
-4
  0
LINE
  8
0
 10
4.4
 20
-4
 11
7.6
 21
-4
  0
LINE
  8
0
 10
7.6
 20
-4
 11
7.6
 21
-7.25
  0
LINE
  8
0
 10
7.6
 20
-7.25
 11
4.4
 21
-7.25
  0
LINE
  8
0
 10
4.4
 20
19.75
 11
4.4
 21
24.25
  0
LINE
  8
0
 10
4.4
 20
24.25
 11
7.6
 21
24.25
  0
LINE
  8
0
 10
7.6
 20
24.25
 11
7.6
 21
19.75
  0
LINE
  8
0
 10
7.6
 20
19.75
 11
4.4
 21
19.75
  0
ENDSEC
  0
SECTION
  2
OBJECTS
  0
DICTIONARY
  0
ENDSEC
  0
EOF
